  0
SECTION
  2
HEADER
  9
$ACADVER
  1
AC1015
  9
$ACADMAINTVER
 70
     6
  9
$DWGCODEPAGE
  3
ANSI_1252
  9
$INSBASE
 10
0.0
 20
0.0
 30
0.0
  9
$EXTMIN
 10
-2.9202941017
 20
-3.125
 30
0.0
  9
$EXTMAX
 10
2.9202941017
 20
3.125
 30
0.0
  9
$LIMMIN
 10
0.0
 20
0.0
  9
$LIMMAX
 10
12.0
 20
9.0
  9
$ORTHOMODE
 70
     0
  9
$REGENMODE
 70
     1
  9
$FILLMODE
 70
     1
  9
$QTEXTMODE
 70
     0
  9
$MIRRTEXT
 70
     1
  9
$LTSCALE
 40
1.0
  9
$ATTMODE
 70
     1
  9
$TEXTSIZE
 40
0.125
  9
$TRACEWID
 40
0.05
  9
$TEXTSTYLE
  7
Standard
  9
$CLAYER
  8
0
  9
$CELTYPE
  6
ByLayer
  9
$CECOLOR
 62
   256
  9
$CELTSCALE
 40
1.0
  9
$DISPSILH
 70
     0
  9
$DIMSCALE
 40
1.0
  9
$DIMASZ
 40
0.13
  9
$DIMEXO
 40
0.05
  9
$DIMDLI
 40
0.38
  9
$DIMRND
 40
0.0
  9
$DIMDLE
 40
0.0
  9
$DIMEXE
 40
0.125
  9
$DIMTP
 40
0.0
  9
$DIMTM
 40
0.0
  9
$DIMTXT
 40
0.125
  9
$DIMCEN
 40
0.09
  9
$DIMTSZ
 40
0.0
  9
$DIMTOL
 70
     0
  9
$DIMLIM
 70
     0
  9
$DIMTIH
 70
     1
  9
$DIMTOH
 70
     1
  9
$DIMSE1
 70
     0
  9
$DIMSE2
 70
     0
  9
$DIMTAD
 70
     0
  9
$DIMZIN
 70
     0
  9
$DIMBLK
  1

  9
$DIMASO
 70
     1
  9
$DIMSHO
 70
     1
  9
$DIMPOST
  1

  9
$DIMAPOST
  1

  9
$DIMALT
 70
     0
  9
$DIMALTD
 70
     2
  9
$DIMALTF
 40
25.4
  9
$DIMLFAC
 40
1.0
  9
$DIMTOFL
 70
     0
  9
$DIMTVP
 40
0.0
  9
$DIMTIX
 70
     0
  9
$DIMSOXD
 70
     0
  9
$DIMSAH
 70
     0
  9
$DIMBLK1
  1

  9
$DIMBLK2
  1

  9
$DIMSTYLE
  2
Standard
  9
$DIMCLRD
 70
     0
  9
$DIMCLRE
 70
     0
  9
$DIMCLRT
 70
     0
  9
$DIMTFAC
 40
1.0
  9
$DIMGAP
 40
0.06
  9
$DIMJUST
 70
     0
  9
$DIMSD1
 70
     0
  9
$DIMSD2
 70
     0
  9
$DIMTOLJ
 70
     1
  9
$DIMTZIN
 70
     0
  9
$DIMALTZ
 70
     0
  9
$DIMALTTZ
 70
     0
  9
$DIMUPT
 70
     0
  9
$DIMDEC
 70
     2
  9
$DIMTDEC
 70
     2
  9
$DIMALTU
 70
     2
  9
$DIMALTTD
 70
     2
  9
$DIMTXSTY
  7
Standard
  9
$DIMAUNIT
 70
     0
  9
$DIMADEC
 70
     2
  9
$DIMALTRND
 40
0.0
  9
$DIMAZIN
 70
     0
  9
$DIMDSEP
 70
    46
  9
$DIMATFIT
 70
     3
  9
$DIMFRAC
 70
     0
  9
$DIMLDRBLK
  1

  9
$DIMLUNIT
 70
     2
  9
$DIMLWD
 70
    -2
  9
$DIMLWE
 70
    -2
  9
$DIMTMOVE
 70
     0
  9
$LUNITS
 70
     2
  9
$LUPREC
 70
     2
  9
$SKETCHINC
 40
0.1
  9
$FILLETRAD
 40
0.5
  9
$AUNITS
 70
     0
  9
$AUPREC
 70
     2
  9
$MENU
  1
.
  9
$ELEVATION
 40
0.0
  9
$PELEVATION
 40
0.0
  9
$THICKNESS
 40
0.0
  9
$LIMCHECK
 70
     0
  9
$CHAMFERA
 40
0.0
  9
$CHAMFERB
 40
0.0
  9
$CHAMFERC
 40
0.0
  9
$CHAMFERD
 40
0.0
  9
$SKPOLY
 70
     0
  9
$TDCREATE
 40
2457682.913562292
  9
$TDUCREATE
 40
2457683.080228958
  9
$TDUPDATE
 40
2457682.913611898
  9
$TDUUPDATE
 40
2457683.080278565
  9
$TDINDWG
 40
0.0000000116
  9
$TDUSRTIMER
 40
0.0000000116
  9
$USRTIMER
 70
     1
  9
$ANGBASE
 50
0.0
  9
$ANGDIR
 70
     0
  9
$PDMODE
 70
     0
  9
$PDSIZE
 40
-1.0
  9
$PLINEWID
 40
0.0
  9
$SPLFRAME
 70
     0
  9
$SPLINETYPE
 70
     6
  9
$SPLINESEGS
 70
     8
  9
$HANDSEED
  5
228
  9
$SURFTAB1
 70
     6
  9
$SURFTAB2
 70
     6
  9
$SURFTYPE
 70
     6
  9
$SURFU
 70
     6
  9
$SURFV
 70
     6
  9
$UCSBASE
  2

  9
$UCSNAME
  2

  9
$UCSORG
 10
0.0
 20
0.0
 30
0.0
  9
$UCSXDIR
 10
1.0
 20
0.0
 30
0.0
  9
$UCSYDIR
 10
0.0
 20
1.0
 30
0.0
  9
$UCSORTHOREF
  2

  9
$UCSORTHOVIEW
 70
     0
  9
$UCSORGTOP
 10
0.0
 20
0.0
 30
0.0
  9
$UCSORGBOTTOM
 10
0.0
 20
0.0
 30
0.0
  9
$UCSORGLEFT
 10
0.0
 20
0.0
 30
0.0
  9
$UCSORGRIGHT
 10
0.0
 20
0.0
 30
0.0
  9
$UCSORGFRONT
 10
0.0
 20
0.0
 30
0.0
  9
$UCSORGBACK
 10
0.0
 20
0.0
 30
0.0
  9
$PUCSBASE
  2

  9
$PUCSNAME
  2

  9
$PUCSORG
 10
0.0
 20
0.0
 30
0.0
  9
$PUCSXDIR
 10
1.0
 20
0.0
 30
0.0
  9
$PUCSYDIR
 10
0.0
 20
1.0
 30
0.0
  9
$PUCSORTHOREF
  2

  9
$PUCSORTHOVIEW
 70
     0
  9
$PUCSORGTOP
 10
0.0
 20
0.0
 30
0.0
  9
$PUCSORGBOTTOM
 10
0.0
 20
0.0
 30
0.0
  9
$PUCSORGLEFT
 10
0.0
 20
0.0
 30
0.0
  9
$PUCSORGRIGHT
 10
0.0
 20
0.0
 30
0.0
  9
$PUCSORGFRONT
 10
0.0
 20
0.0
 30
0.0
  9
$PUCSORGBACK
 10
0.0
 20
0.0
 30
0.0
  9
$USERI1
 70
     0
  9
$USERI2
 70
     0
  9
$USERI3
 70
     0
  9
$USERI4
 70
     0
  9
$USERI5
 70
     0
  9
$USERR1
 40
0.0
  9
$USERR2
 40
0.0
  9
$USERR3
 40
0.0
  9
$USERR4
 40
0.0
  9
$USERR5
 40
0.0
  9
$WORLDVIEW
 70
     1
  9
$SHADEDGE
 70
     3
  9
$SHADEDIF
 70
    70
  9
$TILEMODE
 70
     1
  9
$MAXACTVP
 70
    64
  9
$PINSBASE
 10
0.0
 20
0.0
 30
0.0
  9
$PLIMCHECK
 70
     0
  9
$PEXTMIN
 10
-2.9202941017
 20
0.0231299213
 30
0.0
  9
$PEXTMAX
 10
2.9202941017
 20
0.0625
 30
0.0
  9
$PLIMMIN
 10
-3.0593559498
 20
-0.1159317078
  9
$PLIMMAX
 10
3.0593557309
 20
4.6121636818
  9
$UNITMODE
 70
     0
  9
$VISRETAIN
 70
     1
  9
$PLINEGEN
 70
     0
  9
$PSLTSCALE
 70
     1
  9
$TREEDEPTH
 70
  3020
  9
$CMLSTYLE
  2
Standard
  9
$CMLJUST
 70
     0
  9
$CMLSCALE
 40
1.0
  9
$PROXYGRAPHICS
 70
     1
  9
$MEASUREMENT
 70
     0
  9
$CELWEIGHT
370
    -1
  9
$ENDCAPS
280
     0
  9
$JOINSTYLE
280
     0
  9
$LWDISPLAY
290
     1
  9
$INSUNITS
 70
     1
  9
$HYPERLINKBASE
  1

  9
$STYLESHEET
  1

  9
$XEDIT
290
     1
  9
$CEPSNTYPE
380
     0
  9
$PSTYLEMODE
290
     1
  9
$FINGERPRINTGUID
  2
{FFD61FD5-B9D1-4BA3-BCBF-57BF2F5366C8}
  9
$VERSIONGUID
  2
{FAEB1C32-E019-11D5-929B-00C0DF256EC4}
  9
$EXTNAMES
290
     1
  9
$PSVPSCALE
 40
0.0
  9
$OLESTARTUP
290
     0
  0
ENDSEC
  0
SECTION
  2
CLASSES
  0
CLASS
  1
ACDBDICTIONARYWDFLT
  2
AcDbDictionaryWithDefault
  3
ObjectDBX Classes
 90
        0
280
     0
281
     0
  0
CLASS
  1
VISUALSTYLE
  2
AcDbVisualStyle
  3
ObjectDBX Classes
 90
     4095
280
     0
281
     0
  0
CLASS
  1
MATERIAL
  2
AcDbMaterial
  3
ObjectDBX Classes
 90
     1153
280
     0
281
     0
  0
CLASS
  1
SCALE
  2
AcDbScale
  3
ObjectDBX Classes
 90
     1153
280
     0
281
     0
  0
CLASS
  1
SUN
  2
AcDbSun
  3
SCENEOE
 90
     1153
280
     0
281
     0
  0
CLASS
  1
ACDBPLACEHOLDER
  2
AcDbPlaceHolder
  3
ObjectDBX Classes
 90
        0
280
     0
281
     0
  0
CLASS
  1
LAYOUT
  2
AcDbLayout
  3
ObjectDBX Classes
 90
        0
280
     0
281
     0
  0
ENDSEC
  0
SECTION
  2
TABLES
  0
TABLE
  2
VPORT
  5
8
330
0
100
AcDbSymbolTable
 70
     1
  0
VPORT
  5
29
330
8
100
AcDbSymbolTableRecord
100
AcDbViewportTableRecord
  2
*Active
 70
     0
 10
0.0
 20
0.0
 11
1.0
 21
1.0
 12
0.0
 22
0.0
 13
0.0
 23
0.0
 14
0.5
 24
0.5
 15
0.5
 25
0.5
 16
0.0
 26
0.0
 36
1.0
 17
0.0
 27
0.0
 37
0.0
 40
6.375
 41
0.9344941126
 42
50.0
 43
0.0
 44
0.0
 50
0.0
 51
0.0
 71
     0
 72
   100
 73
     1
 74
     3
 75
     0
 76
     0
 77
     0
 78
     0
281
     0
 65
     1
110
0.0
120
0.0
130
0.0
111
1.0
121
0.0
131
0.0
112
0.0
122
1.0
132
0.0
 79
     0
146
0.0
  0
ENDTAB
  0
TABLE
  2
LTYPE
  5
5
330
0
100
AcDbSymbolTable
 70
     6
  0
LTYPE
  5
14
330
5
100
AcDbSymbolTableRecord
100
AcDbLinetypeTableRecord
  2
ByBlock
 70
     0
  3

 72
    65
 73
     0
 40
0.0
  0
LTYPE
  5
15
330
5
100
AcDbSymbolTableRecord
100
AcDbLinetypeTableRecord
  2
ByLayer
 70
     0
  3

 72
    65
 73
     0
 40
0.0
  0
LTYPE
  5
16
330
5
100
AcDbSymbolTableRecord
100
AcDbLinetypeTableRecord
  2
Continuous
 70
     0
  3
Solid line
 72
    65
 73
     0
 40
0.0
  0
LTYPE
  5
6A
330
5
100
AcDbSymbolTableRecord
100
AcDbLinetypeTableRecord
  2
HIDDEN
 70
     0
  3
Hidden __ __ __ __ __ __ __ __ __ __ __ __ __ __
 72
    65
 73
     2
 40
0.075
 49
0.05
 74
     0
 49
-0.025
 74
     0
  0
LTYPE
  5
6B
330
5
100
AcDbSymbolTableRecord
100
AcDbLinetypeTableRecord
  2
PHANTOM
 70
     0
  3
Phantom ______  __  __  ______  __  __  ______
 72
    65
 73
     6
 40
0.5
 49
0.25
 74
     0
 49
-0.05
 74
     0
 49
0.05
 74
     0
 49
-0.05
 74
     0
 49
0.05
 74
     0
 49
-0.05
 74
     0
  0
LTYPE
  5
6C
330
5
100
AcDbSymbolTableRecord
100
AcDbLinetypeTableRecord
  2
CENTER
 70
     0
  3
Center ____ _ ____ _ ____ _ ____ _ ____ _ ____
 72
    65
 73
     4
 40
0.4
 49
0.25
 74
     0
 49
-0.05
 74
     0
 49
0.05
 74
     0
 49
-0.05
 74
     0
  0
LTYPE
  5
6D
330
5
100
AcDbSymbolTableRecord
100
AcDbLinetypeTableRecord
  2
CENTERX2
 70
     0
  3
Center (2x) ________  __  ________  __  _____
 72
    65
 73
     4
 40
0.8
 49
0.5
 74
     0
 49
-0.1
 74
     0
 49
0.1
 74
     0
 49
-0.1
 74
     0
  0
LTYPE
  5
6E
330
5
100
AcDbSymbolTableRecord
100
AcDbLinetypeTableRecord
  2
DOT2
 70
     0
  3
Dot (.5x) ........................................
 72
    65
 73
     2
 40
0.025
 49
0.0
 74
     0
 49
-0.025
 74
     0
  0
ENDTAB
  0
TABLE
  2
LAYER
  5
2
330
0
100
AcDbSymbolTable
 70
     1
  0
LAYER
  5
10
330
2
100
AcDbSymbolTableRecord
100
AcDbLayerTableRecord
  2
0
 70
     0
 62
     7
  6
Continuous
370
    -3
390
F
  0
ENDTAB
  0
TABLE
  2
STYLE
  5
3
330
0
100
AcDbSymbolTable
 70
     2
  0
STYLE
  5
11
330
3
100
AcDbSymbolTableRecord
100
AcDbTextStyleTableRecord
  2
Standard
 70
     0
 40
0.0
 41
1.0
 50
0.0
 71
     0
 42
0.125
  3
txt
  4

  0
STYLE
  5
21F
330
3
100
AcDbSymbolTableRecord
100
AcDbTextStyleTableRecord
  2
SLDTEXTSTYLE0
 70
     0
 40
0.0
 41
0.7
 50
0.0
 71
     0
 42
0.125
  3
TXT
  4

  0
ENDTAB
  0
TABLE
  2
VIEW
  5
6
330
0
100
AcDbSymbolTable
 70
     0
  0
ENDTAB
  0
TABLE
  2
UCS
  5
7
330
0
100
AcDbSymbolTable
 70
     0
  0
ENDTAB
  0
TABLE
  2
APPID
  5
9
330
0
100
AcDbSymbolTable
 70
     1
  0
APPID
  5
12
330
9
100
AcDbSymbolTableRecord
100
AcDbRegAppTableRecord
  2
ACAD
 70
     0
  0
ENDTAB
  0
TABLE
  2
DIMSTYLE
  5
A
330
0
100
AcDbSymbolTable
 70
     1
100
AcDbDimStyleTable
  0
DIMSTYLE
105
27
330
A
100
AcDbSymbolTableRecord
100
AcDbDimStyleTableRecord
  2
Standard
 70
     0
178
     0
340
11
  0
ENDTAB
  0
TABLE
  2
BLOCK_RECORD
  5
1
330
0
100
AcDbSymbolTable
 70
     2
  0
BLOCK_RECORD
  5
1F
330
1
100
AcDbSymbolTableRecord
100
AcDbBlockTableRecord
  2
*Model_Space
340
22
  0
BLOCK_RECORD
  5
1B
330
1
100
AcDbSymbolTableRecord
100
AcDbBlockTableRecord
  2
*Paper_Space
340
1E
  0
BLOCK_RECORD
  5
23
330
1
100
AcDbSymbolTableRecord
100
AcDbBlockTableRecord
  2
*Paper_Space0
340
26
  0
BLOCK_RECORD
  5
123
330
1
100
AcDbSymbolTableRecord
100
AcDbBlockTableRecord
  2
*Paper_Space1
340
124
  0
ENDTAB
  0
ENDSEC
  0
SECTION
  2
BLOCKS
  0
BLOCK
  5
20
330
1F
100
AcDbEntity
  8
0
100
AcDbBlockBegin
  2
*Model_Space
 70
     0
 10
0.0
 20
0.0
 30
0.0
  3
*Model_Space
  1
*Model_Space
  0
ENDBLK
  5
21
330
1F
100
AcDbEntity
  8
0
100
AcDbBlockEnd
  0
BLOCK
  5
1C
330
1B
100
AcDbEntity
 67
     1
  8
0
100
AcDbBlockBegin
  2
*Paper_Space
 70
     0
 10
0.0
 20
0.0
 30
0.0
  3
*Paper_Space
  1
*Paper_Space
  0
ENDBLK
  5
1D
330
1B
100
AcDbEntity
 67
     1
  8
0
100
AcDbBlockEnd
  0
BLOCK
  5
24
330
23
100
AcDbEntity
  8
0
100
AcDbBlockBegin
  2
*Paper_Space0
 70
     0
 10
0.0
 20
0.0
 30
0.0
  3
*Paper_Space0
  1
*Paper_Space0
  0
LINE
  5
11A
330
23
100
AcDbEntity
  8
0
  6
Continuous
 62
     7
370
    15
100
AcDbLine
 10
-3.125
 20
0.0625
 30
0.0
 11
-3.125
 21
0.0231299213
 31
0.0
  0
LINE
  5
11B
330
23
100
AcDbEntity
  8
0
  6
Continuous
 62
     7
370
    15
100
AcDbLine
 10
3.125
 20
0.0231299213
 30
0.0
 11
3.125
 21
0.0625
 31
0.0
  0
LINE
  5
11C
330
23
100
AcDbEntity
  8
0
  6
Continuous
 62
     7
370
    15
100
AcDbLine
 10
-1.1485042735
 20
0.0231299213
 30
0.0
 11
-1.1485042735
 21
0.0625
 31
0.0
  0
LINE
  5
11D
330
23
100
AcDbEntity
  8
0
  6
Continuous
 62
     7
370
    15
100
AcDbLine
 10
-1.032480315
 20
0.0231299213
 30
0.0
 11
-1.032480315
 21
0.0625
 31
0.0
  0
LINE
  5
11E
330
23
100
AcDbEntity
  8
0
  6
Continuous
 62
     7
370
    15
100
AcDbLine
 10
-0.9537401575
 20
0.0625
 30
0.0
 11
-0.9537401575
 21
0.0231299213
 31
0.0
  0
LINE
  5
11F
330
23
100
AcDbEntity
  8
0
  6
Continuous
 62
     7
370
    15
100
AcDbLine
 10
2.1216323941
 20
0.0625
 30
0.0
 11
2.1216323941
 21
0.0231299213
 31
0.0
  0
LINE
  5
120
330
23
100
AcDbEntity
  8
0
  6
Continuous
 62
     7
370
    15
100
AcDbLine
 10
1.9537401575
 20
0.0231299213
 30
0.0
 11
1.9537401575
 21
0.0625
 31
0.0
  0
LINE
  5
121
330
23
100
AcDbEntity
  8
0
  6
Continuous
 62
     7
370
    15
100
AcDbLine
 10
-3.125
 20
0.0231299213
 30
0.0
 11
3.125
 21
0.0231299213
 31
0.0
  0
LINE
  5
122
330
23
100
AcDbEntity
  8
0
  6
Continuous
 62
     7
370
    15
100
AcDbLine
 10
-3.125
 20
0.0625
 30
0.0
 11
3.125
 21
0.0625
 31
0.0
  0
VIEWPORT
  5
21B
330
23
100
AcDbEntity
  8
0
100
AcDbViewport
 10
0.0
 20
0.0
 30
0.0
 40
8.4
 41
6.4
 68
     1
 69
     1
 12
0.0
 22
0.0
 13
0.0
 23
0.0
 14
0.5
 24
0.5
 15
0.5
 25
0.5
 16
0.0
 26
0.0
 36
1.0
 17
0.0
 27
0.0
 37
0.0
 42
50.0
 43
0.0
 44
0.0
 45
6.375
 50
0.0
 51
0.0
 72
   100
 90
   557152
  1

281
     0
 71
     1
 74
     0
110
0.0
120
0.0
130
0.0
111
1.0
121
0.0
131
0.0
112
0.0
122
1.0
132
0.0
 79
     0
146
0.0
  0
MTEXT
  5
224
330
23
100
AcDbEntity
  8
0
  6
Continuous
 62
     7
100
AcDbMText
 10
-3.125
 20
-0.0170104879
 30
0.0
 40
0.1903
 41
0.0
 71
     1
 72
     1
  1
SolidWorks Student Edition.
  7
SLDTEXTSTYLE0
 73
     1
 44
1.0
  0
MTEXT
  5
225
330
23
100
AcDbEntity
  8
0
  6
Continuous
 62
     7
100
AcDbMText
 10
-3.125
 20
-0.3024604879
 30
0.0
 40
0.1903
 41
0.0
 71
     1
 72
     1
  1
For Academic Use Only.
  7
SLDTEXTSTYLE0
 73
     1
 44
1.0
  0
ENDBLK
  5
25
330
23
100
AcDbEntity
  8
0
100
AcDbBlockEnd
  0
BLOCK
  5
125
330
123
100
AcDbEntity
  8
0
100
AcDbBlockBegin
  2
*Paper_Space1
 70
     0
 10
0.0
 20
0.0
 30
0.0
  3
*Paper_Space1
  1
*Paper_Space1
  0
LWPOLYLINE
  5
130
330
123
100
AcDbEntity
  8
0
  6
Continuous
 62
     7
370
    15
100
AcDbPolyline
 90
       21
 70
   128
 43
0.0
 10
1.1637799107
 20
-0.7058445529
 10
1.1522861768
 20
-0.6967119955
 10
1.1462435632
 20
-0.6859760303
 10
1.1462435632
 20
-0.6746875685
 10
1.1522861768
 20
-0.6639516034
 10
1.1637799107
 20
-0.6548190459
 10
1.1795996783
 20
-0.6481838546
 10
1.1981969305
 20
-0.644695528
 10
1.2177512386
 20
-0.644695528
 10
1.2363484908
 20
-0.6481838546
 10
1.2521682584
 20
-0.6548190459
 10
1.2636619923
 20
-0.6639516034
 10
1.2697046058
 20
-0.6746875685
 10
1.2697046058
 20
-0.6859760303
 10
1.2636619923
 20
-0.6967119955
 10
1.2521682584
 20
-0.7058445529
 10
1.2363484908
 20
-0.7124797443
 10
1.2177512386
 20
-0.7159680708
 10
1.1981969305
 20
-0.7159680708
 10
1.1795996783
 20
-0.7124797443
 10
1.1637799107
 20
-0.7058445529
  0
LWPOLYLINE
  5
131
330
123
100
AcDbEntity
  8
0
  6
Continuous
 62
     7
370
    15
100
AcDbPolyline
 90
       19
 70
   128
 43
0.0
 10
1.9877722329
 20
0.9815914366
 10
1.9779690338
 20
0.9896737066
 10
1.9735454654
 20
0.9992041392
 10
1.9750350752
 20
1.0090332235
 10
1.9822581944
 20
1.017975427
 10
1.9943436082
 20
1.0249521879
 10
2.0098336373
 20
1.0291220058
 10
2.0268599556
 20
1.0299819393
 10
2.0433689378
 20
1.0274282676
 10
2.0573693571
 20
1.0217690012
 10
2.0671725562
 20
1.0136867312
 10
2.0715961246
 20
1.0041562986
 10
2.0701065148
 20
0.9943272143
 10
2.0628833956
 20
0.9853850108
 10
2.0507979818
 20
0.9784082499
 10
2.0353079527
 20
0.974238432
 10
2.0182816344
 20
0.9733784985
 10
2.0017726522
 20
0.9759321702
 10
1.9877722329
 20
0.9815914366
  0
LWPOLYLINE
  5
132
330
123
100
AcDbEntity
  8
0
  6
Continuous
 62
     7
370
    15
100
AcDbPolyline
 90
       19
 70
   128
 43
0.0
 10
1.6119477626
 20
1.1985502852
 10
1.6259481819
 20
1.1928910188
 10
1.6424571641
 20
1.1903373471
 10
1.6594834824
 20
1.1911972806
 10
1.6749735115
 20
1.1953670985
 10
1.6870589253
 20
1.2023438594
 10
1.6942820445
 20
1.2112860629
 10
1.6957716543
 20
1.2211151472
 10
1.6913480858
 20
1.2306455798
 10
1.6815448867
 20
1.2387278498
 10
1.6675444675
 20
1.2443871162
 10
1.6510354852
 20
1.2469407879
 10
1.6340091669
 20
1.2460808544
 10
1.6185191378
 20
1.2419110365
 10
1.6064337241
 20
1.2349342756
 10
1.5992106049
 20
1.2259920722
 10
1.597720995
 20
1.2161629878
 10
1.6021445635
 20
1.2066325552
 10
1.6119477626
 20
1.1985502852
  0
LWPOLYLINE
  5
133
330
123
100
AcDbEntity
  8
0
  6
Continuous
 62
     7
370
    15
100
AcDbPolyline
 90
       19
 70
   128
 43
0.0
 10
-1.6815448867
 20
-1.1366602483
 10
-1.6675444675
 20
-1.1423195147
 10
-1.6510354852
 20
-1.1448731864
 10
-1.6340091669
 20
-1.144013253
 10
-1.6185191378
 20
-1.139843435
 10
-1.6064337241
 20
-1.1328666741
 10
-1.5992106049
 20
-1.1239244707
 10
-1.597720995
 20
-1.1140953863
 10
-1.6021445635
 20
-1.1045649538
 10
-1.6119477626
 20
-1.0964826837
 10
-1.6259481819
 20
-1.0908234174
 10
-1.6424571641
 20
-1.0882697456
 10
-1.6594834824
 20
-1.0891296791
 10
-1.6749735115
 20
-1.0932994971
 10
-1.6870589253
 20
-1.1002762579
 10
-1.6942820445
 20
-1.1092184614
 10
-1.6957716543
 20
-1.1190475457
 10
-1.6913480858
 20
-1.1285779783
 10
-1.6815448867
 20
-1.1366602483
  0
LWPOLYLINE
  5
13A
330
123
100
AcDbEntity
  8
0
  6
Continuous
 62
     7
370
    15
100
AcDbPolyline
 90
       21
 70
   128
 43
0.0
 10
1.8119611268
 20
-0.3316575017
 10
1.8004673929
 20
-0.3225249442
 10
1.7944247793
 20
-0.3117889791
 10
1.7944247793
 20
-0.3005005173
 10
1.8004673929
 20
-0.2897645521
 10
1.8119611268
 20
-0.2806319947
 10
1.8277808944
 20
-0.2739968033
 10
1.8463781465
 20
-0.2705084768
 10
1.8659324547
 20
-0.2705084768
 10
1.8845297068
 20
-0.2739968033
 10
1.9003494744
 20
-0.2806319947
 10
1.9118432084
 20
-0.2897645521
 10
1.9178858219
 20
-0.3005005173
 10
1.9178858219
 20
-0.3117889791
 10
1.9118432084
 20
-0.3225249442
 10
1.9003494744
 20
-0.3316575017
 10
1.8845297068
 20
-0.338292693
 10
1.8659324547
 20
-0.3417810196
 10
1.8463781465
 20
-0.3417810196
 10
1.8277808944
 20
-0.338292693
 10
1.8119611268
 20
-0.3316575017
  0
LWPOLYLINE
  5
13B
330
123
100
AcDbEntity
  8
0
  6
Continuous
 62
     7
370
    15
100
AcDbPolyline
 90
       21
 70
   128
 43
0.0
 10
-0.6629126074
 20
1.097056694
 10
-0.6470928398
 20
1.0904215026
 10
-0.6284955876
 20
1.0869331761
 10
-0.6089412795
 20
1.0869331761
 10
-0.5903440273
 20
1.0904215026
 10
-0.5745242597
 20
1.097056694
 10
-0.5630305258
 20
1.1061892515
 10
-0.5569879123
 20
1.1169252166
 10
-0.5569879123
 20
1.1282136784
 10
-0.5630305258
 20
1.1389496436
 10
-0.5745242597
 20
1.148082201
 10
-0.5903440273
 20
1.1547173924
 10
-0.6089412795
 20
1.1582057189
 10
-0.6284955876
 20
1.1582057189
 10
-0.6470928398
 20
1.1547173924
 10
-0.6629126074
 20
1.148082201
 10
-0.6744063413
 20
1.1389496436
 10
-0.6804489548
 20
1.1282136784
 10
-0.6804489548
 20
1.1169252166
 10
-0.6744063413
 20
1.1061892515
 10
-0.6629126074
 20
1.097056694
  0
LWPOLYLINE
  5
13C
330
123
100
AcDbEntity
  8
0
  6
Continuous
 62
     7
370
    15
100
AcDbPolyline
 90
       21
 70
   128
 43
0.0
 10
-2.6074562556
 20
-0.0255044597
 10
-2.591636488
 20
-0.0321396511
 10
-2.5730392359
 20
-0.0356279776
 10
-2.5534849277
 20
-0.0356279776
 10
-2.5348876756
 20
-0.0321396511
 10
-2.519067908
 20
-0.0255044597
 10
-2.507574174
 20
-0.0163719023
 10
-2.5015315605
 20
-0.0056359371
 10
-2.5015315605
 20
0.0056525247
 10
-2.507574174
 20
0.0163884898
 10
-2.519067908
 20
0.0255210472
 10
-2.5348876756
 20
0.0321562386
 10
-2.5534849277
 20
0.0356445652
 10
-2.5730392359
 20
0.0356445652
 10
-2.591636488
 20
0.0321562386
 10
-2.6074562556
 20
0.0255210472
 10
-2.6189499896
 20
0.0163884898
 10
-2.6249926031
 20
0.0056525247
 10
-2.6249926031
 20
-0.0056359371
 10
-2.6189499896
 20
-0.0163719023
 10
-2.6074562556
 20
-0.0255044597
  0
LWPOLYLINE
  5
13D
330
123
100
AcDbEntity
  8
0
  6
Continuous
 62
     7
370
    15
100
AcDbPolyline
 90
       21
 70
   128
 43
0.0
 10
-0.1325825215
 20
-1.4542186554
 10
-0.1440762554
 20
-1.445086098
 10
-0.1501188689
 20
-1.4343501328
 10
-0.1501188689
 20
-1.423061671
 10
-0.1440762554
 20
-1.4123257059
 10
-0.1325825215
 20
-1.4031931484
 10
-0.1167627539
 20
-1.3965579571
 10
-0.0981655017
 20
-1.3930696305
 10
-0.0786111936
 20
-1.3930696305
 10
-0.0600139414
 20
-1.3965579571
 10
-0.0441941738
 20
-1.4031931484
 10
-0.0327004399
 20
-1.4123257059
 10
-0.0266578264
 20
-1.423061671
 10
-0.0266578264
 20
-1.4343501328
 10
-0.0327004399
 20
-1.445086098
 10
-0.0441941738
 20
-1.4542186554
 10
-0.0600139414
 20
-1.4608538468
 10
-0.0786111936
 20
-1.4643421733
 10
-0.0981655017
 20
-1.4643421733
 10
-0.1167627539
 20
-1.4608538468
 10
-0.1325825215
 20
-1.4542186554
  0
LWPOLYLINE
  5
144
330
123
100
AcDbEntity
  8
0
  6
Continuous
 62
     7
370
    15
100
AcDbPolyline
 90
       19
 70
   128
 43
0.0
 10
-2.0573693571
 20
-0.9197013997
 10
-2.0671725562
 20
-0.9116191297
 10
-2.0715961246
 20
-0.9020886971
 10
-2.0701065148
 20
-0.8922596128
 10
-2.0628833956
 20
-0.8833174093
 10
-2.0507979818
 20
-0.8763406484
 10
-2.0353079527
 20
-0.8721708305
 10
-2.0182816344
 20
-0.871310897
 10
-2.0017726522
 20
-0.8738645687
 10
-1.9877722329
 20
-0.8795238351
 10
-1.9779690338
 20
-0.8876061051
 10
-1.9735454654
 20
-0.8971365377
 10
-1.9750350752
 20
-0.9069656221
 10
-1.9822581944
 20
-0.9159078255
 10
-1.9943436082
 20
-0.9228845864
 10
-2.0098336373
 20
-0.9270544043
 10
-2.0268599556
 20
-0.9279143378
 10
-2.0433689378
 20
-0.9253606661
 10
-2.0573693571
 20
-0.9197013997
  0
LWPOLYLINE
  5
145
330
123
100
AcDbEntity
  8
0
  6
Continuous
 62
     7
370
    15
100
AcDbPolyline
 90
       21
 70
   128
 43
0.0
 10
-1.3110938235
 20
0.7228696428
 10
-1.2952740559
 20
0.7162344514
 10
-1.2766768037
 20
0.7127461249
 10
-1.2571224956
 20
0.7127461249
 10
-1.2385252434
 20
0.7162344514
 10
-1.2227054758
 20
0.7228696428
 10
-1.2112117419
 20
0.7320022002
 10
-1.2051691283
 20
0.7427381654
 10
-1.2051691283
 20
0.7540266272
 10
-1.2112117419
 20
0.7647625923
 10
-1.2227054758
 20
0.7738951498
 10
-1.2385252434
 20
0.7805303411
 10
-1.2571224956
 20
0.7840186677
 10
-1.2766768037
 20
0.7840186677
 10
-1.2952740559
 20
0.7805303411
 10
-1.3110938235
 20
0.7738951498
 10
-1.3225875574
 20
0.7647625923
 10
-1.3286301709
 20
0.7540266272
 10
-1.3286301709
 20
0.7427381654
 10
-1.3225875574
 20
0.7320022002
 10
-1.3110938235
 20
0.7228696428
  0
LWPOLYLINE
  5
146
330
123
100
AcDbEntity
  8
0
  6
Continuous
 62
     7
370
    15
100
AcDbPolyline
 90
       21
 70
   128
 43
0.0
 10
-1.9592750395
 20
0.3486825915
 10
-1.9434552719
 20
0.3420474001
 10
-1.9248580198
 20
0.3385590736
 10
-1.9053037116
 20
0.3385590736
 10
-1.8867064595
 20
0.3420474001
 10
-1.8708866919
 20
0.3486825915
 10
-1.859392958
 20
0.3578151489
 10
-1.8533503444
 20
0.3685511141
 10
-1.8533503444
 20
0.3798395759
 10
-1.859392958
 20
0.3905755411
 10
-1.8708866919
 20
0.3997080985
 10
-1.8867064595
 20
0.4063432899
 10
-1.9053037116
 20
0.4098316164
 10
-1.9248580198
 20
0.4098316164
 10
-1.9434552719
 20
0.4063432899
 10
-1.9592750395
 20
0.3997080985
 10
-1.9707687735
 20
0.3905755411
 10
-1.976811387
 20
0.3798395759
 10
-1.976811387
 20
0.3685511141
 10
-1.9707687735
 20
0.3578151489
 10
-1.9592750395
 20
0.3486825915
  0
LWPOLYLINE
  5
147
330
123
100
AcDbEntity
  8
0
  6
Continuous
 62
     7
370
    15
100
AcDbPolyline
 90
       21
 70
   128
 43
0.0
 10
0.5155986946
 20
-1.0800316042
 10
0.5041049607
 20
-1.0708990467
 10
0.4980623472
 20
-1.0601630816
 10
0.4980623472
 20
-1.0488746198
 10
0.5041049607
 20
-1.0381386546
 10
0.5155986946
 20
-1.0290060972
 10
0.5314184622
 20
-1.0223709058
 10
0.5500157144
 20
-1.0188825793
 10
0.5695700225
 20
-1.0188825793
 10
0.5881672747
 20
-1.0223709058
 10
0.6039870423
 20
-1.0290060972
 10
0.6154807762
 20
-1.0381386546
 10
0.6215233897
 20
-1.0488746198
 10
0.6215233897
 20
-1.0601630816
 10
0.6154807762
 20
-1.0708990467
 10
0.6039870423
 20
-1.0800316042
 10
0.5881672747
 20
-1.0866667955
 10
0.5695700225
 20
-1.0901551221
 10
0.5500157144
 20
-1.0901551221
 10
0.5314184622
 20
-1.0866667955
 10
0.5155986946
 20
-1.0800316042
  0
LWPOLYLINE
  5
148
330
123
100
AcDbEntity
  8
0
  6
Continuous
 62
     7
370
    15
100
AcDbPolyline
 90
       10
 70
   128
 43
0.0
 10
0.1221697106
 20
-1.7516111688
 10
0.1474833702
 20
-1.7491353127
 10
0.1708707169
 20
-1.7430202319
 10
0.1907901155
 20
-1.7336690174
 10
0.205928529
 20
-1.7216980776
 10
0.2152880713
 20
-1.707896507
 10
0.2182517848
 20
-1.6931740706
 10
0.2146243088
 20
-1.6785012343
 10
0.2046447575
 20
-1.6648451949
 10
0.188970958
 20
-1.6531061242
  0
LWPOLYLINE
  5
149
330
123
100
AcDbEntity
  8
0
  6
Continuous
 62
     7
370
    15
100
AcDbPolyline
 90
       39
 70
   128
 43
0.0
 10
-3.1226110167
 20
0.1215608735
 10
-3.1249712357
 20
0.0432934924
 10
-3.1214477
 20
-0.0349593151
 10
-3.1120470438
 20
-0.1130502131
 10
-3.0967869669
 20
-0.1908321707
 10
-3.0756962012
 20
-0.2681587385
 10
-3.0488144568
 20
-0.3448843245
 10
-3.0161923471
 20
-0.4208644684
 10
-2.9778912938
 20
-0.4959561134
 10
-2.9339834106
 20
-0.5700178755
 10
-2.8845513683
 20
-0.6429103098
 10
-2.8296882383
 20
-0.7144961731
 10
-2.7694973181
 20
-0.7846406821
 10
-2.7040919362
 20
-0.8532117675
 10
-2.6335952391
 20
-0.9200803223
 10
-2.5581399593
 20
-0.9851204452
 10
-2.4778681655
 20
-1.0482096773
 10
-2.3929309948
 20
-1.1092292332
 10
-2.3034883686
 20
-1.1680642239
 10
-2.2097086912
 20
-1.224603874
 10
-2.1117685327
 20
-1.2787417294
 10
-2.0098522966
 20
-1.3303758584
 10
-1.9041518727
 20
-1.3794090434
 10
-1.7948662759
 20
-1.4257489636
 10
-1.6822012711
 20
-1.4693083694
 10
-1.5663689861
 20
-1.5100052464
 10
-1.4475875121
 20
-1.5477629696
 10
-1.326080493
 20
-1.5825104483
 10
-1.2020767046
 20
-1.614182259
 10
-1.0758096236
 20
-1.6427187697
 10
-0.947516988
 20
-1.6680662511
 10
-0.8174403496
 20
-1.6901769785
 10
-0.6858246191
 20
-1.7090093216
 10
-0.5529176051
 20
-1.7245278223
 10
-0.4189695474
 20
-1.7367032622
 10
-0.2842326459
 20
-1.7455127171
 10
-0.1489605859
 20
-1.7509396004
 10
-0.0134080601
 20
-1.7529736942
 10
0.1221697106
 20
-1.7516111688
  0
LWPOLYLINE
  5
14A
330
123
100
AcDbEntity
  8
0
  6
Continuous
 62
     7
370
    15
100
AcDbPolyline
 90
       10
 70
   128
 43
0.0
 10
-2.9519767861
 20
0.1601244127
 10
-2.9723116563
 20
0.1691727046
 10
-2.9959671735
 20
0.1749337769
 10
-3.0213840254
 20
0.1770278742
 10
-3.0468867966
 20
0.1753169589
 10
-3.0707944085
 20
0.1699138101
 10
-3.0915309312
 20
0.16117459
 10
-3.1077294651
 20
0.149675366
 10
-3.1183222434
 20
0.1361741381
 10
-3.1226110167
 20
0.1215608735
  0
LWPOLYLINE
  5
14E
330
123
100
AcDbEntity
  8
0
  6
Continuous
 62
     7
370
    15
100
AcDbPolyline
 90
        9
 70
   128
 43
0.0
 10
-1.3316529896
 20
1.6627060128
 10
-1.3395696969
 20
1.6540625198
 10
-1.3448460999
 20
1.6447717324
 10
-1.3473308434
 20
1.6351001594
 10
-1.3469526519
 20
1.6253252324
 10
-1.3437223739
 20
1.615727348
 10
-1.3377326709
 20
1.6065818242
 10
-1.3291553591
 20
1.5981510027
 10
-1.3182364811
 20
1.590676724
  0
LWPOLYLINE
  5
150
330
123
100
AcDbEntity
  8
0
  6
Continuous
 62
     7
370
    15
100
AcDbPolyline
 90
       56
 70
   128
 43
0.0
 10
2.8671775598
 20
-0.6665043675
 10
2.9184434663
 20
-0.5939577326
 10
2.9642043847
 20
-0.5201944661
 10
3.0043739974
 20
-0.4453537057
 10
3.0388765334
 20
-0.3695766218
 10
3.0676469114
 20
-0.2930061508
 10
3.0906308626
 20
-0.2157867258
 10
3.1077850329
 20
-0.1380640037
 10
3.1190770648
 20
-0.0599845911
 10
3.1244856584
 20
0.0183042327
 10
3.1240006117
 20
0.0966547936
 10
3.1176228395
 20
0.1749193006
 10
3.1053643721
 20
0.2529501256
 10
3.0872483324
 20
0.3306000807
 10
3.0633088922
 20
0.4077226968
 10
3.0335912078
 20
0.4841724994
 10
2.9981513351
 20
0.5598052832
 10
2.9570561233
 20
0.6344783839
 10
2.9103830893
 20
0.7080509474
 10
2.8582202714
 20
0.7803841956
 10
2.8006660629
 20
0.8513416882
 10
2.737829027
 20
0.9207895797
 10
2.6698276917
 20
0.9885968722
 10
2.5967903261
 20
1.0546356627
 10
2.5188546988
 20
1.1187813836
 10
2.436167818
 20
1.1809130386
 10
2.3488856538
 20
1.2409134302
 10
2.2571728444
 20
1.2986693812
 10
2.1612023854
 20
1.3540719478
 10
2.0611553036
 20
1.4070166257
 10
1.9572203153
 20
1.4574035466
 10
1.8495934705
 20
1.5051376669
 10
1.7384777831
 20
1.5501289468
 10
1.6240828479
 20
1.5922925205
 10
1.5066244451
 20
1.6315488558
 10
1.3863241338
 20
1.6678239045
 10
1.2634088334
 20
1.7010492418
 10
1.138110396
 20
1.7311621957
 10
1.010665169
 20
1.7581059646
 10
0.8813135492
 20
1.7818297254
 10
0.7502995294
 20
1.8022887285
 10
0.617870238
 20
1.8194443825
 10
0.4842754732
 20
1.8332643272
 10
0.3497672315
 20
1.8437224943
 10
0.2145992324
 20
1.8507991569
 10
0.0790264402
 20
1.8544809664
 10
-0.0566954178
 20
1.8547609779
 10
-0.1923103325
 20
1.8516386633
 10
-0.327562497
 20
1.845119912
 10
-0.4621967884
 20
1.8352170203
 10
-0.5959592494
 20
1.8219486677
 10
-0.7285975671
 20
1.805339882
 10
-0.8598615492
 20
1.7854219919
 10
-0.9895035956
 20
1.7622325681
 10
-1.1172791658
 20
1.7358153522
 10
-1.2429472397
 20
1.7062201744
  0
LWPOLYLINE
  5
16B
330
123
100
AcDbEntity
  8
0
  6
Continuous
 62
     7
370
    15
100
AcDbPolyline
 90
       39
 70
   128
 43
0.0
 10
0.1221697106
 20
-1.7837584449
 10
-0.0134080601
 20
-1.7851209703
 10
-0.1489605859
 20
-1.7830868764
 10
-0.2842326459
 20
-1.7776599931
 10
-0.4189695474
 20
-1.7688505383
 10
-0.5529176051
 20
-1.7566750984
 10
-0.6858246191
 20
-1.7411565976
 10
-0.8174403496
 20
-1.7223242546
 10
-0.947516988
 20
-1.7002135271
 10
-1.0758096236
 20
-1.6748660457
 10
-1.2020767046
 20
-1.6463295351
 10
-1.326080493
 20
-1.6146577243
 10
-1.4475875121
 20
-1.5799102457
 10
-1.5663689861
 20
-1.5421525224
 10
-1.6822012711
 20
-1.5014556455
 10
-1.7948662759
 20
-1.4578962396
 10
-1.9041518727
 20
-1.4115563194
 10
-2.0098522966
 20
-1.3625231345
 10
-2.1117685327
 20
-1.3108890055
 10
-2.2097086912
 20
-1.25675115
 10
-2.3034883686
 20
-1.2002115
 10
-2.3929309948
 20
-1.1413765092
 10
-2.4778681655
 20
-1.0803569534
 10
-2.5581399593
 20
-1.0172677213
 10
-2.6335952391
 20
-0.9522275984
 10
-2.7040919362
 20
-0.8853590436
 10
-2.7694973181
 20
-0.8167879582
 10
-2.8296882383
 20
-0.7466434492
 10
-2.8845513683
 20
-0.6750575859
 10
-2.9339834106
 20
-0.6021651516
 10
-2.9778912938
 20
-0.5281033895
 10
-3.0161923471
 20
-0.4530117445
 10
-3.0488144568
 20
-0.3770316006
 10
-3.0756962012
 20
-0.3003060145
 10
-3.0967869669
 20
-0.2229794468
 10
-3.1120470438
 20
-0.1451974892
 10
-3.1214477
 20
-0.0671065912
 10
-3.1249712357
 20
0.0111462163
 10
-3.125
 20
0.0188865247
  0
LWPOLYLINE
  5
16C
330
123
100
AcDbEntity
  8
0
  6
Continuous
 62
     7
370
    15
100
AcDbPolyline
 90
        7
 70
   128
 43
0.0
 10
0.2182602799
 20
-1.7260738059
 10
0.2152880713
 20
-1.7400437831
 10
0.205928529
 20
-1.7538453537
 10
0.1907901155
 20
-1.7658162934
 10
0.1708707169
 20
-1.775167508
 10
0.1474833702
 20
-1.7812825887
 10
0.1221697106
 20
-1.7837584449
  0
LWPOLYLINE
  5
171
330
123
100
AcDbEntity
  8
0
  6
Continuous
 62
     7
370
    15
100
AcDbPolyline
 90
        3
 70
   128
 43
0.0
 10
-0.0441941738
 20
-1.4353404245
 10
-0.0327004399
 20
-1.4444729819
 10
-0.0324330397
 20
-1.44477954
  0
LWPOLYLINE
  5
177
330
123
100
AcDbEntity
  8
0
  6
Continuous
 62
     7
370
    15
100
AcDbPolyline
 90
        3
 70
   128
 43
0.0
 10
0.6157481764
 20
-1.0705924887
 10
0.6154807762
 20
-1.0702859307
 10
0.6039870423
 20
-1.0611533732
  0
LWPOLYLINE
  5
17F
330
123
100
AcDbEntity
  8
0
  6
Continuous
 62
     7
370
    15
100
AcDbPolyline
 90
        3
 70
   128
 43
0.0
 10
1.2639293925
 20
-0.6964054375
 10
1.2636619923
 20
-0.6960988794
 10
1.2521682584
 20
-0.686966322
  0
LWPOLYLINE
  5
187
330
123
100
AcDbEntity
  8
0
  6
Continuous
 62
     7
370
    15
100
AcDbPolyline
 90
        3
 70
   128
 43
0.0
 10
1.9003494744
 20
-0.3127792707
 10
1.9118432084
 20
-0.3219118282
 10
1.9121106086
 20
-0.3222183862
  0
LWPOLYLINE
  5
18A
330
123
100
AcDbEntity
  8
0
  6
Continuous
 62
     7
370
    15
100
AcDbPolyline
 90
        3
 70
   128
 43
0.0
 10
2.6922400504
 20
0.1548611517
 10
2.6999517661
 20
0.0869386087
 10
2.7023805349
 20
0.0349601627
  0
LWPOLYLINE
  5
192
330
123
100
AcDbEntity
  8
0
  6
Continuous
 62
     7
370
    15
100
AcDbPolyline
 90
        3
 70
   128
 43
0.0
 10
-2.5073067738
 20
-0.0160653443
 10
-2.507574174
 20
-0.0157587862
 10
-2.519067908
 20
-0.0066262288
  0
LWPOLYLINE
  5
196
330
123
100
AcDbEntity
  8
0
  6
Continuous
 62
     7
370
    15
100
AcDbPolyline
 90
        3
 70
   128
 43
0.0
 10
-1.8708866919
 20
0.3675608224
 10
-1.859392958
 20
0.358428265
 10
-1.8591255577
 20
0.358121707
  0
LWPOLYLINE
  5
19E
330
123
100
AcDbEntity
  8
0
  6
Continuous
 62
     7
370
    15
100
AcDbPolyline
 90
        3
 70
   128
 43
0.0
 10
-1.2227054758
 20
0.7417478737
 10
-1.2112117419
 20
0.7326153163
 10
-1.2109443417
 20
0.7323087582
  0
LWPOLYLINE
  5
1A4
330
123
100
AcDbEntity
  8
0
  6
Continuous
 62
     7
370
    15
100
AcDbPolyline
 90
        3
 70
   128
 43
0.0
 10
-0.5627631256
 20
1.1064958095
 10
-0.5630305258
 20
1.1068023675
 10
-0.5745242597
 20
1.1159349249
  0
LINE
  5
1AE
330
123
100
AcDbEntity
  8
0
  6
Continuous
 62
     7
370
    15
100
AcDbLine
 10
-3.125
 20
0.0510338007
 30
0.0
 11
-3.125
 21
0.0188865247
 31
0.0
  0
LINE
  5
1AF
330
123
100
AcDbEntity
  8
0
  6
Continuous
 62
     7
370
    15
100
AcDbLine
 10
0.2182602799
 20
-1.7260738059
 30
0.0
 11
0.2182602799
 21
-1.6939265298
 31
0.0
  0
LINE
  5
1B0
330
123
100
AcDbEntity
  8
0
  6
Continuous
 62
     7
370
    15
100
AcDbLine
 10
3.125
 20
0.0188865247
 30
0.0
 11
3.125
 21
0.0510338007
 31
0.0
  0
LINE
  5
1B1
330
123
100
AcDbEntity
  8
0
  6
Continuous
 62
     7
370
    15
100
AcDbLine
 10
2.5775239701
 20
0.0188865247
 30
0.0
 11
2.5775239701
 21
0.0510338007
 31
0.0
  0
LINE
  5
1B2
330
123
100
AcDbEntity
  8
0
  6
Continuous
 62
     7
370
    15
100
AcDbLine
 10
-1.347525803
 20
1.6314971296
 30
0.0
 11
-1.347525803
 21
1.5993498536
 31
0.0
  0
LINE
  5
1B3
330
123
100
AcDbEntity
  8
0
  6
Continuous
 62
     7
370
    15
100
AcDbLine
 10
0.6671122927
 20
1.4883052687
 30
0.0
 11
0.6994646733
 21
1.5580074075
 31
0.0
  0
LINE
  5
1B4
330
123
100
AcDbEntity
  8
0
  6
Continuous
 62
     7
370
    15
100
AcDbLine
 10
1.4784070134
 20
1.2699098563
 30
0.0
 11
1.5501040679
 21
1.3290206575
 31
0.0
  0
LINE
  5
1B5
330
123
100
AcDbEntity
  8
0
  6
Continuous
 62
     7
370
    15
100
AcDbLine
 10
1.3753783671
 20
-0.2735205658
 30
0.0
 11
0.8273706117
 21
-0.5898787091
 31
0.0
  0
LINE
  5
1B6
330
123
100
AcDbEntity
  8
0
  6
Continuous
 62
     7
370
    15
100
AcDbLine
 10
0.9577956223
 20
-0.0324551784
 30
0.0
 11
0.4097878669
 21
-0.3488133217
 31
0.0
  0
LINE
  5
1B7
330
123
100
AcDbEntity
  8
0
  6
Continuous
 62
     7
370
    15
100
AcDbLine
 10
-0.1446228239
 20
0.6039574442
 30
0.0
 11
-0.6926305794
 21
0.2875993009
 31
0.0
  0
LINE
  5
1B8
330
123
100
AcDbEntity
  8
0
  6
Continuous
 62
     7
370
    15
100
AcDbLine
 10
-0.5622055687
 20
0.8450228315
 30
0.0
 11
-1.1102133242
 21
0.5286646882
 31
0.0
  0
LINE
  5
1B9
330
123
100
AcDbEntity
  8
0
  6
Continuous
 62
     7
370
    15
100
AcDbLine
 10
-2.8178135633
 20
0.0826736328
 30
0.0
 11
-2.9519767861
 21
0.1601244127
 31
0.0
  0
LINE
  5
1BA
330
123
100
AcDbEntity
  8
0
  6
Continuous
 62
     7
370
    15
100
AcDbLine
 10
-0.7619145164
 20
1.2695188899
 30
0.0
 11
-2.8178135633
 21
0.0826736328
 31
0.0
  0
LINE
  5
1BB
330
123
100
AcDbEntity
  8
0
  6
Continuous
 62
     7
370
    15
100
AcDbLine
 10
-0.7619145164
 20
1.2695188899
 30
0.0
 11
-1.3182364811
 21
1.590676724
 31
0.0
  0
LINE
  5
1BC
330
123
100
AcDbEntity
  8
0
  6
Continuous
 62
     7
370
    15
100
AcDbLine
 10
2.1107067821
 20
-0.3888100873
 30
0.0
 11
2.6670287468
 21
-0.7099679214
 31
0.0
  0
LINE
  5
1BD
330
123
100
AcDbEntity
  8
0
  6
Continuous
 62
     7
370
    15
100
AcDbLine
 10
2.1107067821
 20
-0.3888100873
 30
0.0
 11
0.0548077353
 21
-1.5756553443
 31
0.0
  0
LINE
  5
1BE
330
123
100
AcDbEntity
  8
0
  6
Continuous
 62
     7
370
    15
100
AcDbLine
 10
0.0548077353
 20
-1.5756553443
 30
0.0
 11
0.188970958
 21
-1.6531061242
 31
0.0
  0
LINE
  5
1BF
330
123
100
AcDbEntity
  8
0
  6
Continuous
 62
     7
370
    15
100
AcDbLine
 10
-0.6671122927
 20
-1.3862376672
 30
0.0
 11
-0.6994646733
 21
-1.455939806
 31
0.0
  0
LINE
  5
1C0
330
123
100
AcDbEntity
  8
0
  6
Continuous
 62
     7
370
    15
100
AcDbLine
 10
-1.4784070134
 20
-1.1678422549
 30
0.0
 11
-1.5501040679
 21
-1.226953056
 31
0.0
  0
LINE
  5
1C1
330
123
100
AcDbEntity
  8
0
  6
Continuous
 62
     7
370
    15
100
AcDbLine
 10
-2.1113840293
 20
-0.8024324015
 30
0.0
 11
-2.2137780348
 21
-0.8438222301
 31
0.0
  0
LINE
  5
1C2
330
123
100
AcDbEntity
  8
0
  6
Continuous
 62
     7
370
    15
100
AcDbLine
 10
-2.4896969706
 20
-0.3340819284
 30
0.0
 11
-2.6104376988
 21
-0.3527585602
 31
0.0
  0
LINE
  5
1C3
330
123
100
AcDbEntity
  8
0
  6
Continuous
 62
     7
370
    15
100
AcDbLine
 10
2.4896969706
 20
-0.3340819284
 30
0.0
 11
2.6104376988
 21
-0.3527585602
 31
0.0
  0
LINE
  5
1C4
330
123
100
AcDbEntity
  8
0
  6
Continuous
 62
     7
370
    15
100
AcDbLine
 10
2.5677157132
 20
0.1807191854
 30
0.0
 11
2.6922400504
 21
0.1870084278
 31
0.0
  0
LINE
  5
1C5
330
123
100
AcDbEntity
  8
0
  6
Continuous
 62
     7
370
    15
100
AcDbLine
 10
2.1113840293
 20
0.904500003
 30
0.0
 11
2.2137780348
 21
0.9458898316
 31
0.0
  0
LINE
  5
1C6
330
123
100
AcDbEntity
  8
0
  6
Continuous
 62
     7
370
    15
100
AcDbLine
 10
2.4896969706
 20
0.4361495299
 30
0.0
 11
2.6104376988
 21
0.4548261617
 31
0.0
  0
LINE
  5
1C7
330
123
100
AcDbEntity
  8
0
  6
Continuous
 62
     7
370
    15
100
AcDbLine
 10
-0.6671122927
 20
1.4883052687
 30
0.0
 11
-0.6994646733
 21
1.5580074075
 31
0.0
  0
LINE
  5
1C8
330
123
100
AcDbEntity
  8
0
  6
Continuous
 62
     7
370
    15
100
AcDbLine
 10
0.2246460161
 20
1.5333445301
 30
0.0
 11
0.2355404839
 21
1.6052308998
 31
0.0
  0
LINE
  5
1C9
330
123
100
AcDbEntity
  8
0
  6
Continuous
 62
     7
370
    15
100
AcDbLine
 10
0.1221697106
 20
-1.7837584449
 30
0.0
 11
0.1221697106
 21
-1.7516111688
 31
0.0
  0
LINE
  5
1CA
330
123
100
AcDbEntity
  8
0
  6
Continuous
 62
     7
370
    15
100
AcDbLine
 10
2.1107067821
 20
-0.4209573633
 30
0.0
 11
2.1107067821
 21
-0.3888100873
 31
0.0
  0
LINE
  5
1CB
330
123
100
AcDbEntity
  8
0
  6
Continuous
 62
     7
370
    15
100
AcDbLine
 10
2.1107067821
 20
-0.4209573633
 30
0.0
 11
0.0826511099
 21
-1.5917289823
 31
0.0
  0
LINE
  5
1CC
330
123
100
AcDbEntity
  8
0
  6
Continuous
 62
     7
370
    15
100
AcDbLine
 10
-1.4784070134
 20
-1.1999895309
 30
0.0
 11
-1.4784070134
 21
-1.1678422549
 31
0.0
  0
LINE
  5
1CD
330
123
100
AcDbEntity
  8
0
  6
Continuous
 62
     7
370
    15
100
AcDbLine
 10
-1.4784070134
 20
-1.1999895309
 30
0.0
 11
-1.5238315879
 21
-1.2374399257
 31
0.0
  0
LINE
  5
1CE
330
123
100
AcDbEntity
  8
0
  6
Continuous
 62
     7
370
    15
100
AcDbLine
 10
-1.6119477626
 20
-1.1286299598
 30
0.0
 11
-1.6061676809
 21
-1.1326451041
 31
0.0
  0
LINE
  5
1CF
330
123
100
AcDbEntity
  8
0
  6
Continuous
 62
     7
370
    15
100
AcDbLine
 10
-2.4896969706
 20
-0.3662292044
 30
0.0
 11
-2.4896969706
 21
-0.3340819284
 31
0.0
  0
LINE
  5
1D0
330
123
100
AcDbEntity
  8
0
  6
Continuous
 62
     7
370
    15
100
AcDbLine
 10
2.7918006539
 20
-0.7177131069
 30
0.0
 11
2.7918006539
 21
-0.749860383
 31
0.0
  0
LINE
  5
1D1
330
123
100
AcDbEntity
  8
0
  6
Continuous
 62
     7
370
    15
100
AcDbLine
 10
2.6670287468
 20
-0.7421151975
 30
0.0
 11
2.6670287468
 21
-0.7099679214
 31
0.0
  0
LINE
  5
1D2
330
123
100
AcDbEntity
  8
0
  6
Continuous
 62
     7
370
    15
100
AcDbLine
 10
2.8671775598
 20
-0.6665043675
 30
0.0
 11
2.8671775598
 21
-0.6986516436
 31
0.0
  0
LINE
  5
1D3
330
123
100
AcDbEntity
  8
0
  6
Continuous
 62
     7
370
    15
100
AcDbLine
 10
2.6670287468
 20
-0.7421151975
 30
0.0
 11
2.1107067821
 21
-0.4209573633
 31
0.0
  0
LINE
  5
1D4
330
123
100
AcDbEntity
  8
0
  6
Continuous
 62
     7
370
    15
100
AcDbLine
 10
0.4097878669
 20
-0.3488133217
 30
0.0
 11
0.4097878669
 21
-0.3809605978
 31
0.0
  0
LINE
  5
1D5
330
123
100
AcDbEntity
  8
0
  6
Continuous
 62
     7
370
    15
100
AcDbLine
 10
-2.4896969706
 20
-0.3662292044
 30
0.0
 11
-2.5959989068
 21
-0.3826723894
 31
0.0
  0
LINE
  5
1D6
330
123
100
AcDbEntity
  8
0
  6
Continuous
 62
     7
370
    15
100
AcDbLine
 10
2.6922400504
 20
0.1548611517
 30
0.0
 11
2.6922400504
 21
0.1870084278
 31
0.0
  0
LINE
  5
1D7
330
123
100
AcDbEntity
  8
0
  6
Continuous
 62
     7
370
    15
100
AcDbLine
 10
0.9577956223
 20
-0.0646024545
 30
0.0
 11
0.9577956223
 21
-0.0324551784
 31
0.0
  0
LINE
  5
1D8
330
123
100
AcDbEntity
  8
0
  6
Continuous
 62
     7
370
    15
100
AcDbLine
 10
0.9577956223
 20
-0.0646024545
 30
0.0
 11
0.4097878669
 21
-0.3809605978
 31
0.0
  0
LINE
  5
1D9
330
123
100
AcDbEntity
  8
0
  6
Continuous
 62
     7
370
    15
100
AcDbLine
 10
1.378692723
 20
-0.0305418415
 30
0.0
 11
1.378692723
 21
-0.0626891175
 31
0.0
  0
LINE
  5
1DA
330
123
100
AcDbEntity
  8
0
  6
Continuous
 62
     7
370
    15
100
AcDbLine
 10
2.5719558877
 20
0.1487860641
 30
0.0
 11
2.6922400504
 21
0.1548611517
 31
0.0
  0
LINE
  5
1DB
330
123
100
AcDbEntity
  8
0
  6
Continuous
 62
     7
370
    15
100
AcDbLine
 10
-1.1102133242
 20
0.5286646882
 30
0.0
 11
-1.1102133242
 21
0.4965174122
 31
0.0
  0
LINE
  5
1DC
330
123
100
AcDbEntity
  8
0
  6
Continuous
 62
     7
370
    15
100
AcDbLine
 10
2.2137780348
 20
0.9137425555
 30
0.0
 11
2.2137780348
 21
0.9458898316
 31
0.0
  0
LINE
  5
1DD
330
123
100
AcDbEntity
  8
0
  6
Continuous
 62
     7
370
    15
100
AcDbLine
 10
-0.5622055687
 20
0.8128755555
 30
0.0
 11
-0.5622055687
 21
0.8450228315
 31
0.0
  0
LINE
  5
1DE
330
123
100
AcDbEntity
  8
0
  6
Continuous
 62
     7
370
    15
100
AcDbLine
 10
-0.5622055687
 20
0.8128755555
 30
0.0
 11
-1.1102133242
 21
0.4965174122
 31
0.0
  0
LINE
  5
1DF
330
123
100
AcDbEntity
  8
0
  6
Continuous
 62
     7
370
    15
100
AcDbLine
 10
-0.141308468
 20
0.8469361685
 30
0.0
 11
-0.141308468
 21
0.8147888924
 31
0.0
  0
LINE
  5
1E0
330
123
100
AcDbEntity
  8
0
  6
Continuous
 62
     7
370
    15
100
AcDbLine
 10
2.1372175701
 20
0.882795192
 30
0.0
 11
2.2137780348
 21
0.9137425555
 31
0.0
  0
LINE
  5
1E1
330
123
100
AcDbEntity
  8
0
  6
Continuous
 62
     7
370
    15
100
AcDbLine
 10
1.6815448867
 20
1.2065805737
 30
0.0
 11
1.6873249685
 21
1.2025654295
 31
0.0
  0
LINE
  5
1E2
330
123
100
AcDbEntity
  8
0
  6
Continuous
 62
     7
370
    15
100
AcDbLine
 10
0.6994646733
 20
1.5258601314
 30
0.0
 11
0.6994646733
 21
1.5580074075
 31
0.0
  0
LINE
  5
1E3
330
123
100
AcDbEntity
  8
0
  6
Continuous
 62
     7
370
    15
100
AcDbLine
 10
-1.3182364811
 20
1.590676724
 30
0.0
 11
-1.3182364811
 21
1.558529448
 31
0.0
  0
LINE
  5
1E4
330
123
100
AcDbEntity
  8
0
  6
Continuous
 62
     7
370
    15
100
AcDbLine
 10
-1.3182364811
 20
1.558529448
 30
0.0
 11
-0.7897578911
 21
1.2534452519
 31
0.0
  0
LINE
  5
1E5
330
123
100
AcDbEntity
  8
0
  6
Continuous
 62
     7
370
    15
100
AcDbLine
 10
0.6810235505
 20
1.4861293395
 30
0.0
 11
0.6994646733
 21
1.5258601314
 31
0.0
  0
ARC
  5
1E6
330
123
100
AcDbEntity
  8
0
  6
Continuous
 62
     7
370
    15
100
AcDbCircle
 10
0.1308461606
 20
-2.2487650952
 30
0.0
 40
3.849005572853585
100
AcDbArc
 50
68.3624600796
 51
81.5045263841
  0
ARC
  5
1E7
330
123
100
AcDbEntity
  8
0
  6
Continuous
 62
     7
370
    15
100
AcDbCircle
 10
0.1247941254
 20
-2.1423923617
 30
0.0
 40
3.67097729190717
100
AcDbArc
 50
68.3624600796
 51
81.5045263841
  0
ARC
  5
1E8
330
123
100
AcDbEntity
  8
0
  6
Continuous
 62
     7
370
    15
100
AcDbCircle
 10
0.4568992532
 20
-0.4709679124
 30
0.0
 40
0.1309245077848021
100
AcDbArc
 50
111.0901410285
 51
247.3468675685
  0
ARC
  5
1E9
330
123
100
AcDbEntity
  8
0
  6
Continuous
 62
     7
370
    15
100
AcDbCircle
 10
0.6150599176
 20
-0.1811997806
 30
0.0
 40
0.460536966391785
100
AcDbArc
 50
243.0688164469
 51
297.4520965074
  0
ARC
  5
1EA
330
123
100
AcDbEntity
  8
0
  6
Continuous
 62
     7
370
    15
100
AcDbCircle
 10
1.3282669808
 20
-0.1513659751
 30
0.0
 40
0.130924507784802
100
AcDbArc
 50
291.0901410285
 51
67.3468675685
  0
ARC
  5
1EB
330
123
100
AcDbEntity
  8
0
  6
Continuous
 62
     7
370
    15
100
AcDbCircle
 10
1.1701063164
 20
-0.4411341069
 30
0.0
 40
0.4605369663917849
100
AcDbArc
 50
63.0688164469
 51
117.4520965074
  0
ARC
  5
1EC
330
123
100
AcDbEntity
  8
0
  6
Continuous
 62
     7
370
    15
100
AcDbCircle
 10
-1.0631019379
 20
0.4065100975
 30
0.0
 40
0.1309245077848021
100
AcDbArc
 50
111.0901410285
 51
247.3468675685
  0
ARC
  5
1ED
330
123
100
AcDbEntity
  8
0
  6
Continuous
 62
     7
370
    15
100
AcDbCircle
 10
-0.9049412735
 20
0.6962782293
 30
0.0
 40
0.4605369663917852
100
AcDbArc
 50
243.0688164469
 51
297.4520965074
  0
ARC
  5
1EE
330
123
100
AcDbEntity
  8
0
  6
Continuous
 62
     7
370
    15
100
AcDbCircle
 10
-0.1917342102
 20
0.7261120349
 30
0.0
 40
0.1309245077848022
100
AcDbArc
 50
291.0901410285
 51
67.3468675685
  0
ARC
  5
1EF
330
123
100
AcDbEntity
  8
0
  6
Continuous
 62
     7
370
    15
100
AcDbCircle
 10
-0.3498948746
 20
0.4363439031
 30
0.0
 40
0.4605369663917848
100
AcDbArc
 50
63.0688164469
 51
117.4520965074
  0
ARC
  5
1F0
330
123
100
AcDbEntity
  8
0
  6
Continuous
 62
     7
370
    15
100
AcDbCircle
 10
-1.1977859145
 20
1.5019840118
 30
0.0
 40
0.2091696808485902
100
AcDbArc
 50
102.4687800422
 51
129.791277387
  0
ARC
  5
1F1
330
123
100
AcDbEntity
  8
0
  6
Continuous
 62
     7
370
    15
100
AcDbCircle
 10
2.7404280226
 20
-0.5610149231
 30
0.0
 40
0.1649044209651371
100
AcDbArc
 50
288.1514438701
 51
320.2305080671
  0
ARC
  5
1F2
330
123
100
AcDbEntity
  8
0
  6
Continuous
 62
     7
370
    15
100
AcDbCircle
 10
2.7383146124
 20
-0.570466414
 30
0.0
 40
0.1566599668150089
100
AcDbArc
 50
242.9327737079
 51
289.9630987805
  0
ARC
  5
1F3
330
123
100
AcDbEntity
  8
0
  6
Continuous
 62
     7
370
    15
100
AcDbCircle
 10
-0.1308461606
 20
2.3508326967
 30
0.0
 40
3.849005572853725
100
AcDbArc
 50
248.3624600796
 51
261.5045263841
  0
ARC
  5
1F4
330
123
100
AcDbEntity
  8
0
  6
Continuous
 62
     7
370
    15
100
AcDbCircle
 10
-0.1247941254
 20
2.2444599632
 30
0.0
 40
3.670977291907116
100
AcDbArc
 50
248.3624600796
 51
261.5045263841
  0
ARC
  5
1F5
330
123
100
AcDbEntity
  8
0
  6
Continuous
 62
     7
370
    15
100
AcDbCircle
 10
-1.2662379709
 20
0.2672069892
 30
0.0
 40
1.363231560009857
100
AcDbArc
 50
206.172563427
 51
231.6869460839
  0
ARC
  5
1F6
330
123
100
AcDbEntity
  8
0
  6
Continuous
 62
     7
370
    15
100
AcDbCircle
 10
-1.3276456429
 20
0.2776905575
 30
0.0
 40
1.429343048003959
100
AcDbArc
 50
206.172563427
 51
231.6869460839
  0
ARC
  5
1F7
330
123
100
AcDbEntity
  8
0
  6
Continuous
 62
     7
370
    15
100
AcDbCircle
 10
1.6838483154
 20
0.0513579026
 30
0.0
 40
0.8932837837782079
100
AcDbArc
 50
334.4380702232
 51
8.3265917856
  0
ARC
  5
1F8
330
123
100
AcDbEntity
  8
0
  6
Continuous
 62
     7
370
    15
100
AcDbCircle
 10
1.765508483
 20
0.0513736203
 30
0.0
 40
0.9366046119331385
100
AcDbArc
 50
334.4380702232
 51
8.3265917856
  0
ARC
  5
1F9
330
123
100
AcDbEntity
  8
0
  6
Continuous
 62
     7
370
    15
100
AcDbCircle
 10
1.2662379709
 20
-0.1651393878
 30
0.0
 40
1.363231560009851
100
AcDbArc
 50
26.172563427
 51
51.6869460839
  0
ARC
  5
1FA
330
123
100
AcDbEntity
  8
0
  6
Continuous
 62
     7
370
    15
100
AcDbCircle
 10
1.3276456429
 20
-0.175622956
 30
0.0
 40
1.429343048003997
100
AcDbArc
 50
26.172563427
 51
51.6869460839
  0
ARC
  5
1FB
330
123
100
AcDbEntity
  8
0
  6
Continuous
 62
     7
370
    15
100
AcDbCircle
 10
-0.0001961737
 20
-3.0072479642
 30
0.0
 40
4.618499003256674
100
AcDbArc
 50
87.0742470222
 51
98.7084156022
  0
ARC
  5
1FC
330
123
100
AcDbEntity
  8
0
  6
Continuous
 62
     7
370
    15
100
AcDbCircle
 10
-0.0001871
 20
-2.865793078
 30
0.0
 40
4.404879297454777
100
AcDbArc
 50
87.0742470222
 51
98.7084156022
  0
ARC
  5
1FD
330
123
100
AcDbEntity
  8
0
  6
Continuous
 62
     7
370
    15
100
AcDbCircle
 10
-0.1264991836
 20
2.2072118467
 30
0.0
 40
3.665607181281231
100
AcDbArc
 50
248.3578343463
 51
261.2990256603
  0
ARC
  5
1FE
330
123
100
AcDbEntity
  8
0
  6
Continuous
 62
     7
370
    15
100
AcDbCircle
 10
-0.0875666824
 20
-1.5111709985
 30
0.0
 40
0.0873581733978051
100
AcDbArc
 50
60.231912227
 51
130.5365622074
  0
ARC
  5
1FF
330
123
100
AcDbEntity
  8
0
  6
Continuous
 62
     7
370
    15
100
AcDbCircle
 10
-1.6465162885
 20
-1.1892114399
 30
0.0
 40
0.0697502595927457
100
AcDbArc
 50
60.2903960808
 51
125.8078296028
  0
ARC
  5
200
330
123
100
AcDbEntity
  8
0
  6
Continuous
 62
     7
370
    15
100
AcDbCircle
 10
0.5601945064
 20
-1.1325274368
 30
0.0
 40
0.0837379432848305
100
AcDbArc
 50
58.4682318526
 51
132.3002425818
  0
ARC
  5
201
330
123
100
AcDbEntity
  8
0
  6
Continuous
 62
     7
370
    15
100
AcDbCircle
 10
-2.022570795
 20
-0.9710079685
 30
0.0
 40
0.0686084416685557
100
AcDbArc
 50
53.7398403007
 51
126.2601596993
  0
ARC
  5
202
330
123
100
AcDbEntity
  8
0
  6
Continuous
 62
     7
370
    15
100
AcDbCircle
 10
-1.2778524189
 20
0.2277163456
 30
0.0
 40
1.349569758805647
100
AcDbArc
 50
206.1102569358
 51
230.4486351236
  0
ARC
  5
203
330
123
100
AcDbEntity
  8
0
  6
Continuous
 62
     7
370
    15
100
AcDbCircle
 10
2.7383146124
 20
-0.6026136901
 30
0.0
 40
0.1566599668150088
100
AcDbArc
 50
242.9327737079
 51
289.9630987805
  0
ARC
  5
204
330
123
100
AcDbEntity
  8
0
  6
Continuous
 62
     7
370
    15
100
AcDbCircle
 10
1.2083757225
 20
-0.7583403855
 30
0.0
 40
0.0837379432848271
100
AcDbArc
 50
58.4682318526
 51
132.3002425818
  0
ARC
  5
205
330
123
100
AcDbEntity
  8
0
  6
Continuous
 62
     7
370
    15
100
AcDbCircle
 10
2.7404280226
 20
-0.5931621991
 30
0.0
 40
0.1649044209651268
100
AcDbArc
 50
288.1514438701
 51
320.2305080671
  0
ARC
  5
206
330
123
100
AcDbEntity
  8
0
  6
Continuous
 62
     7
370
    15
100
AcDbCircle
 10
1.9344491041
 20
0.0415808162
 30
0.0
 40
1.190767175612042
100
AcDbArc
 50
321.5637620722
 51
358.907959607
  0
ARC
  5
207
330
123
100
AcDbEntity
  8
0
  6
Continuous
 62
     7
370
    15
100
AcDbCircle
 10
0.4777694767
 20
-0.5246990433
 30
0.0
 40
0.1590038992472311
100
AcDbArc
 50
115.3119749458
 51
166.4139564072
  0
ARC
  5
208
330
123
100
AcDbEntity
  8
0
  6
Continuous
 62
     7
370
    15
100
AcDbCircle
 10
1.8569769659
 20
-0.3886098448
 30
0.0
 40
0.0873581733978054
100
AcDbArc
 50
60.231912227
 51
130.5365622074
  0
ARC
  5
209
330
123
100
AcDbEntity
  8
0
  6
Continuous
 62
     7
370
    15
100
AcDbCircle
 10
1.6709953184
 20
0.023651
 30
0.0
 40
0.9065411720112639
100
AcDbArc
 50
336.6157278
 51
359.698871277
  0
ARC
  5
20A
330
123
100
AcDbEntity
  8
0
  6
Continuous
 62
     7
370
    15
100
AcDbCircle
 10
1.3065258262
 20
-0.2056251522
 30
0.0
 40
0.1601211135370014
100
AcDbArc
 50
13.9097994927
 51
63.2112712804
  0
ARC
  5
20B
330
123
100
AcDbEntity
  8
0
  6
Continuous
 62
     7
370
    15
100
AcDbCircle
 10
1.1701046682
 20
-0.472918791
 30
0.0
 40
0.4602144735098956
100
AcDbArc
 50
63.0481877916
 51
117.4727251627
  0
ARC
  5
20C
330
123
100
AcDbEntity
  8
0
  6
Continuous
 62
     7
370
    15
100
AcDbCircle
 10
-2.5628604439
 20
-0.0780002924
 30
0.0
 40
0.0837379432848317
100
AcDbArc
 50
58.4682318526
 51
132.3002425818
  0
ARC
  5
20D
330
123
100
AcDbEntity
  8
0
  6
Continuous
 62
     7
370
    15
100
AcDbCircle
 10
-1.0422317144
 20
0.3527789667
 30
0.0
 40
0.1590038992471952
100
AcDbArc
 50
115.3119749458
 51
166.4139564072
  0
ARC
  5
20E
330
123
100
AcDbEntity
  8
0
  6
Continuous
 62
     7
370
    15
100
AcDbCircle
 10
-1.9142592005
 20
0.2917302484
 30
0.0
 40
0.0873581733978041
100
AcDbArc
 50
60.231912227
 51
130.5365622074
  0
ARC
  5
20F
330
123
100
AcDbEntity
  8
0
  6
Continuous
 62
     7
370
    15
100
AcDbCircle
 10
1.3165775045
 20
-0.2188714197
 30
0.0
 40
1.444916332751029
100
AcDbArc
 50
27.6913239513
 51
51.6154834901
  0
ARC
  5
210
330
123
100
AcDbEntity
  8
0
  6
Continuous
 62
     7
370
    15
100
AcDbCircle
 10
-0.2134753648
 20
0.6718528577
 30
0.0
 40
0.1601211135370095
100
AcDbArc
 50
13.9097994927
 51
63.2112712804
  0
ARC
  5
211
330
123
100
AcDbEntity
  8
0
  6
Continuous
 62
     7
370
    15
100
AcDbCircle
 10
-1.2660779844
 20
0.6659172997
 30
0.0
 40
0.0873581733978066
100
AcDbArc
 50
60.231912227
 51
130.5365622074
  0
ARC
  5
212
330
123
100
AcDbEntity
  8
0
  6
Continuous
 62
     7
370
    15
100
AcDbCircle
 10
-0.3498965229
 20
0.4045592189
 30
0.0
 40
0.4602144735098949
100
AcDbArc
 50
63.0481877916
 51
117.4727251627
  0
ARC
  5
213
330
123
100
AcDbEntity
  8
0
  6
Continuous
 62
     7
370
    15
100
AcDbCircle
 10
2.022570795
 20
0.9302848678
 30
0.0
 40
0.0686084416685252
100
AcDbArc
 50
53.7398403007
 51
126.2601596993
  0
ARC
  5
214
330
123
100
AcDbEntity
  8
0
  6
Continuous
 62
     7
370
    15
100
AcDbCircle
 10
-0.6183167956
 20
1.0445608614
 30
0.0
 40
0.0837379432848208
100
AcDbArc
 50
58.4682318526
 51
132.3002425818
  0
ARC
  5
215
330
123
100
AcDbEntity
  8
0
  6
Continuous
 62
     7
370
    15
100
AcDbCircle
 10
1.6469763608
 20
1.1459990936
 30
0.0
 40
0.0697502595927554
100
AcDbArc
 50
60.2903960808
 51
125.8078296028
  0
ARC
  5
216
330
123
100
AcDbEntity
  8
0
  6
Continuous
 62
     7
370
    15
100
AcDbCircle
 10
0.127871713
 20
-2.2950290514
 30
0.0
 40
3.863406872112804
100
AcDbArc
 50
68.8181800521
 51
81.4918266078
  0
ARC
  5
217
330
123
100
AcDbEntity
  8
0
  6
Continuous
 62
     7
370
    15
100
AcDbCircle
 10
-0.0002158966
 20
-3.0412903519
 30
0.0
 40
4.620389838351495
100
AcDbArc
 50
87.135238296
 51
98.529842977
  0
ARC
  5
218
330
123
100
AcDbEntity
  8
0
  6
Continuous
 62
     7
370
    15
100
AcDbCircle
 10
-1.2985153089
 20
1.6035977093
 30
0.0
 40
0.0491942355351339
100
AcDbArc
 50
184.9535818494
 51
246.3665591082
  0
VIEWPORT
  5
21D
330
123
100
AcDbEntity
  8
0
100
AcDbViewport
 10
0.0
 20
0.0
 30
0.0
 40
8.4
 41
6.4
 68
     1
 69
     1
 12
0.0
 22
0.0
 13
0.0
 23
0.0
 14
0.5
 24
0.5
 15
0.5
 25
0.5
 16
0.0
 26
0.0
 36
1.0
 17
0.0
 27
0.0
 37
0.0
 42
50.0
 43
0.0
 44
0.0
 45
6.375
 50
0.0
 51
0.0
 72
   100
 90
   557152
  1

281
     0
 71
     1
 74
     0
110
0.0
120
0.0
130
0.0
111
1.0
121
0.0
131
0.0
112
0.0
122
1.0
132
0.0
 79
     0
146
0.0
  0
MTEXT
  5
226
330
123
100
AcDbEntity
  8
0
  6
Continuous
 62
     7
100
AcDbMText
 10
-3.125
 20
-1.8252613794
 30
0.0
 40
0.1903
 41
0.0
 71
     1
 72
     1
  1
SolidWorks Student Edition.
  7
SLDTEXTSTYLE0
 73
     1
 44
1.0
  0
MTEXT
  5
227
330
123
100
AcDbEntity
  8
0
  6
Continuous
 62
     7
100
AcDbMText
 10
-3.125
 20
-2.1107113794
 30
0.0
 40
0.1903
 41
0.0
 71
     1
 72
     1
  1
For Academic Use Only.
  7
SLDTEXTSTYLE0
 73
     1
 44
1.0
  0
ENDBLK
  5
126
330
123
100
AcDbEntity
  8
0
100
AcDbBlockEnd
  0
ENDSEC
  0
SECTION
  2
ENTITIES
  0
CIRCLE
  5
73
330
1F
100
AcDbEntity
  8
0
  6
Continuous
 62
     7
370
    15
100
AcDbCircle
 10
1.75
 20
-0.0416666667
 30
0.0
 40
0.0625
  0
CIRCLE
  5
74
330
1F
100
AcDbEntity
  8
0
  6
Continuous
 62
     7
370
    15
100
AcDbCircle
 10
0.2657480315
 20
2.5945990176
 30
0.0
 40
0.0492125984251972
  0
CIRCLE
  5
75
330
1F
100
AcDbEntity
  8
0
  6
Continuous
 62
     7
370
    15
100
AcDbCircle
 10
-0.2657480315
 20
2.5945990176
 30
0.0
 40
0.0492125984251972
  0
CIRCLE
  5
76
330
1F
100
AcDbEntity
  8
0
  6
Continuous
 62
     7
370
    15
100
AcDbCircle
 10
0.2657480315
 20
-2.5945990176
 30
0.0
 40
0.0492125984251972
  0
CIRCLE
  5
7D
330
1F
100
AcDbEntity
  8
0
  6
Continuous
 62
     7
370
    15
100
AcDbCircle
 10
1.75
 20
0.875
 30
0.0
 40
0.0625000000000001
  0
CIRCLE
  5
7E
330
1F
100
AcDbEntity
  8
0
  6
Continuous
 62
     7
370
    15
100
AcDbCircle
 10
-1.75
 20
0.875
 30
0.0
 40
0.0625000000000001
  0
CIRCLE
  5
7F
330
1F
100
AcDbEntity
  8
0
  6
Continuous
 62
     7
370
    15
100
AcDbCircle
 10
-1.75
 20
-1.875
 30
0.0
 40
0.0625
  0
CIRCLE
  5
80
330
1F
100
AcDbEntity
  8
0
  6
Continuous
 62
     7
370
    15
100
AcDbCircle
 10
1.75
 20
-1.875
 30
0.0
 40
0.0624999999999998
  0
CIRCLE
  5
87
330
1F
100
AcDbEntity
  8
0
  6
Continuous
 62
     7
370
    15
100
AcDbCircle
 10
-0.2657480315
 20
-2.5945990176
 30
0.0
 40
0.0492125984251972
  0
CIRCLE
  5
88
330
1F
100
AcDbEntity
  8
0
  6
Continuous
 62
     7
370
    15
100
AcDbCircle
 10
-1.75
 20
-0.0416666667
 30
0.0
 40
0.0625
  0
CIRCLE
  5
89
330
1F
100
AcDbEntity
  8
0
  6
Continuous
 62
     7
370
    15
100
AcDbCircle
 10
-1.75
 20
-0.9583333333
 30
0.0
 40
0.0625000000000001
  0
CIRCLE
  5
8A
330
1F
100
AcDbEntity
  8
0
  6
Continuous
 62
     7
370
    15
100
AcDbCircle
 10
1.75
 20
-0.9583333333
 30
0.0
 40
0.0625000000000001
  0
LINE
  5
AD
330
1F
100
AcDbEntity
  8
0
  6
Continuous
 62
     7
370
    15
100
AcDbLine
 10
-1.288761985
 20
2.2322012369
 30
0.0
 11
-1.351261985
 21
2.3404544124
 31
0.0
  0
LINE
  5
AE
330
1F
100
AcDbEntity
  8
0
  6
Continuous
 62
     7
370
    15
100
AcDbLine
 10
-0.4475823403
 20
2.5383655893
 30
0.0
 11
-0.4692883625
 21
2.6614665584
 31
0.0
  0
LINE
  5
AF
330
1F
100
AcDbEntity
  8
0
  6
Continuous
 62
     7
370
    15
100
AcDbLine
 10
1.3700787402
 20
0.575
 30
0.0
 11
1.3700787402
 21
-0.2
 31
0.0
  0
LINE
  5
B0
330
1F
100
AcDbEntity
  8
0
  6
Continuous
 62
     7
370
    15
100
AcDbLine
 10
0.7795275591
 20
0.575
 30
0.0
 11
0.7795275591
 21
-0.2
 31
0.0
  0
LINE
  5
B1
330
1F
100
AcDbEntity
  8
0
  6
Continuous
 62
     7
370
    15
100
AcDbLine
 10
-0.7795275591
 20
0.575
 30
0.0
 11
-0.7795275591
 21
-0.2
 31
0.0
  0
LINE
  5
B2
330
1F
100
AcDbEntity
  8
0
  6
Continuous
 62
     7
370
    15
100
AcDbLine
 10
-1.3700787402
 20
0.575
 30
0.0
 11
-1.3700787402
 21
-0.2
 31
0.0
  0
LINE
  5
B3
330
1F
100
AcDbEntity
  8
0
  6
Continuous
 62
     7
370
    15
100
AcDbLine
 10
-2.03125
 20
-1.9537401575
 30
0.0
 11
-2.2209854492
 21
-1.9537401575
 31
0.0
  0
LINE
  5
B4
330
1F
100
AcDbEntity
  8
0
  6
Continuous
 62
     7
370
    15
100
AcDbLine
 10
-2.03125
 20
0.9537401575
 30
0.0
 11
-2.03125
 21
-1.9537401575
 31
0.0
  0
LINE
  5
B5
330
1F
100
AcDbEntity
  8
0
  6
Continuous
 62
     7
370
    15
100
AcDbLine
 10
-2.03125
 20
0.9537401575
 30
0.0
 11
-2.8180080675
 21
0.9537401575
 31
0.0
  0
LINE
  5
B6
330
1F
100
AcDbEntity
  8
0
  6
Continuous
 62
     7
370
    15
100
AcDbLine
 10
2.03125
 20
0.9537401575
 30
0.0
 11
2.8180080675
 21
0.9537401575
 31
0.0
  0
LINE
  5
B7
330
1F
100
AcDbEntity
  8
0
  6
Continuous
 62
     7
370
    15
100
AcDbLine
 10
2.03125
 20
0.9537401575
 30
0.0
 11
2.03125
 21
-1.9537401575
 31
0.0
  0
LINE
  5
B8
330
1F
100
AcDbEntity
  8
0
  6
Continuous
 62
     7
370
    15
100
AcDbLine
 10
2.03125
 20
-1.9537401575
 30
0.0
 11
2.2209854492
 21
-1.9537401575
 31
0.0
  0
LINE
  5
B9
330
1F
100
AcDbEntity
  8
0
  6
Continuous
 62
     7
370
    15
100
AcDbLine
 10
1.288761985
 20
-2.2322012369
 30
0.0
 11
1.351261985
 21
-2.3404544124
 31
0.0
  0
LINE
  5
BA
330
1F
100
AcDbEntity
  8
0
  6
Continuous
 62
     7
370
    15
100
AcDbLine
 10
0.4475823403
 20
-2.5383655893
 30
0.0
 11
0.4692883625
 21
-2.6614665584
 31
0.0
  0
LINE
  5
BB
330
1F
100
AcDbEntity
  8
0
  6
Continuous
 62
     7
370
    15
100
AcDbLine
 10
-0.4475823403
 20
-2.5383655893
 30
0.0
 11
-0.4692883625
 21
-2.6614665584
 31
0.0
  0
LINE
  5
BC
330
1F
100
AcDbEntity
  8
0
  6
Continuous
 62
     7
370
    15
100
AcDbLine
 10
-1.288761985
 20
-2.2322012369
 30
0.0
 11
-1.351261985
 21
-2.3404544124
 31
0.0
  0
LINE
  5
BD
330
1F
100
AcDbEntity
  8
0
  6
Continuous
 62
     7
370
    15
100
AcDbLine
 10
2.2322012369
 20
1.288761985
 30
0.0
 11
2.3404544124
 21
1.351261985
 31
0.0
  0
LINE
  5
BE
330
1F
100
AcDbEntity
  8
0
  6
Continuous
 62
     7
370
    15
100
AcDbLine
 10
1.6568004716
 20
1.9744979143
 30
0.0
 11
1.7371489228
 21
2.0702534697
 31
0.0
  0
LINE
  5
BF
330
1F
100
AcDbEntity
  8
0
  6
Continuous
 62
     7
370
    15
100
AcDbLine
 10
0.4475823403
 20
2.5383655893
 30
0.0
 11
0.4692883625
 21
2.6614665584
 31
0.0
  0
LINE
  5
C0
330
1F
100
AcDbEntity
  8
0
  6
Continuous
 62
     7
370
    15
100
AcDbLine
 10
1.288761985
 20
2.2322012369
 30
0.0
 11
1.351261985
 21
2.3404544124
 31
0.0
  0
LINE
  5
C1
330
1F
100
AcDbEntity
  8
0
  6
Continuous
 62
     7
370
    15
100
AcDbLine
 10
-2.2322012369
 20
1.288761985
 30
0.0
 11
-2.3404544124
 21
1.351261985
 31
0.0
  0
LINE
  5
C2
330
1F
100
AcDbEntity
  8
0
  6
Continuous
 62
     7
370
    15
100
AcDbLine
 10
-1.6568004716
 20
1.9744979143
 30
0.0
 11
-1.7371489228
 21
2.0702534697
 31
0.0
  0
ARC
  5
C3
330
1F
100
AcDbEntity
  8
0
  6
Continuous
 62
     7
370
    15
100
AcDbCircle
 10
0.0
 20
0.0
 30
0.0
 40
2.702523970061596
100
AcDbArc
 50
100.0
 51
120.0
  0
ARC
  5
C4
330
1F
100
AcDbEntity
  8
0
  6
Continuous
 62
     7
370
    15
100
AcDbCircle
 10
0.0
 20
0.0
 30
0.0
 40
2.577523970061605
100
AcDbArc
 50
100.0
 51
120.0
  0
ARC
  5
C5
330
1F
100
AcDbEntity
  8
0
  6
Continuous
 62
     7
370
    15
100
AcDbCircle
 10
1.0795275591
 20
-0.2
 30
0.0
 40
0.3
100
AcDbArc
 50
180.0
 51
269.0976669605
  0
ARC
  5
C6
330
1F
100
AcDbEntity
  8
0
  6
Continuous
 62
     7
370
    15
100
AcDbCircle
 10
1.0700787402
 20
-0.2
 30
0.0
 40
0.2999999999999999
100
AcDbArc
 50
270.9023330395
 51
0.0
  0
ARC
  5
C7
330
1F
100
AcDbEntity
  8
0
  6
Continuous
 62
     7
370
    15
100
AcDbCircle
 10
1.0700787402
 20
0.575
 30
0.0
 40
0.2999999999999998
100
AcDbArc
 50
0.0
 51
89.0976669605
  0
ARC
  5
C8
330
1F
100
AcDbEntity
  8
0
  6
Continuous
 62
     7
370
    15
100
AcDbCircle
 10
1.0795275591
 20
0.575
 30
0.0
 40
0.2999999999999999
100
AcDbArc
 50
90.9023330395
 51
180.0
  0
ARC
  5
C9
330
1F
100
AcDbEntity
  8
0
  6
Continuous
 62
     7
370
    15
100
AcDbCircle
 10
-1.0700787402
 20
-0.2
 30
0.0
 40
0.2999999999999998
100
AcDbArc
 50
180.0
 51
269.0976669605
  0
ARC
  5
CA
330
1F
100
AcDbEntity
  8
0
  6
Continuous
 62
     7
370
    15
100
AcDbCircle
 10
-1.0795275591
 20
-0.2
 30
0.0
 40
0.2999999999999999
100
AcDbArc
 50
270.9023330395
 51
0.0
  0
ARC
  5
CB
330
1F
100
AcDbEntity
  8
0
  6
Continuous
 62
     7
370
    15
100
AcDbCircle
 10
-1.0795275591
 20
0.575
 30
0.0
 40
0.2999999999999999
100
AcDbArc
 50
0.0
 51
89.0976669605
  0
ARC
  5
CC
330
1F
100
AcDbEntity
  8
0
  6
Continuous
 62
     7
370
    15
100
AcDbCircle
 10
-1.0700787402
 20
0.575
 30
0.0
 40
0.2999999999999996
100
AcDbArc
 50
90.9023330395
 51
180.0
  0
ARC
  5
CD
330
1F
100
AcDbEntity
  8
0
  6
Continuous
 62
     7
370
    15
100
AcDbCircle
 10
2.2209854492
 20
-2.0537401575
 30
0.0
 40
0.1000000000000006
100
AcDbArc
 50
317.240509784
 51
90.0
  0
ARC
  5
CE
330
1F
100
AcDbEntity
  8
0
  6
Continuous
 62
     7
370
    15
100
AcDbCircle
 10
0.0
 20
0.0
 30
0.0
 40
3.124999999999998
100
AcDbArc
 50
222.759490216
 51
317.240509784
  0
ARC
  5
CF
330
1F
100
AcDbEntity
  8
0
  6
Continuous
 62
     7
370
    15
100
AcDbCircle
 10
-2.2209854492
 20
-2.0537401575
 30
0.0
 40
0.0999999999999996
100
AcDbArc
 50
90.0
 51
222.759490216
  0
ARC
  5
D0
330
1F
100
AcDbEntity
  8
0
  6
Continuous
 62
     7
370
    15
100
AcDbCircle
 10
-2.8180080675
 20
1.0537401575
 30
0.0
 40
0.1000000000000003
100
AcDbArc
 50
192.2746702146
 51
270.0
  0
ARC
  5
D1
330
1F
100
AcDbEntity
  8
0
  6
Continuous
 62
     7
370
    15
100
AcDbCircle
 10
-2.7202941017
 20
1.075
 30
0.0
 40
0.2000000000000014
100
AcDbArc
 50
158.4371654153
 51
192.2746702146
  0
ARC
  5
D2
330
1F
100
AcDbEntity
  8
0
  6
Continuous
 62
     7
370
    15
100
AcDbCircle
 10
0.0
 20
0.0
 30
0.0
 40
3.125000000000002
100
AcDbArc
 50
21.5628345847
 51
158.4371654153
  0
ARC
  5
D3
330
1F
100
AcDbEntity
  8
0
  6
Continuous
 62
     7
370
    15
100
AcDbCircle
 10
2.7202941017
 20
1.075
 30
0.0
 40
0.2000000000000005
100
AcDbArc
 50
347.7253297854
 51
21.5628345847
  0
ARC
  5
D4
330
1F
100
AcDbEntity
  8
0
  6
Continuous
 62
     7
370
    15
100
AcDbCircle
 10
2.8180080675
 20
1.0537401575
 30
0.0
 40
0.0999999999999996
100
AcDbArc
 50
270.0
 51
347.7253297854
  0
ARC
  5
D5
330
1F
100
AcDbEntity
  8
0
  6
Continuous
 62
     7
370
    15
100
AcDbCircle
 10
0.0
 20
0.0
 30
0.0
 40
2.702523970061685
100
AcDbArc
 50
280.0
 51
300.0
  0
ARC
  5
D6
330
1F
100
AcDbEntity
  8
0
  6
Continuous
 62
     7
370
    15
100
AcDbCircle
 10
0.0
 20
0.0
 30
0.0
 40
2.577523970061587
100
AcDbArc
 50
280.0
 51
300.0
  0
ARC
  5
D7
330
1F
100
AcDbEntity
  8
0
  6
Continuous
 62
     7
370
    15
100
AcDbCircle
 10
0.0
 20
0.0
 30
0.0
 40
2.577523970061613
100
AcDbArc
 50
240.0
 51
260.0
  0
ARC
  5
D8
330
1F
100
AcDbEntity
  8
0
  6
Continuous
 62
     7
370
    15
100
AcDbCircle
 10
0.0
 20
0.0
 30
0.0
 40
2.70252397006161
100
AcDbArc
 50
240.0
 51
260.0
  0
ARC
  5
D9
330
1F
100
AcDbEntity
  8
0
  6
Continuous
 62
     7
370
    15
100
AcDbCircle
 10
0.0
 20
0.0
 30
0.0
 40
2.577523970061605
100
AcDbArc
 50
30.0
 51
50.0
  0
ARC
  5
DA
330
1F
100
AcDbEntity
  8
0
  6
Continuous
 62
     7
370
    15
100
AcDbCircle
 10
0.0
 20
0.0
 30
0.0
 40
2.702523970061569
100
AcDbArc
 50
30.0
 51
50.0
  0
ARC
  5
DB
330
1F
100
AcDbEntity
  8
0
  6
Continuous
 62
     7
370
    15
100
AcDbCircle
 10
0.0
 20
0.0
 30
0.0
 40
2.577523970061585
100
AcDbArc
 50
60.0
 51
80.0
  0
ARC
  5
DC
330
1F
100
AcDbEntity
  8
0
  6
Continuous
 62
     7
370
    15
100
AcDbCircle
 10
0.0
 20
0.0
 30
0.0
 40
2.702523970061656
100
AcDbArc
 50
60.0
 51
80.0
  0
ARC
  5
DD
330
1F
100
AcDbEntity
  8
0
  6
Continuous
 62
     7
370
    15
100
AcDbCircle
 10
0.0
 20
0.0
 30
0.0
 40
2.702523970061621
100
AcDbArc
 50
130.0
 51
150.0
  0
ARC
  5
DE
330
1F
100
AcDbEntity
  8
0
  6
Continuous
 62
     7
370
    15
100
AcDbCircle
 10
0.0
 20
0.0
 30
0.0
 40
2.577523970061586
100
AcDbArc
 50
130.0
 51
150.0
  0
MTEXT
  5
222
330
1F
100
AcDbEntity
  8
0
  6
Continuous
 62
     7
100
AcDbMText
 10
-2.9202941017
 20
-3.1651404091
 30
0.0
 40
0.1903
 41
0.0
 71
     1
 72
     1
  1
SolidWorks Student Edition.
  7
SLDTEXTSTYLE0
 73
     1
 44
1.0
  0
MTEXT
  5
223
330
1F
100
AcDbEntity
  8
0
  6
Continuous
 62
     7
100
AcDbMText
 10
-2.9202941017
 20
-3.4505904091
 30
0.0
 40
0.1903
 41
0.0
 71
     1
 72
     1
  1
For Academic Use Only.
  7
SLDTEXTSTYLE0
 73
     1
 44
1.0
  0
LINE
  5
FB
330
1B
100
AcDbEntity
 67
     1
  8
0
  6
Continuous
 62
     7
370
    15
100
AcDbLine
 10
2.3209854492
 20
0.0231299213
 30
0.0
 11
2.3209854492
 21
0.0625
 31
0.0
  0
LINE
  5
FC
330
1B
100
AcDbEntity
 67
     1
  8
0
  6
Continuous
 62
     7
370
    15
100
AcDbLine
 10
-2.3209854492
 20
0.0625
 30
0.0
 11
-2.3209854492
 21
0.0231299213
 31
0.0
  0
LINE
  5
FD
330
1B
100
AcDbEntity
 67
     1
  8
0
  6
Continuous
 62
     7
370
    15
100
AcDbLine
 10
2.9202941017
 20
0.0231299213
 30
0.0
 11
2.9202941017
 21
0.0625
 31
0.0
  0
LINE
  5
FE
330
1B
100
AcDbEntity
 67
     1
  8
0
  6
Continuous
 62
     7
370
    15
100
AcDbLine
 10
-2.9202941017
 20
0.0625
 30
0.0
 11
-2.9202941017
 21
0.0231299213
 31
0.0
  0
LINE
  5
FF
330
1B
100
AcDbEntity
 67
     1
  8
0
  6
Continuous
 62
     7
370
    15
100
AcDbLine
 10
2.2944064558
 20
0.0231299213
 30
0.0
 11
2.2944064558
 21
0.0625
 31
0.0
  0
LINE
  5
100
330
1B
100
AcDbEntity
 67
     1
  8
0
  6
Continuous
 62
     7
370
    15
100
AcDbLine
 10
-2.2944064558
 20
0.0625
 30
0.0
 11
-2.2944064558
 21
0.0231299213
 31
0.0
  0
LINE
  5
101
330
1B
100
AcDbEntity
 67
     1
  8
0
  6
Continuous
 62
     7
370
    15
100
AcDbLine
 10
-2.8180080675
 20
0.0625
 30
0.0
 11
-2.8180080675
 21
0.0231299213
 31
0.0
  0
LINE
  5
102
330
1B
100
AcDbEntity
 67
     1
  8
0
  6
Continuous
 62
     7
370
    15
100
AcDbLine
 10
2.9157220332
 20
0.0625
 30
0.0
 11
2.9157220332
 21
0.0231299213
 31
0.0
  0
LINE
  5
103
330
1B
100
AcDbEntity
 67
     1
  8
0
  6
Continuous
 62
     7
370
    15
100
AcDbLine
 10
2.8180080675
 20
0.0231299213
 30
0.0
 11
2.8180080675
 21
0.0625
 31
0.0
  0
LINE
  5
104
330
1B
100
AcDbEntity
 67
     1
  8
0
  6
Continuous
 62
     7
370
    15
100
AcDbLine
 10
2.9202941017
 20
0.0231299213
 30
0.0
 11
-2.9202941017
 21
0.0231299213
 31
0.0
  0
LINE
  5
105
330
1B
100
AcDbEntity
 67
     1
  8
0
  6
Continuous
 62
     7
370
    15
100
AcDbLine
 10
-2.9202941017
 20
0.0625
 30
0.0
 11
2.9202941017
 21
0.0625
 31
0.0
  0
LINE
  5
106
330
1B
100
AcDbEntity
 67
     1
  8
0
  6
Continuous
 62
     7
370
    15
100
AcDbLine
 10
-2.9157220332
 20
0.0231299213
 30
0.0
 11
-2.9157220332
 21
0.0625
 31
0.0
  0
VIEWPORT
  5
219
330
1B
100
AcDbEntity
 67
     1
  8
0
100
AcDbViewport
 10
0.0
 20
0.0
 30
0.0
 40
8.4
 41
6.4
 68
     1
 69
     1
 12
0.0
 22
0.0
 13
0.0
 23
0.0
 14
0.5
 24
0.5
 15
0.5
 25
0.5
 16
0.0
 26
0.0
 36
1.0
 17
0.0
 27
0.0
 37
0.0
 42
50.0
 43
0.0
 44
0.0
 45
6.375
 50
0.0
 51
0.0
 72
   100
 90
   557152
  1

281
     0
 71
     1
 74
     0
110
0.0
120
0.0
130
0.0
111
1.0
121
0.0
131
0.0
112
0.0
122
1.0
132
0.0
 79
     0
146
0.0
  0
MTEXT
  5
220
330
1B
100
AcDbEntity
 67
     1
  8
0
  6
Continuous
 62
     7
100
AcDbMText
 10
-2.9202941017
 20
-0.0170104879
 30
0.0
 40
0.1903
 41
0.0
 71
     1
 72
     1
  1
SolidWorks Student Edition.
  7
SLDTEXTSTYLE0
 73
     1
 44
1.0
  0
MTEXT
  5
221
330
1B
100
AcDbEntity
 67
     1
  8
0
  6
Continuous
 62
     7
100
AcDbMText
 10
-2.9202941017
 20
-0.3024604879
 30
0.0
 40
0.1903
 41
0.0
 71
     1
 72
     1
  1
For Academic Use Only.
  7
SLDTEXTSTYLE0
 73
     1
 44
1.0
  0
ENDSEC
  0
SECTION
  2
OBJECTS
  0
DICTIONARY
  5
C
330
0
100
AcDbDictionary
281
     1
  3
ACAD_GROUP
350
D
  3
ACAD_LAYOUT
350
1A
  3
ACAD_MLINESTYLE
350
17
  3
ACAD_PLOTSETTINGS
350
19
  3
ACAD_PLOTSTYLENAME
350
E
  3
ACAD_SCALELIST
350
47
  0
DICTIONARY
  5
D
102
{ACAD_REACTORS
330
C
102
}
330
C
100
AcDbDictionary
281
     1
  0
DICTIONARY
  5
1A
102
{ACAD_REACTORS
330
C
102
}
330
C
100
AcDbDictionary
281
     1
  3
_Front
350
1E
  3
_Isometric
350
124
  3
_Left
350
26
  3
Model
350
22
  0
DICTIONARY
  5
17
102
{ACAD_REACTORS
330
C
102
}
330
C
100
AcDbDictionary
281
     1
  3
Standard
350
18
  0
DICTIONARY
  5
19
102
{ACAD_REACTORS
330
C
102
}
330
C
100
AcDbDictionary
281
     1
  0
ACDBDICTIONARYWDFLT
  5
E
102
{ACAD_REACTORS
330
C
102
}
330
C
100
AcDbDictionary
281
     1
  3
Normal
350
F
100
AcDbDictionaryWithDefault
340
F
  0
DICTIONARY
  5
47
102
{ACAD_REACTORS
330
C
102
}
330
C
100
AcDbDictionary
281
     1
  3
A0
350
48
  3
A1
350
49
  3
A2
350
4A
  3
A3
350
4B
  3
A4
350
4C
  3
A5
350
4D
  3
A6
350
4E
  3
A7
350
4F
  3
A8
350
50
  3
A9
350
51
  3
B0
350
52
  3
B1
350
53
  3
B2
350
54
  3
B3
350
55
  3
B4
350
56
  3
B5
350
57
  3
B6
350
58
  3
B7
350
59
  3
B8
350
5A
  3
B9
350
5B
  3
C0
350
5C
  3
C1
350
5D
  3
C2
350
5E
  3
C3
350
5F
  3
C4
350
60
  3
C5
350
61
  3
C6
350
62
  3
C7
350
63
  3
C8
350
64
  3
C9
350
65
  3
D0
350
66
  3
D1
350
67
  3
D2
350
68
  0
LAYOUT
  5
1E
102
{ACAD_REACTORS
330
1A
102
}
330
1A
100
AcDbPlotSettings
  1

  2
none_device
  4
Letter_(8.50_x_11.00_Inches)
  6

 40
6.35
 41
6.35
 42
6.35001
 43
6.35001
 44
215.9
 45
279.4
 46
0.0
 47
0.0
 48
0.0
 49
0.0
140
0.0
141
0.0
142
1.0
143
0.5562465164
 70
   688
 72
     0
 73
     1
 74
     1
  7

 75
     0
147
1.7977640677
148
74.1754701844
149
-0.5875
100
AcDbLayout
  1
_Front
 70
     1
 71
     1
 10
-3.0593559498
 20
-0.1159317078
 11
3.0593557309
 21
4.6121636818
 12
0.0
 22
0.0
 32
0.0
 14
-2.9202941017
 24
0.0231299213
 34
0.0
 15
2.9202941017
 25
0.0625
 35
0.0
146
0.0
 13
0.0
 23
0.0
 33
0.0
 16
1.0
 26
0.0
 36
0.0
 17
0.0
 27
1.0
 37
0.0
 76
     0
330
1B
331
219
  0
LAYOUT
  5
124
102
{ACAD_REACTORS
330
1A
102
}
330
1A
100
AcDbPlotSettings
  1

  2
none_device
  4
Letter_(8.50_x_11.00_Inches)
  6

 40
6.35
 41
6.35
 42
6.35001
 43
6.35001
 44
215.9
 45
279.4
 46
0.0
 47
0.0
 48
0.0
 49
0.0
140
0.0
141
0.0
142
1.0
143
0.5562465164
 70
   688
 72
     0
 73
     1
 74
     1
  7

 75
     0
147
1.7977640677
148
74.1754701844
149
-0.5875
100
AcDbLayout
  1
_Isometric
 70
     1
 71
     3
 10
0.0
 20
0.0
 11
0.0
 21
0.0
 12
0.0
 22
0.0
 32
0.0
 14
0.0
 24
0.0
 34
0.0
 15
0.0
 25
0.0
 35
0.0
146
0.0
 13
0.0
 23
0.0
 33
0.0
 16
1.0
 26
0.0
 36
0.0
 17
0.0
 27
1.0
 37
0.0
 76
     0
330
123
331
21D
  0
LAYOUT
  5
26
102
{ACAD_REACTORS
330
1A
102
}
330
1A
100
AcDbPlotSettings
  1

  2
none_device
  4
Letter_(8.50_x_11.00_Inches)
  6

 40
6.35
 41
6.35
 42
6.35001
 43
6.35001
 44
215.9
 45
279.4
 46
0.0
 47
0.0
 48
0.0
 49
0.0
140
0.0
141
0.0
142
1.0
143
0.5562465164
 70
   688
 72
     0
 73
     1
 74
     1
  7

 75
     0
147
1.7977640677
148
74.1754701844
149
-0.5875
100
AcDbLayout
  1
_Left
 70
     1
 71
     2
 10
0.0
 20
0.0
 11
0.0
 21
0.0
 12
0.0
 22
0.0
 32
0.0
 14
0.0
 24
0.0
 34
0.0
 15
0.0
 25
0.0
 35
0.0
146
0.0
 13
0.0
 23
0.0
 33
0.0
 16
1.0
 26
0.0
 36
0.0
 17
0.0
 27
1.0
 37
0.0
 76
     0
330
23
331
21B
  0
LAYOUT
  5
22
102
{ACAD_REACTORS
330
1A
102
}
330
1A
100
AcDbPlotSettings
  1

  2
none_device
  4
ANSI_A_(11.00_x_8.50_Inches)
  6

 40
6.35
 41
19.05
 42
6.35000508
 43
19.05000254
 44
279.4
 45
215.9
 46
133.34999746
 47
88.89999873
 48
0.0
 49
0.0
140
0.0
141
0.0
142
1.3464
143
1.0
 70
  1696
 72
     0
 73
     0
 74
     0
  7

 75
     0
147
0.5913241897
148
-39.4088153714
149
0.0
100
AcDbLayout
  1
Model
 70
     1
 71
     0
 10
0.0
 20
0.0
 11
12.0
 21
9.0
 12
0.0
 22
0.0
 32
0.0
 14
-2.9202941017
 24
-3.125
 34
0.0
 15
2.9202941017
 25
3.125
 35
0.0
146
0.0
 13
0.0
 23
0.0
 33
0.0
 16
1.0
 26
0.0
 36
0.0
 17
0.0
 27
1.0
 37
0.0
 76
     0
330
1F
331
29
  0
MLINESTYLE
  5
18
102
{ACAD_REACTORS
330
17
102
}
330
17
100
AcDbMlineStyle
  2
Standard
 70
     0
  3

 62
   256
 51
90.0
 52
90.0
 71
     2
 49
0.5
 62
   256
  6
BYLAYER
 49
-0.5
 62
   256
  6
BYLAYER
  0
ACDBPLACEHOLDER
  5
F
102
{ACAD_REACTORS
330
E
102
}
330
E
  0
SCALE
  5
48
102
{ACAD_REACTORS
330
47
102
}
330
47
100
AcDbScale
 70
     0
300
1:1
140
1.0
141
1.0
290
     1
  0
SCALE
  5
49
102
{ACAD_REACTORS
330
47
102
}
330
47
100
AcDbScale
 70
     0
300
1:2
140
1.0
141
2.0
290
     0
  0
SCALE
  5
4A
102
{ACAD_REACTORS
330
47
102
}
330
47
100
AcDbScale
 70
     0
300
1:4
140
1.0
141
4.0
290
     0
  0
SCALE
  5
4B
102
{ACAD_REACTORS
330
47
102
}
330
47
100
AcDbScale
 70
     0
300
1:5
140
1.0
141
5.0
290
     0
  0
SCALE
  5
4C
102
{ACAD_REACTORS
330
47
102
}
330
47
100
AcDbScale
 70
     0
300
1:8
140
1.0
141
8.0
290
     0
  0
SCALE
  5
4D
102
{ACAD_REACTORS
330
47
102
}
330
47
100
AcDbScale
 70
     0
300
1:10
140
1.0
141
10.0
290
     0
  0
SCALE
  5
4E
102
{ACAD_REACTORS
330
47
102
}
330
47
100
AcDbScale
 70
     0
300
1:16
140
1.0
141
16.0
290
     0
  0
SCALE
  5
4F
102
{ACAD_REACTORS
330
47
102
}
330
47
100
AcDbScale
 70
     0
300
1:20
140
1.0
141
20.0
290
     0
  0
SCALE
  5
50
102
{ACAD_REACTORS
330
47
102
}
330
47
100
AcDbScale
 70
     0
300
1:30
140
1.0
141
30.0
290
     0
  0
SCALE
  5
51
102
{ACAD_REACTORS
330
47
102
}
330
47
100
AcDbScale
 70
     0
300
1:40
140
1.0
141
40.0
290
     0
  0
SCALE
  5
52
102
{ACAD_REACTORS
330
47
102
}
330
47
100
AcDbScale
 70
     0
300
1:50
140
1.0
141
50.0
290
     0
  0
SCALE
  5
53
102
{ACAD_REACTORS
330
47
102
}
330
47
100
AcDbScale
 70
     0
300
1:100
140
1.0
141
100.0
290
     0
  0
SCALE
  5
54
102
{ACAD_REACTORS
330
47
102
}
330
47
100
AcDbScale
 70
     0
300
2:1
140
2.0
141
1.0
290
     0
  0
SCALE
  5
55
102
{ACAD_REACTORS
330
47
102
}
330
47
100
AcDbScale
 70
     0
300
4:1
140
4.0
141
1.0
290
     0
  0
SCALE
  5
56
102
{ACAD_REACTORS
330
47
102
}
330
47
100
AcDbScale
 70
     0
300
8:1
140
8.0
141
1.0
290
     0
  0
SCALE
  5
57
102
{ACAD_REACTORS
330
47
102
}
330
47
100
AcDbScale
 70
     0
300
10:1
140
10.0
141
1.0
290
     0
  0
SCALE
  5
58
102
{ACAD_REACTORS
330
47
102
}
330
47
100
AcDbScale
 70
     0
300
100:1
140
100.0
141
1.0
290
     0
  0
SCALE
  5
59
102
{ACAD_REACTORS
330
47
102
}
330
47
100
AcDbScale
 70
     0
300
1/128" = 1'-0"
140
0.0078125
141
12.0
290
     0
  0
SCALE
  5
5A
102
{ACAD_REACTORS
330
47
102
}
330
47
100
AcDbScale
 70
     0
300
1/64" = 1'-0"
140
0.015625
141
12.0
290
     0
  0
SCALE
  5
5B
102
{ACAD_REACTORS
330
47
102
}
330
47
100
AcDbScale
 70
     0
300
1/32" = 1'-0"
140
0.03125
141
12.0
290
     0
  0
SCALE
  5
5C
102
{ACAD_REACTORS
330
47
102
}
330
47
100
AcDbScale
 70
     0
300
1/16" = 1'-0"
140
0.0625
141
12.0
290
     0
  0
SCALE
  5
5D
102
{ACAD_REACTORS
330
47
102
}
330
47
100
AcDbScale
 70
     0
300
3/32" = 1'-0"
140
0.09375
141
12.0
290
     0
  0
SCALE
  5
5E
102
{ACAD_REACTORS
330
47
102
}
330
47
100
AcDbScale
 70
     0
300
1/8" = 1'-0"
140
0.125
141
12.0
290
     0
  0
SCALE
  5
5F
102
{ACAD_REACTORS
330
47
102
}
330
47
100
AcDbScale
 70
     0
300
3/16" = 1'-0"
140
0.1875
141
12.0
290
     0
  0
SCALE
  5
60
102
{ACAD_REACTORS
330
47
102
}
330
47
100
AcDbScale
 70
     0
300
1/4" = 1'-0"
140
0.25
141
12.0
290
     0
  0
SCALE
  5
61
102
{ACAD_REACTORS
330
47
102
}
330
47
100
AcDbScale
 70
     0
300
3/8" = 1'-0"
140
0.375
141
12.0
290
     0
  0
SCALE
  5
62
102
{ACAD_REACTORS
330
47
102
}
330
47
100
AcDbScale
 70
     0
300
1/2" = 1'-0"
140
0.5
141
12.0
290
     0
  0
SCALE
  5
63
102
{ACAD_REACTORS
330
47
102
}
330
47
100
AcDbScale
 70
     0
300
3/4" = 1'-0"
140
0.75
141
12.0
290
     0
  0
SCALE
  5
64
102
{ACAD_REACTORS
330
47
102
}
330
47
100
AcDbScale
 70
     0
300
1" = 1'-0"
140
1.0
141
12.0
290
     0
  0
SCALE
  5
65
102
{ACAD_REACTORS
330
47
102
}
330
47
100
AcDbScale
 70
     0
300
1-1/2" = 1'-0"
140
1.5
141
12.0
290
     0
  0
SCALE
  5
66
102
{ACAD_REACTORS
330
47
102
}
330
47
100
AcDbScale
 70
     0
300
3" = 1'-0"
140
3.0
141
12.0
290
     0
  0
SCALE
  5
67
102
{ACAD_REACTORS
330
47
102
}
330
47
100
AcDbScale
 70
     0
300
6" = 1'-0"
140
6.0
141
12.0
290
     0
  0
SCALE
  5
68
102
{ACAD_REACTORS
330
47
102
}
330
47
100
AcDbScale
 70
     0
300
1'-0" = 1'-0"
140
12.0
141
12.0
290
     0
  0
ENDSEC
  0
EOF
