  0
SECTION
  2
HEADER
  9
$ACADVER
  1
AC1015
  9
$ACADMAINTVER
 70
     6
  9
$DWGCODEPAGE
  3
ANSI_1252
  9
$INSBASE
 10
0.0
 20
0.0
 30
0.0
  9
$EXTMIN
 10
-3.2
 20
0.05
 30
0.0
  9
$EXTMAX
 10
-0.05
 20
0.53125
 30
0.0
  9
$LIMMIN
 10
0.0
 20
0.0
  9
$LIMMAX
 10
12.0
 20
9.0
  9
$ORTHOMODE
 70
     0
  9
$REGENMODE
 70
     1
  9
$FILLMODE
 70
     1
  9
$QTEXTMODE
 70
     0
  9
$MIRRTEXT
 70
     1
  9
$LTSCALE
 40
1.0
  9
$ATTMODE
 70
     1
  9
$TEXTSIZE
 40
0.125
  9
$TRACEWID
 40
0.05
  9
$TEXTSTYLE
  7
Standard
  9
$CLAYER
  8
0
  9
$CELTYPE
  6
ByLayer
  9
$CECOLOR
 62
   256
  9
$CELTSCALE
 40
1.0
  9
$DISPSILH
 70
     0
  9
$DIMSCALE
 40
1.0
  9
$DIMASZ
 40
0.13
  9
$DIMEXO
 40
0.05
  9
$DIMDLI
 40
0.38
  9
$DIMRND
 40
0.0
  9
$DIMDLE
 40
0.0
  9
$DIMEXE
 40
0.125
  9
$DIMTP
 40
0.0
  9
$DIMTM
 40
0.0
  9
$DIMTXT
 40
0.125
  9
$DIMCEN
 40
0.09
  9
$DIMTSZ
 40
0.0
  9
$DIMTOL
 70
     0
  9
$DIMLIM
 70
     0
  9
$DIMTIH
 70
     1
  9
$DIMTOH
 70
     1
  9
$DIMSE1
 70
     0
  9
$DIMSE2
 70
     0
  9
$DIMTAD
 70
     0
  9
$DIMZIN
 70
     0
  9
$DIMBLK
  1

  9
$DIMASO
 70
     1
  9
$DIMSHO
 70
     1
  9
$DIMPOST
  1

  9
$DIMAPOST
  1

  9
$DIMALT
 70
     0
  9
$DIMALTD
 70
     2
  9
$DIMALTF
 40
25.4
  9
$DIMLFAC
 40
1.0
  9
$DIMTOFL
 70
     0
  9
$DIMTVP
 40
0.0
  9
$DIMTIX
 70
     0
  9
$DIMSOXD
 70
     0
  9
$DIMSAH
 70
     0
  9
$DIMBLK1
  1

  9
$DIMBLK2
  1

  9
$DIMSTYLE
  2
Standard
  9
$DIMCLRD
 70
     0
  9
$DIMCLRE
 70
     0
  9
$DIMCLRT
 70
     0
  9
$DIMTFAC
 40
1.0
  9
$DIMGAP
 40
0.06
  9
$DIMJUST
 70
     0
  9
$DIMSD1
 70
     0
  9
$DIMSD2
 70
     0
  9
$DIMTOLJ
 70
     1
  9
$DIMTZIN
 70
     0
  9
$DIMALTZ
 70
     0
  9
$DIMALTTZ
 70
     0
  9
$DIMUPT
 70
     0
  9
$DIMDEC
 70
     2
  9
$DIMTDEC
 70
     2
  9
$DIMALTU
 70
     2
  9
$DIMALTTD
 70
     2
  9
$DIMTXSTY
  7
Standard
  9
$DIMAUNIT
 70
     0
  9
$DIMADEC
 70
     2
  9
$DIMALTRND
 40
0.0
  9
$DIMAZIN
 70
     0
  9
$DIMDSEP
 70
    46
  9
$DIMATFIT
 70
     3
  9
$DIMFRAC
 70
     0
  9
$DIMLDRBLK
  1

  9
$DIMLUNIT
 70
     2
  9
$DIMLWD
 70
    -2
  9
$DIMLWE
 70
    -2
  9
$DIMTMOVE
 70
     0
  9
$LUNITS
 70
     2
  9
$LUPREC
 70
     2
  9
$SKETCHINC
 40
0.1
  9
$FILLETRAD
 40
0.5
  9
$AUNITS
 70
     0
  9
$AUPREC
 70
     2
  9
$MENU
  1
.
  9
$ELEVATION
 40
0.0
  9
$PELEVATION
 40
0.0
  9
$THICKNESS
 40
0.0
  9
$LIMCHECK
 70
     0
  9
$CHAMFERA
 40
0.0
  9
$CHAMFERB
 40
0.0
  9
$CHAMFERC
 40
0.0
  9
$CHAMFERD
 40
0.0
  9
$SKPOLY
 70
     0
  9
$TDCREATE
 40
2457682.915909085
  9
$TDUCREATE
 40
2457683.082575752
  9
$TDUPDATE
 40
2457682.915958877
  9
$TDUUPDATE
 40
2457683.082625544
  9
$TDINDWG
 40
0.0000000116
  9
$TDUSRTIMER
 40
0.0000000116
  9
$USRTIMER
 70
     1
  9
$ANGBASE
 50
0.0
  9
$ANGDIR
 70
     0
  9
$PDMODE
 70
     0
  9
$PDSIZE
 40
-1.0
  9
$PLINEWID
 40
0.0
  9
$SPLFRAME
 70
     0
  9
$SPLINETYPE
 70
     6
  9
$SPLINESEGS
 70
     8
  9
$HANDSEED
  5
1FB
  9
$SURFTAB1
 70
     6
  9
$SURFTAB2
 70
     6
  9
$SURFTYPE
 70
     6
  9
$SURFU
 70
     6
  9
$SURFV
 70
     6
  9
$UCSBASE
  2

  9
$UCSNAME
  2

  9
$UCSORG
 10
0.0
 20
0.0
 30
0.0
  9
$UCSXDIR
 10
1.0
 20
0.0
 30
0.0
  9
$UCSYDIR
 10
0.0
 20
1.0
 30
0.0
  9
$UCSORTHOREF
  2

  9
$UCSORTHOVIEW
 70
     0
  9
$UCSORGTOP
 10
0.0
 20
0.0
 30
0.0
  9
$UCSORGBOTTOM
 10
0.0
 20
0.0
 30
0.0
  9
$UCSORGLEFT
 10
0.0
 20
0.0
 30
0.0
  9
$UCSORGRIGHT
 10
0.0
 20
0.0
 30
0.0
  9
$UCSORGFRONT
 10
0.0
 20
0.0
 30
0.0
  9
$UCSORGBACK
 10
0.0
 20
0.0
 30
0.0
  9
$PUCSBASE
  2

  9
$PUCSNAME
  2

  9
$PUCSORG
 10
0.0
 20
0.0
 30
0.0
  9
$PUCSXDIR
 10
1.0
 20
0.0
 30
0.0
  9
$PUCSYDIR
 10
0.0
 20
1.0
 30
0.0
  9
$PUCSORTHOREF
  2

  9
$PUCSORTHOVIEW
 70
     0
  9
$PUCSORGTOP
 10
0.0
 20
0.0
 30
0.0
  9
$PUCSORGBOTTOM
 10
0.0
 20
0.0
 30
0.0
  9
$PUCSORGLEFT
 10
0.0
 20
0.0
 30
0.0
  9
$PUCSORGRIGHT
 10
0.0
 20
0.0
 30
0.0
  9
$PUCSORGFRONT
 10
0.0
 20
0.0
 30
0.0
  9
$PUCSORGBACK
 10
0.0
 20
0.0
 30
0.0
  9
$USERI1
 70
     0
  9
$USERI2
 70
     0
  9
$USERI3
 70
     0
  9
$USERI4
 70
     0
  9
$USERI5
 70
     0
  9
$USERR1
 40
0.0
  9
$USERR2
 40
0.0
  9
$USERR3
 40
0.0
  9
$USERR4
 40
0.0
  9
$USERR5
 40
0.0
  9
$WORLDVIEW
 70
     1
  9
$SHADEDGE
 70
     3
  9
$SHADEDIF
 70
    70
  9
$TILEMODE
 70
     1
  9
$MAXACTVP
 70
    64
  9
$PINSBASE
 10
0.0
 20
0.0
 30
0.0
  9
$PLIMCHECK
 70
     0
  9
$PEXTMIN
 10
-3.2
 20
0.03125
 30
0.0
  9
$PEXTMAX
 10
-0.05
 20
2.0866141732
 30
0.0
  9
$PLIMMIN
 10
-3.2750001209
 20
-0.0437500028
  9
$PLIMMAX
 10
0.0250000028
 20
2.5062500928
  9
$UNITMODE
 70
     0
  9
$VISRETAIN
 70
     1
  9
$PLINEGEN
 70
     0
  9
$PSLTSCALE
 70
     1
  9
$TREEDEPTH
 70
  3020
  9
$CMLSTYLE
  2
Standard
  9
$CMLJUST
 70
     0
  9
$CMLSCALE
 40
1.0
  9
$PROXYGRAPHICS
 70
     1
  9
$MEASUREMENT
 70
     0
  9
$CELWEIGHT
370
    -1
  9
$ENDCAPS
280
     0
  9
$JOINSTYLE
280
     0
  9
$LWDISPLAY
290
     1
  9
$INSUNITS
 70
     1
  9
$HYPERLINKBASE
  1

  9
$STYLESHEET
  1

  9
$XEDIT
290
     1
  9
$CEPSNTYPE
380
     0
  9
$PSTYLEMODE
290
     1
  9
$FINGERPRINTGUID
  2
{CB4F261A-ED62-4348-818E-7849A822BEFB}
  9
$VERSIONGUID
  2
{FAEB1C32-E019-11D5-929B-00C0DF256EC4}
  9
$EXTNAMES
290
     1
  9
$PSVPSCALE
 40
0.0
  9
$OLESTARTUP
290
     0
  0
ENDSEC
  0
SECTION
  2
CLASSES
  0
CLASS
  1
ACDBDICTIONARYWDFLT
  2
AcDbDictionaryWithDefault
  3
ObjectDBX Classes
 90
        0
280
     0
281
     0
  0
CLASS
  1
VISUALSTYLE
  2
AcDbVisualStyle
  3
ObjectDBX Classes
 90
     4095
280
     0
281
     0
  0
CLASS
  1
MATERIAL
  2
AcDbMaterial
  3
ObjectDBX Classes
 90
     1153
280
     0
281
     0
  0
CLASS
  1
SCALE
  2
AcDbScale
  3
ObjectDBX Classes
 90
     1153
280
     0
281
     0
  0
CLASS
  1
SUN
  2
AcDbSun
  3
SCENEOE
 90
     1153
280
     0
281
     0
  0
CLASS
  1
ACDBPLACEHOLDER
  2
AcDbPlaceHolder
  3
ObjectDBX Classes
 90
        0
280
     0
281
     0
  0
CLASS
  1
LAYOUT
  2
AcDbLayout
  3
ObjectDBX Classes
 90
        0
280
     0
281
     0
  0
ENDSEC
  0
SECTION
  2
TABLES
  0
TABLE
  2
VPORT
  5
8
330
0
100
AcDbSymbolTable
 70
     1
  0
VPORT
  5
29
330
8
100
AcDbSymbolTableRecord
100
AcDbViewportTableRecord
  2
*Active
 70
     0
 10
0.0
 20
0.0
 11
1.0
 21
1.0
 12
-1.625
 22
0.290625
 13
0.0
 23
0.0
 14
0.5
 24
0.5
 15
0.5
 25
0.5
 16
0.0
 26
0.0
 36
1.0
 17
0.0
 27
0.0
 37
0.0
 40
0.490875
 41
6.5454545455
 42
50.0
 43
0.0
 44
0.0
 50
0.0
 51
0.0
 71
     0
 72
   100
 73
     1
 74
     3
 75
     0
 76
     0
 77
     0
 78
     0
281
     0
 65
     1
110
0.0
120
0.0
130
0.0
111
1.0
121
0.0
131
0.0
112
0.0
122
1.0
132
0.0
 79
     0
146
0.0
  0
ENDTAB
  0
TABLE
  2
LTYPE
  5
5
330
0
100
AcDbSymbolTable
 70
     6
  0
LTYPE
  5
14
330
5
100
AcDbSymbolTableRecord
100
AcDbLinetypeTableRecord
  2
ByBlock
 70
     0
  3

 72
    65
 73
     0
 40
0.0
  0
LTYPE
  5
15
330
5
100
AcDbSymbolTableRecord
100
AcDbLinetypeTableRecord
  2
ByLayer
 70
     0
  3

 72
    65
 73
     0
 40
0.0
  0
LTYPE
  5
16
330
5
100
AcDbSymbolTableRecord
100
AcDbLinetypeTableRecord
  2
Continuous
 70
     0
  3
Solid line
 72
    65
 73
     0
 40
0.0
  0
LTYPE
  5
6A
330
5
100
AcDbSymbolTableRecord
100
AcDbLinetypeTableRecord
  2
HIDDEN
 70
     0
  3
Hidden __ __ __ __ __ __ __ __ __ __ __ __ __ __
 72
    65
 73
     2
 40
0.075
 49
0.05
 74
     0
 49
-0.025
 74
     0
  0
LTYPE
  5
6B
330
5
100
AcDbSymbolTableRecord
100
AcDbLinetypeTableRecord
  2
PHANTOM
 70
     0
  3
Phantom ______  __  __  ______  __  __  ______
 72
    65
 73
     6
 40
0.5
 49
0.25
 74
     0
 49
-0.05
 74
     0
 49
0.05
 74
     0
 49
-0.05
 74
     0
 49
0.05
 74
     0
 49
-0.05
 74
     0
  0
LTYPE
  5
6C
330
5
100
AcDbSymbolTableRecord
100
AcDbLinetypeTableRecord
  2
CENTER
 70
     0
  3
Center ____ _ ____ _ ____ _ ____ _ ____ _ ____
 72
    65
 73
     4
 40
0.4
 49
0.25
 74
     0
 49
-0.05
 74
     0
 49
0.05
 74
     0
 49
-0.05
 74
     0
  0
LTYPE
  5
6D
330
5
100
AcDbSymbolTableRecord
100
AcDbLinetypeTableRecord
  2
CENTERX2
 70
     0
  3
Center (2x) ________  __  ________  __  _____
 72
    65
 73
     4
 40
0.8
 49
0.5
 74
     0
 49
-0.1
 74
     0
 49
0.1
 74
     0
 49
-0.1
 74
     0
  0
LTYPE
  5
6E
330
5
100
AcDbSymbolTableRecord
100
AcDbLinetypeTableRecord
  2
DOT2
 70
     0
  3
Dot (.5x) ........................................
 72
    65
 73
     2
 40
0.025
 49
0.0
 74
     0
 49
-0.025
 74
     0
  0
ENDTAB
  0
TABLE
  2
LAYER
  5
2
330
0
100
AcDbSymbolTable
 70
     1
  0
LAYER
  5
10
330
2
100
AcDbSymbolTableRecord
100
AcDbLayerTableRecord
  2
0
 70
     0
 62
     7
  6
Continuous
370
    -3
390
F
  0
ENDTAB
  0
TABLE
  2
STYLE
  5
3
330
0
100
AcDbSymbolTable
 70
     2
  0
STYLE
  5
11
330
3
100
AcDbSymbolTableRecord
100
AcDbTextStyleTableRecord
  2
Standard
 70
     0
 40
0.0
 41
1.0
 50
0.0
 71
     0
 42
0.125
  3
txt
  4

  0
STYLE
  5
1F2
330
3
100
AcDbSymbolTableRecord
100
AcDbTextStyleTableRecord
  2
SLDTEXTSTYLE0
 70
     0
 40
0.0
 41
0.7
 50
0.0
 71
     0
 42
0.125
  3
TXT
  4

  0
ENDTAB
  0
TABLE
  2
VIEW
  5
6
330
0
100
AcDbSymbolTable
 70
     0
  0
ENDTAB
  0
TABLE
  2
UCS
  5
7
330
0
100
AcDbSymbolTable
 70
     0
  0
ENDTAB
  0
TABLE
  2
APPID
  5
9
330
0
100
AcDbSymbolTable
 70
     1
  0
APPID
  5
12
330
9
100
AcDbSymbolTableRecord
100
AcDbRegAppTableRecord
  2
ACAD
 70
     0
  0
ENDTAB
  0
TABLE
  2
DIMSTYLE
  5
A
330
0
100
AcDbSymbolTable
 70
     1
100
AcDbDimStyleTable
  0
DIMSTYLE
105
27
330
A
100
AcDbSymbolTableRecord
100
AcDbDimStyleTableRecord
  2
Standard
 70
     0
178
     0
340
11
  0
ENDTAB
  0
TABLE
  2
BLOCK_RECORD
  5
1
330
0
100
AcDbSymbolTable
 70
     2
  0
BLOCK_RECORD
  5
1F
330
1
100
AcDbSymbolTableRecord
100
AcDbBlockTableRecord
  2
*Model_Space
340
22
  0
BLOCK_RECORD
  5
1B
330
1
100
AcDbSymbolTableRecord
100
AcDbBlockTableRecord
  2
*Paper_Space
340
1E
  0
BLOCK_RECORD
  5
23
330
1
100
AcDbSymbolTableRecord
100
AcDbBlockTableRecord
  2
*Paper_Space0
340
26
  0
BLOCK_RECORD
  5
FE
330
1
100
AcDbSymbolTableRecord
100
AcDbBlockTableRecord
  2
*Paper_Space1
340
FF
  0
ENDTAB
  0
ENDSEC
  0
SECTION
  2
BLOCKS
  0
BLOCK
  5
20
330
1F
100
AcDbEntity
  8
0
100
AcDbBlockBegin
  2
*Model_Space
 70
     0
 10
0.0
 20
0.0
 30
0.0
  3
*Model_Space
  1
*Model_Space
  0
ENDBLK
  5
21
330
1F
100
AcDbEntity
  8
0
100
AcDbBlockEnd
  0
BLOCK
  5
1C
330
1B
100
AcDbEntity
 67
     1
  8
0
100
AcDbBlockBegin
  2
*Paper_Space
 70
     0
 10
0.0
 20
0.0
 30
0.0
  3
*Paper_Space
  1
*Paper_Space
  0
ENDBLK
  5
1D
330
1B
100
AcDbEntity
 67
     1
  8
0
100
AcDbBlockEnd
  0
BLOCK
  5
24
330
23
100
AcDbEntity
  8
0
100
AcDbBlockBegin
  2
*Paper_Space0
 70
     0
 10
0.0
 20
0.0
 30
0.0
  3
*Paper_Space0
  1
*Paper_Space0
  0
LINE
  5
F4
330
23
100
AcDbEntity
  8
0
  6
Continuous
 62
     7
370
    15
100
AcDbLine
 10
-0.05
 20
0.03125
 30
0.0
 11
-0.05
 21
0.0625
 31
0.0
  0
LINE
  5
F5
330
23
100
AcDbEntity
  8
0
  6
Continuous
 62
     7
370
    15
100
AcDbLine
 10
-0.05
 20
2.0553641732
 30
0.0
 11
-0.05
 21
2.0866141732
 31
0.0
  0
LINE
  5
F6
330
23
100
AcDbEntity
  8
0
  6
Continuous
 62
     7
370
    15
100
AcDbLine
 10
-0.25
 20
0.03125
 30
0.0
 11
-0.25
 21
0.0625
 31
0.0
  0
LINE
  5
F7
330
23
100
AcDbEntity
  8
0
  6
Continuous
 62
     7
370
    15
100
AcDbLine
 10
-0.05
 20
0.0625
 30
0.0
 11
-0.5
 21
0.0625
 31
0.0
  0
LINE
  5
F8
330
23
100
AcDbEntity
  8
0
  6
Continuous
 62
     7
370
    15
100
AcDbLine
 10
-0.05
 20
2.0866141732
 30
0.0
 11
-0.53125
 21
2.0866141732
 31
0.0
  0
LINE
  5
F9
330
23
100
AcDbEntity
  8
0
  6
Continuous
 62
     7
370
    15
100
AcDbLine
 10
-0.05
 20
0.03125
 30
0.0
 11
-0.53125
 21
0.03125
 31
0.0
  0
LINE
  5
FA
330
23
100
AcDbEntity
  8
0
  6
Continuous
 62
     7
370
    15
100
AcDbLine
 10
-0.53125
 20
0.03125
 30
0.0
 11
-0.53125
 21
2.0866141732
 31
0.0
  0
LINE
  5
FB
330
23
100
AcDbEntity
  8
0
  6
Continuous
 62
     7
370
    15
100
AcDbLine
 10
-0.5
 20
0.0625
 30
0.0
 11
-0.5
 21
2.0866141732
 31
0.0
  0
LINE
  5
FC
330
23
100
AcDbEntity
  8
0
  6
Continuous
 62
     7
370
    15
100
AcDbLine
 10
-0.25
 20
2.0553641732
 30
0.0
 11
-0.25
 21
2.0866141732
 31
0.0
  0
LINE
  5
FD
330
23
100
AcDbEntity
  8
0
  6
Continuous
 62
     7
370
    15
100
AcDbLine
 10
-0.05
 20
2.0553641732
 30
0.0
 11
-0.5
 21
2.0553641732
 31
0.0
  0
VIEWPORT
  5
1EE
330
23
100
AcDbEntity
  8
0
100
AcDbViewport
 10
0.0
 20
0.0
 30
0.0
 40
8.4
 41
6.4
 68
     1
 69
     1
 12
-1.625
 22
0.290625
 13
0.0
 23
0.0
 14
0.5
 24
0.5
 15
0.5
 25
0.5
 16
0.0
 26
0.0
 36
1.0
 17
0.0
 27
0.0
 37
0.0
 42
50.0
 43
0.0
 44
0.0
 45
2.448
 50
0.0
 51
0.0
 72
   100
 90
   557152
  1

281
     0
 71
     1
 74
     0
110
0.0
120
0.0
130
0.0
111
1.0
121
0.0
131
0.0
112
0.0
122
1.0
132
0.0
 79
     0
146
0.0
  0
MTEXT
  5
1F7
330
23
100
AcDbEntity
  8
0
  6
Continuous
 62
     7
100
AcDbMText
 10
-0.53125
 20
-0.0088904091
 30
0.0
 40
0.1903
 41
0.0
 71
     1
 72
     1
  1
SolidWorks Student Edition.
  7
SLDTEXTSTYLE0
 73
     1
 44
1.0
  0
MTEXT
  5
1F8
330
23
100
AcDbEntity
  8
0
  6
Continuous
 62
     7
100
AcDbMText
 10
-0.53125
 20
-0.2943404091
 30
0.0
 40
0.1903
 41
0.0
 71
     1
 72
     1
  1
For Academic Use Only.
  7
SLDTEXTSTYLE0
 73
     1
 44
1.0
  0
ENDBLK
  5
25
330
23
100
AcDbEntity
  8
0
100
AcDbBlockEnd
  0
BLOCK
  5
100
330
FE
100
AcDbEntity
  8
0
100
AcDbBlockBegin
  2
*Paper_Space1
 70
     0
 10
0.0
 20
0.0
 30
0.0
  3
*Paper_Space1
  1
*Paper_Space1
  0
LWPOLYLINE
  5
108
330
FE
100
AcDbEntity
  8
0
  6
Continuous
 62
     7
370
    15
100
AcDbPolyline
 90
       28
 70
   128
 43
0.0
 10
-0.5067598599
 20
2.2004538991
 10
-0.5241341178
 20
2.1915280054
 10
-0.5431859
 20
2.183826871
 10
-0.5636575637
 20
2.1774546405
 10
-0.5852722649
 20
2.1724974875
 10
-0.6077377016
 20
2.1690224489
 10
-0.6307500675
 20
2.1670765187
 10
-0.6539981598
 20
2.1666860122
 10
-0.6771675879
 20
2.1678562104
 10
-0.6999450251
 20
2.1705712882
 10
-0.7220224456
 20
2.1747945291
 10
-0.74310129
 20
2.1804688209
 10
-0.7628965034
 20
2.1875174284
 10
-0.7811403892
 20
2.1958450315
 10
-0.7975862303
 20
2.2053390135
 10
-0.8120116249
 20
2.2158709846
 10
-0.8242214943
 20
2.227298518
 10
-0.8340507209
 20
2.2394670759
 10
-0.8413663813
 20
2.2522120994
 10
-0.8460695438
 20
2.265361234
 10
-0.8480966061
 20
2.2787366602
 10
-0.8474201557
 20
2.2921574982
 10
-0.8440493404
 20
2.3054422542
 10
-0.8380297448
 20
2.3184112748
 10
-0.8294427735
 20
2.3308891762
 10
-0.8184045506
 20
2.3427072161
 10
-0.8050643491
 20
2.3537055758
 10
-0.7896025723
 20
2.3637355215
  0
LWPOLYLINE
  5
10C
330
FE
100
AcDbEntity
  8
0
  6
Continuous
 62
     7
370
    15
100
AcDbPolyline
 90
       28
 70
   128
 43
0.0
 10
-1.4377837884
 20
2.7379225727
 10
-1.4532455652
 20
2.7278926271
 10
-1.4665857667
 20
2.7168942674
 10
-1.4776239896
 20
2.7050762274
 10
-1.4862109609
 20
2.6925983261
 10
-1.4922305565
 20
2.6796293055
 10
-1.4956013718
 20
2.6663445494
 10
-1.4962778222
 20
2.6529237114
 10
-1.4942507599
 20
2.6395482853
 10
-1.4895475974
 20
2.6263991507
 10
-1.482231937
 20
2.6136541271
 10
-1.4724027104
 20
2.6014855692
 10
-1.460192841
 20
2.5900580358
 10
-1.4457674464
 20
2.5795260647
 10
-1.4293216053
 20
2.5700320827
 10
-1.4110777194
 20
2.5617044797
 10
-1.3912825061
 20
2.5546558721
 10
-1.3702036616
 20
2.5489815804
 10
-1.3481262412
 20
2.5447583395
 10
-1.325348804
 20
2.5420432616
 10
-1.3021793759
 20
2.5408730634
 10
-1.2789312836
 20
2.5412635699
 10
-1.2559189177
 20
2.5432095002
 10
-1.2334534809
 20
2.5466845388
 10
-1.2118387798
 20
2.5516416918
 10
-1.1913671161
 20
2.5580139223
 10
-1.1723153339
 20
2.5657150567
 10
-1.1549410759
 20
2.5746409504
  0
LWPOLYLINE
  5
112
330
FE
100
AcDbEntity
  8
0
  6
Continuous
 62
     7
370
    15
100
AcDbPolyline
 90
       31
 70
   128
 43
0.0
 10
-1.340556606
 20
2.6307690081
 10
-1.3304023719
 20
2.6260221232
 10
-1.318760429
 20
2.6225977298
 10
-1.3061395862
 20
2.6206454902
 10
-1.2930914349
 20
2.6202507266
 10
-1.2801862419
 20
2.6214306922
 10
-1.2679880259
 20
2.6241338167
 10
-1.2570299077
 20
2.6282419607
 10
-1.2477908096
 20
2.6335755785
 10
-1.2406745244
 20
2.6399015655
 10
-1.235992068
 20
2.6469434457
 10
-1.2339480863
 20
2.654393455
 10
-1.2346319109
 20
2.6619259925
 10
-1.2380136555
 20
2.6692118499
 10
-1.2439455217
 20
2.6759326005
 10
-1.2521682584
 20
2.6817945151
 10
-1.2623224925
 20
2.6865413999
 10
-1.2739644353
 20
2.6899657933
 10
-1.2865852781
 20
2.691918033
 10
-1.2996334294
 20
2.6923127965
 10
-1.3125386225
 20
2.691132831
 10
-1.3247368384
 20
2.6884297064
 10
-1.3356949566
 20
2.6843215624
 10
-1.3449340548
 20
2.6789879446
 10
-1.3520503399
 20
2.6726619576
 10
-1.3567327963
 20
2.6656200775
 10
-1.3587767781
 20
2.6581700681
 10
-1.3580929535
 20
2.6506375307
 10
-1.3547112088
 20
2.6433516732
 10
-1.3487793427
 20
2.6366309227
 10
-1.340556606
 20
2.6307690081
  0
LWPOLYLINE
  5
113
330
FE
100
AcDbEntity
  8
0
  6
Continuous
 62
     7
370
    15
100
AcDbPolyline
 90
       31
 70
   128
 43
0.0
 10
-0.6923753899
 20
2.2565819568
 10
-0.6822211558
 20
2.251835072
 10
-0.6705792129
 20
2.2484106785
 10
-0.6579583702
 20
2.2464584389
 10
-0.6449102188
 20
2.2460636753
 10
-0.6320050258
 20
2.2472436409
 10
-0.6198068099
 20
2.2499467654
 10
-0.6088486916
 20
2.2540549094
 10
-0.5996095935
 20
2.2593885273
 10
-0.5924933083
 20
2.2657145143
 10
-0.5878108519
 20
2.2727563944
 10
-0.5857668702
 20
2.2802064038
 10
-0.5864506948
 20
2.2877389412
 10
-0.5898324394
 20
2.2950247987
 10
-0.5957643056
 20
2.3017455492
 10
-0.6039870423
 20
2.3076074638
 10
-0.6141412764
 20
2.3123543486
 10
-0.6257832192
 20
2.3157787421
 10
-0.638404062
 20
2.3177309817
 10
-0.6514522134
 20
2.3181257453
 10
-0.6643574064
 20
2.3169457797
 10
-0.6765556223
 20
2.3142426552
 10
-0.6875137405
 20
2.3101345112
 10
-0.6967528387
 20
2.3048008934
 10
-0.7038691238
 20
2.2984749064
 10
-0.7085515802
 20
2.2914330262
 10
-0.710595562
 20
2.2839830168
 10
-0.7099117374
 20
2.2764504794
 10
-0.7065299927
 20
2.269164622
 10
-0.7005981266
 20
2.2624438714
 10
-0.6923753899
 20
2.2565819568
  0
LWPOLYLINE
  5
119
330
FE
100
AcDbEntity
  8
0
  6
Continuous
 62
     7
370
    15
100
AcDbPolyline
 90
       30
 70
   128
 43
0.0
 10
-0.7836636177
 20
1.8027195438
 10
-0.7826873325
 20
1.7917898751
 10
-0.7798041267
 20
1.7802440707
 10
-0.775148816
 20
1.7686219995
 10
-0.7689390774
 20
1.7574670966
 10
-0.7614652715
 20
1.7473009528
 10
-0.753076865
 20
1.7385989259
 10
-0.7441660907
 20
1.7317679128
 10
-0.7351496062
 20
1.7271273241
 10
-0.7264490126
 20
1.7248941486
 10
-0.7184711397
 20
1.7251728072
 10
-0.7115890242
 20
1.72795027
 10
-0.7061244661
 20
1.7330966661
 10
-0.702332982
 20
1.7403713555
 10
-0.7003918576
 20
1.7494341819
 10
-0.7003918576
 20
1.7598613777
 10
-0.702332982
 20
1.7711653788
 10
-0.7061244661
 20
1.7828176226
 10
-0.7115890242
 20
1.7942732631
 10
-0.7184711397
 20
1.8049966474
 10
-0.7264490126
 20
1.8144863618
 10
-0.7351496062
 20
1.822298678
 10
-0.7441660907
 20
1.8280683007
 10
-0.753076865
 20
1.8315254487
 10
-0.7614652715
 20
1.8325084696
 10
-0.7689390774
 20
1.8309713986
 10
-0.775148816
 20
1.8269861072
 10
-0.7798041267
 20
1.8207389433
 10
-0.7826873325
 20
1.8125220174
 10
-0.7836636177
 20
1.8027195438
  0
LWPOLYLINE
  5
11A
330
FE
100
AcDbEntity
  8
0
  6
Continuous
 62
     7
370
    15
100
AcDbPolyline
 90
       30
 70
   128
 43
0.0
 10
-0.8908431889
 20
1.8645929932
 10
-0.8898669036
 20
1.8743954668
 10
-0.8869836979
 20
1.8826123927
 10
-0.8823283872
 20
1.8888595566
 10
-0.8761186486
 20
1.892844848
 10
-0.8686448427
 20
1.894381919
 10
-0.8602564362
 20
1.8933988981
 10
-0.8513456618
 20
1.8899417501
 10
-0.8423291774
 20
1.8841721274
 10
-0.8336285837
 20
1.8763598113
 10
-0.8256507109
 20
1.8668700968
 10
-0.8187685954
 20
1.8561467125
 10
-0.8133040373
 20
1.844691072
 10
-0.8095125532
 20
1.8330388282
 10
-0.8075714287
 20
1.8217348272
 10
-0.8075714287
 20
1.8113076314
 10
-0.8095125532
 20
1.8022448049
 10
-0.8133040373
 20
1.7949701155
 10
-0.8187685954
 20
1.7898237195
 10
-0.8256507109
 20
1.7870462566
 10
-0.8336285837
 20
1.7867675981
 10
-0.8423291774
 20
1.7890007735
 10
-0.8513456618
 20
1.7936413622
 10
-0.8602564362
 20
1.8004723753
 10
-0.8686448427
 20
1.8091744023
 10
-0.8761186486
 20
1.819340546
 10
-0.8823283872
 20
1.8304954489
 10
-0.8869836979
 20
1.8421175202
 10
-0.8898669036
 20
1.8536633246
 10
-0.8908431889
 20
1.8645929932
  0
LWPOLYLINE
  5
11B
330
FE
100
AcDbEntity
  8
0
  6
Continuous
 62
     7
370
    15
100
AcDbPolyline
 90
       45
 70
   128
 43
0.0
 10
-1.0745795966
 20
1.5296413163
 10
-1.0736586787
 20
1.51424082
 10
-1.0709146723
 20
1.4980905641
 10
-1.0664034374
 20
1.4815193215
 10
-1.0602168098
 20
1.4648644347
 10
-1.0524807313
 20
1.4484649493
 10
-1.0433526862
 20
1.4326547115
 10
-1.0330184951
 20
1.4177555721
 10
-1.0216885325
 20
1.4040708346
 10
-1.0095934437
 20
1.3918790809
 10
-0.9969794497
 20
1.3814284999
 10
-0.9841033352
 20
1.3729318352
 10
-0.9712272207
 20
1.3665620545
 10
-0.9586132268
 20
1.3624488281
 10
-0.9465181379
 20
1.3606758895
 10
-0.9351881753
 20
1.3612793306
 10
-0.9248539843
 20
1.364246867
 10
-0.9157259392
 20
1.3695180883
 10
-0.9079898607
 20
1.3769856876
 10
-0.9018032331
 20
1.3864976461
 10
-0.8972919982
 20
1.3978603278
 10
-0.8945479917
 20
1.4108424213
 10
-0.8936270739
 20
1.4251796485
 10
-0.8945479917
 20
1.4405801448
 10
-0.8972919982
 20
1.4567304006
 10
-0.9018032331
 20
1.4733016433
 10
-0.9079898607
 20
1.4899565301
 10
-0.9157259392
 20
1.5063560155
 10
-0.9248539843
 20
1.5221662533
 10
-0.9351881753
 20
1.5370653927
 10
-0.9465181379
 20
1.5507501302
 10
-0.9586132268
 20
1.5629418839
 10
-0.9712272207
 20
1.5733924649
 10
-0.9841033352
 20
1.5818891296
 10
-0.9969794497
 20
1.5882589103
 10
-1.0095934437
 20
1.5923721367
 10
-1.0216885325
 20
1.5941450753
 10
-1.0330184951
 20
1.5935416342
 10
-1.0433526862
 20
1.5905740978
 10
-1.0524807313
 20
1.5853028765
 10
-1.0602168098
 20
1.5778352772
 10
-1.0664034374
 20
1.5683233187
 10
-1.0709146723
 20
1.556960637
 10
-1.0736586787
 20
1.5439785435
 10
-1.0745795966
 20
1.5296413163
  0
LWPOLYLINE
  5
11C
330
FE
100
AcDbEntity
  8
0
  6
Continuous
 62
     7
370
    15
100
AcDbPolyline
 90
       45
 70
   128
 43
0.0
 10
-0.6973631838
 20
1.3118789164
 10
-0.6964422659
 20
1.3262161436
 10
-0.6936982595
 20
1.3391982371
 10
-0.6891870246
 20
1.3505609188
 10
-0.683000397
 20
1.3600728773
 10
-0.6752643185
 20
1.3675404766
 10
-0.6661362734
 20
1.3728116979
 10
-0.6558020823
 20
1.3757792343
 10
-0.6444721197
 20
1.3763826754
 10
-0.6323770309
 20
1.3746097368
 10
-0.6197630369
 20
1.3704965104
 10
-0.6068869224
 20
1.3641267297
 10
-0.5940108079
 20
1.355630065
 10
-0.581396814
 20
1.345179484
 10
-0.5693017251
 20
1.3329877303
 10
-0.5579717625
 20
1.3193029928
 10
-0.5476375715
 20
1.3044038534
 10
-0.5385095264
 20
1.2885936156
 10
-0.5307734479
 20
1.2721941302
 10
-0.5245868203
 20
1.2555392434
 10
-0.5200755854
 20
1.2389680007
 10
-0.5173315789
 20
1.2228177449
 10
-0.5164106611
 20
1.2074172486
 10
-0.5173315789
 20
1.1930800214
 10
-0.5200755854
 20
1.1800979279
 10
-0.5245868203
 20
1.1687352462
 10
-0.5307734479
 20
1.1592232877
 10
-0.5385095264
 20
1.1517556884
 10
-0.5476375715
 20
1.1464844671
 10
-0.5579717625
 20
1.1435169307
 10
-0.5693017251
 20
1.1429134896
 10
-0.581396814
 20
1.1446864282
 10
-0.5940108079
 20
1.1487996546
 10
-0.6068869224
 20
1.1551694353
 10
-0.6197630369
 20
1.1636661
 10
-0.6323770309
 20
1.174116681
 10
-0.6444721197
 20
1.1863084347
 10
-0.6558020823
 20
1.1999931722
 10
-0.6661362734
 20
1.2148923116
 10
-0.6752643185
 20
1.2307025494
 10
-0.683000397
 20
1.2471020348
 10
-0.6891870246
 20
1.2637569216
 10
-0.6936982595
 20
1.2803281642
 10
-0.6964422659
 20
1.2964784201
 10
-0.6973631838
 20
1.3118789164
  0
LWPOLYLINE
  5
11D
330
FE
100
AcDbEntity
  8
0
  6
Continuous
 62
     7
370
    15
100
AcDbPolyline
 90
       37
 70
   128
 43
0.0
 10
-1.366887518
 20
1.6983870875
 10
-1.3659359149
 20
1.6852775279
 10
-1.3631100198
 20
1.6714675983
 10
-1.358495696
 20
1.6573769062
 10
-1.3522331474
 20
1.6434335903
 10
-1.3445126584
 20
1.6300613111
 10
-1.3355688121
 20
1.6176663785
 10
-1.3256733628
 20
1.6066254064
 10
-1.3151269786
 20
1.5972738691
 10
-1.3042501062
 20
1.5898959082
 10
-1.2933732338
 20
1.5847156995
 10
-1.2828268497
 20
1.5818906409
 10
-1.2729314004
 20
1.5815065704
 10
-1.2639875541
 20
1.5835751578
 10
-1.2562670651
 20
1.5880335501
 10
-1.2500045165
 20
1.5947462814
 10
-1.2453901927
 20
1.6035093886
 10
-1.2425642976
 20
1.6140566092
 10
-1.2416126945
 20
1.6260674713
 10
-1.2425642976
 20
1.6391770308
 10
-1.2453901927
 20
1.6529869604
 10
-1.2500045165
 20
1.6670776525
 10
-1.2562670651
 20
1.6810209685
 10
-1.2639875541
 20
1.6943932477
 10
-1.2729314004
 20
1.7067881802
 10
-1.2828268497
 20
1.7178291523
 10
-1.2933732338
 20
1.7271806897
 10
-1.3042501062
 20
1.7345586505
 10
-1.3151269786
 20
1.7397388592
 10
-1.3256733628
 20
1.7425639178
 10
-1.3355688121
 20
1.7429479883
 10
-1.3445126584
 20
1.7408794009
 10
-1.3522331474
 20
1.7364210086
 10
-1.358495696
 20
1.7297082773
 10
-1.3631100198
 20
1.7209451701
 10
-1.3659359149
 20
1.7103979495
 10
-1.366887518
 20
1.6983870875
  0
LWPOLYLINE
  5
11E
330
FE
100
AcDbEntity
  8
0
  6
Continuous
 62
     7
370
    15
100
AcDbPolyline
 90
       37
 70
   128
 43
0.0
 10
-1.366887518
 20
2.4255182917
 10
-1.3659359149
 20
2.4375291537
 10
-1.3631100198
 20
2.4480763743
 10
-1.358495696
 20
2.4568394815
 10
-1.3522331474
 20
2.4635522128
 10
-1.3445126584
 20
2.4680106051
 10
-1.3355688121
 20
2.4700791925
 10
-1.3256733628
 20
2.469695122
 10
-1.3151269786
 20
2.4668700634
 10
-1.3042501062
 20
2.4616898547
 10
-1.2933732338
 20
2.4543118939
 10
-1.2828268497
 20
2.4449603565
 10
-1.2729314004
 20
2.4339193844
 10
-1.2639875541
 20
2.4215244519
 10
-1.2562670651
 20
2.4081521727
 10
-1.2500045165
 20
2.3942088567
 10
-1.2453901927
 20
2.3801181646
 10
-1.2425642976
 20
2.366308235
 10
-1.2416126945
 20
2.3531986755
 10
-1.2425642976
 20
2.3411878134
 10
-1.2453901927
 20
2.3306405928
 10
-1.2500045165
 20
2.3218774856
 10
-1.2562670651
 20
2.3151647544
 10
-1.2639875541
 20
2.310706362
 10
-1.2729314004
 20
2.3086377746
 10
-1.2828268497
 20
2.3090218451
 10
-1.2933732338
 20
2.3118469037
 10
-1.3042501062
 20
2.3170271124
 10
-1.3151269786
 20
2.3244050733
 10
-1.3256733628
 20
2.3337566106
 10
-1.3355688121
 20
2.3447975827
 10
-1.3445126584
 20
2.3571925153
 10
-1.3522331474
 20
2.3705647945
 10
-1.358495696
 20
2.3845081104
 10
-1.3631100198
 20
2.3985988025
 10
-1.3659359149
 20
2.4124087322
 10
-1.366887518
 20
2.4255182917
  0
LWPOLYLINE
  5
11F
330
FE
100
AcDbEntity
  8
0
  6
Continuous
 62
     7
370
    15
100
AcDbPolyline
 90
       45
 70
   128
 43
0.0
 10
-1.0745795966
 20
2.2567725205
 10
-1.0736586787
 20
2.2711097477
 10
-1.0709146723
 20
2.2840918412
 10
-1.0664034374
 20
2.2954545229
 10
-1.0602168098
 20
2.3049664814
 10
-1.0524807313
 20
2.3124340807
 10
-1.0433526862
 20
2.317705302
 10
-1.0330184951
 20
2.3206728384
 10
-1.0216885325
 20
2.3212762795
 10
-1.0095934437
 20
2.3195033409
 10
-0.9969794497
 20
2.3153901145
 10
-0.9841033352
 20
2.3090203338
 10
-0.9712272207
 20
2.3005236691
 10
-0.9586132268
 20
2.2900730881
 10
-0.9465181379
 20
2.2778813344
 10
-0.9351881753
 20
2.2641965969
 10
-0.9248539843
 20
2.2492974575
 10
-0.9157259392
 20
2.2334872197
 10
-0.9079898607
 20
2.2170877343
 10
-0.9018032331
 20
2.2004328475
 10
-0.8972919982
 20
2.1838616049
 10
-0.8945479917
 20
2.167711349
 10
-0.8936270739
 20
2.1523108527
 10
-0.8945479917
 20
2.1379736255
 10
-0.8972919982
 20
2.124991532
 10
-0.9018032331
 20
2.1136288503
 10
-0.9079898607
 20
2.1041168918
 10
-0.9157259392
 20
2.0966492925
 10
-0.9248539843
 20
2.0913780712
 10
-0.9351881753
 20
2.0884105348
 10
-0.9465181379
 20
2.0878070937
 10
-0.9586132268
 20
2.0895800323
 10
-0.9712272207
 20
2.0936932587
 10
-0.9841033352
 20
2.1000630394
 10
-0.9969794497
 20
2.1085597041
 10
-1.0095934437
 20
2.1190102851
 10
-1.0216885325
 20
2.1312020388
 10
-1.0330184951
 20
2.1448867763
 10
-1.0433526862
 20
2.1597859157
 10
-1.0524807313
 20
2.1755961535
 10
-1.0602168098
 20
2.1919956389
 10
-1.0664034374
 20
2.2086505257
 10
-1.0709146723
 20
2.2252217684
 10
-1.0736586787
 20
2.2413720242
 10
-1.0745795966
 20
2.2567725205
  0
LWPOLYLINE
  5
120
330
FE
100
AcDbEntity
  8
0
  6
Continuous
 62
     7
370
    15
100
AcDbPolyline
 90
       30
 70
   128
 43
0.0
 10
-0.8908431889
 20
2.436814507
 10
-0.8898669036
 20
2.4466169807
 10
-0.8869836979
 20
2.4548339066
 10
-0.8823283872
 20
2.4610810704
 10
-0.8761186486
 20
2.4650663618
 10
-0.8686448427
 20
2.4666034329
 10
-0.8602564362
 20
2.4656204119
 10
-0.8513456618
 20
2.4621632639
 10
-0.8423291774
 20
2.4563936413
 10
-0.8336285837
 20
2.4485813251
 10
-0.8256507109
 20
2.4390916106
 10
-0.8187685954
 20
2.4283682264
 10
-0.8133040373
 20
2.4169125858
 10
-0.8095125532
 20
2.4052603421
 10
-0.8075714287
 20
2.393956341
 10
-0.8075714287
 20
2.3835291452
 10
-0.8095125532
 20
2.3744663187
 10
-0.8133040373
 20
2.3671916293
 10
-0.8187685954
 20
2.3620452333
 10
-0.8256507109
 20
2.3592677705
 10
-0.8336285837
 20
2.3589891119
 10
-0.8423291774
 20
2.3612222874
 10
-0.8513456618
 20
2.365862876
 10
-0.8602564362
 20
2.3726938891
 10
-0.8686448427
 20
2.3813959161
 10
-0.8761186486
 20
2.3915620599
 10
-0.8823283872
 20
2.4027169628
 10
-0.8869836979
 20
2.414339034
 10
-0.8898669036
 20
2.4258848384
 10
-0.8908431889
 20
2.436814507
  0
LWPOLYLINE
  5
121
330
FE
100
AcDbEntity
  8
0
  6
Continuous
 62
     7
370
    15
100
AcDbPolyline
 90
       45
 70
   128
 43
0.0
 10
-0.6973631838
 20
2.0390101206
 10
-0.6964422659
 20
2.0236096243
 10
-0.6936982595
 20
2.0074593684
 10
-0.6891870246
 20
1.9908881258
 10
-0.683000397
 20
1.974233239
 10
-0.6752643185
 20
1.9578337536
 10
-0.6661362734
 20
1.9420235158
 10
-0.6558020823
 20
1.9271243764
 10
-0.6444721197
 20
1.9134396389
 10
-0.6323770309
 20
1.9012478852
 10
-0.6197630369
 20
1.8907973042
 10
-0.6068869224
 20
1.8823006395
 10
-0.5940108079
 20
1.8759308588
 10
-0.581396814
 20
1.8718176324
 10
-0.5693017251
 20
1.8700446938
 10
-0.5579717625
 20
1.8706481349
 10
-0.5476375715
 20
1.8736156713
 10
-0.5385095264
 20
1.8788868926
 10
-0.5307734479
 20
1.8863544919
 10
-0.5245868203
 20
1.8958664504
 10
-0.5200755854
 20
1.9072291321
 10
-0.5173315789
 20
1.9202112256
 10
-0.5164106611
 20
1.9345484528
 10
-0.5173315789
 20
1.9499489491
 10
-0.5200755854
 20
1.9660992049
 10
-0.5245868203
 20
1.9826704476
 10
-0.5307734479
 20
1.9993253344
 10
-0.5385095264
 20
2.0157248198
 10
-0.5476375715
 20
2.0315350576
 10
-0.5579717625
 20
2.046434197
 10
-0.5693017251
 20
2.0601189345
 10
-0.581396814
 20
2.0723106882
 10
-0.5940108079
 20
2.0827612692
 10
-0.6068869224
 20
2.0912579339
 10
-0.6197630369
 20
2.0976277146
 10
-0.6323770309
 20
2.101740941
 10
-0.6444721197
 20
2.1035138796
 10
-0.6558020823
 20
2.1029104385
 10
-0.6661362734
 20
2.0999429021
 10
-0.6752643185
 20
2.0946716808
 10
-0.683000397
 20
2.0872040815
 10
-0.6891870246
 20
2.077692123
 10
-0.6936982595
 20
2.0663294413
 10
-0.6964422659
 20
2.0533473478
 10
-0.6973631838
 20
2.0390101206
  0
LWPOLYLINE
  5
12F
330
FE
100
AcDbEntity
  8
0
  6
Continuous
 62
     7
370
    15
100
AcDbPolyline
 90
       31
 70
   128
 43
0.0
 10
-0.3250185697
 20
0.9151109938
 10
-0.3240452166
 20
0.9038550178
 10
-0.3211676977
 20
0.8919671724
 10
-0.3165117742
 20
0.8799670136
 10
-0.3102809324
 20
0.8683790059
 10
-0.30274749
 20
0.8577096007
 10
-0.2942406945
 20
0.8484251024
 10
-0.2851323337
 20
0.840931288
 10
-0.2758204868
 20
0.8355556732
 10
-0.266712126
 20
0.8325331981
 10
-0.2582053305
 20
0.8319959594
 10
-0.2506718881
 20
0.8339674371
 10
-0.2444410463
 20
0.838361468
 10
-0.2397851228
 20
0.844986012
 10
-0.2369076039
 20
0.8535515446
 10
-0.2359342508
 20
0.8636837111
 10
-0.2369076039
 20
0.8749396871
 10
-0.2397851228
 20
0.8868275325
 10
-0.2444410463
 20
0.8988276913
 10
-0.2506718881
 20
0.910415699
 10
-0.2582053305
 20
0.9210851041
 10
-0.266712126
 20
0.9303696025
 10
-0.2758204868
 20
0.9378634169
 10
-0.2851323337
 20
0.9432390317
 10
-0.2942406945
 20
0.9462615068
 10
-0.30274749
 20
0.9467987455
 10
-0.3102809324
 20
0.9448272678
 10
-0.3165117742
 20
0.9404332369
 10
-0.3211676977
 20
0.9338086929
 10
-0.3240452166
 20
0.9252431602
 10
-0.3250185697
 20
0.9151109938
  0
LWPOLYLINE
  5
130
330
FE
100
AcDbEntity
  8
0
  6
Continuous
 62
     7
370
    15
100
AcDbPolyline
 90
       31
 70
   128
 43
0.0
 10
-0.3250185697
 20
2.0058781025
 10
-0.3240452166
 20
2.016010269
 10
-0.3211676977
 20
2.0245758017
 10
-0.3165117742
 20
2.0312003456
 10
-0.3102809324
 20
2.0355943766
 10
-0.30274749
 20
2.0375658542
 10
-0.2942406945
 20
2.0370286155
 10
-0.2851323337
 20
2.0340061405
 10
-0.2758204868
 20
2.0286305256
 10
-0.266712126
 20
2.0211367112
 10
-0.2582053305
 20
2.0118522129
 10
-0.2506718881
 20
2.0011828078
 10
-0.2444410463
 20
1.9895948
 10
-0.2397851228
 20
1.9775946412
 10
-0.2369076039
 20
1.9657067959
 10
-0.2359342508
 20
1.9544508199
 10
-0.2369076039
 20
1.9443186534
 10
-0.2397851228
 20
1.9357531207
 10
-0.2444410463
 20
1.9291285767
 10
-0.2506718881
 20
1.9247345458
 10
-0.2582053305
 20
1.9227630682
 10
-0.266712126
 20
1.9233003068
 10
-0.2758204868
 20
1.9263227819
 10
-0.2851323337
 20
1.9316983967
 10
-0.2942406945
 20
1.9391922111
 10
-0.30274749
 20
1.9484767095
 10
-0.3102809324
 20
1.9591461146
 10
-0.3165117742
 20
1.9707341224
 10
-0.3211676977
 20
1.9827342812
 10
-0.3240452166
 20
1.9946221265
 10
-0.3250185697
 20
2.0058781025
  0
LWPOLYLINE
  5
131
330
FE
100
AcDbEntity
  8
0
  6
Continuous
 62
     7
370
    15
100
AcDbPolyline
 90
       31
 70
   128
 43
0.0
 10
-1.3550560069
 20
1.5097389492
 10
-1.3540826538
 20
1.4984829732
 10
-1.3512051349
 20
1.4865951279
 10
-1.3465492114
 20
1.4745949691
 10
-1.3403183696
 20
1.4630069613
 10
-1.3327849271
 20
1.4523375562
 10
-1.3242781317
 20
1.4430530579
 10
-1.3151697709
 20
1.4355592434
 10
-1.3058579239
 20
1.4301836286
 10
-1.2967495632
 20
1.4271611535
 10
-1.2882427677
 20
1.4266239149
 10
-1.2807093253
 20
1.4285953925
 10
-1.2744784835
 20
1.4329894235
 10
-1.26982256
 20
1.4396139674
 10
-1.266945041
 20
1.4481795001
 10
-1.265971688
 20
1.4583116666
 10
-1.266945041
 20
1.4695676426
 10
-1.26982256
 20
1.4814554879
 10
-1.2744784835
 20
1.4934556467
 10
-1.2807093253
 20
1.5050436545
 10
-1.2882427677
 20
1.5157130596
 10
-1.2967495632
 20
1.524997558
 10
-1.3058579239
 20
1.5324913724
 10
-1.3151697709
 20
1.5378669872
 10
-1.3242781317
 20
1.5408894623
 10
-1.3327849271
 20
1.5414267009
 10
-1.3403183696
 20
1.5394552233
 10
-1.3465492114
 20
1.5350611923
 10
-1.3512051349
 20
1.5284366484
 10
-1.3540826538
 20
1.5198711157
 10
-1.3550560069
 20
1.5097389492
  0
LWPOLYLINE
  5
139
330
FE
100
AcDbEntity
  8
0
  6
Continuous
 62
     7
370
    15
100
AcDbPolyline
 90
       37
 70
   128
 43
0.0
 10
-0.3493775631
 20
1.8381222978
 10
-0.3484259601
 20
1.8250127383
 10
-0.345600065
 20
1.8112028087
 10
-0.3409857412
 20
1.7971121166
 10
-0.3347231926
 20
1.7831688006
 10
-0.3270027036
 20
1.7697965214
 10
-0.3180588573
 20
1.7574015889
 10
-0.308163408
 20
1.7463606168
 10
-0.2976170238
 20
1.7370090794
 10
-0.2867401514
 20
1.7296311186
 10
-0.275863279
 20
1.7244509099
 10
-0.2653168949
 20
1.7216258513
 10
-0.2554214456
 20
1.7212417808
 10
-0.2464775993
 20
1.7233103682
 10
-0.2387571102
 20
1.7277687605
 10
-0.2324945616
 20
1.7344814918
 10
-0.2278802378
 20
1.743244599
 10
-0.2250543427
 20
1.7537918196
 10
-0.2241027397
 20
1.7658026816
 10
-0.2250543427
 20
1.7789122411
 10
-0.2278802378
 20
1.7927221708
 10
-0.2324945616
 20
1.8068128629
 10
-0.2387571102
 20
1.8207561788
 10
-0.2464775993
 20
1.834128458
 10
-0.2554214456
 20
1.8465233906
 10
-0.2653168949
 20
1.8575643627
 10
-0.275863279
 20
1.8669159
 10
-0.2867401514
 20
1.8742938609
 10
-0.2976170238
 20
1.8794740696
 10
-0.308163408
 20
1.8822991282
 10
-0.3180588573
 20
1.8826831987
 10
-0.3270027036
 20
1.8806146113
 10
-0.3347231926
 20
1.8761562189
 10
-0.3409857412
 20
1.8694434877
 10
-0.345600065
 20
1.8606803805
 10
-0.3484259601
 20
1.8501331599
 10
-0.3493775631
 20
1.8381222978
  0
LWPOLYLINE
  5
13B
330
FE
100
AcDbEntity
  8
0
  6
Continuous
 62
     7
370
    15
100
AcDbPolyline
 90
        9
 70
   128
 43
0.0
 10
-0.7356360721
 20
2.3948897189
 10
-0.7441660907
 20
2.4002898145
 10
-0.753076865
 20
2.4037469625
 10
-0.7614652715
 20
2.4047299835
 10
-0.7689390774
 20
2.4031929124
 10
-0.775148816
 20
2.399207621
 10
-0.7798041267
 20
2.3929604572
 10
-0.7826873325
 20
2.3847435312
 10
-0.7836636177
 20
2.3749410576
  0
LWPOLYLINE
  5
13C
330
FE
100
AcDbEntity
  8
0
  6
Continuous
 62
     7
370
    15
100
AcDbPolyline
 90
       30
 70
   128
 43
0.0
 10
-0.7836636177
 20
1.0755883395
 10
-0.7826873325
 20
1.0853908132
 10
-0.7798041267
 20
1.0936077391
 10
-0.775148816
 20
1.099854903
 10
-0.7689390774
 20
1.1038401943
 10
-0.7614652715
 20
1.1053772654
 10
-0.753076865
 20
1.1043942445
 10
-0.7441660907
 20
1.1009370965
 10
-0.7351496062
 20
1.0951674738
 10
-0.7264490126
 20
1.0873551576
 10
-0.7184711397
 20
1.0778654432
 10
-0.7115890242
 20
1.0671420589
 10
-0.7061244661
 20
1.0556864184
 10
-0.702332982
 20
1.0440341746
 10
-0.7003918576
 20
1.0327301735
 10
-0.7003918576
 20
1.0223029777
 10
-0.702332982
 20
1.0132401513
 10
-0.7061244661
 20
1.0059654619
 10
-0.7115890242
 20
1.0008190658
 10
-0.7184711397
 20
0.998041603
 10
-0.7264490126
 20
0.9977629444
 10
-0.7351496062
 20
0.9999961199
 10
-0.7441660907
 20
1.0046367085
 10
-0.753076865
 20
1.0114677217
 10
-0.7614652715
 20
1.0201697486
 10
-0.7689390774
 20
1.0303358924
 10
-0.775148816
 20
1.0414907953
 10
-0.7798041267
 20
1.0531128665
 10
-0.7826873325
 20
1.0646586709
 10
-0.7836636177
 20
1.0755883395
  0
LWPOLYLINE
  5
13D
330
FE
100
AcDbEntity
  8
0
  6
Continuous
 62
     7
370
    15
100
AcDbPolyline
 90
       30
 70
   128
 43
0.0
 10
-0.8908431889
 20
1.137461789
 10
-0.8898669036
 20
1.1265321204
 10
-0.8869836979
 20
1.114986316
 10
-0.8823283872
 20
1.1033642447
 10
-0.8761186486
 20
1.0922093418
 10
-0.8686448427
 20
1.0820431981
 10
-0.8602564362
 20
1.0733411711
 10
-0.8513456618
 20
1.066510158
 10
-0.8423291774
 20
1.0618695693
 10
-0.8336285837
 20
1.0596363939
 10
-0.8256507109
 20
1.0599150524
 10
-0.8187685954
 20
1.0626925153
 10
-0.8133040373
 20
1.0678389113
 10
-0.8095125532
 20
1.0751136007
 10
-0.8075714287
 20
1.0841764272
 10
-0.8075714287
 20
1.094603623
 10
-0.8095125532
 20
1.105907624
 10
-0.8133040373
 20
1.1175598678
 10
-0.8187685954
 20
1.1290155083
 10
-0.8256507109
 20
1.1397388926
 10
-0.8336285837
 20
1.1492286071
 10
-0.8423291774
 20
1.1570409232
 10
-0.8513456618
 20
1.1628105459
 10
-0.8602564362
 20
1.1662676939
 10
-0.8686448427
 20
1.1672507148
 10
-0.8761186486
 20
1.1657136438
 10
-0.8823283872
 20
1.1617283524
 10
-0.8869836979
 20
1.1554811885
 10
-0.8898669036
 20
1.1472642626
 10
-0.8908431889
 20
1.137461789
  0
LWPOLYLINE
  5
13E
330
FE
100
AcDbEntity
  8
0
  6
Continuous
 62
     7
370
    15
100
AcDbPolyline
 90
       30
 70
   128
 43
0.0
 10
-0.7836636177
 20
1.6478098534
 10
-0.7826873325
 20
1.657612327
 10
-0.7798041267
 20
1.665829253
 10
-0.775148816
 20
1.6720764168
 10
-0.7689390774
 20
1.6760617082
 10
-0.7614652715
 20
1.6775987793
 10
-0.753076865
 20
1.6766157583
 10
-0.7441660907
 20
1.6731586103
 10
-0.7351496062
 20
1.6673889877
 10
-0.7264490126
 20
1.6595766715
 10
-0.7184711397
 20
1.650086957
 10
-0.7115890242
 20
1.6393635727
 10
-0.7061244661
 20
1.6279079322
 10
-0.702332982
 20
1.6162556884
 10
-0.7003918576
 20
1.6049516874
 10
-0.7003918576
 20
1.5945244916
 10
-0.702332982
 20
1.5854616651
 10
-0.7061244661
 20
1.5781869757
 10
-0.7115890242
 20
1.5730405797
 10
-0.7184711397
 20
1.5702631169
 10
-0.7264490126
 20
1.5699844583
 10
-0.7351496062
 20
1.5722176337
 10
-0.7441660907
 20
1.5768582224
 10
-0.753076865
 20
1.5836892355
 10
-0.7614652715
 20
1.5923912625
 10
-0.7689390774
 20
1.6025574062
 10
-0.775148816
 20
1.6137123091
 10
-0.7798041267
 20
1.6253343804
 10
-0.7826873325
 20
1.6368801848
 10
-0.7836636177
 20
1.6478098534
  0
LWPOLYLINE
  5
13F
330
FE
100
AcDbEntity
  8
0
  6
Continuous
 62
     7
370
    15
100
AcDbPolyline
 90
       30
 70
   128
 43
0.0
 10
-0.8908431889
 20
1.7096833028
 10
-0.8898669036
 20
1.6987536342
 10
-0.8869836979
 20
1.6872078298
 10
-0.8823283872
 20
1.6755857586
 10
-0.8761186486
 20
1.6644308556
 10
-0.8686448427
 20
1.6542647119
 10
-0.8602564362
 20
1.6455626849
 10
-0.8513456618
 20
1.6387316718
 10
-0.8423291774
 20
1.6340910831
 10
-0.8336285837
 20
1.6318579077
 10
-0.8256507109
 20
1.6321365663
 10
-0.8187685954
 20
1.6349140291
 10
-0.8133040373
 20
1.6400604251
 10
-0.8095125532
 20
1.6473351145
 10
-0.8075714287
 20
1.656397941
 10
-0.8075714287
 20
1.6668251368
 10
-0.8095125532
 20
1.6781291378
 10
-0.8133040373
 20
1.6897813816
 10
-0.8187685954
 20
1.7012370222
 10
-0.8256507109
 20
1.7119604064
 10
-0.8336285837
 20
1.7214501209
 10
-0.8423291774
 20
1.7292624371
 10
-0.8513456618
 20
1.7350320597
 10
-0.8602564362
 20
1.7384892077
 10
-0.8686448427
 20
1.7394722287
 10
-0.8761186486
 20
1.7379351576
 10
-0.8823283872
 20
1.7339498662
 10
-0.8869836979
 20
1.7277027024
 10
-0.8898669036
 20
1.7194857765
 10
-0.8908431889
 20
1.7096833028
  0
LWPOLYLINE
  5
140
330
FE
100
AcDbEntity
  8
0
  6
Continuous
 62
     7
370
    15
100
AcDbPolyline
 90
       37
 70
   128
 43
0.0
 10
-0.3493775631
 20
1.1109910936
 10
-0.3484259601
 20
1.1230019557
 10
-0.345600065
 20
1.1335491763
 10
-0.3409857412
 20
1.1423122835
 10
-0.3347231926
 20
1.1490250147
 10
-0.3270027036
 20
1.1534834071
 10
-0.3180588573
 20
1.1555519945
 10
-0.308163408
 20
1.155167924
 10
-0.2976170238
 20
1.1523428654
 10
-0.2867401514
 20
1.1471626567
 10
-0.275863279
 20
1.1397846958
 10
-0.2653168949
 20
1.1304331585
 10
-0.2554214456
 20
1.1193921864
 10
-0.2464775993
 20
1.1069972538
 10
-0.2387571102
 20
1.0936249746
 10
-0.2324945616
 20
1.0796816587
 10
-0.2278802378
 20
1.0655909666
 10
-0.2250543427
 20
1.0517810369
 10
-0.2241027397
 20
1.0386714774
 10
-0.2250543427
 20
1.0266606154
 10
-0.2278802378
 20
1.0161133948
 10
-0.2324945616
 20
1.0073502875
 10
-0.2387571102
 20
1.0006375563
 10
-0.2464775993
 20
0.996179164
 10
-0.2554214456
 20
0.9941105766
 10
-0.2653168949
 20
0.9944946471
 10
-0.275863279
 20
0.9973197057
 10
-0.2867401514
 20
1.0024999144
 10
-0.2976170238
 20
1.0098778752
 10
-0.308163408
 20
1.0192294126
 10
-0.3180588573
 20
1.0302703847
 10
-0.3270027036
 20
1.0426653172
 10
-0.3347231926
 20
1.0560375964
 10
-0.3409857412
 20
1.0699809124
 10
-0.345600065
 20
1.0840716044
 10
-0.3484259601
 20
1.0978815341
 10
-0.3493775631
 20
1.1109910936
  0
LWPOLYLINE
  5
142
330
FE
100
AcDbEntity
  8
0
  6
Continuous
 62
     7
370
    15
100
AcDbPolyline
 90
       22
 70
   128
 43
0.0
 10
-0.5067598599
 20
2.1749369988
 10
-0.5241341178
 20
2.166011105
 10
-0.5431859
 20
2.1583099706
 10
-0.5636575637
 20
2.1519377402
 10
-0.5852722649
 20
2.1469805872
 10
-0.6077377016
 20
2.1435055486
 10
-0.6307500675
 20
2.1415596183
 10
-0.6539981598
 20
2.1411691118
 10
-0.6771675879
 20
2.14233931
 10
-0.6999450251
 20
2.1450543879
 10
-0.7220224456
 20
2.1492776287
 10
-0.74310129
 20
2.1549519205
 10
-0.7628965034
 20
2.162000528
 10
-0.7811403892
 20
2.1703281311
 10
-0.7975862303
 20
2.1798221131
 10
-0.8120116249
 20
2.1903540842
 10
-0.8242214943
 20
2.2017816176
 10
-0.8340507209
 20
2.2139501755
 10
-0.8413663813
 20
2.2266951991
 10
-0.8460695438
 20
2.2398443336
 10
-0.8480966061
 20
2.2532197598
 10
-0.8481812161
 20
2.2565778099
  0
LWPOLYLINE
  5
14E
330
FE
100
AcDbEntity
  8
0
  6
Continuous
 62
     7
370
    15
100
AcDbPolyline
 90
       22
 70
   128
 43
0.0
 10
-1.4963624322
 20
2.6307648612
 10
-1.4962778222
 20
2.627406811
 10
-1.4942507599
 20
2.6140313849
 10
-1.4895475974
 20
2.6008822503
 10
-1.482231937
 20
2.5881372268
 10
-1.4724027104
 20
2.5759686689
 10
-1.460192841
 20
2.5645411355
 10
-1.4457674464
 20
2.5540091643
 10
-1.4293216053
 20
2.5445151823
 10
-1.4110777194
 20
2.5361875793
 10
-1.3912825061
 20
2.5291389717
 10
-1.3702036616
 20
2.52346468
 10
-1.3481262412
 20
2.5192414391
 10
-1.325348804
 20
2.5165263612
 10
-1.3021793759
 20
2.5153561631
 10
-1.2789312836
 20
2.5157466696
 10
-1.2559189177
 20
2.5176925998
 10
-1.2334534809
 20
2.5211676384
 10
-1.2118387798
 20
2.5261247914
 10
-1.1913671161
 20
2.5324970219
 10
-1.1723153339
 20
2.5401981563
 10
-1.1549410759
 20
2.54912405
  0
LWPOLYLINE
  5
150
330
FE
100
AcDbEntity
  8
0
  6
Continuous
 62
     7
370
    15
100
AcDbPolyline
 90
       28
 70
   128
 43
0.0
 10
0.1414213562
 20
0.1734950175
 10
0.1240470983
 20
0.1645691238
 10
0.1049953161
 20
0.1568679894
 10
0.0845236523
 20
0.1504957589
 10
0.0629089512
 20
0.1455386059
 10
0.0404435145
 20
0.1420635673
 10
0.0174311485
 20
0.1401176371
 10
-0.0058169437
 20
0.1397271306
 10
-0.0289863719
 20
0.1408973287
 10
-0.051763809
 20
0.1436124066
 10
-0.0738412295
 20
0.1478356475
 10
-0.0949200739
 20
0.1535099392
 10
-0.1147152873
 20
0.1605585468
 10
-0.1329591731
 20
0.1688861498
 10
-0.1494050142
 20
0.1783801318
 10
-0.1638304089
 20
0.188912103
 10
-0.1760402782
 20
0.2003396364
 10
-0.1858695048
 20
0.2125081943
 10
-0.1931851653
 20
0.2252532178
 10
-0.1978883277
 20
0.2384023524
 10
-0.19991539
 20
0.2517777786
 10
-0.1992389396
 20
0.2651986166
 10
-0.1958681244
 20
0.2784833726
 10
-0.1898485287
 20
0.2914523932
 10
-0.1812615574
 20
0.3039302946
 10
-0.1702233345
 20
0.3157483345
 10
-0.156883133
 20
0.3267466942
 10
-0.1414213562
 20
0.3367766399
  0
LWPOLYLINE
  5
151
330
FE
100
AcDbEntity
  8
0
  6
Continuous
 62
     7
370
    15
100
AcDbPolyline
 90
       31
 70
   128
 43
0.0
 10
-0.0441941738
 20
0.2296230752
 10
-0.0524169105
 20
0.2354849898
 10
-0.0583487767
 20
0.2422057403
 10
-0.0617305213
 20
0.2494915978
 10
-0.0624143459
 20
0.2570241352
 10
-0.0603703641
 20
0.2644741446
 10
-0.0556879078
 20
0.2715160248
 10
-0.0485716226
 20
0.2778420117
 10
-0.0393325244
 20
0.2831756296
 10
-0.0283744062
 20
0.2872837736
 10
-0.0161761903
 20
0.2899868981
 10
-0.0032709973
 20
0.2911668637
 10
0.0097771541
 20
0.2907721001
 10
0.0223979968
 20
0.2888198605
 10
0.0340399397
 20
0.285395467
 10
0.0441941738
 20
0.2806485822
 10
0.0524169105
 20
0.2747866676
 10
0.0583487767
 20
0.2680659171
 10
0.0617305213
 20
0.2607800596
 10
0.0624143459
 20
0.2532475222
 10
0.0603703641
 20
0.2457975128
 10
0.0556879078
 20
0.2387556326
 10
0.0485716226
 20
0.2324296457
 10
0.0393325244
 20
0.2270960278
 10
0.0283744062
 20
0.2229878838
 10
0.0161761903
 20
0.2202847593
 10
0.0032709973
 20
0.2191047937
 10
-0.0097771541
 20
0.2194995573
 10
-0.0223979968
 20
0.2214517969
 10
-0.0340399397
 20
0.2248761904
 10
-0.0441941738
 20
0.2296230752
  0
LWPOLYLINE
  5
152
330
FE
100
AcDbEntity
  8
0
  6
Continuous
 62
     7
370
    15
100
AcDbPolyline
 90
       22
 70
   128
 43
0.0
 10
0.1414213562
 20
0.1479781171
 10
0.1240470983
 20
0.1390522234
 10
0.1049953161
 20
0.131351089
 10
0.0845236523
 20
0.1249788586
 10
0.0629089512
 20
0.1200217055
 10
0.0404435145
 20
0.1165466669
 10
0.0174311485
 20
0.1146007367
 10
-0.0058169437
 20
0.1142102302
 10
-0.0289863719
 20
0.1153804284
 10
-0.051763809
 20
0.1180955063
 10
-0.0738412295
 20
0.1223187471
 10
-0.0949200739
 20
0.1279930389
 10
-0.1147152873
 20
0.1350416464
 10
-0.1329591731
 20
0.1433692495
 10
-0.1494050142
 20
0.1528632315
 10
-0.1638304089
 20
0.1633952026
 10
-0.1760402782
 20
0.174822736
 10
-0.1858695048
 20
0.1869912939
 10
-0.1931851653
 20
0.1997363174
 10
-0.1978883277
 20
0.212885452
 10
-0.19991539
 20
0.2262608782
 10
-0.2
 20
0.2296189283
  0
LWPOLYLINE
  5
155
330
FE
100
AcDbEntity
  8
0
  6
Continuous
 62
     7
370
    15
100
AcDbPolyline
 90
        3
 70
   128
 43
0.0
 10
-0.7582375302
 20
2.4046426627
 10
-0.7605902456
 20
2.397499908
 10
-0.7615665308
 20
2.3876974343
  0
LWPOLYLINE
  5
156
330
FE
100
AcDbEntity
  8
0
  6
Continuous
 62
     7
370
    15
100
AcDbPolyline
 90
       17
 70
   128
 43
0.0
 10
-0.6752660969
 20
2.0517664974
 10
-0.674345179
 20
2.036366001
 10
-0.6716011726
 20
2.0202157452
 10
-0.6670899377
 20
2.0036445025
 10
-0.66090331
 20
1.9869896158
 10
-0.6531672315
 20
1.9705901304
 10
-0.6440391865
 20
1.9547798925
 10
-0.6337049954
 20
1.9398807531
 10
-0.6223750328
 20
1.9261960157
 10
-0.610279944
 20
1.914004262
 10
-0.59766595
 20
1.9035536809
 10
-0.5847898355
 20
1.8950570163
 10
-0.571913721
 20
1.8886872356
 10
-0.5592997271
 20
1.8845740092
 10
-0.5472046382
 20
1.8828010706
 10
-0.5358746756
 20
1.8834045116
 10
-0.5328282126
 20
1.8840088389
  0
LWPOLYLINE
  5
159
330
FE
100
AcDbEntity
  8
0
  6
Continuous
 62
     7
370
    15
100
AcDbPolyline
 90
        3
 70
   128
 43
0.0
 10
-0.868746102
 20
2.4495708838
 10
-0.8677698167
 20
2.4593733574
 10
-0.8654171014
 20
2.4665161121
  0
LWPOLYLINE
  5
163
330
FE
100
AcDbEntity
  8
0
  6
Continuous
 62
     7
370
    15
100
AcDbPolyline
 90
       17
 70
   128
 43
0.0
 10
-0.9100446254
 20
2.1017712389
 10
-0.9130910884
 20
2.1011669115
 10
-0.924421051
 20
2.1005634705
 10
-0.9365161399
 20
2.1023364091
 10
-0.9491301338
 20
2.1064496355
 10
-0.9620062483
 20
2.1128194162
 10
-0.9748823628
 20
2.1213160808
 10
-0.9874963568
 20
2.1317666619
 10
-0.9995914456
 20
2.1439584156
 10
-1.0109214082
 20
2.157643153
 10
-1.0212555992
 20
2.1725422924
 10
-1.0303836443
 20
2.1883525303
 10
-1.0381197228
 20
2.2047520157
 10
-1.0443063505
 20
2.2214069025
 10
-1.0488175854
 20
2.2379781451
 10
-1.0515615918
 20
2.2541284009
 10
-1.0524825097
 20
2.2695288973
  0
LWPOLYLINE
  5
165
330
FE
100
AcDbEntity
  8
0
  6
Continuous
 62
     7
370
    15
100
AcDbPolyline
 90
        3
 70
   128
 43
0.0
 10
-0.7582375302
 20
1.8324211488
 10
-0.7605902456
 20
1.8252783942
 10
-0.7615665308
 20
1.8154759205
  0
LWPOLYLINE
  5
168
330
FE
100
AcDbEntity
  8
0
  6
Continuous
 62
     7
370
    15
100
AcDbPolyline
 90
        3
 70
   128
 43
0.0
 10
-0.868746102
 20
1.8773493699
 10
-0.8677698167
 20
1.8871518436
 10
-0.8654171014
 20
1.8942945982
  0
LWPOLYLINE
  5
16A
330
FE
100
AcDbEntity
  8
0
  6
Continuous
 62
     7
370
    15
100
AcDbPolyline
 90
        3
 70
   128
 43
0.0
 10
-0.7615665308
 20
1.6605662301
 10
-0.7605902456
 20
1.6703687038
 10
-0.7582375302
 20
1.6775114585
  0
LWPOLYLINE
  5
16D
330
FE
100
AcDbEntity
  8
0
  6
Continuous
 62
     7
370
    15
100
AcDbPolyline
 90
       17
 70
   128
 43
0.0
 10
-0.5328282126
 20
1.1568776347
 10
-0.5358746756
 20
1.1562733074
 10
-0.5472046382
 20
1.1556698664
 10
-0.5592997271
 20
1.157442805
 10
-0.571913721
 20
1.1615560313
 10
-0.5847898355
 20
1.167925812
 10
-0.59766595
 20
1.1764224767
 10
-0.610279944
 20
1.1868730578
 10
-0.6223750328
 20
1.1990648115
 10
-0.6337049954
 20
1.2127495489
 10
-0.6440391865
 20
1.2276486883
 10
-0.6531672315
 20
1.2434589262
 10
-0.66090331
 20
1.2598584116
 10
-0.6670899377
 20
1.2765132983
 10
-0.6716011726
 20
1.293084541
 10
-0.674345179
 20
1.3092347968
 10
-0.6752660969
 20
1.3246352932
  0
LWPOLYLINE
  5
16E
330
FE
100
AcDbEntity
  8
0
  6
Continuous
 62
     7
370
    15
100
AcDbPolyline
 90
        3
 70
   128
 43
0.0
 10
-1.3312606086
 20
2.6263497011
 10
-1.3291080479
 20
2.6319601339
 10
-1.3289578474
 20
2.6322587242
  0
LWPOLYLINE
  5
170
330
FE
100
AcDbEntity
  8
0
  6
Continuous
 62
     7
370
    15
100
AcDbPolyline
 90
        3
 70
   128
 43
0.0
 10
-0.8654171014
 20
1.7393849079
 10
-0.8677698167
 20
1.7322421532
 10
-0.868746102
 20
1.7224396796
  0
LWPOLYLINE
  5
175
330
FE
100
AcDbEntity
  8
0
  6
Continuous
 62
     7
370
    15
100
AcDbPolyline
 90
       17
 70
   128
 43
0.0
 10
-1.0524825097
 20
1.5423976931
 10
-1.0515615918
 20
1.5269971967
 10
-1.0488175854
 20
1.5108469409
 10
-1.0443063505
 20
1.4942756982
 10
-1.0381197228
 20
1.4776208115
 10
-1.0303836443
 20
1.4612213261
 10
-1.0212555992
 20
1.4454110882
 10
-1.0109214082
 20
1.4305119488
 10
-0.9995914456
 20
1.4168272114
 10
-0.9874963568
 20
1.4046354577
 10
-0.9748823628
 20
1.3941848766
 10
-0.9620062483
 20
1.385688212
 10
-0.9491301338
 20
1.3793184313
 10
-0.9365161399
 20
1.3752052049
 10
-0.924421051
 20
1.3734322663
 10
-0.9130910884
 20
1.3740357073
 10
-0.9100446254
 20
1.3746400346
  0
LWPOLYLINE
  5
177
330
FE
100
AcDbEntity
  8
0
  6
Continuous
 62
     7
370
    15
100
AcDbPolyline
 90
        3
 70
   128
 43
0.0
 10
-0.7615665308
 20
1.0883447163
 10
-0.7605902456
 20
1.0981471899
 10
-0.7582375302
 20
1.1052899446
  0
LWPOLYLINE
  5
17C
330
FE
100
AcDbEntity
  8
0
  6
Continuous
 62
     7
370
    15
100
AcDbPolyline
 90
        3
 70
   128
 43
0.0
 10
-0.8654171014
 20
1.167163394
 10
-0.8677698167
 20
1.1600206394
 10
-0.868746102
 20
1.1502181657
  0
LWPOLYLINE
  5
184
330
FE
100
AcDbEntity
  8
0
  6
Continuous
 62
     7
370
    15
100
AcDbPolyline
 90
       28
 70
   128
 43
0.0
 10
-2.0859650045
 20
1.4593377936
 10
-2.1014267812
 20
1.449307848
 10
-2.1147669828
 20
1.4383094882
 10
-2.1258052057
 20
1.4264914483
 10
-2.134392177
 20
1.414013547
 10
-2.1404117726
 20
1.4010445264
 10
-2.1437825879
 20
1.3877597703
 10
-2.1444590383
 20
1.3743389323
 10
-2.142431976
 20
1.3609635062
 10
-2.1377288135
 20
1.3478143716
 10
-2.1304131531
 20
1.335069348
 10
-2.1205839265
 20
1.3229007901
 10
-2.1083740571
 20
1.3114732567
 10
-2.0939486625
 20
1.3009412856
 10
-2.0775028214
 20
1.2914473036
 10
-2.0592589355
 20
1.2831197006
 10
-2.0394637222
 20
1.276071093
 10
-2.0183848777
 20
1.2703968013
 10
-1.9963074573
 20
1.2661735604
 10
-1.9735300201
 20
1.2634584825
 10
-1.950360592
 20
1.2622882843
 10
-1.9271124997
 20
1.2626787908
 10
-1.9041001338
 20
1.2646247211
 10
-1.881634697
 20
1.2680997597
 10
-1.8600199959
 20
1.2730569127
 10
-1.8395483322
 20
1.2794291431
 10
-1.82049655
 20
1.2871302775
 10
-1.803122292
 20
1.2960561713
  0
LWPOLYLINE
  5
185
330
FE
100
AcDbEntity
  8
0
  6
Continuous
 62
     7
370
    15
100
AcDbPolyline
 90
       31
 70
   128
 43
0.0
 10
-1.9887378221
 20
1.352184229
 10
-1.978583588
 20
1.3474373441
 10
-1.9669416451
 20
1.3440129507
 10
-1.9543208023
 20
1.3420607111
 10
-1.941272651
 20
1.3416659475
 10
-1.9283674579
 20
1.3428459131
 10
-1.916169242
 20
1.3455490376
 10
-1.9052111238
 20
1.3496571816
 10
-1.8959720257
 20
1.3549907994
 10
-1.8888557405
 20
1.3613167864
 10
-1.8841732841
 20
1.3683586666
 10
-1.8821293023
 20
1.3758086759
 10
-1.882813127
 20
1.3833412134
 10
-1.8861948716
 20
1.3906270708
 10
-1.8921267378
 20
1.3973478214
 10
-1.9003494744
 20
1.4032097359
 10
-1.9105037086
 20
1.4079566208
 10
-1.9221456514
 20
1.4113810142
 10
-1.9347664942
 20
1.4133332539
 10
-1.9478146455
 20
1.4137280174
 10
-1.9607198386
 20
1.4125480518
 10
-1.9729180545
 20
1.4098449273
 10
-1.9838761727
 20
1.4057367833
 10
-1.9931152709
 20
1.4004031655
 10
-2.000231556
 20
1.3940771785
 10
-2.0049140124
 20
1.3870352984
 10
-2.0069579942
 20
1.379585289
 10
-2.0062741696
 20
1.3720527516
 10
-2.0028924249
 20
1.3647668941
 10
-1.9969605588
 20
1.3580461436
 10
-1.9887378221
 20
1.352184229
  0
LWPOLYLINE
  5
188
330
FE
100
AcDbEntity
  8
0
  6
Continuous
 62
     7
370
    15
100
AcDbPolyline
 90
       22
 70
   128
 43
0.0
 10
-2.1445436483
 20
1.3521800821
 10
-2.1444590383
 20
1.3488220319
 10
-2.142431976
 20
1.3354466058
 10
-2.1377288135
 20
1.3222974712
 10
-2.1304131531
 20
1.3095524477
 10
-2.1205839265
 20
1.2973838898
 10
-2.1083740571
 20
1.2859563564
 10
-2.0939486625
 20
1.2754243852
 10
-2.0775028214
 20
1.2659304032
 10
-2.0592589355
 20
1.2576028002
 10
-2.0394637222
 20
1.2505541926
 10
-2.0183848777
 20
1.2448799009
 10
-1.9963074573
 20
1.24065666
 10
-1.9735300201
 20
1.2379415821
 10
-1.950360592
 20
1.236771384
 10
-1.9271124997
 20
1.2371618905
 10
-1.9041001338
 20
1.2391078207
 10
-1.881634697
 20
1.2425828593
 10
-1.8600199959
 20
1.2475400123
 10
-1.8395483322
 20
1.2539122428
 10
-1.82049655
 20
1.2616133772
 10
-1.803122292
 20
1.2705392709
  0
LINE
  5
18D
330
FE
100
AcDbEntity
  8
0
  6
Continuous
 62
     7
370
    15
100
AcDbLine
 10
-0.8481812161
 20
2.2820947103
 30
0.0
 11
-0.8481812161
 21
2.2565778099
 31
0.0
  0
LINE
  5
18E
330
FE
100
AcDbEntity
  8
0
  6
Continuous
 62
     7
370
    15
100
AcDbLine
 10
-1.4963624322
 20
2.6562817616
 30
0.0
 11
-1.4963624322
 21
2.6307648612
 31
0.0
  0
LINE
  5
18F
330
FE
100
AcDbEntity
  8
0
  6
Continuous
 62
     7
370
    15
100
AcDbLine
 10
-0.2
 20
0.2551358287
 30
0.0
 11
-0.2
 21
0.2296189283
 31
0.0
  0
LINE
  5
190
330
FE
100
AcDbEntity
  8
0
  6
Continuous
 62
     7
370
    15
100
AcDbLine
 10
-2.1445436483
 20
1.3776969825
 30
0.0
 11
-2.1445436483
 21
1.3521800821
 31
0.0
  0
LINE
  5
191
330
FE
100
AcDbEntity
  8
0
  6
Continuous
 62
     7
370
    15
100
AcDbLine
 10
-0.3299831646
 20
2.3025049131
 30
0.0
 11
0.3181980515
 21
1.9283178619
 31
0.0
  0
LINE
  5
192
330
FE
100
AcDbEntity
  8
0
  6
Continuous
 62
     7
370
    15
100
AcDbLine
 10
-0.5067598599
 20
2.2004538991
 30
0.0
 11
-0.3299831646
 21
2.3025049131
 31
0.0
  0
LINE
  5
193
330
FE
100
AcDbEntity
  8
0
  6
Continuous
 62
     7
370
    15
100
AcDbLine
 10
-0.612825877
 20
2.4657865355
 30
0.0
 11
-0.7896025723
 21
2.3637355215
 31
0.0
  0
LINE
  5
194
330
FE
100
AcDbEntity
  8
0
  6
Continuous
 62
     7
370
    15
100
AcDbLine
 10
-0.9781643806
 20
2.6766919644
 30
0.0
 11
-0.612825877
 21
2.4657865355
 31
0.0
  0
LINE
  5
195
330
FE
100
AcDbEntity
  8
0
  6
Continuous
 62
     7
370
    15
100
AcDbLine
 10
-0.9781643806
 20
2.6766919644
 30
0.0
 11
-1.1549410759
 21
2.5746409504
 31
0.0
  0
LINE
  5
196
330
FE
100
AcDbEntity
  8
0
  6
Continuous
 62
     7
370
    15
100
AcDbLine
 10
-1.4377837884
 20
2.7379225727
 30
0.0
 11
-1.2610070931
 21
2.8399735867
 31
0.0
  0
LINE
  5
197
330
FE
100
AcDbEntity
  8
0
  6
Continuous
 62
     7
370
    15
100
AcDbLine
 10
-1.9091883092
 20
3.214160638
 30
0.0
 11
-1.2610070931
 21
2.8399735867
 31
0.0
  0
LINE
  5
198
330
FE
100
AcDbEntity
  8
0
  6
Continuous
 62
     7
370
    15
100
AcDbLine
 10
-1.8870912223
 20
3.2269170147
 30
0.0
 11
-1.9091883092
 21
3.214160638
 31
0.0
  0
LINE
  5
199
330
FE
100
AcDbEntity
  8
0
  6
Continuous
 62
     7
370
    15
100
AcDbLine
 10
-1.8870912223
 20
3.2269170147
 30
0.0
 11
0.3402951384
 21
1.9410742386
 31
0.0
  0
LINE
  5
19A
330
FE
100
AcDbEntity
  8
0
  6
Continuous
 62
     7
370
    15
100
AcDbLine
 10
0.3402951384
 20
1.9410742386
 30
0.0
 11
0.3181980515
 21
1.9283178619
 31
0.0
  0
LINE
  5
19B
330
FE
100
AcDbEntity
  8
0
  6
Continuous
 62
     7
370
    15
100
AcDbLine
 10
0.3181980515
 20
0.2755460315
 30
0.0
 11
0.3181980515
 21
1.9283178619
 31
0.0
  0
LINE
  5
19C
330
FE
100
AcDbEntity
  8
0
  6
Continuous
 62
     7
370
    15
100
AcDbLine
 10
0.3402951384
 20
0.2627855079
 30
0.0
 11
0.3402951384
 21
1.9410742386
 31
0.0
  0
LINE
  5
19D
330
FE
100
AcDbEntity
  8
0
  6
Continuous
 62
     7
370
    15
100
AcDbLine
 10
0.1414213562
 20
0.1479781171
 30
0.0
 11
0.3402951384
 21
0.2627855079
 31
0.0
  0
LINE
  5
19E
330
FE
100
AcDbEntity
  8
0
  6
Continuous
 62
     7
370
    15
100
AcDbLine
 10
0.1414213562
 20
0.1479781171
 30
0.0
 11
0.1414213562
 21
0.1734950175
 31
0.0
  0
LINE
  5
19F
330
FE
100
AcDbEntity
  8
0
  6
Continuous
 62
     7
370
    15
100
AcDbLine
 10
0.1414213562
 20
0.1734950175
 30
0.0
 11
0.3181980515
 21
0.2755460315
 31
0.0
  0
LINE
  5
1A0
330
FE
100
AcDbEntity
  8
0
  6
Continuous
 62
     7
370
    15
100
AcDbLine
 10
-0.0896410941
 20
0.8120859832
 30
0.0
 11
-0.0896410941
 21
1.8371420644
 31
0.0
  0
LINE
  5
1A1
330
FE
100
AcDbEntity
  8
0
  6
Continuous
 62
     7
370
    15
100
AcDbLine
 10
0.1767766953
 20
1.6833423483
 30
0.0
 11
0.1767766953
 21
0.6582862671
 31
0.0
  0
LINE
  5
1A2
330
FE
100
AcDbEntity
  8
0
  6
Continuous
 62
     7
370
    15
100
AcDbLine
 10
-1.5013491636
 20
1.6270477047
 30
0.0
 11
-1.5013491636
 21
2.6521037859
 31
0.0
  0
LINE
  5
1A3
330
FE
100
AcDbEntity
  8
0
  6
Continuous
 62
     7
370
    15
100
AcDbLine
 10
-1.767766953
 20
2.805903502
 30
0.0
 11
-1.767766953
 21
1.7808474208
 31
0.0
  0
LINE
  5
1A4
330
FE
100
AcDbEntity
  8
0
  6
Continuous
 62
     7
370
    15
100
AcDbLine
 10
-1.6263455967
 20
1.3725902849
 30
0.0
 11
0.0132546605
 21
0.4260692037
 31
0.0
  0
LINE
  5
1A5
330
FE
100
AcDbEntity
  8
0
  6
Continuous
 62
     7
370
    15
100
AcDbLine
 10
-1.6263455967
 20
1.3725902849
 30
0.0
 11
-1.6263455967
 21
1.3981071853
 31
0.0
  0
LINE
  5
1A6
330
FE
100
AcDbEntity
  8
0
  6
Continuous
 62
     7
370
    15
100
AcDbLine
 10
-1.9091883092
 20
1.5613888076
 30
0.0
 11
-1.6263455967
 21
1.3981071853
 31
0.0
  0
LINE
  5
1A7
330
FE
100
AcDbEntity
  8
0
  6
Continuous
 62
     7
370
    15
100
AcDbLine
 10
-1.9091883092
 20
1.5613888076
 30
0.0
 11
-1.9091883092
 21
3.214160638
 31
0.0
  0
LINE
  5
1A8
330
FE
100
AcDbEntity
  8
0
  6
Continuous
 62
     7
370
    15
100
AcDbLine
 10
-0.9781643806
 20
2.651175064
 30
0.0
 11
-0.9781643806
 21
2.6766919644
 31
0.0
  0
LINE
  5
1A9
330
FE
100
AcDbEntity
  8
0
  6
Continuous
 62
     7
370
    15
100
AcDbLine
 10
-0.3299831646
 20
2.2769880127
 30
0.0
 11
-0.3299831646
 21
2.3025049131
 31
0.0
  0
LINE
  5
1AA
330
FE
100
AcDbEntity
  8
0
  6
Continuous
 62
     7
370
    15
100
AcDbLine
 10
0.0353553391
 20
0.4388276539
 30
0.0
 11
0.3181980515
 21
0.2755460315
 31
0.0
  0
LINE
  5
1AB
330
FE
100
AcDbEntity
  8
0
  6
Continuous
 62
     7
370
    15
100
AcDbLine
 10
-0.7836636177
 20
2.3749410576
 30
0.0
 11
-0.7831913435
 21
2.3674366451
 31
0.0
  0
LINE
  5
1AC
330
FE
100
AcDbEntity
  8
0
  6
Continuous
 62
     7
370
    15
100
AcDbLine
 10
-0.5067598599
 20
2.1749369988
 30
0.0
 11
-0.5067598599
 21
2.2004538991
 31
0.0
  0
LINE
  5
1AD
330
FE
100
AcDbEntity
  8
0
  6
Continuous
 62
     7
370
    15
100
AcDbLine
 10
-0.0675440072
 20
1.8498984411
 30
0.0
 11
-0.0896410941
 21
1.8371420644
 31
0.0
  0
LINE
  5
1AE
330
FE
100
AcDbEntity
  8
0
  6
Continuous
 62
     7
370
    15
100
AcDbLine
 10
-0.5067598599
 20
2.1749369988
 30
0.0
 11
-0.3299831646
 21
2.2769880127
 31
0.0
  0
LINE
  5
1AF
330
FE
100
AcDbEntity
  8
0
  6
Continuous
 62
     7
370
    15
100
AcDbLine
 10
-0.0896410941
 20
0.8120859832
 30
0.0
 11
-0.0675440072
 21
0.8248423599
 31
0.0
  0
LINE
  5
1B0
330
FE
100
AcDbEntity
  8
0
  6
Continuous
 62
     7
370
    15
100
AcDbLine
 10
-0.0675440072
 20
0.8248423599
 30
0.0
 11
-0.0675440072
 21
1.8498984411
 31
0.0
  0
LINE
  5
1B1
330
FE
100
AcDbEntity
  8
0
  6
Continuous
 62
     7
370
    15
100
AcDbLine
 10
-1.1549410759
 20
2.54912405
 30
0.0
 11
-1.1549410759
 21
2.5746409504
 31
0.0
  0
LINE
  5
1B2
330
FE
100
AcDbEntity
  8
0
  6
Continuous
 62
     7
370
    15
100
AcDbLine
 10
-0.1414213562
 20
0.3367766399
 30
0.0
 11
0.0353553391
 21
0.4388276539
 31
0.0
  0
LINE
  5
1B3
330
FE
100
AcDbEntity
  8
0
  6
Continuous
 62
     7
370
    15
100
AcDbLine
 10
-0.9781643806
 20
2.651175064
 30
0.0
 11
-1.1549410759
 21
2.54912405
 31
0.0
  0
LINE
  5
1B4
330
FE
100
AcDbEntity
  8
0
  6
Continuous
 62
     7
370
    15
100
AcDbLine
 10
-0.7615665308
 20
2.3876974343
 30
0.0
 11
-0.7610942566
 21
2.3801930219
 31
0.0
  0
LINE
  5
1B5
330
FE
100
AcDbEntity
  8
0
  6
Continuous
 62
     7
370
    15
100
AcDbLine
 10
0.0435678006
 20
0.5721535513
 30
0.0
 11
0.0656648875
 21
0.584909928
 31
0.0
  0
LINE
  5
1B6
330
FE
100
AcDbEntity
  8
0
  6
Continuous
 62
     7
370
    15
100
AcDbLine
 10
-1.7456698661
 20
2.8186598788
 30
0.0
 11
-1.767766953
 21
2.805903502
 31
0.0
  0
LINE
  5
1B7
330
FE
100
AcDbEntity
  8
0
  6
Continuous
 62
     7
370
    15
100
AcDbLine
 10
-1.767766953
 20
1.7808474208
 30
0.0
 11
-1.7456698661
 21
1.7936037976
 31
0.0
  0
LINE
  5
1B8
330
FE
100
AcDbEntity
  8
0
  6
Continuous
 62
     7
370
    15
100
AcDbLine
 10
-1.7456698661
 20
2.8186598788
 30
0.0
 11
-1.7456698661
 21
1.7936037976
 31
0.0
  0
LINE
  5
1B9
330
FE
100
AcDbEntity
  8
0
  6
Continuous
 62
     7
370
    15
100
AcDbLine
 10
-1.6124609714
 20
1.5536713657
 30
0.0
 11
-1.6345580583
 21
1.540914989
 31
0.0
  0
LINE
  5
1BA
330
FE
100
AcDbEntity
  8
0
  6
Continuous
 62
     7
370
    15
100
AcDbLine
 10
-1.803122292
 20
1.2960561713
 30
0.0
 11
-1.6263455967
 21
1.3981071853
 31
0.0
  0
LINE
  5
1BB
330
FE
100
AcDbEntity
  8
0
  6
Continuous
 62
     7
370
    15
100
AcDbLine
 10
-2.0859650045
 20
1.4593377936
 30
0.0
 11
-1.9091883092
 21
1.5613888076
 31
0.0
  0
LINE
  5
1BC
330
FE
100
AcDbEntity
  8
0
  6
Continuous
 62
     7
370
    15
100
AcDbLine
 10
-1.803122292
 20
1.2705392709
 30
0.0
 11
-1.803122292
 21
1.2960561713
 31
0.0
  0
LINE
  5
1BD
330
FE
100
AcDbEntity
  8
0
  6
Continuous
 62
     7
370
    15
100
AcDbLine
 10
-1.803122292
 20
1.2705392709
 30
0.0
 11
-1.6263455967
 21
1.3725902849
 31
0.0
  0
ARC
  5
1BE
330
FE
100
AcDbEntity
  8
0
  6
Continuous
 62
     7
370
    15
100
AcDbCircle
 10
-0.1317232936
 20
1.669009764
 30
0.0
 40
0.3088327478495486
100
AcDbArc
 50
2.6599888124
 51
55.4174993793
  0
ARC
  5
1BF
330
FE
100
AcDbEntity
  8
0
  6
Continuous
 62
     7
370
    15
100
AcDbCircle
 10
-0.0045468935
 20
1.8516130208
 30
0.0
 40
0.0863158823656687
100
AcDbArc
 50
56.1220435785
 51
189.6512795636
  0
ARC
  5
1C0
330
FE
100
AcDbEntity
  8
0
  6
Continuous
 62
     7
370
    15
100
AcDbCircle
 10
0.2188588948
 20
0.8264185674
 30
0.0
 40
0.3088327478495493
100
AcDbArc
 50
182.6599888124
 51
235.4174993793
  0
ARC
  5
1C1
330
FE
100
AcDbEntity
  8
0
  6
Continuous
 62
     7
370
    15
100
AcDbCircle
 10
0.0916824947
 20
0.6438153107
 30
0.0
 40
0.0863158823656689
100
AcDbArc
 50
236.1220435785
 51
9.6512795636
  0
ARC
  5
1C2
330
FE
100
AcDbEntity
  8
0
  6
Continuous
 62
     7
370
    15
100
AcDbCircle
 10
-1.8098491525
 20
2.6377712017
 30
0.0
 40
0.3088327478495531
100
AcDbArc
 50
2.6599888124
 51
55.4174993793
  0
ARC
  5
1C3
330
FE
100
AcDbEntity
  8
0
  6
Continuous
 62
     7
370
    15
100
AcDbCircle
 10
-1.6826727524
 20
2.8203744584
 30
0.0
 40
0.0863158823656697
100
AcDbArc
 50
56.1220435785
 51
189.6512795636
  0
ARC
  5
1C4
330
FE
100
AcDbEntity
  8
0
  6
Continuous
 62
     7
370
    15
100
AcDbCircle
 10
-1.459266964
 20
1.7951800051
 30
0.0
 40
0.3088327478495513
100
AcDbArc
 50
182.6599888124
 51
235.4174993793
  0
ARC
  5
1C5
330
FE
100
AcDbEntity
  8
0
  6
Continuous
 62
     7
370
    15
100
AcDbCircle
 10
-1.5864433641
 20
1.6125767483
 30
0.0
 40
0.0863158823656689
100
AcDbArc
 50
236.1220435785
 51
9.6512795636
  0
ARC
  5
1C6
330
FE
100
AcDbEntity
  8
0
  6
Continuous
 62
     7
370
    15
100
AcDbCircle
 10
-1.3300640484
 20
2.5909812773
 30
0.0
 40
0.040634687700173
100
AcDbArc
 50
46.2763219642
 51
104.0296557796
  0
ARC
  5
1C7
330
FE
100
AcDbEntity
  8
0
  6
Continuous
 62
     7
370
    15
100
AcDbCircle
 10
0.0407596517
 20
1.8577742754
 30
0.0
 40
0.1085896463186086
100
AcDbArc
 50
135.3939787027
 51
184.1592236982
  0
ARC
  5
1C8
330
FE
100
AcDbEntity
  8
0
  6
Continuous
 62
     7
370
    15
100
AcDbCircle
 10
-0.6481812161
 20
2.2139443073
 30
0.0
 40
0.080536193390371
100
AcDbArc
 50
43.4553869261
 51
136.5446130739
  0
ARC
  5
1C9
330
FE
100
AcDbEntity
  8
0
  6
Continuous
 62
     7
370
    15
100
AcDbCircle
 10
-0.2632999526
 20
2.0202087435
 30
0.0
 40
0.0396527925717512
100
AcDbArc
 50
153.9366659619
 51
182.2753103311
  0
ARC
  5
1CA
330
FE
100
AcDbEntity
  8
0
  6
Continuous
 62
     7
370
    15
100
AcDbCircle
 10
-0.2183617792
 20
2.0172280212
 30
0.0
 40
0.0845713993834242
100
AcDbArc
 50
179.047103057
 51
255.2209235721
  0
ARC
  5
1CB
330
FE
100
AcDbEntity
  8
0
  6
Continuous
 62
     7
370
    15
100
AcDbCircle
 10
-0.2143470605
 20
1.8455891063
 30
0.0
 40
0.1130572241415129
100
AcDbArc
 50
177.3183436879
 51
260.6043903131
  0
ARC
  5
1CC
330
FE
100
AcDbEntity
  8
0
  6
Continuous
 62
     7
370
    15
100
AcDbCircle
 10
-0.2757058716
 20
1.853815822
 30
0.0
 40
0.0516581714905454
100
AcDbArc
 50
146.093505401
 51
183.2594447655
  0
ARC
  5
1CD
330
FE
100
AcDbEntity
  8
0
  6
Continuous
 62
     7
370
    15
100
AcDbCircle
 10
-0.603100199
 20
2.0562601395
 30
0.0
 40
0.072305668086558
100
AcDbArc
 50
140.4446146221
 51
183.5631059205
  0
ARC
  5
1CE
330
FE
100
AcDbEntity
  8
0
  6
Continuous
 62
     7
370
    15
100
AcDbCircle
 10
-1.2963624322
 20
2.5881313585
 30
0.0
 40
0.0805361933903714
100
AcDbArc
 50
43.4553869261
 51
136.5446130739
  0
ARC
  5
1CF
330
FE
100
AcDbEntity
  8
0
  6
Continuous
 62
     7
370
    15
100
AcDbCircle
 10
-0.7894816471
 20
2.4480552391
 30
0.0
 40
0.0792789441141048
100
AcDbArc
 50
178.9045599037
 51
254.5092868293
  0
ARC
  5
1D0
330
FE
100
AcDbEntity
  8
0
  6
Continuous
 62
     7
370
    15
100
AcDbCircle
 10
0.001026026
 20
0.1830770546
 30
0.0
 40
0.0839961801998052
100
AcDbArc
 50
59.0740457059
 51
135.0905540021
  0
ARC
  5
1D1
330
FE
100
AcDbEntity
  8
0
  6
Continuous
 62
     7
370
    15
100
AcDbCircle
 10
0.0258531347
 20
0.2202564262
 30
0.0
 40
0.0394040247794141
100
AcDbArc
 50
34.151851549
 51
62.259934948
  0
ARC
  5
1D2
330
FE
100
AcDbEntity
  8
0
  6
Continuous
 62
     7
370
    15
100
AcDbCircle
 10
0.1182028128
 20
0.6724981285
 30
0.0
 40
0.1021368026730122
100
AcDbArc
 50
239.0434564936
 51
285.6665565923
  0
ARC
  5
1D3
330
FE
100
AcDbEntity
  8
0
  6
Continuous
 62
     7
370
    15
100
AcDbCircle
 10
0.2411825199
 20
0.8393007167
 30
0.0
 40
0.3090649003644714
100
AcDbArc
 50
182.6813309214
 51
235.3961572703
  0
ARC
  5
1D4
330
FE
100
AcDbEntity
  8
0
  6
Continuous
 62
     7
370
    15
100
AcDbCircle
 10
-0.2757058716
 20
1.1266846178
 30
0.0
 40
0.0516581714905082
100
AcDbArc
 50
146.093505401
 51
183.2594447655
  0
ARC
  5
1D5
330
FE
100
AcDbEntity
  8
0
  6
Continuous
 62
     7
370
    15
100
AcDbCircle
 10
-0.2130437378
 20
1.1195118576
 30
0.0
 40
0.1143152344123782
100
AcDbArc
 50
177.8765883979
 51
260.0461456032
  0
ARC
  5
1D6
330
FE
100
AcDbEntity
  8
0
  6
Continuous
 62
     7
370
    15
100
AcDbCircle
 10
-0.9821322765
 20
2.2746123494
 30
0.0
 40
0.0705336571976218
100
AcDbArc
 50
139.8747562256
 51
184.1329643171
  0
ARC
  5
1D7
330
FE
100
AcDbEntity
  8
0
  6
Continuous
 62
     7
370
    15
100
AcDbCircle
 10
-0.682302076
 20
1.8139602758
 30
0.0
 40
0.0792789441141102
100
AcDbArc
 50
178.9045599037
 51
254.5092868293
  0
ARC
  5
1D8
330
FE
100
AcDbEntity
  8
0
  6
Continuous
 62
     7
370
    15
100
AcDbCircle
 10
-0.2183617792
 20
0.9264609124
 30
0.0
 40
0.0845713993834549
100
AcDbArc
 50
179.047103057
 51
255.2209235721
  0
ARC
  5
1D9
330
FE
100
AcDbEntity
  8
0
  6
Continuous
 62
     7
370
    15
100
AcDbCircle
 10
-0.2632999526
 20
0.9294416347
 30
0.0
 40
0.0396527925717497
100
AcDbArc
 50
153.936665962
 51
182.2753103311
  0
ARC
  5
1DA
330
FE
100
AcDbEntity
  8
0
  6
Continuous
 62
     7
370
    15
100
AcDbCircle
 10
-0.7894816471
 20
1.8758337252
 30
0.0
 40
0.0792789441141144
100
AcDbArc
 50
178.9045599037
 51
254.5092868292
  0
ARC
  5
1DB
330
FE
100
AcDbEntity
  8
0
  6
Continuous
 62
     7
370
    15
100
AcDbCircle
 10
-0.682302076
 20
1.6590505855
 30
0.0
 40
0.0792789441141248
100
AcDbArc
 50
178.9045599037
 51
254.5092868292
  0
ARC
  5
1DC
330
FE
100
AcDbEntity
  8
0
  6
Continuous
 62
     7
370
    15
100
AcDbCircle
 10
-0.6049158637
 20
1.3297187452
 30
0.0
 40
0.0705336571976045
100
AcDbArc
 50
139.8747562256
 51
184.1329643171
  0
ARC
  5
1DD
330
FE
100
AcDbEntity
  8
0
  6
Continuous
 62
     7
370
    15
100
AcDbCircle
 10
-0.7894816471
 20
1.7209240349
 30
0.0
 40
0.0792789441141291
100
AcDbArc
 50
178.9045599037
 51
254.5092868292
  0
ARC
  5
1DE
330
FE
100
AcDbEntity
  8
0
  6
Continuous
 62
     7
370
    15
100
AcDbCircle
 10
-1.2932158264
 20
2.4412118159
 30
0.0
 40
0.0516581714905533
100
AcDbArc
 50
146.0935054011
 51
183.2594447655
  0
ARC
  5
1DF
330
FE
100
AcDbEntity
  8
0
  6
Continuous
 62
     7
370
    15
100
AcDbCircle
 10
-1.2305536926
 20
2.4340390557
 30
0.0
 40
0.1143152344124412
100
AcDbArc
 50
177.8765883979
 51
260.0461456031
  0
ARC
  5
1E0
330
FE
100
AcDbEntity
  8
0
  6
Continuous
 62
     7
370
    15
100
AcDbCircle
 10
-1.6373662072
 20
2.8265357131
 30
0.0
 40
0.1085896463185907
100
AcDbArc
 50
135.3939787027
 51
184.1592236982
  0
ARC
  5
1E1
330
FE
100
AcDbEntity
  8
0
  6
Continuous
 62
     7
370
    15
100
AcDbCircle
 10
-0.9803166118
 20
1.5468913352
 30
0.0
 40
0.0723056680865811
100
AcDbArc
 50
140.4446146221
 51
183.5631059205
  0
ARC
  5
1E2
330
FE
100
AcDbEntity
  8
0
  6
Continuous
 62
     7
370
    15
100
AcDbCircle
 10
-0.682302076
 20
1.0868290716
 30
0.0
 40
0.0792789441141216
100
AcDbArc
 50
178.9045599037
 51
254.5092868292
  0
ARC
  5
1E3
330
FE
100
AcDbEntity
  8
0
  6
Continuous
 62
     7
370
    15
100
AcDbCircle
 10
-0.7894816471
 20
1.148702521
 30
0.0
 40
0.0792789441141229
100
AcDbArc
 50
178.9045599037
 51
254.5092868292
  0
ARC
  5
1E4
330
FE
100
AcDbEntity
  8
0
  6
Continuous
 62
     7
370
    15
100
AcDbCircle
 10
-1.2318570153
 20
1.7058538959
 30
0.0
 40
0.1130572241414958
100
AcDbArc
 50
177.3183436879
 51
260.6043903131
  0
ARC
  5
1E5
330
FE
100
AcDbEntity
  8
0
  6
Continuous
 62
     7
370
    15
100
AcDbCircle
 10
-1.2932158264
 20
1.7140806117
 30
0.0
 40
0.05165817149051
100
AcDbArc
 50
146.093505401
 51
183.2594447655
  0
ARC
  5
1E6
330
FE
100
AcDbEntity
  8
0
  6
Continuous
 62
     7
370
    15
100
AcDbCircle
 10
-1.2483992164
 20
1.5210888679
 30
0.0
 40
0.0845713993834599
100
AcDbArc
 50
179.047103057
 51
255.2209235721
  0
ARC
  5
1E7
330
FE
100
AcDbEntity
  8
0
  6
Continuous
 62
     7
370
    15
100
AcDbCircle
 10
-1.2933373898
 20
1.5240695902
 30
0.0
 40
0.0396527925717358
100
AcDbArc
 50
153.936665962
 51
182.2753103311
  0
ARC
  5
1E8
330
FE
100
AcDbEntity
  8
0
  6
Continuous
 62
     7
370
    15
100
AcDbCircle
 10
-1.5599230461
 20
1.6412595662
 30
0.0
 40
0.1021368026730563
100
AcDbArc
 50
239.0434564936
 51
285.6665565922
  0
ARC
  5
1E9
330
FE
100
AcDbEntity
  8
0
  6
Continuous
 62
     7
370
    15
100
AcDbCircle
 10
-1.4369433389
 20
1.8080621543
 30
0.0
 40
0.3090649003644725
100
AcDbArc
 50
182.6813309214
 51
235.3961572703
  0
ARC
  5
1EA
330
FE
100
AcDbEntity
  8
0
  6
Continuous
 62
     7
370
    15
100
AcDbCircle
 10
-1.9435176223
 20
1.3056382084
 30
0.0
 40
0.0839961801998003
100
AcDbArc
 50
59.0740457059
 51
135.0905540021
  0
ARC
  5
1EB
330
FE
100
AcDbEntity
  8
0
  6
Continuous
 62
     7
370
    15
100
AcDbCircle
 10
-1.9186905135
 20
1.34281758
 30
0.0
 40
0.0394040247794686
100
AcDbArc
 50
34.151851549
 51
62.2599349479
  0
VIEWPORT
  5
1F0
330
FE
100
AcDbEntity
  8
0
100
AcDbViewport
 10
0.0
 20
0.0
 30
0.0
 40
8.4
 41
6.4
 68
     1
 69
     1
 12
-1.625
 22
0.290625
 13
0.0
 23
0.0
 14
0.5
 24
0.5
 15
0.5
 25
0.5
 16
0.0
 26
0.0
 36
1.0
 17
0.0
 27
0.0
 37
0.0
 42
50.0
 43
0.0
 44
0.0
 45
2.448
 50
0.0
 51
0.0
 72
   100
 90
   557152
  1

281
     0
 71
     1
 74
     0
110
0.0
120
0.0
130
0.0
111
1.0
121
0.0
131
0.0
112
0.0
122
1.0
132
0.0
 79
     0
146
0.0
  0
MTEXT
  5
1F9
330
FE
100
AcDbEntity
  8
0
  6
Continuous
 62
     7
100
AcDbMText
 10
-2.1445436483
 20
0.0740698211
 30
0.0
 40
0.1903
 41
0.0
 71
     1
 72
     1
  1
SolidWorks Student Edition.
  7
SLDTEXTSTYLE0
 73
     1
 44
1.0
  0
MTEXT
  5
1FA
330
FE
100
AcDbEntity
  8
0
  6
Continuous
 62
     7
100
AcDbMText
 10
-2.1445436483
 20
-0.2113801789
 30
0.0
 40
0.1903
 41
0.0
 71
     1
 72
     1
  1
For Academic Use Only.
  7
SLDTEXTSTYLE0
 73
     1
 44
1.0
  0
ENDBLK
  5
101
330
FE
100
AcDbEntity
  8
0
100
AcDbBlockEnd
  0
ENDSEC
  0
SECTION
  2
ENTITIES
  0
CIRCLE
  5
76
330
1F
100
AcDbEntity
  8
0
  6
Continuous
 62
     7
370
    15
100
AcDbCircle
 10
-2.0833333333
 20
0.25
 30
0.0
 40
0.0625
  0
CIRCLE
  5
77
330
1F
100
AcDbEntity
  8
0
  6
Continuous
 62
     7
370
    15
100
AcDbCircle
 10
-1.1666666667
 20
0.25
 30
0.0
 40
0.0625
  0
CIRCLE
  5
7E
330
1F
100
AcDbEntity
  8
0
  6
Continuous
 62
     7
370
    15
100
AcDbCircle
 10
-3.0
 20
0.25
 30
0.0
 40
0.0624999999999994
  0
CIRCLE
  5
83
330
1F
100
AcDbEntity
  8
0
  6
Continuous
 62
     7
370
    15
100
AcDbCircle
 10
-0.25
 20
0.25
 30
0.0
 40
0.0624999999999999
  0
LINE
  5
85
330
1F
100
AcDbEntity
  8
0
  6
Continuous
 62
     7
370
    15
100
AcDbLine
 10
-1.3666666667
 20
0.5
 30
0.0
 11
-1.3666666667
 21
0.25
 31
0.0
  0
LINE
  5
86
330
1F
100
AcDbEntity
  8
0
  6
Continuous
 62
     7
370
    15
100
AcDbLine
 10
-1.8833333333
 20
0.5
 30
0.0
 11
-1.8833333333
 21
0.25
 31
0.0
  0
LINE
  5
87
330
1F
100
AcDbEntity
  8
0
  6
Continuous
 62
     7
370
    15
100
AcDbLine
 10
-2.2833333333
 20
0.25
 30
0.0
 11
-2.2833333333
 21
0.5
 31
0.0
  0
LINE
  5
88
330
1F
100
AcDbEntity
  8
0
  6
Continuous
 62
     7
370
    15
100
AcDbLine
 10
-3.2
 20
0.25
 30
0.0
 11
-3.2
 21
0.53125
 31
0.0
  0
LINE
  5
89
330
1F
100
AcDbEntity
  8
0
  6
Continuous
 62
     7
370
    15
100
AcDbLine
 10
-0.05
 20
0.25
 30
0.0
 11
-0.05
 21
0.53125
 31
0.0
  0
LINE
  5
8A
330
1F
100
AcDbEntity
  8
0
  6
Continuous
 62
     7
370
    15
100
AcDbLine
 10
-0.9666666667
 20
0.25
 30
0.0
 11
-0.9666666667
 21
0.5
 31
0.0
  0
LINE
  5
8B
330
1F
100
AcDbEntity
  8
0
  6
Continuous
 62
     7
370
    15
100
AcDbLine
 10
-3.2
 20
0.53125
 30
0.0
 11
-0.05
 21
0.53125
 31
0.0
  0
LINE
  5
8C
330
1F
100
AcDbEntity
  8
0
  6
Continuous
 62
     7
370
    15
100
AcDbLine
 10
-3.2
 20
0.5
 30
0.0
 11
-2.2833333333
 21
0.5
 31
0.0
  0
LINE
  5
8D
330
1F
100
AcDbEntity
  8
0
  6
Continuous
 62
     7
370
    15
100
AcDbLine
 10
-1.8833333333
 20
0.5
 30
0.0
 11
-1.3666666667
 21
0.5
 31
0.0
  0
LINE
  5
8E
330
1F
100
AcDbEntity
  8
0
  6
Continuous
 62
     7
370
    15
100
AcDbLine
 10
-0.9666666667
 20
0.5
 30
0.0
 11
-0.05
 21
0.5
 31
0.0
  0
LINE
  5
8F
330
1F
100
AcDbEntity
  8
0
  6
Continuous
 62
     7
370
    15
100
AcDbLine
 10
-2.8
 20
0.25
 30
0.0
 11
-2.8
 21
0.5
 31
0.0
  0
LINE
  5
90
330
1F
100
AcDbEntity
  8
0
  6
Continuous
 62
     7
370
    15
100
AcDbLine
 10
-0.45
 20
0.25
 30
0.0
 11
-0.45
 21
0.5
 31
0.0
  0
ARC
  5
91
330
1F
100
AcDbEntity
  8
0
  6
Continuous
 62
     7
370
    15
100
AcDbCircle
 10
-1.1666666667
 20
0.25
 30
0.0
 40
0.2000000000000006
100
AcDbArc
 50
180.0
 51
0.0
  0
ARC
  5
92
330
1F
100
AcDbEntity
  8
0
  6
Continuous
 62
     7
370
    15
100
AcDbCircle
 10
-2.0833333333
 20
0.25
 30
0.0
 40
0.2000000000000011
100
AcDbArc
 50
180.0
 51
0.0
  0
ARC
  5
93
330
1F
100
AcDbEntity
  8
0
  6
Continuous
 62
     7
370
    15
100
AcDbCircle
 10
-3.0
 20
0.25
 30
0.0
 40
0.2000000000000006
100
AcDbArc
 50
180.0
 51
0.0
  0
ARC
  5
94
330
1F
100
AcDbEntity
  8
0
  6
Continuous
 62
     7
370
    15
100
AcDbCircle
 10
-0.25
 20
0.25
 30
0.0
 40
0.2000000000000001
100
AcDbArc
 50
180.0
 51
0.0
  0
MTEXT
  5
1F5
330
1F
100
AcDbEntity
  8
0
  6
Continuous
 62
     7
100
AcDbMText
 10
-3.2
 20
0.0098595909
 30
0.0
 40
0.1903
 41
0.0
 71
     1
 72
     1
  1
SolidWorks Student Edition.
  7
SLDTEXTSTYLE0
 73
     1
 44
1.0
  0
MTEXT
  5
1F6
330
1F
100
AcDbEntity
  8
0
  6
Continuous
 62
     7
100
AcDbMText
 10
-3.2
 20
-0.2755904091
 30
0.0
 40
0.1903
 41
0.0
 71
     1
 72
     1
  1
For Academic Use Only.
  7
SLDTEXTSTYLE0
 73
     1
 44
1.0
  0
CIRCLE
  5
A5
330
1B
100
AcDbEntity
 67
     1
  8
0
  6
Continuous
 62
     7
370
    15
100
AcDbCircle
 10
-1.5492125984
 20
1.1537893724
 30
0.0
 40
0.0590551181102361
  0
CIRCLE
  5
A6
330
1B
100
AcDbEntity
 67
     1
  8
0
  6
Continuous
 62
     7
370
    15
100
AcDbCircle
 10
-1.7007874016
 20
1.1537893724
 30
0.0
 40
0.0590551181102361
  0
CIRCLE
  5
A7
330
1B
100
AcDbEntity
 67
     1
  8
0
  6
Continuous
 62
     7
370
    15
100
AcDbCircle
 10
-1.8917322835
 20
0.6136811
 30
0.0
 40
0.127952755905512
  0
CIRCLE
  5
A8
330
1B
100
AcDbEntity
 67
     1
  8
0
  6
Continuous
 62
     7
370
    15
100
AcDbCircle
 10
-1.3582677165
 20
0.6136811
 30
0.0
 40
0.127952755905512
  0
CIRCLE
  5
A9
330
1B
100
AcDbEntity
 67
     1
  8
0
  6
Continuous
 62
     7
370
    15
100
AcDbCircle
 10
-2.344488189
 20
0.6136811
 30
0.0
 40
0.0885826771653551
  0
CIRCLE
  5
AA
330
1B
100
AcDbEntity
 67
     1
  8
0
  6
Continuous
 62
     7
370
    15
100
AcDbCircle
 10
-2.344488189
 20
1.5041830732
 30
0.0
 40
0.0885826771653546
  0
CIRCLE
  5
AB
330
1B
100
AcDbEntity
 67
     1
  8
0
  6
Continuous
 62
     7
370
    15
100
AcDbCircle
 10
-1.8917322835
 20
1.5041830732
 30
0.0
 40
0.1279527559055122
  0
CIRCLE
  5
AC
330
1B
100
AcDbEntity
 67
     1
  8
0
  6
Continuous
 62
     7
370
    15
100
AcDbCircle
 10
-1.7007874016
 20
1.854576774
 30
0.0
 40
0.0590551181102363
  0
CIRCLE
  5
AD
330
1B
100
AcDbEntity
 67
     1
  8
0
  6
Continuous
 62
     7
370
    15
100
AcDbCircle
 10
-1.3582677165
 20
1.5041830732
 30
0.0
 40
0.1279527559055107
  0
CIRCLE
  5
B9
330
1B
100
AcDbEntity
 67
     1
  8
0
  6
Continuous
 62
     7
370
    15
100
AcDbCircle
 10
-2.3533464567
 20
1.7268516155
 30
0.0
 40
0.0629921259842523
  0
CIRCLE
  5
BA
330
1B
100
AcDbEntity
 67
     1
  8
0
  6
Continuous
 62
     7
370
    15
100
AcDbCircle
 10
-0.8966535433
 20
0.3910125577
 30
0.0
 40
0.0629921259842522
  0
CIRCLE
  5
BB
330
1B
100
AcDbEntity
 67
     1
  8
0
  6
Continuous
 62
     7
370
    15
100
AcDbCircle
 10
-2.3533464567
 20
0.3910125577
 30
0.0
 40
0.0629921259842523
  0
CIRCLE
  5
BC
330
1B
100
AcDbEntity
 67
     1
  8
0
  6
Continuous
 62
     7
370
    15
100
AcDbCircle
 10
-0.905511811
 20
1.5041830732
 30
0.0
 40
0.0885826771653544
  0
CIRCLE
  5
BD
330
1B
100
AcDbEntity
 67
     1
  8
0
  6
Continuous
 62
     7
370
    15
100
AcDbCircle
 10
-1.5492125984
 20
1.854576774
 30
0.0
 40
0.0590551181102361
  0
CIRCLE
  5
BE
330
1B
100
AcDbEntity
 67
     1
  8
0
  6
Continuous
 62
     7
370
    15
100
AcDbCircle
 10
-1.5492125984
 20
0.2632873992
 30
0.0
 40
0.0590551181102361
  0
CIRCLE
  5
BF
330
1B
100
AcDbEntity
 67
     1
  8
0
  6
Continuous
 62
     7
370
    15
100
AcDbCircle
 10
-1.7007874016
 20
0.2632873992
 30
0.0
 40
0.0590551181102363
  0
CIRCLE
  5
C0
330
1B
100
AcDbEntity
 67
     1
  8
0
  6
Continuous
 62
     7
370
    15
100
AcDbCircle
 10
-1.5492125984
 20
0.9640748008
 30
0.0
 40
0.0590551181102363
  0
CIRCLE
  5
C1
330
1B
100
AcDbEntity
 67
     1
  8
0
  6
Continuous
 62
     7
370
    15
100
AcDbCircle
 10
-1.7007874016
 20
0.9640748008
 30
0.0
 40
0.0590551181102363
  0
CIRCLE
  5
C2
330
1B
100
AcDbEntity
 67
     1
  8
0
  6
Continuous
 62
     7
370
    15
100
AcDbCircle
 10
-0.905511811
 20
0.6136811
 30
0.0
 40
0.0885826771653541
  0
CIRCLE
  5
C3
330
1B
100
AcDbEntity
 67
     1
  8
0
  6
Continuous
 62
     7
370
    15
100
AcDbCircle
 10
-0.8966535433
 20
1.7268516155
 30
0.0
 40
0.0629921259842522
  0
LINE
  5
CB
330
1B
100
AcDbEntity
 67
     1
  8
0
  6
Continuous
 62
     7
370
    15
100
AcDbLine
 10
-1.8833333333
 20
2.0553641732
 30
0.0
 11
-1.8833333333
 21
2.0866141732
 31
0.0
  0
LINE
  5
CC
330
1B
100
AcDbEntity
 67
     1
  8
0
  6
Continuous
 62
     7
370
    15
100
AcDbLine
 10
-2.2833333333
 20
2.0553641732
 30
0.0
 11
-1.8833333333
 21
2.0553641732
 31
0.0
  0
LINE
  5
CD
330
1B
100
AcDbEntity
 67
     1
  8
0
  6
Continuous
 62
     7
370
    15
100
AcDbLine
 10
-2.2833333333
 20
2.0553641732
 30
0.0
 11
-2.2833333333
 21
2.0866141732
 31
0.0
  0
LINE
  5
CE
330
1B
100
AcDbEntity
 67
     1
  8
0
  6
Continuous
 62
     7
370
    15
100
AcDbLine
 10
-0.9666666667
 20
2.0553641732
 30
0.0
 11
-0.9666666667
 21
2.0866141732
 31
0.0
  0
LINE
  5
CF
330
1B
100
AcDbEntity
 67
     1
  8
0
  6
Continuous
 62
     7
370
    15
100
AcDbLine
 10
-1.3666666667
 20
2.0553641732
 30
0.0
 11
-1.3666666667
 21
2.0866141732
 31
0.0
  0
LINE
  5
D0
330
1B
100
AcDbEntity
 67
     1
  8
0
  6
Continuous
 62
     7
370
    15
100
AcDbLine
 10
-3.2
 20
2.0866141732
 30
0.0
 11
-0.05
 21
2.0866141732
 31
0.0
  0
LINE
  5
D1
330
1B
100
AcDbEntity
 67
     1
  8
0
  6
Continuous
 62
     7
370
    15
100
AcDbLine
 10
-0.9666666667
 20
2.0553641732
 30
0.0
 11
-1.3666666667
 21
2.0553641732
 31
0.0
  0
LINE
  5
D2
330
1B
100
AcDbEntity
 67
     1
  8
0
  6
Continuous
 62
     7
370
    15
100
AcDbLine
 10
-0.05
 20
0.03125
 30
0.0
 11
-0.05
 21
2.0866141732
 31
0.0
  0
LINE
  5
D3
330
1B
100
AcDbEntity
 67
     1
  8
0
  6
Continuous
 62
     7
370
    15
100
AcDbLine
 10
-0.45
 20
0.03125
 30
0.0
 11
-0.45
 21
0.0625
 31
0.0
  0
LINE
  5
D4
330
1B
100
AcDbEntity
 67
     1
  8
0
  6
Continuous
 62
     7
370
    15
100
AcDbLine
 10
-0.05
 20
0.0625
 30
0.0
 11
-0.45
 21
0.0625
 31
0.0
  0
LINE
  5
D5
330
1B
100
AcDbEntity
 67
     1
  8
0
  6
Continuous
 62
     7
370
    15
100
AcDbLine
 10
-2.8
 20
0.03125
 30
0.0
 11
-2.8
 21
0.0625
 31
0.0
  0
LINE
  5
D6
330
1B
100
AcDbEntity
 67
     1
  8
0
  6
Continuous
 62
     7
370
    15
100
AcDbLine
 10
-3.2
 20
0.03125
 30
0.0
 11
-0.05
 21
0.03125
 31
0.0
  0
LINE
  5
D7
330
1B
100
AcDbEntity
 67
     1
  8
0
  6
Continuous
 62
     7
370
    15
100
AcDbLine
 10
-3.2
 20
0.03125
 30
0.0
 11
-3.2
 21
2.0866141732
 31
0.0
  0
LINE
  5
D8
330
1B
100
AcDbEntity
 67
     1
  8
0
  6
Continuous
 62
     7
370
    15
100
AcDbLine
 10
-3.2
 20
0.0625
 30
0.0
 11
-2.8
 21
0.0625
 31
0.0
  0
LINE
  5
D9
330
1B
100
AcDbEntity
 67
     1
  8
0
  6
Continuous
 62
     7
370
    15
100
AcDbLine
 10
-0.626771651
 20
0.43125
 30
0.0
 11
-0.626771651
 21
1.6866141732
 31
0.0
  0
LINE
  5
DA
330
1B
100
AcDbEntity
 67
     1
  8
0
  6
Continuous
 62
     7
370
    15
100
AcDbLine
 10
-0.25
 20
1.6866141732
 30
0.0
 11
-0.25
 21
0.43125
 31
0.0
  0
LINE
  5
DB
330
1B
100
AcDbEntity
 67
     1
  8
0
  6
Continuous
 62
     7
370
    15
100
AcDbLine
 10
-3.0
 20
1.6866141732
 30
0.0
 11
-3.0
 21
0.43125
 31
0.0
  0
LINE
  5
DC
330
1B
100
AcDbEntity
 67
     1
  8
0
  6
Continuous
 62
     7
370
    15
100
AcDbLine
 10
-2.623228349
 20
0.43125
 30
0.0
 11
-2.623228349
 21
1.6866141732
 31
0.0
  0
ARC
  5
DD
330
1B
100
AcDbEntity
 67
     1
  8
0
  6
Continuous
 62
     7
370
    15
100
AcDbCircle
 10
-0.45
 20
1.6866141732
 30
0.0
 40
0.2
100
AcDbArc
 50
0.0
 51
86.6709112322
  0
ARC
  5
DE
330
1B
100
AcDbEntity
 67
     1
  8
0
  6
Continuous
 62
     7
370
    15
100
AcDbCircle
 10
-0.426771651
 20
1.6866141732
 30
0.0
 40
0.2000000000000005
100
AcDbArc
 50
93.3290887678
 51
180.0
  0
ARC
  5
DF
330
1B
100
AcDbEntity
 67
     1
  8
0
  6
Continuous
 62
     7
370
    15
100
AcDbCircle
 10
-0.426771651
 20
0.43125
 30
0.0
 40
0.2
100
AcDbArc
 50
180.0
 51
266.6709112322
  0
ARC
  5
E0
330
1B
100
AcDbEntity
 67
     1
  8
0
  6
Continuous
 62
     7
370
    15
100
AcDbCircle
 10
-0.45
 20
0.43125
 30
0.0
 40
0.2000000000000001
100
AcDbArc
 50
273.3290887678
 51
0.0
  0
ARC
  5
E1
330
1B
100
AcDbEntity
 67
     1
  8
0
  6
Continuous
 62
     7
370
    15
100
AcDbCircle
 10
-2.823228349
 20
1.6866141732
 30
0.0
 40
0.2000000000000002
100
AcDbArc
 50
0.0
 51
86.6709112322
  0
ARC
  5
E2
330
1B
100
AcDbEntity
 67
     1
  8
0
  6
Continuous
 62
     7
370
    15
100
AcDbCircle
 10
-2.8
 20
1.6866141732
 30
0.0
 40
0.2000000000000008
100
AcDbArc
 50
93.3290887678
 51
180.0
  0
ARC
  5
E3
330
1B
100
AcDbEntity
 67
     1
  8
0
  6
Continuous
 62
     7
370
    15
100
AcDbCircle
 10
-2.8
 20
0.43125
 30
0.0
 40
0.2000000000000006
100
AcDbArc
 50
180.0
 51
266.6709112322
  0
ARC
  5
E4
330
1B
100
AcDbEntity
 67
     1
  8
0
  6
Continuous
 62
     7
370
    15
100
AcDbCircle
 10
-2.823228349
 20
0.43125
 30
0.0
 40
0.2000000000000006
100
AcDbArc
 50
273.3290887678
 51
0.0
  0
VIEWPORT
  5
1EC
330
1B
100
AcDbEntity
 67
     1
  8
0
100
AcDbViewport
 10
0.0
 20
0.0
 30
0.0
 40
8.4
 41
6.4
 68
     1
 69
     1
 12
-1.625
 22
0.290625
 13
0.0
 23
0.0
 14
0.5
 24
0.5
 15
0.5
 25
0.5
 16
0.0
 26
0.0
 36
1.0
 17
0.0
 27
0.0
 37
0.0
 42
50.0
 43
0.0
 44
0.0
 45
2.448
 50
0.0
 51
0.0
 72
   100
 90
   557152
  1

281
     0
 71
     1
 74
     0
110
0.0
120
0.0
130
0.0
111
1.0
121
0.0
131
0.0
112
0.0
122
1.0
132
0.0
 79
     0
146
0.0
  0
MTEXT
  5
1F3
330
1B
100
AcDbEntity
 67
     1
  8
0
  6
Continuous
 62
     7
100
AcDbMText
 10
-3.2
 20
-0.0088904091
 30
0.0
 40
0.1903
 41
0.0
 71
     1
 72
     1
  1
SolidWorks Student Edition.
  7
SLDTEXTSTYLE0
 73
     1
 44
1.0
  0
MTEXT
  5
1F4
330
1B
100
AcDbEntity
 67
     1
  8
0
  6
Continuous
 62
     7
100
AcDbMText
 10
-3.2
 20
-0.2943404091
 30
0.0
 40
0.1903
 41
0.0
 71
     1
 72
     1
  1
For Academic Use Only.
  7
SLDTEXTSTYLE0
 73
     1
 44
1.0
  0
ENDSEC
  0
SECTION
  2
OBJECTS
  0
DICTIONARY
  5
C
330
0
100
AcDbDictionary
281
     1
  3
ACAD_GROUP
350
D
  3
ACAD_LAYOUT
350
1A
  3
ACAD_MLINESTYLE
350
17
  3
ACAD_PLOTSETTINGS
350
19
  3
ACAD_PLOTSTYLENAME
350
E
  3
ACAD_SCALELIST
350
47
  0
DICTIONARY
  5
D
102
{ACAD_REACTORS
330
C
102
}
330
C
100
AcDbDictionary
281
     1
  0
DICTIONARY
  5
1A
102
{ACAD_REACTORS
330
C
102
}
330
C
100
AcDbDictionary
281
     1
  3
_Front
350
1E
  3
_Isometric
350
FF
  3
_Left
350
26
  3
Model
350
22
  0
DICTIONARY
  5
17
102
{ACAD_REACTORS
330
C
102
}
330
C
100
AcDbDictionary
281
     1
  3
Standard
350
18
  0
DICTIONARY
  5
19
102
{ACAD_REACTORS
330
C
102
}
330
C
100
AcDbDictionary
281
     1
  0
ACDBDICTIONARYWDFLT
  5
E
102
{ACAD_REACTORS
330
C
102
}
330
C
100
AcDbDictionary
281
     1
  3
Normal
350
F
100
AcDbDictionaryWithDefault
340
F
  0
DICTIONARY
  5
47
102
{ACAD_REACTORS
330
C
102
}
330
C
100
AcDbDictionary
281
     1
  3
A0
350
48
  3
A1
350
49
  3
A2
350
4A
  3
A3
350
4B
  3
A4
350
4C
  3
A5
350
4D
  3
A6
350
4E
  3
A7
350
4F
  3
A8
350
50
  3
A9
350
51
  3
B0
350
52
  3
B1
350
53
  3
B2
350
54
  3
B3
350
55
  3
B4
350
56
  3
B5
350
57
  3
B6
350
58
  3
B7
350
59
  3
B8
350
5A
  3
B9
350
5B
  3
C0
350
5C
  3
C1
350
5D
  3
C2
350
5E
  3
C3
350
5F
  3
C4
350
60
  3
C5
350
61
  3
C6
350
62
  3
C7
350
63
  3
C8
350
64
  3
C9
350
65
  3
D0
350
66
  3
D1
350
67
  3
D2
350
68
  0
LAYOUT
  5
1E
102
{ACAD_REACTORS
330
1A
102
}
330
1A
100
AcDbPlotSettings
  1

  2
none_device
  4
Letter_(8.50_x_11.00_Inches)
  6

 40
6.35
 41
6.35
 42
6.35001
 43
6.35001
 44
215.9
 45
279.4
 46
0.0
 47
0.0
 48
0.0
 49
0.0
140
0.0
141
0.0
142
1.0
143
0.3000000112
 70
   688
 72
     0
 73
     1
 74
     1
  7

 75
     0
147
3.3333332083
148
81.28
149
-0.79375
100
AcDbLayout
  1
_Front
 70
     1
 71
     1
 10
-3.2750001209
 20
-0.0437500028
 11
0.0250000028
 21
2.5062500928
 12
0.0
 22
0.0
 32
0.0
 14
-3.2
 24
0.03125
 34
0.0
 15
-0.05
 25
2.0866141732
 35
0.0
146
0.0
 13
0.0
 23
0.0
 33
0.0
 16
1.0
 26
0.0
 36
0.0
 17
0.0
 27
1.0
 37
0.0
 76
     0
330
1B
331
1EC
  0
LAYOUT
  5
FF
102
{ACAD_REACTORS
330
1A
102
}
330
1A
100
AcDbPlotSettings
  1

  2
none_device
  4
Letter_(8.50_x_11.00_Inches)
  6

 40
6.35
 41
6.35
 42
6.35001
 43
6.35001
 44
215.9
 45
279.4
 46
0.0
 47
0.0
 48
0.0
 49
0.0
140
0.0
141
0.0
142
1.0
143
0.3000000112
 70
   688
 72
     0
 73
     1
 74
     1
  7

 75
     0
147
3.3333332083
148
81.28
149
-0.79375
100
AcDbLayout
  1
_Isometric
 70
     1
 71
     3
 10
0.0
 20
0.0
 11
0.0
 21
0.0
 12
0.0
 22
0.0
 32
0.0
 14
0.0
 24
0.0
 34
0.0
 15
0.0
 25
0.0
 35
0.0
146
0.0
 13
0.0
 23
0.0
 33
0.0
 16
1.0
 26
0.0
 36
0.0
 17
0.0
 27
1.0
 37
0.0
 76
     0
330
FE
331
1F0
  0
LAYOUT
  5
26
102
{ACAD_REACTORS
330
1A
102
}
330
1A
100
AcDbPlotSettings
  1

  2
none_device
  4
Letter_(8.50_x_11.00_Inches)
  6

 40
6.35
 41
6.35
 42
6.35001
 43
6.35001
 44
215.9
 45
279.4
 46
0.0
 47
0.0
 48
0.0
 49
0.0
140
0.0
141
0.0
142
1.0
143
0.3000000112
 70
   688
 72
     0
 73
     1
 74
     1
  7

 75
     0
147
3.3333332083
148
81.28
149
-0.79375
100
AcDbLayout
  1
_Left
 70
     1
 71
     2
 10
0.0
 20
0.0
 11
0.0
 21
0.0
 12
0.0
 22
0.0
 32
0.0
 14
0.0
 24
0.0
 34
0.0
 15
0.0
 25
0.0
 35
0.0
146
0.0
 13
0.0
 23
0.0
 33
0.0
 16
1.0
 26
0.0
 36
0.0
 17
0.0
 27
1.0
 37
0.0
 76
     0
330
23
331
1EE
  0
LAYOUT
  5
22
102
{ACAD_REACTORS
330
1A
102
}
330
1A
100
AcDbPlotSettings
  1

  2
none_device
  4
ANSI_A_(11.00_x_8.50_Inches)
  6

 40
6.35
 41
19.05
 42
6.35000508
 43
19.05000254
 44
279.4
 45
215.9
 46
276.0435688886
 47
63.3798023014
 48
0.0
 49
0.0
140
0.0
141
0.0
142
3.4571428571
143
1.0
 70
  1696
 72
     0
 73
     0
 74
     0
  7

 75
     0
147
0.5913241897
148
-39.4088153714
149
0.0
100
AcDbLayout
  1
Model
 70
     1
 71
     0
 10
0.0
 20
0.0
 11
12.0
 21
9.0
 12
0.0
 22
0.0
 32
0.0
 14
-3.2
 24
0.05
 34
0.0
 15
-0.05
 25
0.53125
 35
0.0
146
0.0
 13
0.0
 23
0.0
 33
0.0
 16
1.0
 26
0.0
 36
0.0
 17
0.0
 27
1.0
 37
0.0
 76
     0
330
1F
331
29
  0
MLINESTYLE
  5
18
102
{ACAD_REACTORS
330
17
102
}
330
17
100
AcDbMlineStyle
  2
Standard
 70
     0
  3

 62
   256
 51
90.0
 52
90.0
 71
     2
 49
0.5
 62
   256
  6
BYLAYER
 49
-0.5
 62
   256
  6
BYLAYER
  0
ACDBPLACEHOLDER
  5
F
102
{ACAD_REACTORS
330
E
102
}
330
E
  0
SCALE
  5
48
102
{ACAD_REACTORS
330
47
102
}
330
47
100
AcDbScale
 70
     0
300
1:1
140
1.0
141
1.0
290
     1
  0
SCALE
  5
49
102
{ACAD_REACTORS
330
47
102
}
330
47
100
AcDbScale
 70
     0
300
1:2
140
1.0
141
2.0
290
     0
  0
SCALE
  5
4A
102
{ACAD_REACTORS
330
47
102
}
330
47
100
AcDbScale
 70
     0
300
1:4
140
1.0
141
4.0
290
     0
  0
SCALE
  5
4B
102
{ACAD_REACTORS
330
47
102
}
330
47
100
AcDbScale
 70
     0
300
1:5
140
1.0
141
5.0
290
     0
  0
SCALE
  5
4C
102
{ACAD_REACTORS
330
47
102
}
330
47
100
AcDbScale
 70
     0
300
1:8
140
1.0
141
8.0
290
     0
  0
SCALE
  5
4D
102
{ACAD_REACTORS
330
47
102
}
330
47
100
AcDbScale
 70
     0
300
1:10
140
1.0
141
10.0
290
     0
  0
SCALE
  5
4E
102
{ACAD_REACTORS
330
47
102
}
330
47
100
AcDbScale
 70
     0
300
1:16
140
1.0
141
16.0
290
     0
  0
SCALE
  5
4F
102
{ACAD_REACTORS
330
47
102
}
330
47
100
AcDbScale
 70
     0
300
1:20
140
1.0
141
20.0
290
     0
  0
SCALE
  5
50
102
{ACAD_REACTORS
330
47
102
}
330
47
100
AcDbScale
 70
     0
300
1:30
140
1.0
141
30.0
290
     0
  0
SCALE
  5
51
102
{ACAD_REACTORS
330
47
102
}
330
47
100
AcDbScale
 70
     0
300
1:40
140
1.0
141
40.0
290
     0
  0
SCALE
  5
52
102
{ACAD_REACTORS
330
47
102
}
330
47
100
AcDbScale
 70
     0
300
1:50
140
1.0
141
50.0
290
     0
  0
SCALE
  5
53
102
{ACAD_REACTORS
330
47
102
}
330
47
100
AcDbScale
 70
     0
300
1:100
140
1.0
141
100.0
290
     0
  0
SCALE
  5
54
102
{ACAD_REACTORS
330
47
102
}
330
47
100
AcDbScale
 70
     0
300
2:1
140
2.0
141
1.0
290
     0
  0
SCALE
  5
55
102
{ACAD_REACTORS
330
47
102
}
330
47
100
AcDbScale
 70
     0
300
4:1
140
4.0
141
1.0
290
     0
  0
SCALE
  5
56
102
{ACAD_REACTORS
330
47
102
}
330
47
100
AcDbScale
 70
     0
300
8:1
140
8.0
141
1.0
290
     0
  0
SCALE
  5
57
102
{ACAD_REACTORS
330
47
102
}
330
47
100
AcDbScale
 70
     0
300
10:1
140
10.0
141
1.0
290
     0
  0
SCALE
  5
58
102
{ACAD_REACTORS
330
47
102
}
330
47
100
AcDbScale
 70
     0
300
100:1
140
100.0
141
1.0
290
     0
  0
SCALE
  5
59
102
{ACAD_REACTORS
330
47
102
}
330
47
100
AcDbScale
 70
     0
300
1/128" = 1'-0"
140
0.0078125
141
12.0
290
     0
  0
SCALE
  5
5A
102
{ACAD_REACTORS
330
47
102
}
330
47
100
AcDbScale
 70
     0
300
1/64" = 1'-0"
140
0.015625
141
12.0
290
     0
  0
SCALE
  5
5B
102
{ACAD_REACTORS
330
47
102
}
330
47
100
AcDbScale
 70
     0
300
1/32" = 1'-0"
140
0.03125
141
12.0
290
     0
  0
SCALE
  5
5C
102
{ACAD_REACTORS
330
47
102
}
330
47
100
AcDbScale
 70
     0
300
1/16" = 1'-0"
140
0.0625
141
12.0
290
     0
  0
SCALE
  5
5D
102
{ACAD_REACTORS
330
47
102
}
330
47
100
AcDbScale
 70
     0
300
3/32" = 1'-0"
140
0.09375
141
12.0
290
     0
  0
SCALE
  5
5E
102
{ACAD_REACTORS
330
47
102
}
330
47
100
AcDbScale
 70
     0
300
1/8" = 1'-0"
140
0.125
141
12.0
290
     0
  0
SCALE
  5
5F
102
{ACAD_REACTORS
330
47
102
}
330
47
100
AcDbScale
 70
     0
300
3/16" = 1'-0"
140
0.1875
141
12.0
290
     0
  0
SCALE
  5
60
102
{ACAD_REACTORS
330
47
102
}
330
47
100
AcDbScale
 70
     0
300
1/4" = 1'-0"
140
0.25
141
12.0
290
     0
  0
SCALE
  5
61
102
{ACAD_REACTORS
330
47
102
}
330
47
100
AcDbScale
 70
     0
300
3/8" = 1'-0"
140
0.375
141
12.0
290
     0
  0
SCALE
  5
62
102
{ACAD_REACTORS
330
47
102
}
330
47
100
AcDbScale
 70
     0
300
1/2" = 1'-0"
140
0.5
141
12.0
290
     0
  0
SCALE
  5
63
102
{ACAD_REACTORS
330
47
102
}
330
47
100
AcDbScale
 70
     0
300
3/4" = 1'-0"
140
0.75
141
12.0
290
     0
  0
SCALE
  5
64
102
{ACAD_REACTORS
330
47
102
}
330
47
100
AcDbScale
 70
     0
300
1" = 1'-0"
140
1.0
141
12.0
290
     0
  0
SCALE
  5
65
102
{ACAD_REACTORS
330
47
102
}
330
47
100
AcDbScale
 70
     0
300
1-1/2" = 1'-0"
140
1.5
141
12.0
290
     0
  0
SCALE
  5
66
102
{ACAD_REACTORS
330
47
102
}
330
47
100
AcDbScale
 70
     0
300
3" = 1'-0"
140
3.0
141
12.0
290
     0
  0
SCALE
  5
67
102
{ACAD_REACTORS
330
47
102
}
330
47
100
AcDbScale
 70
     0
300
6" = 1'-0"
140
6.0
141
12.0
290
     0
  0
SCALE
  5
68
102
{ACAD_REACTORS
330
47
102
}
330
47
100
AcDbScale
 70
     0
300
1'-0" = 1'-0"
140
12.0
141
12.0
290
     0
  0
ENDSEC
  0
EOF
