  0
SECTION
  2
HEADER
  9
$ACADVER
  1
AC1015
  9
$ACADMAINTVER
 70
     6
  9
$DWGCODEPAGE
  3
ANSI_1252
  9
$INSBASE
 10
0.0
 20
0.0
 30
0.0
  9
$EXTMIN
 10
-3.125
 20
-3.125
 30
0.0
  9
$EXTMAX
 10
3.125
 20
3.125
 30
0.0
  9
$LIMMIN
 10
0.0
 20
0.0
  9
$LIMMAX
 10
12.0
 20
9.0
  9
$ORTHOMODE
 70
     0
  9
$REGENMODE
 70
     1
  9
$FILLMODE
 70
     1
  9
$QTEXTMODE
 70
     0
  9
$MIRRTEXT
 70
     1
  9
$LTSCALE
 40
1.0
  9
$ATTMODE
 70
     1
  9
$TEXTSIZE
 40
0.125
  9
$TRACEWID
 40
0.05
  9
$TEXTSTYLE
  7
Standard
  9
$CLAYER
  8
0
  9
$CELTYPE
  6
ByLayer
  9
$CECOLOR
 62
   256
  9
$CELTSCALE
 40
1.0
  9
$DISPSILH
 70
     0
  9
$DIMSCALE
 40
1.0
  9
$DIMASZ
 40
0.13
  9
$DIMEXO
 40
0.05
  9
$DIMDLI
 40
0.38
  9
$DIMRND
 40
0.0
  9
$DIMDLE
 40
0.0
  9
$DIMEXE
 40
0.125
  9
$DIMTP
 40
0.0
  9
$DIMTM
 40
0.0
  9
$DIMTXT
 40
0.125
  9
$DIMCEN
 40
0.09
  9
$DIMTSZ
 40
0.0
  9
$DIMTOL
 70
     0
  9
$DIMLIM
 70
     0
  9
$DIMTIH
 70
     1
  9
$DIMTOH
 70
     1
  9
$DIMSE1
 70
     0
  9
$DIMSE2
 70
     0
  9
$DIMTAD
 70
     0
  9
$DIMZIN
 70
     0
  9
$DIMBLK
  1

  9
$DIMASO
 70
     1
  9
$DIMSHO
 70
     1
  9
$DIMPOST
  1

  9
$DIMAPOST
  1

  9
$DIMALT
 70
     0
  9
$DIMALTD
 70
     2
  9
$DIMALTF
 40
25.4
  9
$DIMLFAC
 40
1.0
  9
$DIMTOFL
 70
     0
  9
$DIMTVP
 40
0.0
  9
$DIMTIX
 70
     0
  9
$DIMSOXD
 70
     0
  9
$DIMSAH
 70
     0
  9
$DIMBLK1
  1

  9
$DIMBLK2
  1

  9
$DIMSTYLE
  2
Standard
  9
$DIMCLRD
 70
     0
  9
$DIMCLRE
 70
     0
  9
$DIMCLRT
 70
     0
  9
$DIMTFAC
 40
1.0
  9
$DIMGAP
 40
0.06
  9
$DIMJUST
 70
     0
  9
$DIMSD1
 70
     0
  9
$DIMSD2
 70
     0
  9
$DIMTOLJ
 70
     1
  9
$DIMTZIN
 70
     0
  9
$DIMALTZ
 70
     0
  9
$DIMALTTZ
 70
     0
  9
$DIMUPT
 70
     0
  9
$DIMDEC
 70
     2
  9
$DIMTDEC
 70
     2
  9
$DIMALTU
 70
     2
  9
$DIMALTTD
 70
     2
  9
$DIMTXSTY
  7
Standard
  9
$DIMAUNIT
 70
     0
  9
$DIMADEC
 70
     2
  9
$DIMALTRND
 40
0.0
  9
$DIMAZIN
 70
     0
  9
$DIMDSEP
 70
    46
  9
$DIMATFIT
 70
     3
  9
$DIMFRAC
 70
     0
  9
$DIMLDRBLK
  1

  9
$DIMLUNIT
 70
     2
  9
$DIMLWD
 70
    -2
  9
$DIMLWE
 70
    -2
  9
$DIMTMOVE
 70
     0
  9
$LUNITS
 70
     2
  9
$LUPREC
 70
     2
  9
$SKETCHINC
 40
0.1
  9
$FILLETRAD
 40
0.5
  9
$AUNITS
 70
     0
  9
$AUPREC
 70
     2
  9
$MENU
  1
.
  9
$ELEVATION
 40
0.0
  9
$PELEVATION
 40
0.0
  9
$THICKNESS
 40
0.0
  9
$LIMCHECK
 70
     0
  9
$CHAMFERA
 40
0.0
  9
$CHAMFERB
 40
0.0
  9
$CHAMFERC
 40
0.0
  9
$CHAMFERD
 40
0.0
  9
$SKPOLY
 70
     0
  9
$TDCREATE
 40
2457682.9154175
  9
$TDUCREATE
 40
2457683.082084167
  9
$TDUPDATE
 40
2457682.915513287
  9
$TDUUPDATE
 40
2457683.082179954
  9
$TDINDWG
 40
0.0000000116
  9
$TDUSRTIMER
 40
0.0000000116
  9
$USRTIMER
 70
     1
  9
$ANGBASE
 50
0.0
  9
$ANGDIR
 70
     0
  9
$PDMODE
 70
     0
  9
$PDSIZE
 40
-1.0
  9
$PLINEWID
 40
0.0
  9
$SPLFRAME
 70
     0
  9
$SPLINETYPE
 70
     6
  9
$SPLINESEGS
 70
     8
  9
$HANDSEED
  5
212
  9
$SURFTAB1
 70
     6
  9
$SURFTAB2
 70
     6
  9
$SURFTYPE
 70
     6
  9
$SURFU
 70
     6
  9
$SURFV
 70
     6
  9
$UCSBASE
  2

  9
$UCSNAME
  2

  9
$UCSORG
 10
0.0
 20
0.0
 30
0.0
  9
$UCSXDIR
 10
1.0
 20
0.0
 30
0.0
  9
$UCSYDIR
 10
0.0
 20
1.0
 30
0.0
  9
$UCSORTHOREF
  2

  9
$UCSORTHOVIEW
 70
     0
  9
$UCSORGTOP
 10
0.0
 20
0.0
 30
0.0
  9
$UCSORGBOTTOM
 10
0.0
 20
0.0
 30
0.0
  9
$UCSORGLEFT
 10
0.0
 20
0.0
 30
0.0
  9
$UCSORGRIGHT
 10
0.0
 20
0.0
 30
0.0
  9
$UCSORGFRONT
 10
0.0
 20
0.0
 30
0.0
  9
$UCSORGBACK
 10
0.0
 20
0.0
 30
0.0
  9
$PUCSBASE
  2

  9
$PUCSNAME
  2

  9
$PUCSORG
 10
0.0
 20
0.0
 30
0.0
  9
$PUCSXDIR
 10
1.0
 20
0.0
 30
0.0
  9
$PUCSYDIR
 10
0.0
 20
1.0
 30
0.0
  9
$PUCSORTHOREF
  2

  9
$PUCSORTHOVIEW
 70
     0
  9
$PUCSORGTOP
 10
0.0
 20
0.0
 30
0.0
  9
$PUCSORGBOTTOM
 10
0.0
 20
0.0
 30
0.0
  9
$PUCSORGLEFT
 10
0.0
 20
0.0
 30
0.0
  9
$PUCSORGRIGHT
 10
0.0
 20
0.0
 30
0.0
  9
$PUCSORGFRONT
 10
0.0
 20
0.0
 30
0.0
  9
$PUCSORGBACK
 10
0.0
 20
0.0
 30
0.0
  9
$USERI1
 70
     0
  9
$USERI2
 70
     0
  9
$USERI3
 70
     0
  9
$USERI4
 70
     0
  9
$USERI5
 70
     0
  9
$USERR1
 40
0.0
  9
$USERR2
 40
0.0
  9
$USERR3
 40
0.0
  9
$USERR4
 40
0.0
  9
$USERR5
 40
0.0
  9
$WORLDVIEW
 70
     1
  9
$SHADEDGE
 70
     3
  9
$SHADEDIF
 70
    70
  9
$TILEMODE
 70
     1
  9
$MAXACTVP
 70
    64
  9
$PINSBASE
 10
0.0
 20
0.0
 30
0.0
  9
$PLIMCHECK
 70
     0
  9
$PEXTMIN
 10
-3.125
 20
0.0231299213
 30
0.0
  9
$PEXTMAX
 10
3.125
 20
0.0625
 30
0.0
  9
$PLIMMIN
 10
-3.2738097637
 20
-0.1256796081
  9
$PLIMMAX
 10
3.2738095294
 20
4.9338443911
  9
$UNITMODE
 70
     0
  9
$VISRETAIN
 70
     1
  9
$PLINEGEN
 70
     0
  9
$PSLTSCALE
 70
     1
  9
$TREEDEPTH
 70
  3020
  9
$CMLSTYLE
  2
Standard
  9
$CMLJUST
 70
     0
  9
$CMLSCALE
 40
1.0
  9
$PROXYGRAPHICS
 70
     1
  9
$MEASUREMENT
 70
     0
  9
$CELWEIGHT
370
    -1
  9
$ENDCAPS
280
     0
  9
$JOINSTYLE
280
     0
  9
$LWDISPLAY
290
     1
  9
$INSUNITS
 70
     1
  9
$HYPERLINKBASE
  1

  9
$STYLESHEET
  1

  9
$XEDIT
290
     1
  9
$CEPSNTYPE
380
     0
  9
$PSTYLEMODE
290
     1
  9
$FINGERPRINTGUID
  2
{223487AF-D389-4681-954E-FC6F86449904}
  9
$VERSIONGUID
  2
{FAEB1C32-E019-11D5-929B-00C0DF256EC4}
  9
$EXTNAMES
290
     1
  9
$PSVPSCALE
 40
0.0
  9
$OLESTARTUP
290
     0
  0
ENDSEC
  0
SECTION
  2
CLASSES
  0
CLASS
  1
ACDBDICTIONARYWDFLT
  2
AcDbDictionaryWithDefault
  3
ObjectDBX Classes
 90
        0
280
     0
281
     0
  0
CLASS
  1
VISUALSTYLE
  2
AcDbVisualStyle
  3
ObjectDBX Classes
 90
     4095
280
     0
281
     0
  0
CLASS
  1
MATERIAL
  2
AcDbMaterial
  3
ObjectDBX Classes
 90
     1153
280
     0
281
     0
  0
CLASS
  1
SCALE
  2
AcDbScale
  3
ObjectDBX Classes
 90
     1153
280
     0
281
     0
  0
CLASS
  1
SUN
  2
AcDbSun
  3
SCENEOE
 90
     1153
280
     0
281
     0
  0
CLASS
  1
ACDBPLACEHOLDER
  2
AcDbPlaceHolder
  3
ObjectDBX Classes
 90
        0
280
     0
281
     0
  0
CLASS
  1
LAYOUT
  2
AcDbLayout
  3
ObjectDBX Classes
 90
        0
280
     0
281
     0
  0
ENDSEC
  0
SECTION
  2
TABLES
  0
TABLE
  2
VPORT
  5
8
330
0
100
AcDbSymbolTable
 70
     1
  0
VPORT
  5
29
330
8
100
AcDbSymbolTableRecord
100
AcDbViewportTableRecord
  2
*Active
 70
     0
 10
0.0
 20
0.0
 11
1.0
 21
1.0
 12
0.0
 22
0.0
 13
0.0
 23
0.0
 14
0.5
 24
0.5
 15
0.5
 25
0.5
 16
0.0
 26
0.0
 36
1.0
 17
0.0
 27
0.0
 37
0.0
 40
6.375
 41
1.0
 42
50.0
 43
0.0
 44
0.0
 50
0.0
 51
0.0
 71
     0
 72
   100
 73
     1
 74
     3
 75
     0
 76
     0
 77
     0
 78
     0
281
     0
 65
     1
110
0.0
120
0.0
130
0.0
111
1.0
121
0.0
131
0.0
112
0.0
122
1.0
132
0.0
 79
     0
146
0.0
  0
ENDTAB
  0
TABLE
  2
LTYPE
  5
5
330
0
100
AcDbSymbolTable
 70
     6
  0
LTYPE
  5
14
330
5
100
AcDbSymbolTableRecord
100
AcDbLinetypeTableRecord
  2
ByBlock
 70
     0
  3

 72
    65
 73
     0
 40
0.0
  0
LTYPE
  5
15
330
5
100
AcDbSymbolTableRecord
100
AcDbLinetypeTableRecord
  2
ByLayer
 70
     0
  3

 72
    65
 73
     0
 40
0.0
  0
LTYPE
  5
16
330
5
100
AcDbSymbolTableRecord
100
AcDbLinetypeTableRecord
  2
Continuous
 70
     0
  3
Solid line
 72
    65
 73
     0
 40
0.0
  0
LTYPE
  5
6A
330
5
100
AcDbSymbolTableRecord
100
AcDbLinetypeTableRecord
  2
HIDDEN
 70
     0
  3
Hidden __ __ __ __ __ __ __ __ __ __ __ __ __ __
 72
    65
 73
     2
 40
0.075
 49
0.05
 74
     0
 49
-0.025
 74
     0
  0
LTYPE
  5
6B
330
5
100
AcDbSymbolTableRecord
100
AcDbLinetypeTableRecord
  2
PHANTOM
 70
     0
  3
Phantom ______  __  __  ______  __  __  ______
 72
    65
 73
     6
 40
0.5
 49
0.25
 74
     0
 49
-0.05
 74
     0
 49
0.05
 74
     0
 49
-0.05
 74
     0
 49
0.05
 74
     0
 49
-0.05
 74
     0
  0
LTYPE
  5
6C
330
5
100
AcDbSymbolTableRecord
100
AcDbLinetypeTableRecord
  2
CENTER
 70
     0
  3
Center ____ _ ____ _ ____ _ ____ _ ____ _ ____
 72
    65
 73
     4
 40
0.4
 49
0.25
 74
     0
 49
-0.05
 74
     0
 49
0.05
 74
     0
 49
-0.05
 74
     0
  0
LTYPE
  5
6D
330
5
100
AcDbSymbolTableRecord
100
AcDbLinetypeTableRecord
  2
CENTERX2
 70
     0
  3
Center (2x) ________  __  ________  __  _____
 72
    65
 73
     4
 40
0.8
 49
0.5
 74
     0
 49
-0.1
 74
     0
 49
0.1
 74
     0
 49
-0.1
 74
     0
  0
LTYPE
  5
6E
330
5
100
AcDbSymbolTableRecord
100
AcDbLinetypeTableRecord
  2
DOT2
 70
     0
  3
Dot (.5x) ........................................
 72
    65
 73
     2
 40
0.025
 49
0.0
 74
     0
 49
-0.025
 74
     0
  0
ENDTAB
  0
TABLE
  2
LAYER
  5
2
330
0
100
AcDbSymbolTable
 70
     1
  0
LAYER
  5
10
330
2
100
AcDbSymbolTableRecord
100
AcDbLayerTableRecord
  2
0
 70
     0
 62
     7
  6
Continuous
370
    -3
390
F
  0
ENDTAB
  0
TABLE
  2
STYLE
  5
3
330
0
100
AcDbSymbolTable
 70
     2
  0
STYLE
  5
11
330
3
100
AcDbSymbolTableRecord
100
AcDbTextStyleTableRecord
  2
Standard
 70
     0
 40
0.0
 41
1.0
 50
0.0
 71
     0
 42
0.125
  3
txt
  4

  0
STYLE
  5
209
330
3
100
AcDbSymbolTableRecord
100
AcDbTextStyleTableRecord
  2
SLDTEXTSTYLE0
 70
     0
 40
0.0
 41
0.7
 50
0.0
 71
     0
 42
0.125
  3
TXT
  4

  0
ENDTAB
  0
TABLE
  2
VIEW
  5
6
330
0
100
AcDbSymbolTable
 70
     0
  0
ENDTAB
  0
TABLE
  2
UCS
  5
7
330
0
100
AcDbSymbolTable
 70
     0
  0
ENDTAB
  0
TABLE
  2
APPID
  5
9
330
0
100
AcDbSymbolTable
 70
     1
  0
APPID
  5
12
330
9
100
AcDbSymbolTableRecord
100
AcDbRegAppTableRecord
  2
ACAD
 70
     0
  0
ENDTAB
  0
TABLE
  2
DIMSTYLE
  5
A
330
0
100
AcDbSymbolTable
 70
     1
100
AcDbDimStyleTable
  0
DIMSTYLE
105
27
330
A
100
AcDbSymbolTableRecord
100
AcDbDimStyleTableRecord
  2
Standard
 70
     0
178
     0
340
11
  0
ENDTAB
  0
TABLE
  2
BLOCK_RECORD
  5
1
330
0
100
AcDbSymbolTable
 70
     2
  0
BLOCK_RECORD
  5
1F
330
1
100
AcDbSymbolTableRecord
100
AcDbBlockTableRecord
  2
*Model_Space
340
22
  0
BLOCK_RECORD
  5
1B
330
1
100
AcDbSymbolTableRecord
100
AcDbBlockTableRecord
  2
*Paper_Space
340
1E
  0
BLOCK_RECORD
  5
23
330
1
100
AcDbSymbolTableRecord
100
AcDbBlockTableRecord
  2
*Paper_Space0
340
26
  0
BLOCK_RECORD
  5
101
330
1
100
AcDbSymbolTableRecord
100
AcDbBlockTableRecord
  2
*Paper_Space1
340
102
  0
ENDTAB
  0
ENDSEC
  0
SECTION
  2
BLOCKS
  0
BLOCK
  5
20
330
1F
100
AcDbEntity
  8
0
100
AcDbBlockBegin
  2
*Model_Space
 70
     0
 10
0.0
 20
0.0
 30
0.0
  3
*Model_Space
  1
*Model_Space
  0
ENDBLK
  5
21
330
1F
100
AcDbEntity
  8
0
100
AcDbBlockEnd
  0
BLOCK
  5
1C
330
1B
100
AcDbEntity
 67
     1
  8
0
100
AcDbBlockBegin
  2
*Paper_Space
 70
     0
 10
0.0
 20
0.0
 30
0.0
  3
*Paper_Space
  1
*Paper_Space
  0
ENDBLK
  5
1D
330
1B
100
AcDbEntity
 67
     1
  8
0
100
AcDbBlockEnd
  0
BLOCK
  5
24
330
23
100
AcDbEntity
  8
0
100
AcDbBlockBegin
  2
*Paper_Space0
 70
     0
 10
0.0
 20
0.0
 30
0.0
  3
*Paper_Space0
  1
*Paper_Space0
  0
LINE
  5
FD
330
23
100
AcDbEntity
  8
0
  6
Continuous
 62
     7
370
    15
100
AcDbLine
 10
3.125
 20
0.0231299213
 30
0.0
 11
3.125
 21
0.0625
 31
0.0
  0
LINE
  5
FE
330
23
100
AcDbEntity
  8
0
  6
Continuous
 62
     7
370
    15
100
AcDbLine
 10
-3.125
 20
0.0625
 30
0.0
 11
-3.125
 21
0.0231299213
 31
0.0
  0
LINE
  5
FF
330
23
100
AcDbEntity
  8
0
  6
Continuous
 62
     7
370
    15
100
AcDbLine
 10
3.125
 20
0.0231299213
 30
0.0
 11
-3.125
 21
0.0231299213
 31
0.0
  0
LINE
  5
100
330
23
100
AcDbEntity
  8
0
  6
Continuous
 62
     7
370
    15
100
AcDbLine
 10
-3.125
 20
0.0625
 30
0.0
 11
3.125
 21
0.0625
 31
0.0
  0
VIEWPORT
  5
205
330
23
100
AcDbEntity
  8
0
100
AcDbViewport
 10
0.0
 20
0.0
 30
0.0
 40
8.4
 41
6.4
 68
     1
 69
     1
 12
0.0
 22
0.0
 13
0.0
 23
0.0
 14
0.5
 24
0.5
 15
0.5
 25
0.5
 16
0.0
 26
0.0
 36
1.0
 17
0.0
 27
0.0
 37
0.0
 42
50.0
 43
0.0
 44
0.0
 45
6.375
 50
0.0
 51
0.0
 72
   100
 90
   557152
  1

281
     0
 71
     1
 74
     0
110
0.0
120
0.0
130
0.0
111
1.0
121
0.0
131
0.0
112
0.0
122
1.0
132
0.0
 79
     0
146
0.0
  0
MTEXT
  5
20E
330
23
100
AcDbEntity
  8
0
  6
Continuous
 62
     7
100
AcDbMText
 10
-3.125
 20
-0.0170104879
 30
0.0
 40
0.1903
 41
0.0
 71
     1
 72
     1
  1
SolidWorks Student Edition.
  7
SLDTEXTSTYLE0
 73
     1
 44
1.0
  0
MTEXT
  5
20F
330
23
100
AcDbEntity
  8
0
  6
Continuous
 62
     7
100
AcDbMText
 10
-3.125
 20
-0.3024604879
 30
0.0
 40
0.1903
 41
0.0
 71
     1
 72
     1
  1
For Academic Use Only.
  7
SLDTEXTSTYLE0
 73
     1
 44
1.0
  0
ENDBLK
  5
25
330
23
100
AcDbEntity
  8
0
100
AcDbBlockEnd
  0
BLOCK
  5
103
330
101
100
AcDbEntity
  8
0
100
AcDbBlockBegin
  2
*Paper_Space1
 70
     0
 10
0.0
 20
0.0
 30
0.0
  3
*Paper_Space1
  1
*Paper_Space1
  0
LWPOLYLINE
  5
107
330
101
100
AcDbEntity
  8
0
  6
Continuous
 62
     7
370
    15
100
AcDbPolyline
 90
       73
 70
   128
 43
0.0
 10
3.125
 20
0.0188865247
 10
3.1248088041
 20
-0.0010690854
 10
3.1202212712
 20
-0.0808426947
 10
3.1095257587
 20
-0.1604210793
 10
3.0927432035
 20
-0.2396484609
 10
3.0699064583
 20
-0.3183697481
 10
3.041060227
 20
-0.3964308403
 10
3.0062609774
 20
-0.4736789292
 10
2.9655768309
 20
-0.5499627981
 10
2.9190874284
 20
-0.6251331178
 10
2.8668837753
 20
-0.6990427388
 10
2.8090680625
 20
-0.7715469796
 10
2.745753467
 20
-0.8425039096
 10
2.6770639302
 20
-0.9117746274
 10
2.603133915
 20
-0.9792235323
 10
2.524108143
 20
-1.0447185899
 10
2.4401413107
 20
-1.1081315905
 10
2.3513977873
 20
-1.1693384003
 10
2.2580512922
 20
-1.2282192039
 10
2.1602845557
 20
-1.2846587396
 10
2.0582889608
 20
-1.3385465241
 10
1.9522641685
 20
-1.3897770698
 10
1.8424177274
 20
-1.4382500902
 10
1.7289646672
 20
-1.4838706974
 10
1.6121270774
 20
-1.5265495867
 10
1.4921336731
 20
-1.5662032122
 10
1.3692193471
 20
-1.6027539502
 10
1.2436247099
 20
-1.6361302507
 10
1.115595619
 20
-1.6662667783
 10
0.9853826973
 20
-1.693104539
 10
0.8532408426
 20
-1.7165909969
 10
0.7194287289
 20
-1.7366801761
 10
0.5842082997
 20
-1.7533327509
 10
0.4478442554
 20
-1.7665161233
 10
0.3106035348
 20
-1.7762044862
 10
0.1727547933
 20
-1.7823788742
 10
0.0345678761
 20
-1.7850272005
 10
-0.1036867093
 20
-1.784144281
 10
-0.2417383231
 20
-1.7797318441
 10
-0.3793167227
 20
-1.7717985272
 10
-0.5161525921
 20
-1.7603598602
 10
-0.6519780686
 20
-1.7454382349
 10
-0.7865272673
 20
-1.727062861
 10
-0.919536802
 20
-1.7052697092
 10
-1.0507463003
 20
-1.6801014406
 10
-1.1798989132
 20
-1.6516073233
 10
-1.3067418187
 20
-1.6198431358
 10
-1.4310267157
 20
-1.5848710581
 10
-1.5525103107
 20
-1.5467595496
 10
-1.6709547939
 20
-1.5055832153
 10
-1.7861283045
 20
-1.46142266
 10
-1.8978053852
 20
-1.4143643299
 10
-2.0057674227
 20
-1.364500344
 10
-2.1098030762
 20
-1.3119283133
 10
-2.2097086912
 20
-1.25675115
 10
-2.3052886976
 20
-1.1990768662
 10
-2.3963559932
 20
-1.1390183617
 10
-2.4827323094
 20
-1.0766932041
 10
-2.5642485604
 20
-1.0122233977
 10
-2.6407451745
 20
-0.9457351453
 10
-2.712072406
 20
-0.8773586006
 10
-2.7780906283
 20
-0.807227614
 10
-2.8386706077
 20
-0.7354794701
 10
-2.8936937562
 20
-0.6622546194
 10
-2.9430523632
 20
-0.587696403
 10
-2.986649807
 20
-0.5119507719
 10
-3.0244007436
 20
-0.435166002
 10
-3.0562312737
 20
-0.3574924029
 10
-3.0820790875
 20
-0.2790820243
 10
-3.1018935868
 20
-0.2000883583
 10
-3.1156359837
 20
-0.1206660388
 10
-3.1232793769
 20
-0.0409705385
 10
-3.125
 20
0.0188865247
  0
LWPOLYLINE
  5
108
330
101
100
AcDbEntity
  8
0
  6
Continuous
 62
     7
370
    15
100
AcDbPolyline
 90
      143
 70
   128
 43
0.0
 10
-2.2097086912
 20
-1.224603874
 10
-2.1098030762
 20
-1.2797810372
 10
-2.0057674227
 20
-1.3323530679
 10
-1.8978053852
 20
-1.3822170538
 10
-1.7861283045
 20
-1.4292753839
 10
-1.6709547939
 20
-1.4734359393
 10
-1.5525103107
 20
-1.5146122735
 10
-1.4310267157
 20
-1.552723782
 10
-1.3067418187
 20
-1.5876958598
 10
-1.1798989132
 20
-1.6194600472
 10
-1.0507463003
 20
-1.6479541646
 10
-0.919536802
 20
-1.6731224331
 10
-0.7865272673
 20
-1.6949155849
 10
-0.6519780686
 20
-1.7132909588
 10
-0.5161525921
 20
-1.7282125842
 10
-0.3793167227
 20
-1.7396512511
 10
-0.2417383231
 20
-1.747584568
 10
-0.1036867093
 20
-1.751997005
 10
0.0345678761
 20
-1.7528799245
 10
0.1727547933
 20
-1.7502315981
 10
0.3106035348
 20
-1.7440572102
 10
0.4478442554
 20
-1.7343688473
 10
0.5842082997
 20
-1.7211854749
 10
0.7194287289
 20
-1.7045329
 10
0.8532408426
 20
-1.6844437209
 10
0.9853826973
 20
-1.660957263
 10
1.115595619
 20
-1.6341195022
 10
1.2436247099
 20
-1.6039829747
 10
1.3692193471
 20
-1.5706066741
 10
1.4921336731
 20
-1.5340559362
 10
1.6121270774
 20
-1.4944023106
 10
1.7289646672
 20
-1.4517234213
 10
1.8424177274
 20
-1.4061028142
 10
1.9522641685
 20
-1.3576297937
 10
2.0582889608
 20
-1.3063992481
 10
2.1602845557
 20
-1.2525114635
 10
2.2580512922
 20
-1.1960719279
 10
2.3513977873
 20
-1.1371911242
 10
2.4401413107
 20
-1.0759843145
 10
2.524108143
 20
-1.0125713138
 10
2.603133915
 20
-0.9470762562
 10
2.6770639302
 20
-0.8796273513
 10
2.745753467
 20
-0.8103566335
 10
2.8090680625
 20
-0.7393997035
 10
2.8668837753
 20
-0.6668954628
 10
2.9190874284
 20
-0.5929858418
 10
2.9655768309
 20
-0.5178155221
 10
3.0062609774
 20
-0.4415316531
 10
3.041060227
 20
-0.3642835642
 10
3.0699064583
 20
-0.286222472
 10
3.0927432035
 20
-0.2075011848
 10
3.1095257587
 20
-0.1282738032
 10
3.1202212712
 20
-0.0486954186
 10
3.1248088041
 20
0.0310781906
 10
3.1232793769
 20
0.1108908639
 10
3.1156359837
 20
0.1905863642
 10
3.1018935868
 20
0.2700086838
 10
3.0820790875
 20
0.3490023497
 10
3.0562312737
 20
0.4274127283
 10
3.0244007436
 20
0.5050863274
 10
2.986649807
 20
0.5818710974
 10
2.9430523632
 20
0.6576167284
 10
2.8936937562
 20
0.7321749449
 10
2.8386706077
 20
0.8053997956
 10
2.7780906283
 20
0.8771479394
 10
2.712072406
 20
0.947278926
 10
2.6407451745
 20
1.0156554707
 10
2.5642485604
 20
1.0821437232
 10
2.4827323094
 20
1.1466135295
 10
2.3963559932
 20
1.2089386872
 10
2.3052886976
 20
1.2689971916
 10
2.2097086912
 20
1.3266714755
 10
2.1098030762
 20
1.3818486387
 10
2.0057674227
 20
1.4344206694
 10
1.8978053852
 20
1.4842846553
 10
1.7861283045
 20
1.5313429854
 10
1.6709547939
 20
1.5755035408
 10
1.5525103107
 20
1.616679875
 10
1.4310267157
 20
1.6547913835
 10
1.3067418187
 20
1.6897634612
 10
1.1798989132
 20
1.7215276487
 10
1.0507463003
 20
1.750021766
 10
0.919536802
 20
1.7751900346
 10
0.7865272673
 20
1.7969831864
 10
0.6519780686
 20
1.8153585603
 10
0.5161525921
 20
1.8302801856
 10
0.3793167227
 20
1.8417188526
 10
0.2417383231
 20
1.8496521695
 10
0.1036867093
 20
1.8540646065
 10
-0.0345678761
 20
1.8549475259
 10
-0.1727547933
 20
1.8522991996
 10
-0.3106035348
 20
1.8461248117
 10
-0.4478442554
 20
1.8364364488
 10
-0.5842082997
 20
1.8232530764
 10
-0.7194287289
 20
1.8066005015
 10
-0.8532408426
 20
1.7865113223
 10
-0.9853826973
 20
1.7630248645
 10
-1.115595619
 20
1.7361871037
 10
-1.2436247099
 20
1.7060505762
 10
-1.3692193471
 20
1.6726742756
 10
-1.4921336731
 20
1.6361235377
 10
-1.6121270774
 20
1.5964699121
 10
-1.7289646672
 20
1.5537910228
 10
-1.8424177274
 20
1.5081704157
 10
-1.9522641685
 20
1.4596973952
 10
-2.0582889608
 20
1.4084668496
 10
-2.1602845557
 20
1.354579065
 10
-2.2580512922
 20
1.2981395294
 10
-2.3513977873
 20
1.2392587257
 10
-2.4401413107
 20
1.178051916
 10
-2.524108143
 20
1.1146389153
 10
-2.603133915
 20
1.0491438577
 10
-2.6770639302
 20
0.9816949528
 10
-2.745753467
 20
0.912424235
 10
-2.8090680625
 20
0.841467305
 10
-2.8668837753
 20
0.7689630642
 10
-2.9190874284
 20
0.6950534433
 10
-2.9655768309
 20
0.6198831236
 10
-3.0062609774
 20
0.5435992546
 10
-3.041060227
 20
0.4663511657
 10
-3.0699064583
 20
0.3882900735
 10
-3.0927432035
 20
0.3095687863
 10
-3.1095257587
 20
0.2303414047
 10
-3.1202212712
 20
0.1507630201
 10
-3.1248088041
 20
0.0709894109
 10
-3.1232793769
 20
-0.0088232624
 10
-3.1156359837
 20
-0.0885187627
 10
-3.1018935868
 20
-0.1679410823
 10
-3.0820790875
 20
-0.2469347483
 10
-3.0562312737
 20
-0.3253451268
 10
-3.0244007436
 20
-0.4030187259
 10
-2.986649807
 20
-0.4798034959
 10
-2.9430523632
 20
-0.5555491269
 10
-2.8936937562
 20
-0.6301073434
 10
-2.8386706077
 20
-0.7033321941
 10
-2.7780906283
 20
-0.7750803379
 10
-2.712072406
 20
-0.8452113245
 10
-2.6407451745
 20
-0.9135878692
 10
-2.5642485604
 20
-0.9800761217
 10
-2.4827323094
 20
-1.0445459281
 10
-2.3963559932
 20
-1.1068710857
 10
-2.3052886976
 20
-1.1669295901
 10
-2.2097086912
 20
-1.224603874
  0
LWPOLYLINE
  5
11D
330
101
100
AcDbEntity
  8
0
  6
Continuous
 62
     7
370
    15
100
AcDbPolyline
 90
       21
 70
   128
 43
0.0
 10
1.1637799107
 20
-0.7058445529
 10
1.1522861768
 20
-0.6967119955
 10
1.1462435632
 20
-0.6859760303
 10
1.1462435632
 20
-0.6746875685
 10
1.1522861768
 20
-0.6639516034
 10
1.1637799107
 20
-0.6548190459
 10
1.1795996783
 20
-0.6481838546
 10
1.1981969305
 20
-0.644695528
 10
1.2177512386
 20
-0.644695528
 10
1.2363484908
 20
-0.6481838546
 10
1.2521682584
 20
-0.6548190459
 10
1.2636619923
 20
-0.6639516034
 10
1.2697046058
 20
-0.6746875685
 10
1.2697046058
 20
-0.6859760303
 10
1.2636619923
 20
-0.6967119955
 10
1.2521682584
 20
-0.7058445529
 10
1.2363484908
 20
-0.7124797443
 10
1.2177512386
 20
-0.7159680708
 10
1.1981969305
 20
-0.7159680708
 10
1.1795996783
 20
-0.7124797443
 10
1.1637799107
 20
-0.7058445529
  0
LWPOLYLINE
  5
11E
330
101
100
AcDbEntity
  8
0
  6
Continuous
 62
     7
370
    15
100
AcDbPolyline
 90
       11
 70
   128
 43
0.0
 10
0.406473511
 20
-0.591792046
 10
0.3767399179
 20
-0.5710748383
 10
0.3529232635
 20
-0.5479491458
 10
0.335598316
 20
-0.5229730619
 10
0.3251831792
 20
-0.4967493353
 10
0.321929202
 20
-0.4699108245
 10
0.3259149127
 20
-0.4431052242
 10
0.3370441241
 20
-0.4169794351
 10
0.3550482543
 20
-0.392163952
 10
0.3794928091
 20
-0.3692576479
 10
0.4097878669
 20
-0.3488133217
  0
LWPOLYLINE
  5
121
330
101
100
AcDbEntity
  8
0
  6
Continuous
 62
     7
370
    15
100
AcDbPolyline
 90
       11
 70
   128
 43
0.0
 10
1.378692723
 20
-0.0305418415
 10
1.4084263161
 20
-0.0512590492
 10
1.4322429705
 20
-0.0743847417
 10
1.449567918
 20
-0.0993608256
 10
1.4599830548
 20
-0.1255845522
 10
1.463237032
 20
-0.152423063
 10
1.4592513213
 20
-0.1792286633
 10
1.4481221099
 20
-0.2053544524
 10
1.4301179797
 20
-0.2301699355
 10
1.4056734249
 20
-0.2530762396
 10
1.3753783671
 20
-0.2735205658
  0
LWPOLYLINE
  5
124
330
101
100
AcDbEntity
  8
0
  6
Continuous
 62
     7
370
    15
100
AcDbPolyline
 90
       21
 70
   128
 43
0.0
 10
1.8119611268
 20
-0.3316575017
 10
1.8004673929
 20
-0.3225249442
 10
1.7944247793
 20
-0.3117889791
 10
1.7944247793
 20
-0.3005005173
 10
1.8004673929
 20
-0.2897645521
 10
1.8119611268
 20
-0.2806319947
 10
1.8277808944
 20
-0.2739968033
 10
1.8463781465
 20
-0.2705084768
 10
1.8659324547
 20
-0.2705084768
 10
1.8845297068
 20
-0.2739968033
 10
1.9003494744
 20
-0.2806319947
 10
1.9118432084
 20
-0.2897645521
 10
1.9178858219
 20
-0.3005005173
 10
1.9178858219
 20
-0.3117889791
 10
1.9118432084
 20
-0.3225249442
 10
1.9003494744
 20
-0.3316575017
 10
1.8845297068
 20
-0.338292693
 10
1.8659324547
 20
-0.3417810196
 10
1.8463781465
 20
-0.3417810196
 10
1.8277808944
 20
-0.338292693
 10
1.8119611268
 20
-0.3316575017
  0
LWPOLYLINE
  5
125
330
101
100
AcDbEntity
  8
0
  6
Continuous
 62
     7
370
    15
100
AcDbPolyline
 90
       21
 70
   128
 43
0.0
 10
-0.6629126074
 20
1.097056694
 10
-0.6470928398
 20
1.0904215026
 10
-0.6284955876
 20
1.0869331761
 10
-0.6089412795
 20
1.0869331761
 10
-0.5903440273
 20
1.0904215026
 10
-0.5745242597
 20
1.097056694
 10
-0.5630305258
 20
1.1061892515
 10
-0.5569879123
 20
1.1169252166
 10
-0.5569879123
 20
1.1282136784
 10
-0.5630305258
 20
1.1389496436
 10
-0.5745242597
 20
1.148082201
 10
-0.5903440273
 20
1.1547173924
 10
-0.6089412795
 20
1.1582057189
 10
-0.6284955876
 20
1.1582057189
 10
-0.6470928398
 20
1.1547173924
 10
-0.6629126074
 20
1.148082201
 10
-0.6744063413
 20
1.1389496436
 10
-0.6804489548
 20
1.1282136784
 10
-0.6804489548
 20
1.1169252166
 10
-0.6744063413
 20
1.1061892515
 10
-0.6629126074
 20
1.097056694
  0
LWPOLYLINE
  5
126
330
101
100
AcDbEntity
  8
0
  6
Continuous
 62
     7
370
    15
100
AcDbPolyline
 90
       21
 70
   128
 43
0.0
 10
-2.6074562556
 20
-0.0255044597
 10
-2.591636488
 20
-0.0321396511
 10
-2.5730392359
 20
-0.0356279776
 10
-2.5534849277
 20
-0.0356279776
 10
-2.5348876756
 20
-0.0321396511
 10
-2.519067908
 20
-0.0255044597
 10
-2.507574174
 20
-0.0163719023
 10
-2.5015315605
 20
-0.0056359371
 10
-2.5015315605
 20
0.0056525247
 10
-2.507574174
 20
0.0163884898
 10
-2.519067908
 20
0.0255210472
 10
-2.5348876756
 20
0.0321562386
 10
-2.5534849277
 20
0.0356445652
 10
-2.5730392359
 20
0.0356445652
 10
-2.591636488
 20
0.0321562386
 10
-2.6074562556
 20
0.0255210472
 10
-2.6189499896
 20
0.0163884898
 10
-2.6249926031
 20
0.0056525247
 10
-2.6249926031
 20
-0.0056359371
 10
-2.6189499896
 20
-0.0163719023
 10
-2.6074562556
 20
-0.0255044597
  0
LWPOLYLINE
  5
127
330
101
100
AcDbEntity
  8
0
  6
Continuous
 62
     7
370
    15
100
AcDbPolyline
 90
       21
 70
   128
 43
0.0
 10
-0.1325825215
 20
-1.4542186554
 10
-0.1440762554
 20
-1.445086098
 10
-0.1501188689
 20
-1.4343501328
 10
-0.1501188689
 20
-1.423061671
 10
-0.1440762554
 20
-1.4123257059
 10
-0.1325825215
 20
-1.4031931484
 10
-0.1167627539
 20
-1.3965579571
 10
-0.0981655017
 20
-1.3930696305
 10
-0.0786111936
 20
-1.3930696305
 10
-0.0600139414
 20
-1.3965579571
 10
-0.0441941738
 20
-1.4031931484
 10
-0.0327004399
 20
-1.4123257059
 10
-0.0266578264
 20
-1.423061671
 10
-0.0266578264
 20
-1.4343501328
 10
-0.0327004399
 20
-1.445086098
 10
-0.0441941738
 20
-1.4542186554
 10
-0.0600139414
 20
-1.4608538468
 10
-0.0786111936
 20
-1.4643421733
 10
-0.0981655017
 20
-1.4643421733
 10
-0.1167627539
 20
-1.4608538468
 10
-0.1325825215
 20
-1.4542186554
  0
LWPOLYLINE
  5
128
330
101
100
AcDbEntity
  8
0
  6
Continuous
 62
     7
370
    15
100
AcDbPolyline
 90
       11
 70
   128
 43
0.0
 10
-1.1135276801
 20
0.2856859639
 10
-1.1432612732
 20
0.3064031716
 10
-1.1670779276
 20
0.3295288641
 10
-1.1844028751
 20
0.3545049481
 10
-1.1948180119
 20
0.3807286746
 10
-1.1980719891
 20
0.4075671855
 10
-1.1940862783
 20
0.4343727858
 10
-1.182957067
 20
0.4604985749
 10
-1.1649529367
 20
0.485314058
 10
-1.140508382
 20
0.508220362
 10
-1.1102133242
 20
0.5286646882
  0
LWPOLYLINE
  5
12B
330
101
100
AcDbEntity
  8
0
  6
Continuous
 62
     7
370
    15
100
AcDbPolyline
 90
       11
 70
   128
 43
0.0
 10
-0.141308468
 20
0.8469361685
 10
-0.1115748749
 20
0.8262189608
 10
-0.0877582205
 20
0.8030932683
 10
-0.0704332731
 20
0.7781171843
 10
-0.0600181363
 20
0.7518934578
 10
-0.056764159
 20
0.7250549469
 10
-0.0607498698
 20
0.6982493466
 10
-0.0718790811
 20
0.6721235575
 10
-0.0898832114
 20
0.6473080744
 10
-0.1143277662
 20
0.6244017704
 10
-0.1446228239
 20
0.6039574442
  0
LWPOLYLINE
  5
12E
330
101
100
AcDbEntity
  8
0
  6
Continuous
 62
     7
370
    15
100
AcDbPolyline
 90
       21
 70
   128
 43
0.0
 10
-1.9592750395
 20
0.3486825915
 10
-1.9434552719
 20
0.3420474001
 10
-1.9248580198
 20
0.3385590736
 10
-1.9053037116
 20
0.3385590736
 10
-1.8867064595
 20
0.3420474001
 10
-1.8708866919
 20
0.3486825915
 10
-1.859392958
 20
0.3578151489
 10
-1.8533503444
 20
0.3685511141
 10
-1.8533503444
 20
0.3798395759
 10
-1.859392958
 20
0.3905755411
 10
-1.8708866919
 20
0.3997080985
 10
-1.8867064595
 20
0.4063432899
 10
-1.9053037116
 20
0.4098316164
 10
-1.9248580198
 20
0.4098316164
 10
-1.9434552719
 20
0.4063432899
 10
-1.9592750395
 20
0.3997080985
 10
-1.9707687735
 20
0.3905755411
 10
-1.976811387
 20
0.3798395759
 10
-1.976811387
 20
0.3685511141
 10
-1.9707687735
 20
0.3578151489
 10
-1.9592750395
 20
0.3486825915
  0
LWPOLYLINE
  5
12F
330
101
100
AcDbEntity
  8
0
  6
Continuous
 62
     7
370
    15
100
AcDbPolyline
 90
       21
 70
   128
 43
0.0
 10
-1.3110938235
 20
0.7228696428
 10
-1.2952740559
 20
0.7162344514
 10
-1.2766768037
 20
0.7127461249
 10
-1.2571224956
 20
0.7127461249
 10
-1.2385252434
 20
0.7162344514
 10
-1.2227054758
 20
0.7228696428
 10
-1.2112117419
 20
0.7320022002
 10
-1.2051691283
 20
0.7427381654
 10
-1.2051691283
 20
0.7540266272
 10
-1.2112117419
 20
0.7647625923
 10
-1.2227054758
 20
0.7738951498
 10
-1.2385252434
 20
0.7805303411
 10
-1.2571224956
 20
0.7840186677
 10
-1.2766768037
 20
0.7840186677
 10
-1.2952740559
 20
0.7805303411
 10
-1.3110938235
 20
0.7738951498
 10
-1.3225875574
 20
0.7647625923
 10
-1.3286301709
 20
0.7540266272
 10
-1.3286301709
 20
0.7427381654
 10
-1.3225875574
 20
0.7320022002
 10
-1.3110938235
 20
0.7228696428
  0
LWPOLYLINE
  5
130
330
101
100
AcDbEntity
  8
0
  6
Continuous
 62
     7
370
    15
100
AcDbPolyline
 90
       21
 70
   128
 43
0.0
 10
0.5155986946
 20
-1.0800316042
 10
0.5041049607
 20
-1.0708990467
 10
0.4980623472
 20
-1.0601630816
 10
0.4980623472
 20
-1.0488746198
 10
0.5041049607
 20
-1.0381386546
 10
0.5155986946
 20
-1.0290060972
 10
0.5314184622
 20
-1.0223709058
 10
0.5500157144
 20
-1.0188825793
 10
0.5695700225
 20
-1.0188825793
 10
0.5881672747
 20
-1.0223709058
 10
0.6039870423
 20
-1.0290060972
 10
0.6154807762
 20
-1.0381386546
 10
0.6215233897
 20
-1.0488746198
 10
0.6215233897
 20
-1.0601630816
 10
0.6154807762
 20
-1.0708990467
 10
0.6039870423
 20
-1.0800316042
 10
0.5881672747
 20
-1.0866667955
 10
0.5695700225
 20
-1.0901551221
 10
0.5500157144
 20
-1.0901551221
 10
0.5314184622
 20
-1.0866667955
 10
0.5155986946
 20
-1.0800316042
  0
LWPOLYLINE
  5
151
330
101
100
AcDbEntity
  8
0
  6
Continuous
 62
     7
370
    15
100
AcDbPolyline
 90
        3
 70
   128
 43
0.0
 10
-0.0441941738
 20
-1.4353404245
 10
-0.0327004399
 20
-1.4444729819
 10
-0.0324330397
 20
-1.44477954
  0
LWPOLYLINE
  5
15A
330
101
100
AcDbEntity
  8
0
  6
Continuous
 62
     7
370
    15
100
AcDbPolyline
 90
        3
 70
   128
 43
0.0
 10
0.6157481764
 20
-1.0705924887
 10
0.6154807762
 20
-1.0702859307
 10
0.6039870423
 20
-1.0611533732
  0
LWPOLYLINE
  5
15E
330
101
100
AcDbEntity
  8
0
  6
Continuous
 62
     7
370
    15
100
AcDbPolyline
 90
        3
 70
   128
 43
0.0
 10
1.2639293925
 20
-0.6964054375
 10
1.2636619923
 20
-0.6960988794
 10
1.2521682584
 20
-0.686966322
  0
LWPOLYLINE
  5
165
330
101
100
AcDbEntity
  8
0
  6
Continuous
 62
     7
370
    15
100
AcDbPolyline
 90
        3
 70
   128
 43
0.0
 10
1.9003494744
 20
-0.3127792707
 10
1.9118432084
 20
-0.3219118282
 10
1.9121106086
 20
-0.3222183862
  0
LWPOLYLINE
  5
16F
330
101
100
AcDbEntity
  8
0
  6
Continuous
 62
     7
370
    15
100
AcDbPolyline
 90
        3
 70
   128
 43
0.0
 10
-2.5073067738
 20
-0.0160653443
 10
-2.507574174
 20
-0.0157587862
 10
-2.519067908
 20
-0.0066262288
  0
LWPOLYLINE
  5
176
330
101
100
AcDbEntity
  8
0
  6
Continuous
 62
     7
370
    15
100
AcDbPolyline
 90
        3
 70
   128
 43
0.0
 10
-1.8708866919
 20
0.3675608224
 10
-1.859392958
 20
0.358428265
 10
-1.8591255577
 20
0.358121707
  0
LWPOLYLINE
  5
17E
330
101
100
AcDbEntity
  8
0
  6
Continuous
 62
     7
370
    15
100
AcDbPolyline
 90
        3
 70
   128
 43
0.0
 10
-1.2227054758
 20
0.7417478737
 10
-1.2112117419
 20
0.7326153163
 10
-1.2109443417
 20
0.7323087582
  0
LWPOLYLINE
  5
186
330
101
100
AcDbEntity
  8
0
  6
Continuous
 62
     7
370
    15
100
AcDbPolyline
 90
        3
 70
   128
 43
0.0
 10
-0.5627631256
 20
1.1064958095
 10
-0.5630305258
 20
1.1068023675
 10
-0.5745242597
 20
1.1159349249
  0
LINE
  5
18F
330
101
100
AcDbEntity
  8
0
  6
Continuous
 62
     7
370
    15
100
AcDbLine
 10
3.125
 20
0.0188865247
 30
0.0
 11
3.125
 21
0.0510338007
 31
0.0
  0
LINE
  5
190
330
101
100
AcDbEntity
  8
0
  6
Continuous
 62
     7
370
    15
100
AcDbLine
 10
-3.125
 20
0.0510338007
 30
0.0
 11
-3.125
 21
0.0188865247
 31
0.0
  0
LINE
  5
191
330
101
100
AcDbEntity
  8
0
  6
Continuous
 62
     7
370
    15
100
AcDbLine
 10
1.0893086998
 20
1.399595241
 30
0.0
 11
1.1421359825
 21
1.4649952846
 31
0.0
  0
LINE
  5
192
330
101
100
AcDbEntity
  8
0
  6
Continuous
 62
     7
370
    15
100
AcDbLine
 10
0.2246460161
 20
1.5333445301
 30
0.0
 11
0.2355404839
 21
1.6052308998
 31
0.0
  0
LINE
  5
193
330
101
100
AcDbEntity
  8
0
  6
Continuous
 62
     7
370
    15
100
AcDbLine
 10
2.3360300453
 20
-0.5778107263
 30
0.0
 11
2.4493185187
 21
-0.6083072675
 31
0.0
  0
LINE
  5
194
330
101
100
AcDbEntity
  8
0
  6
Continuous
 62
     7
370
    15
100
AcDbLine
 10
2.5677157132
 20
-0.0786515839
 30
0.0
 11
2.6922400504
 21
-0.0849408263
 31
0.0
  0
LINE
  5
195
330
101
100
AcDbEntity
  8
0
  6
Continuous
 62
     7
370
    15
100
AcDbLine
 10
1.0893086998
 20
-1.2975276395
 30
0.0
 11
1.1421359825
 21
-1.3629276831
 31
0.0
  0
LINE
  5
196
330
101
100
AcDbEntity
  8
0
  6
Continuous
 62
     7
370
    15
100
AcDbLine
 10
0.2246460161
 20
-1.4312769286
 30
0.0
 11
0.2355404839
 21
-1.5031632984
 31
0.0
  0
LINE
  5
197
330
101
100
AcDbEntity
  8
0
  6
Continuous
 62
     7
370
    15
100
AcDbLine
 10
-2.1113840293
 20
0.904500003
 30
0.0
 11
-2.2137780348
 21
0.9458898316
 31
0.0
  0
LINE
  5
198
330
101
100
AcDbEntity
  8
0
  6
Continuous
 62
     7
370
    15
100
AcDbLine
 10
-1.4784070134
 20
1.2699098563
 30
0.0
 11
-1.5501040679
 21
1.3290206575
 31
0.0
  0
LINE
  5
199
330
101
100
AcDbEntity
  8
0
  6
Continuous
 62
     7
370
    15
100
AcDbLine
 10
1.4784070134
 20
1.2699098563
 30
0.0
 11
1.5501040679
 21
1.3290206575
 31
0.0
  0
LINE
  5
19A
330
101
100
AcDbEntity
  8
0
  6
Continuous
 62
     7
370
    15
100
AcDbLine
 10
2.1113840293
 20
0.904500003
 30
0.0
 11
2.2137780348
 21
0.9458898316
 31
0.0
  0
LINE
  5
19B
330
101
100
AcDbEntity
  8
0
  6
Continuous
 62
     7
370
    15
100
AcDbLine
 10
1.3753783671
 20
-0.2735205658
 30
0.0
 11
0.8273706117
 21
-0.5898787091
 31
0.0
  0
LINE
  5
19C
330
101
100
AcDbEntity
  8
0
  6
Continuous
 62
     7
370
    15
100
AcDbLine
 10
0.9577956223
 20
-0.0324551784
 30
0.0
 11
0.4097878669
 21
-0.3488133217
 31
0.0
  0
LINE
  5
19D
330
101
100
AcDbEntity
  8
0
  6
Continuous
 62
     7
370
    15
100
AcDbLine
 10
-0.1446228239
 20
0.6039574442
 30
0.0
 11
-0.6926305794
 21
0.2875993009
 31
0.0
  0
LINE
  5
19E
330
101
100
AcDbEntity
  8
0
  6
Continuous
 62
     7
370
    15
100
AcDbLine
 10
-0.5622055687
 20
0.8450228315
 30
0.0
 11
-1.1102133242
 21
0.5286646882
 31
0.0
  0
LINE
  5
19F
330
101
100
AcDbEntity
  8
0
  6
Continuous
 62
     7
370
    15
100
AcDbLine
 10
2.1113840293
 20
-0.8024324015
 30
0.0
 11
2.2137780348
 21
-0.8438222301
 31
0.0
  0
LINE
  5
1A0
330
101
100
AcDbEntity
  8
0
  6
Continuous
 62
     7
370
    15
100
AcDbLine
 10
1.4784070134
 20
-1.1678422549
 30
0.0
 11
1.5501040679
 21
-1.226953056
 31
0.0
  0
LINE
  5
1A1
330
101
100
AcDbEntity
  8
0
  6
Continuous
 62
     7
370
    15
100
AcDbLine
 10
-2.5677157132
 20
0.1807191854
 30
0.0
 11
-2.6922400504
 21
0.1870084278
 31
0.0
  0
LINE
  5
1A2
330
101
100
AcDbEntity
  8
0
  6
Continuous
 62
     7
370
    15
100
AcDbLine
 10
-2.3360300453
 20
0.6798783278
 30
0.0
 11
-2.4493185187
 21
0.710374869
 31
0.0
  0
LINE
  5
1A3
330
101
100
AcDbEntity
  8
0
  6
Continuous
 62
     7
370
    15
100
AcDbLine
 10
-1.0893086998
 20
1.399595241
 30
0.0
 11
-1.1421359825
 21
1.4649952846
 31
0.0
  0
LINE
  5
1A4
330
101
100
AcDbEntity
  8
0
  6
Continuous
 62
     7
370
    15
100
AcDbLine
 10
-0.2246460161
 20
1.5333445301
 30
0.0
 11
-0.2355404839
 21
1.6052308998
 31
0.0
  0
LINE
  5
1A5
330
101
100
AcDbEntity
  8
0
  6
Continuous
 62
     7
370
    15
100
AcDbLine
 10
2.3360300453
 20
0.6798783278
 30
0.0
 11
2.4493185187
 21
0.710374869
 31
0.0
  0
LINE
  5
1A6
330
101
100
AcDbEntity
  8
0
  6
Continuous
 62
     7
370
    15
100
AcDbLine
 10
2.5677157132
 20
0.1807191854
 30
0.0
 11
2.6922400504
 21
0.1870084278
 31
0.0
  0
LINE
  5
1A7
330
101
100
AcDbEntity
  8
0
  6
Continuous
 62
     7
370
    15
100
AcDbLine
 10
-2.5677157132
 20
-0.0786515839
 30
0.0
 11
-2.6922400504
 21
-0.0849408263
 31
0.0
  0
LINE
  5
1A8
330
101
100
AcDbEntity
  8
0
  6
Continuous
 62
     7
370
    15
100
AcDbLine
 10
-2.3360300453
 20
-0.5778107263
 30
0.0
 11
-2.4493185187
 21
-0.6083072675
 31
0.0
  0
LINE
  5
1A9
330
101
100
AcDbEntity
  8
0
  6
Continuous
 62
     7
370
    15
100
AcDbLine
 10
-2.1113840293
 20
-0.8024324015
 30
0.0
 11
-2.2137780348
 21
-0.8438222301
 31
0.0
  0
LINE
  5
1AA
330
101
100
AcDbEntity
  8
0
  6
Continuous
 62
     7
370
    15
100
AcDbLine
 10
-1.4784070134
 20
-1.1678422549
 30
0.0
 11
-1.5501040679
 21
-1.226953056
 31
0.0
  0
LINE
  5
1AB
330
101
100
AcDbEntity
  8
0
  6
Continuous
 62
     7
370
    15
100
AcDbLine
 10
-0.2246460161
 20
-1.4312769286
 30
0.0
 11
-0.2355404839
 21
-1.5031632984
 31
0.0
  0
LINE
  5
1AC
330
101
100
AcDbEntity
  8
0
  6
Continuous
 62
     7
370
    15
100
AcDbLine
 10
-1.0893086998
 20
-1.2975276395
 30
0.0
 11
-1.1421359825
 21
-1.3629276831
 31
0.0
  0
LINE
  5
1AD
330
101
100
AcDbEntity
  8
0
  6
Continuous
 62
     7
370
    15
100
AcDbLine
 10
-1.0893086998
 20
-1.3296749156
 30
0.0
 11
-1.0893086998
 21
-1.2975276395
 31
0.0
  0
LINE
  5
1AE
330
101
100
AcDbEntity
  8
0
  6
Continuous
 62
     7
370
    15
100
AcDbLine
 10
1.0893086998
 20
-1.3296749156
 30
0.0
 11
1.0893086998
 21
-1.2975276395
 31
0.0
  0
LINE
  5
1AF
330
101
100
AcDbEntity
  8
0
  6
Continuous
 62
     7
370
    15
100
AcDbLine
 10
-1.0893086998
 20
-1.3296749156
 30
0.0
 11
-1.1207634132
 21
-1.3686157719
 31
0.0
  0
LINE
  5
1B0
330
101
100
AcDbEntity
  8
0
  6
Continuous
 62
     7
370
    15
100
AcDbLine
 10
1.1207634132
 20
-1.3686157719
 30
0.0
 11
1.0893086998
 21
-1.3296749156
 31
0.0
  0
LINE
  5
1B1
330
101
100
AcDbEntity
  8
0
  6
Continuous
 62
     7
370
    15
100
AcDbLine
 10
2.1113840293
 20
-0.8345796776
 30
0.0
 11
2.1113840293
 21
-0.8024324015
 31
0.0
  0
LINE
  5
1B2
330
101
100
AcDbEntity
  8
0
  6
Continuous
 62
     7
370
    15
100
AcDbLine
 10
-2.1113840293
 20
-0.8345796776
 30
0.0
 11
-2.1113840293
 21
-0.8024324015
 31
0.0
  0
LINE
  5
1B3
330
101
100
AcDbEntity
  8
0
  6
Continuous
 62
     7
370
    15
100
AcDbLine
 10
2.1872984451
 20
-0.8652658944
 30
0.0
 11
2.1113840293
 21
-0.8345796776
 31
0.0
  0
LINE
  5
1B4
330
101
100
AcDbEntity
  8
0
  6
Continuous
 62
     7
370
    15
100
AcDbLine
 10
-2.1872984451
 20
-0.8652658944
 30
0.0
 11
-2.1113840293
 21
-0.8345796776
 31
0.0
  0
LINE
  5
1B5
330
101
100
AcDbEntity
  8
0
  6
Continuous
 62
     7
370
    15
100
AcDbLine
 10
0.4097878669
 20
-0.3488133217
 30
0.0
 11
0.4097878669
 21
-0.3809605978
 31
0.0
  0
LINE
  5
1B6
330
101
100
AcDbEntity
  8
0
  6
Continuous
 62
     7
370
    15
100
AcDbLine
 10
2.5677157132
 20
-0.11079886
 30
0.0
 11
2.5677157132
 21
-0.0786515839
 31
0.0
  0
LINE
  5
1B7
330
101
100
AcDbEntity
  8
0
  6
Continuous
 62
     7
370
    15
100
AcDbLine
 10
-2.5677157132
 20
-0.11079886
 30
0.0
 11
-2.5677157132
 21
-0.0786515839
 31
0.0
  0
LINE
  5
1B8
330
101
100
AcDbEntity
  8
0
  6
Continuous
 62
     7
370
    15
100
AcDbLine
 10
0.9577956223
 20
-0.0646024545
 30
0.0
 11
0.9577956223
 21
-0.0324551784
 31
0.0
  0
LINE
  5
1B9
330
101
100
AcDbEntity
  8
0
  6
Continuous
 62
     7
370
    15
100
AcDbLine
 10
0.9577956223
 20
-0.0646024545
 30
0.0
 11
0.4097878669
 21
-0.3809605978
 31
0.0
  0
LINE
  5
1BA
330
101
100
AcDbEntity
  8
0
  6
Continuous
 62
     7
370
    15
100
AcDbLine
 10
1.378692723
 20
-0.0305418415
 30
0.0
 11
1.378692723
 21
-0.0626891175
 31
0.0
  0
LINE
  5
1BB
330
101
100
AcDbEntity
  8
0
  6
Continuous
 62
     7
370
    15
100
AcDbLine
 10
2.5677157132
 20
-0.11079886
 30
0.0
 11
2.6868378386
 21
-0.1168152576
 31
0.0
  0
LINE
  5
1BC
330
101
100
AcDbEntity
  8
0
  6
Continuous
 62
     7
370
    15
100
AcDbLine
 10
-2.6868378386
 20
-0.1168152576
 30
0.0
 11
-2.5677157132
 21
-0.11079886
 31
0.0
  0
LINE
  5
1BD
330
101
100
AcDbEntity
  8
0
  6
Continuous
 62
     7
370
    15
100
AcDbLine
 10
2.4493185187
 20
0.6782275929
 30
0.0
 11
2.4493185187
 21
0.710374869
 31
0.0
  0
LINE
  5
1BE
330
101
100
AcDbEntity
  8
0
  6
Continuous
 62
     7
370
    15
100
AcDbLine
 10
-2.4493185187
 20
0.6782275929
 30
0.0
 11
-2.4493185187
 21
0.710374869
 31
0.0
  0
LINE
  5
1BF
330
101
100
AcDbEntity
  8
0
  6
Continuous
 62
     7
370
    15
100
AcDbLine
 10
-1.1102133242
 20
0.5286646882
 30
0.0
 11
-1.1102133242
 21
0.4965174122
 31
0.0
  0
LINE
  5
1C0
330
101
100
AcDbEntity
  8
0
  6
Continuous
 62
     7
370
    15
100
AcDbLine
 10
-0.5622055687
 20
0.8128755555
 30
0.0
 11
-0.5622055687
 21
0.8450228315
 31
0.0
  0
LINE
  5
1C1
330
101
100
AcDbEntity
  8
0
  6
Continuous
 62
     7
370
    15
100
AcDbLine
 10
-0.5622055687
 20
0.8128755555
 30
0.0
 11
-1.1102133242
 21
0.4965174122
 31
0.0
  0
LINE
  5
1C2
330
101
100
AcDbEntity
  8
0
  6
Continuous
 62
     7
370
    15
100
AcDbLine
 10
-0.141308468
 20
0.8469361685
 30
0.0
 11
-0.141308468
 21
0.8147888924
 31
0.0
  0
LINE
  5
1C3
330
101
100
AcDbEntity
  8
0
  6
Continuous
 62
     7
370
    15
100
AcDbLine
 10
2.4493185187
 20
0.6782275929
 30
0.0
 11
2.3569114503
 21
0.653352194
 31
0.0
  0
LINE
  5
1C4
330
101
100
AcDbEntity
  8
0
  6
Continuous
 62
     7
370
    15
100
AcDbLine
 10
-2.4493185187
 20
0.6782275929
 30
0.0
 11
-2.3569114503
 21
0.653352194
 31
0.0
  0
LINE
  5
1C5
330
101
100
AcDbEntity
  8
0
  6
Continuous
 62
     7
370
    15
100
AcDbLine
 10
1.5501040679
 20
1.2968733815
 30
0.0
 11
1.5501040679
 21
1.3290206575
 31
0.0
  0
LINE
  5
1C6
330
101
100
AcDbEntity
  8
0
  6
Continuous
 62
     7
370
    15
100
AcDbLine
 10
-1.5501040679
 20
1.2968733815
 30
0.0
 11
-1.5501040679
 21
1.3290206575
 31
0.0
  0
LINE
  5
1C7
330
101
100
AcDbEntity
  8
0
  6
Continuous
 62
     7
370
    15
100
AcDbLine
 10
1.5501040679
 20
1.2968733815
 30
0.0
 11
1.5044577098
 21
1.2592401368
 31
0.0
  0
LINE
  5
1C8
330
101
100
AcDbEntity
  8
0
  6
Continuous
 62
     7
370
    15
100
AcDbLine
 10
-1.5501040679
 20
1.2968733815
 30
0.0
 11
-1.5044577098
 21
1.2592401368
 31
0.0
  0
LINE
  5
1C9
330
101
100
AcDbEntity
  8
0
  6
Continuous
 62
     7
370
    15
100
AcDbLine
 10
0.2355404839
 20
1.5730836238
 30
0.0
 11
0.2355404839
 21
1.6052308998
 31
0.0
  0
LINE
  5
1CA
330
101
100
AcDbEntity
  8
0
  6
Continuous
 62
     7
370
    15
100
AcDbLine
 10
-0.2355404839
 20
1.5730836238
 30
0.0
 11
-0.2355404839
 21
1.6052308998
 31
0.0
  0
LINE
  5
1CB
330
101
100
AcDbEntity
  8
0
  6
Continuous
 62
     7
370
    15
100
AcDbLine
 10
0.2294805691
 20
1.5330977076
 30
0.0
 11
0.2355404839
 21
1.5730836238
 31
0.0
  0
LINE
  5
1CC
330
101
100
AcDbEntity
  8
0
  6
Continuous
 62
     7
370
    15
100
AcDbLine
 10
-0.2294805691
 20
1.5330977076
 30
0.0
 11
-0.2355404839
 21
1.5730836238
 31
0.0
  0
ARC
  5
1CD
330
101
100
AcDbEntity
  8
0
  6
Continuous
 62
     7
370
    15
100
AcDbCircle
 10
0.0282099813
 20
-2.7357178117
 30
0.0
 40
4.345897105742438
100
AcDbArc
 50
75.1483802245
 51
87.2655419097
  0
ARC
  5
1CE
330
101
100
AcDbEntity
  8
0
  6
Continuous
 62
     7
370
    15
100
AcDbCircle
 10
0.0269051833
 20
-2.6068220256
 30
0.0
 40
4.144886071525633
100
AcDbArc
 50
75.1483802245
 51
87.2655419097
  0
ARC
  5
1CF
330
101
100
AcDbEntity
  8
0
  6
Continuous
 62
     7
370
    15
100
AcDbCircle
 10
1.6087574625
 20
0.0999002163
 30
0.0
 40
1.099136356151915
100
AcDbArc
 50
319.8844751282
 51
350.3186019828
  0
ARC
  5
1D0
330
101
100
AcDbEntity
  8
0
  6
Continuous
 62
     7
370
    15
100
AcDbCircle
 10
1.5343475091
 20
0.0976399952
 30
0.0
 40
1.048297937680535
100
AcDbArc
 50
319.8844751282
 51
350.3186019828
  0
ARC
  5
1D1
330
101
100
AcDbEntity
  8
0
  6
Continuous
 62
     7
370
    15
100
AcDbCircle
 10
0.0282099813
 20
2.8377854132
 30
0.0
 40
4.345897105742474
100
AcDbArc
 50
272.7344580903
 51
284.8516197755
  0
ARC
  5
1D2
330
101
100
AcDbEntity
  8
0
  6
Continuous
 62
     7
370
    15
100
AcDbCircle
 10
0.0269051833
 20
2.7088896271
 30
0.0
 40
4.144886071525682
100
AcDbArc
 50
272.7344580903
 51
284.8516197755
  0
ARC
  5
1D3
330
101
100
AcDbEntity
  8
0
  6
Continuous
 62
     7
370
    15
100
AcDbCircle
 10
-0.6273816508
 20
-1.0357408486
 30
0.0
 40
2.538407697671438
100
AcDbArc
 50
111.3155710833
 51
128.679052384
  0
ARC
  5
1D4
330
101
100
AcDbEntity
  8
0
  6
Continuous
 62
     7
370
    15
100
AcDbCircle
 10
-0.5983633305
 20
-0.9854741968
 30
0.0
 40
2.420998577262531
100
AcDbArc
 50
111.3155710833
 51
128.679052384
  0
ARC
  5
1D5
330
101
100
AcDbEntity
  8
0
  6
Continuous
 62
     7
370
    15
100
AcDbCircle
 10
0.6273816508
 20
-1.0357408486
 30
0.0
 40
2.538407697671431
100
AcDbArc
 50
51.320947616
 51
68.6844289167
  0
ARC
  5
1D6
330
101
100
AcDbEntity
  8
0
  6
Continuous
 62
     7
370
    15
100
AcDbCircle
 10
0.5983633305
 20
-0.9854741968
 30
0.0
 40
2.420998577262525
100
AcDbArc
 50
51.320947616
 51
68.6844289167
  0
ARC
  5
1D7
330
101
100
AcDbEntity
  8
0
  6
Continuous
 62
     7
370
    15
100
AcDbCircle
 10
0.6150684804
 20
-0.1830834366
 30
0.0
 40
0.4588622763669358
100
AcDbArc
 50
242.9613352392
 51
297.5595777151
  0
ARC
  5
1D8
330
101
100
AcDbEntity
  8
0
  6
Continuous
 62
     7
370
    15
100
AcDbCircle
 10
1.1700977536
 20
-0.4392504509
 30
0.0
 40
0.4588622763669366
100
AcDbArc
 50
62.9613352392
 51
117.5595777151
  0
ARC
  5
1D9
330
101
100
AcDbEntity
  8
0
  6
Continuous
 62
     7
370
    15
100
AcDbCircle
 10
-0.9049327107
 20
0.6943945733
 30
0.0
 40
0.4588622763669376
100
AcDbArc
 50
242.9613352392
 51
297.5595777151
  0
ARC
  5
1DA
330
101
100
AcDbEntity
  8
0
  6
Continuous
 62
     7
370
    15
100
AcDbCircle
 10
-0.3499034374
 20
0.4382275591
 30
0.0
 40
0.4588622763669374
100
AcDbArc
 50
62.9613352392
 51
117.5595777151
  0
ARC
  5
1DB
330
101
100
AcDbEntity
  8
0
  6
Continuous
 62
     7
370
    15
100
AcDbCircle
 10
0.6273816508
 20
1.13780845
 30
0.0
 40
2.538407697671468
100
AcDbArc
 50
291.3155710833
 51
308.679052384
  0
ARC
  5
1DC
330
101
100
AcDbEntity
  8
0
  6
Continuous
 62
     7
370
    15
100
AcDbCircle
 10
0.5983633305
 20
1.0875417983
 30
0.0
 40
2.420998577262639
100
AcDbArc
 50
291.3155710833
 51
308.679052384
  0
ARC
  5
1DD
330
101
100
AcDbEntity
  8
0
  6
Continuous
 62
     7
370
    15
100
AcDbCircle
 10
-1.6087574625
 20
0.0021673851
 30
0.0
 40
1.099136356151922
100
AcDbArc
 50
139.8844751282
 51
170.3186019828
  0
ARC
  5
1DE
330
101
100
AcDbEntity
  8
0
  6
Continuous
 62
     7
370
    15
100
AcDbCircle
 10
-1.5343475091
 20
0.0044276063
 30
0.0
 40
1.048297937680532
100
AcDbArc
 50
139.8844751282
 51
170.3186019828
  0
ARC
  5
1DF
330
101
100
AcDbEntity
  8
0
  6
Continuous
 62
     7
370
    15
100
AcDbCircle
 10
-0.0282099813
 20
-2.7357178117
 30
0.0
 40
4.345897105742498
100
AcDbArc
 50
92.7344580903
 51
104.8516197755
  0
ARC
  5
1E0
330
101
100
AcDbEntity
  8
0
  6
Continuous
 62
     7
370
    15
100
AcDbCircle
 10
-0.0269051833
 20
-2.6068220256
 30
0.0
 40
4.144886071525591
100
AcDbArc
 50
92.7344580903
 51
104.8516197755
  0
ARC
  5
1E1
330
101
100
AcDbEntity
  8
0
  6
Continuous
 62
     7
370
    15
100
AcDbCircle
 10
1.6087574625
 20
0.0021673851
 30
0.0
 40
1.099136356151934
100
AcDbArc
 50
9.6813980172
 51
40.1155248718
  0
ARC
  5
1E2
330
101
100
AcDbEntity
  8
0
  6
Continuous
 62
     7
370
    15
100
AcDbCircle
 10
1.5343475091
 20
0.0044276063
 30
0.0
 40
1.048297937680515
100
AcDbArc
 50
9.6813980172
 51
40.1155248718
  0
ARC
  5
1E3
330
101
100
AcDbEntity
  8
0
  6
Continuous
 62
     7
370
    15
100
AcDbCircle
 10
-1.5343475091
 20
0.0976399952
 30
0.0
 40
1.048297937680489
100
AcDbArc
 50
189.6813980172
 51
220.1155248718
  0
ARC
  5
1E4
330
101
100
AcDbEntity
  8
0
  6
Continuous
 62
     7
370
    15
100
AcDbCircle
 10
-1.6087574625
 20
0.0999002163
 30
0.0
 40
1.099136356151897
100
AcDbArc
 50
189.6813980172
 51
220.1155248718
  0
ARC
  5
1E5
330
101
100
AcDbEntity
  8
0
  6
Continuous
 62
     7
370
    15
100
AcDbCircle
 10
-0.5983633305
 20
1.0875417983
 30
0.0
 40
2.420998577262457
100
AcDbArc
 50
231.320947616
 51
248.6844289167
  0
ARC
  5
1E6
330
101
100
AcDbEntity
  8
0
  6
Continuous
 62
     7
370
    15
100
AcDbCircle
 10
-0.6273816508
 20
1.13780845
 30
0.0
 40
2.538407697671404
100
AcDbArc
 50
231.320947616
 51
248.6844289167
  0
ARC
  5
1E7
330
101
100
AcDbEntity
  8
0
  6
Continuous
 62
     7
370
    15
100
AcDbCircle
 10
-0.0282099813
 20
2.8377854132
 30
0.0
 40
4.345897105742603
100
AcDbArc
 50
255.1483802245
 51
267.2655419097
  0
ARC
  5
1E8
330
101
100
AcDbEntity
  8
0
  6
Continuous
 62
     7
370
    15
100
AcDbCircle
 10
-0.0269051833
 20
2.7088896271
 30
0.0
 40
4.14488607152582
100
AcDbArc
 50
255.1483802245
 51
267.2655419097
  0
ARC
  5
1E9
330
101
100
AcDbEntity
  8
0
  6
Continuous
 62
     7
370
    15
100
AcDbCircle
 10
-0.0271409749
 20
2.675629568
 30
0.0
 40
4.143750026469655
100
AcDbArc
 50
255.1475877907
 51
267.2011301975
  0
ARC
  5
1EA
330
101
100
AcDbEntity
  8
0
  6
Continuous
 62
     7
370
    15
100
AcDbCircle
 10
0.0271409749
 20
2.675629568
 30
0.0
 40
4.14375002646966
100
AcDbArc
 50
272.7988698025
 51
284.8524122093
  0
ARC
  5
1EB
330
101
100
AcDbEntity
  8
0
  6
Continuous
 62
     7
370
    15
100
AcDbCircle
 10
-0.0875666824
 20
-1.5111709985
 30
0.0
 40
0.0873581733978051
100
AcDbArc
 50
60.231912227
 51
130.5365622074
  0
ARC
  5
1EC
330
101
100
AcDbEntity
  8
0
  6
Continuous
 62
     7
370
    15
100
AcDbCircle
 10
0.6064839451
 20
1.0435935142
 30
0.0
 40
2.40671120030893
100
AcDbArc
 50
291.9076948858
 51
308.7037088449
  0
ARC
  5
1ED
330
101
100
AcDbEntity
  8
0
  6
Continuous
 62
     7
370
    15
100
AcDbCircle
 10
-0.6064839451
 20
1.0435935142
 30
0.0
 40
2.406711200308809
100
AcDbArc
 50
231.2962911551
 51
248.0923051142
  0
ARC
  5
1EE
330
101
100
AcDbEntity
  8
0
  6
Continuous
 62
     7
370
    15
100
AcDbCircle
 10
0.5601945064
 20
-1.1325274368
 30
0.0
 40
0.0837379432848305
100
AcDbArc
 50
58.4682318526
 51
132.3002425818
  0
ARC
  5
1EF
330
101
100
AcDbEntity
  8
0
  6
Continuous
 62
     7
370
    15
100
AcDbCircle
 10
1.2083757225
 20
-0.7583403855
 30
0.0
 40
0.0837379432848271
100
AcDbArc
 50
58.4682318526
 51
132.3002425818
  0
ARC
  5
1F0
330
101
100
AcDbEntity
  8
0
  6
Continuous
 62
     7
370
    15
100
AcDbCircle
 10
0.4754886202
 20
-0.5228429922
 30
0.0
 40
0.1563560131318712
100
AcDbArc
 50
114.8471974442
 51
166.8787339088
  0
ARC
  5
1F1
330
101
100
AcDbEntity
  8
0
  6
Continuous
 62
     7
370
    15
100
AcDbCircle
 10
1.5437034468
 20
0.0626040773
 30
0.0
 40
1.03859024657094
100
AcDbArc
 50
321.535355567
 51
350.3888912315
  0
ARC
  5
1F2
330
101
100
AcDbEntity
  8
0
  6
Continuous
 62
     7
370
    15
100
AcDbCircle
 10
-1.5437034468
 20
0.0626040773
 30
0.0
 40
1.038590246570889
100
AcDbArc
 50
189.6111087685
 51
218.464644433
  0
ARC
  5
1F3
330
101
100
AcDbEntity
  8
0
  6
Continuous
 62
     7
370
    15
100
AcDbCircle
 10
1.8569769659
 20
-0.3886098448
 30
0.0
 40
0.0873581733978054
100
AcDbArc
 50
60.231912227
 51
130.5365622074
  0
ARC
  5
1F4
330
101
100
AcDbEntity
  8
0
  6
Continuous
 62
     7
370
    15
100
AcDbCircle
 10
1.3085475358
 20
-0.2040135214
 30
0.0
 40
0.1577749486034874
100
AcDbArc
 50
13.5181900898
 51
63.6028806833
  0
ARC
  5
1F5
330
101
100
AcDbEntity
  8
0
  6
Continuous
 62
     7
370
    15
100
AcDbCircle
 10
1.1700977536
 20
-0.471397727
 30
0.0
 40
0.4588622763669359
100
AcDbArc
 50
62.9613352392
 51
117.5595777151
  0
ARC
  5
1F6
330
101
100
AcDbEntity
  8
0
  6
Continuous
 62
     7
370
    15
100
AcDbCircle
 10
-2.5628604439
 20
-0.0780002924
 30
0.0
 40
0.0837379432848317
100
AcDbArc
 50
58.4682318526
 51
132.3002425818
  0
ARC
  5
1F7
330
101
100
AcDbEntity
  8
0
  6
Continuous
 62
     7
370
    15
100
AcDbCircle
 10
1.6012681575
 20
-0.0347407758
 30
0.0
 40
1.107931997059175
100
AcDbArc
 50
11.5311510895
 51
40.0542581182
  0
ARC
  5
1F8
330
101
100
AcDbEntity
  8
0
  6
Continuous
 62
     7
370
    15
100
AcDbCircle
 10
-1.6012681575
 20
-0.0347407758
 30
0.0
 40
1.107931997059175
100
AcDbArc
 50
139.9457418818
 51
168.4688489105
  0
ARC
  5
1F9
330
101
100
AcDbEntity
  8
0
  6
Continuous
 62
     7
370
    15
100
AcDbCircle
 10
-1.0445125708
 20
0.3546350177
 30
0.0
 40
0.1563560131318343
100
AcDbArc
 50
114.8471974442
 51
166.8787339088
  0
ARC
  5
1FA
330
101
100
AcDbEntity
  8
0
  6
Continuous
 62
     7
370
    15
100
AcDbCircle
 10
-1.9142592005
 20
0.2917302484
 30
0.0
 40
0.0873581733978041
100
AcDbArc
 50
60.231912227
 51
130.5365622074
  0
ARC
  5
1FB
330
101
100
AcDbEntity
  8
0
  6
Continuous
 62
     7
370
    15
100
AcDbCircle
 10
-0.2114536553
 20
0.6734644886
 30
0.0
 40
0.1577749486034963
100
AcDbArc
 50
13.5181900898
 51
63.6028806833
  0
ARC
  5
1FC
330
101
100
AcDbEntity
  8
0
  6
Continuous
 62
     7
370
    15
100
AcDbCircle
 10
-1.2660779844
 20
0.6659172997
 30
0.0
 40
0.0873581733978066
100
AcDbArc
 50
60.231912227
 51
130.5365622074
  0
ARC
  5
1FD
330
101
100
AcDbEntity
  8
0
  6
Continuous
 62
     7
370
    15
100
AcDbCircle
 10
-0.3499034374
 20
0.406080283
 30
0.0
 40
0.4588622763669352
100
AcDbArc
 50
62.9613352392
 51
117.5595777151
  0
ARC
  5
1FE
330
101
100
AcDbEntity
  8
0
  6
Continuous
 62
     7
370
    15
100
AcDbCircle
 10
0.6176503404
 20
-1.0879815494
 30
0.0
 40
2.560664561247671
100
AcDbArc
 50
52.1943721269
 51
68.6450132301
  0
ARC
  5
1FF
330
101
100
AcDbEntity
  8
0
  6
Continuous
 62
     7
370
    15
100
AcDbCircle
 10
-0.6176503404
 20
-1.0879815494
 30
0.0
 40
2.560664561247692
100
AcDbArc
 50
111.3549867699
 51
127.8056278731
  0
ARC
  5
200
330
101
100
AcDbEntity
  8
0
  6
Continuous
 62
     7
370
    15
100
AcDbCircle
 10
-0.6183167956
 20
1.0445608614
 30
0.0
 40
0.0837379432848208
100
AcDbArc
 50
58.4682318526
 51
132.3002425818
  0
ARC
  5
201
330
101
100
AcDbEntity
  8
0
  6
Continuous
 62
     7
370
    15
100
AcDbCircle
 10
0.0274263477
 20
-2.7754819458
 30
0.0
 40
4.353542696085093
100
AcDbArc
 50
75.4551766002
 51
87.2600227961
  0
ARC
  5
202
330
101
100
AcDbEntity
  8
0
  6
Continuous
 62
     7
370
    15
100
AcDbCircle
 10
-0.0274263477
 20
-2.7754819458
 30
0.0
 40
4.353542696085101
100
AcDbArc
 50
92.7399772039
 51
104.5448233998
  0
VIEWPORT
  5
207
330
101
100
AcDbEntity
  8
0
100
AcDbViewport
 10
0.0
 20
0.0
 30
0.0
 40
8.4
 41
6.4
 68
     1
 69
     1
 12
0.0
 22
0.0
 13
0.0
 23
0.0
 14
0.5
 24
0.5
 15
0.5
 25
0.5
 16
0.0
 26
0.0
 36
1.0
 17
0.0
 27
0.0
 37
0.0
 42
50.0
 43
0.0
 44
0.0
 45
6.375
 50
0.0
 51
0.0
 72
   100
 90
   557152
  1

281
     0
 71
     1
 74
     0
110
0.0
120
0.0
130
0.0
111
1.0
121
0.0
131
0.0
112
0.0
122
1.0
132
0.0
 79
     0
146
0.0
  0
MTEXT
  5
210
330
101
100
AcDbEntity
  8
0
  6
Continuous
 62
     7
100
AcDbMText
 10
-3.125
 20
-1.8251676096
 30
0.0
 40
0.1903
 41
0.0
 71
     1
 72
     1
  1
SolidWorks Student Edition.
  7
SLDTEXTSTYLE0
 73
     1
 44
1.0
  0
MTEXT
  5
211
330
101
100
AcDbEntity
  8
0
  6
Continuous
 62
     7
100
AcDbMText
 10
-3.125
 20
-2.1106176096
 30
0.0
 40
0.1903
 41
0.0
 71
     1
 72
     1
  1
For Academic Use Only.
  7
SLDTEXTSTYLE0
 73
     1
 44
1.0
  0
ENDBLK
  5
104
330
101
100
AcDbEntity
  8
0
100
AcDbBlockEnd
  0
ENDSEC
  0
SECTION
  2
ENTITIES
  0
CIRCLE
  5
83
330
1F
100
AcDbEntity
  8
0
  6
Continuous
 62
     7
370
    15
100
AcDbCircle
 10
1.75
 20
-0.0416666667
 30
0.0
 40
0.0624999999999997
  0
CIRCLE
  5
8A
330
1F
100
AcDbEntity
  8
0
  6
Continuous
 62
     7
370
    15
100
AcDbCircle
 10
1.75
 20
0.875
 30
0.0
 40
0.0624999999999998
  0
CIRCLE
  5
8B
330
1F
100
AcDbEntity
  8
0
  6
Continuous
 62
     7
370
    15
100
AcDbCircle
 10
-1.75
 20
0.875
 30
0.0
 40
0.0624999999999998
  0
CIRCLE
  5
8C
330
1F
100
AcDbEntity
  8
0
  6
Continuous
 62
     7
370
    15
100
AcDbCircle
 10
-1.75
 20
-1.875
 30
0.0
 40
0.0625
  0
CIRCLE
  5
8D
330
1F
100
AcDbEntity
  8
0
  6
Continuous
 62
     7
370
    15
100
AcDbCircle
 10
1.75
 20
-1.875
 30
0.0
 40
0.0625
  0
CIRCLE
  5
94
330
1F
100
AcDbEntity
  8
0
  6
Continuous
 62
     7
370
    15
100
AcDbCircle
 10
0.0
 20
0.0
 30
0.0
 40
3.125
  0
CIRCLE
  5
95
330
1F
100
AcDbEntity
  8
0
  6
Continuous
 62
     7
370
    15
100
AcDbCircle
 10
-1.75
 20
-0.9583333333
 30
0.0
 40
0.0624999999999999
  0
CIRCLE
  5
96
330
1F
100
AcDbEntity
  8
0
  6
Continuous
 62
     7
370
    15
100
AcDbCircle
 10
-1.75
 20
-0.0416666667
 30
0.0
 40
0.0624999999999997
  0
CIRCLE
  5
97
330
1F
100
AcDbEntity
  8
0
  6
Continuous
 62
     7
370
    15
100
AcDbCircle
 10
1.75
 20
-0.9583333333
 30
0.0
 40
0.0624999999999999
  0
LINE
  5
B4
330
1F
100
AcDbEntity
  8
0
  6
Continuous
 62
     7
370
    15
100
AcDbLine
 10
-0.8815651177
 20
2.4220802546
 30
0.0
 11
-0.9243176356
 21
2.5395418322
 31
0.0
  0
LINE
  5
B5
330
1F
100
AcDbEntity
  8
0
  6
Continuous
 62
     7
370
    15
100
AcDbLine
 10
-1.6568004716
 20
1.9744979143
 30
0.0
 11
-1.7371489228
 21
2.0702534697
 31
0.0
  0
LINE
  5
B6
330
1F
100
AcDbEntity
  8
0
  6
Continuous
 62
     7
370
    15
100
AcDbLine
 10
2.4220802546
 20
0.8815651177
 30
0.0
 11
2.5395418322
 21
0.9243176356
 31
0.0
  0
LINE
  5
B7
330
1F
100
AcDbEntity
  8
0
  6
Continuous
 62
     7
370
    15
100
AcDbLine
 10
1.9744979143
 20
1.6568004716
 30
0.0
 11
2.0702534697
 21
1.7371489228
 31
0.0
  0
LINE
  5
B8
330
1F
100
AcDbEntity
  8
0
  6
Continuous
 62
     7
370
    15
100
AcDbLine
 10
2.4220802546
 20
-0.8815651177
 30
0.0
 11
2.5395418322
 21
-0.9243176356
 31
0.0
  0
LINE
  5
B9
330
1F
100
AcDbEntity
  8
0
  6
Continuous
 62
     7
370
    15
100
AcDbLine
 10
1.9744979143
 20
-1.6568004716
 30
0.0
 11
2.0702534697
 21
-1.7371489228
 31
0.0
  0
LINE
  5
BA
330
1F
100
AcDbEntity
  8
0
  6
Continuous
 62
     7
370
    15
100
AcDbLine
 10
-2.5383655893
 20
-0.4475823403
 30
0.0
 11
-2.6614665584
 21
-0.4692883625
 31
0.0
  0
LINE
  5
BB
330
1F
100
AcDbEntity
  8
0
  6
Continuous
 62
     7
370
    15
100
AcDbLine
 10
-2.5383655893
 20
0.4475823403
 30
0.0
 11
-2.6614665584
 21
0.4692883625
 31
0.0
  0
LINE
  5
BC
330
1F
100
AcDbEntity
  8
0
  6
Continuous
 62
     7
370
    15
100
AcDbLine
 10
-0.4475823403
 20
2.5383655893
 30
0.0
 11
-0.4692883625
 21
2.6614665584
 31
0.0
  0
LINE
  5
BD
330
1F
100
AcDbEntity
  8
0
  6
Continuous
 62
     7
370
    15
100
AcDbLine
 10
0.4475823403
 20
2.5383655893
 30
0.0
 11
0.4692883625
 21
2.6614665584
 31
0.0
  0
LINE
  5
BE
330
1F
100
AcDbEntity
  8
0
  6
Continuous
 62
     7
370
    15
100
AcDbLine
 10
1.3700787402
 20
0.575
 30
0.0
 11
1.3700787402
 21
-0.2
 31
0.0
  0
LINE
  5
BF
330
1F
100
AcDbEntity
  8
0
  6
Continuous
 62
     7
370
    15
100
AcDbLine
 10
0.7795275591
 20
0.575
 30
0.0
 11
0.7795275591
 21
-0.2
 31
0.0
  0
LINE
  5
C0
330
1F
100
AcDbEntity
  8
0
  6
Continuous
 62
     7
370
    15
100
AcDbLine
 10
-0.7795275591
 20
0.575
 30
0.0
 11
-0.7795275591
 21
-0.2
 31
0.0
  0
LINE
  5
C1
330
1F
100
AcDbEntity
  8
0
  6
Continuous
 62
     7
370
    15
100
AcDbLine
 10
-1.3700787402
 20
0.575
 30
0.0
 11
-1.3700787402
 21
-0.2
 31
0.0
  0
LINE
  5
C2
330
1F
100
AcDbEntity
  8
0
  6
Continuous
 62
     7
370
    15
100
AcDbLine
 10
2.5383655893
 20
0.4475823403
 30
0.0
 11
2.6614665584
 21
0.4692883625
 31
0.0
  0
LINE
  5
C3
330
1F
100
AcDbEntity
  8
0
  6
Continuous
 62
     7
370
    15
100
AcDbLine
 10
2.5383655893
 20
-0.4475823403
 30
0.0
 11
2.6614665584
 21
-0.4692883625
 31
0.0
  0
LINE
  5
C4
330
1F
100
AcDbEntity
  8
0
  6
Continuous
 62
     7
370
    15
100
AcDbLine
 10
-1.9744979143
 20
-1.6568004716
 30
0.0
 11
-2.0702534697
 21
-1.7371489228
 31
0.0
  0
LINE
  5
C5
330
1F
100
AcDbEntity
  8
0
  6
Continuous
 62
     7
370
    15
100
AcDbLine
 10
-2.4220802546
 20
-0.8815651177
 30
0.0
 11
-2.5395418322
 21
-0.9243176356
 31
0.0
  0
LINE
  5
C6
330
1F
100
AcDbEntity
  8
0
  6
Continuous
 62
     7
370
    15
100
AcDbLine
 10
-2.4220802546
 20
0.8815651177
 30
0.0
 11
-2.5395418322
 21
0.9243176356
 31
0.0
  0
LINE
  5
C7
330
1F
100
AcDbEntity
  8
0
  6
Continuous
 62
     7
370
    15
100
AcDbLine
 10
-1.9744979143
 20
1.6568004716
 30
0.0
 11
-2.0702534697
 21
1.7371489228
 31
0.0
  0
LINE
  5
C8
330
1F
100
AcDbEntity
  8
0
  6
Continuous
 62
     7
370
    15
100
AcDbLine
 10
0.8815651177
 20
2.4220802546
 30
0.0
 11
0.9243176356
 21
2.5395418322
 31
0.0
  0
LINE
  5
C9
330
1F
100
AcDbEntity
  8
0
  6
Continuous
 62
     7
370
    15
100
AcDbLine
 10
1.6568004716
 20
1.9744979143
 30
0.0
 11
1.7371489228
 21
2.0702534697
 31
0.0
  0
LINE
  5
CA
330
1F
100
AcDbEntity
  8
0
  6
Continuous
 62
     7
370
    15
100
AcDbLine
 10
-1.6568004716
 20
-1.9744979143
 30
0.0
 11
-1.7371489228
 21
-2.0702534697
 31
0.0
  0
LINE
  5
CB
330
1F
100
AcDbEntity
  8
0
  6
Continuous
 62
     7
370
    15
100
AcDbLine
 10
-0.8815651177
 20
-2.4220802546
 30
0.0
 11
-0.9243176356
 21
-2.5395418322
 31
0.0
  0
LINE
  5
CC
330
1F
100
AcDbEntity
  8
0
  6
Continuous
 62
     7
370
    15
100
AcDbLine
 10
-0.4475823403
 20
-2.5383655893
 30
0.0
 11
-0.4692883625
 21
-2.6614665584
 31
0.0
  0
LINE
  5
CD
330
1F
100
AcDbEntity
  8
0
  6
Continuous
 62
     7
370
    15
100
AcDbLine
 10
0.4475823403
 20
-2.5383655893
 30
0.0
 11
0.4692883625
 21
-2.6614665584
 31
0.0
  0
LINE
  5
CE
330
1F
100
AcDbEntity
  8
0
  6
Continuous
 62
     7
370
    15
100
AcDbLine
 10
1.6568004716
 20
-1.9744979143
 30
0.0
 11
1.7371489228
 21
-2.0702534697
 31
0.0
  0
LINE
  5
CF
330
1F
100
AcDbEntity
  8
0
  6
Continuous
 62
     7
370
    15
100
AcDbLine
 10
0.8815651177
 20
-2.4220802546
 30
0.0
 11
0.9243176356
 21
-2.5395418322
 31
0.0
  0
ARC
  5
D0
330
1F
100
AcDbEntity
  8
0
  6
Continuous
 62
     7
370
    15
100
AcDbCircle
 10
0.0
 20
0.0
 30
0.0
 40
2.702523970061582
100
AcDbArc
 50
110.0
 51
130.0
  0
ARC
  5
D1
330
1F
100
AcDbEntity
  8
0
  6
Continuous
 62
     7
370
    15
100
AcDbCircle
 10
0.0
 20
0.0
 30
0.0
 40
2.577523970061601
100
AcDbArc
 50
110.0
 51
130.0
  0
ARC
  5
D2
330
1F
100
AcDbEntity
  8
0
  6
Continuous
 62
     7
370
    15
100
AcDbCircle
 10
0.0
 20
0.0
 30
0.0
 40
2.702523970061579
100
AcDbArc
 50
20.0
 51
40.0
  0
ARC
  5
D3
330
1F
100
AcDbEntity
  8
0
  6
Continuous
 62
     7
370
    15
100
AcDbCircle
 10
0.0
 20
0.0
 30
0.0
 40
2.577523970061603
100
AcDbArc
 50
20.0
 51
40.0
  0
ARC
  5
D4
330
1F
100
AcDbEntity
  8
0
  6
Continuous
 62
     7
370
    15
100
AcDbCircle
 10
0.0
 20
0.0
 30
0.0
 40
2.702523970061623
100
AcDbArc
 50
320.0
 51
340.0
  0
ARC
  5
D5
330
1F
100
AcDbEntity
  8
0
  6
Continuous
 62
     7
370
    15
100
AcDbCircle
 10
0.0
 20
0.0
 30
0.0
 40
2.577523970061605
100
AcDbArc
 50
320.0
 51
340.0
  0
ARC
  5
D6
330
1F
100
AcDbEntity
  8
0
  6
Continuous
 62
     7
370
    15
100
AcDbCircle
 10
0.0
 20
0.0
 30
0.0
 40
2.702523970061538
100
AcDbArc
 50
170.0
 51
190.0
  0
ARC
  5
D7
330
1F
100
AcDbEntity
  8
0
  6
Continuous
 62
     7
370
    15
100
AcDbCircle
 10
0.0
 20
0.0
 30
0.0
 40
2.577523970061554
100
AcDbArc
 50
170.0
 51
190.0
  0
ARC
  5
D8
330
1F
100
AcDbEntity
  8
0
  6
Continuous
 62
     7
370
    15
100
AcDbCircle
 10
0.0
 20
0.0
 30
0.0
 40
2.702523970061571
100
AcDbArc
 50
80.0
 51
100.0
  0
ARC
  5
D9
330
1F
100
AcDbEntity
  8
0
  6
Continuous
 62
     7
370
    15
100
AcDbCircle
 10
0.0
 20
0.0
 30
0.0
 40
2.577523970061605
100
AcDbArc
 50
80.0
 51
100.0
  0
ARC
  5
DA
330
1F
100
AcDbEntity
  8
0
  6
Continuous
 62
     7
370
    15
100
AcDbCircle
 10
1.0795275591
 20
-0.2
 30
0.0
 40
0.3
100
AcDbArc
 50
180.0
 51
269.0976669605
  0
ARC
  5
DB
330
1F
100
AcDbEntity
  8
0
  6
Continuous
 62
     7
370
    15
100
AcDbCircle
 10
1.0700787402
 20
-0.2
 30
0.0
 40
0.3
100
AcDbArc
 50
270.9023330395
 51
0.0
  0
ARC
  5
DC
330
1F
100
AcDbEntity
  8
0
  6
Continuous
 62
     7
370
    15
100
AcDbCircle
 10
1.0700787402
 20
0.575
 30
0.0
 40
0.2999999999999996
100
AcDbArc
 50
0.0
 51
89.0976669605
  0
ARC
  5
DD
330
1F
100
AcDbEntity
  8
0
  6
Continuous
 62
     7
370
    15
100
AcDbCircle
 10
1.0795275591
 20
0.575
 30
0.0
 40
0.3
100
AcDbArc
 50
90.9023330395
 51
180.0
  0
ARC
  5
DE
330
1F
100
AcDbEntity
  8
0
  6
Continuous
 62
     7
370
    15
100
AcDbCircle
 10
-1.0700787402
 20
-0.2
 30
0.0
 40
0.2999999999999999
100
AcDbArc
 50
180.0
 51
269.0976669605
  0
ARC
  5
DF
330
1F
100
AcDbEntity
  8
0
  6
Continuous
 62
     7
370
    15
100
AcDbCircle
 10
-1.0795275591
 20
-0.2
 30
0.0
 40
0.3
100
AcDbArc
 50
270.9023330395
 51
0.0
  0
ARC
  5
E0
330
1F
100
AcDbEntity
  8
0
  6
Continuous
 62
     7
370
    15
100
AcDbCircle
 10
-1.0795275591
 20
0.575
 30
0.0
 40
0.2999999999999998
100
AcDbArc
 50
0.0
 51
89.0976669605
  0
ARC
  5
E1
330
1F
100
AcDbEntity
  8
0
  6
Continuous
 62
     7
370
    15
100
AcDbCircle
 10
-1.0700787402
 20
0.575
 30
0.0
 40
0.2999999999999999
100
AcDbArc
 50
90.9023330395
 51
180.0
  0
ARC
  5
E2
330
1F
100
AcDbEntity
  8
0
  6
Continuous
 62
     7
370
    15
100
AcDbCircle
 10
0.0
 20
0.0
 30
0.0
 40
2.702523970061501
100
AcDbArc
 50
350.0
 51
10.0
  0
ARC
  5
E3
330
1F
100
AcDbEntity
  8
0
  6
Continuous
 62
     7
370
    15
100
AcDbCircle
 10
0.0
 20
0.0
 30
0.0
 40
2.57752397006157
100
AcDbArc
 50
350.0
 51
10.0
  0
ARC
  5
E4
330
1F
100
AcDbEntity
  8
0
  6
Continuous
 62
     7
370
    15
100
AcDbCircle
 10
0.0
 20
0.0
 30
0.0
 40
2.702523970061577
100
AcDbArc
 50
200.0
 51
220.0
  0
ARC
  5
E5
330
1F
100
AcDbEntity
  8
0
  6
Continuous
 62
     7
370
    15
100
AcDbCircle
 10
0.0
 20
0.0
 30
0.0
 40
2.577523970061575
100
AcDbArc
 50
200.0
 51
220.0
  0
ARC
  5
E6
330
1F
100
AcDbEntity
  8
0
  6
Continuous
 62
     7
370
    15
100
AcDbCircle
 10
0.0
 20
0.0
 30
0.0
 40
2.702523970061629
100
AcDbArc
 50
140.0
 51
160.0
  0
ARC
  5
E7
330
1F
100
AcDbEntity
  8
0
  6
Continuous
 62
     7
370
    15
100
AcDbCircle
 10
0.0
 20
0.0
 30
0.0
 40
2.577523970061557
100
AcDbArc
 50
140.0
 51
160.0
  0
ARC
  5
E8
330
1F
100
AcDbEntity
  8
0
  6
Continuous
 62
     7
370
    15
100
AcDbCircle
 10
0.0
 20
0.0
 30
0.0
 40
2.702523970061589
100
AcDbArc
 50
50.0
 51
70.0
  0
ARC
  5
E9
330
1F
100
AcDbEntity
  8
0
  6
Continuous
 62
     7
370
    15
100
AcDbCircle
 10
0.0
 20
0.0
 30
0.0
 40
2.577523970061555
100
AcDbArc
 50
50.0
 51
70.0
  0
ARC
  5
EA
330
1F
100
AcDbEntity
  8
0
  6
Continuous
 62
     7
370
    15
100
AcDbCircle
 10
0.0
 20
0.0
 30
0.0
 40
2.577523970061589
100
AcDbArc
 50
230.0
 51
250.0
  0
ARC
  5
EB
330
1F
100
AcDbEntity
  8
0
  6
Continuous
 62
     7
370
    15
100
AcDbCircle
 10
0.0
 20
0.0
 30
0.0
 40
2.702523970061601
100
AcDbArc
 50
230.0
 51
250.0
  0
ARC
  5
EC
330
1F
100
AcDbEntity
  8
0
  6
Continuous
 62
     7
370
    15
100
AcDbCircle
 10
0.0
 20
0.0
 30
0.0
 40
2.577523970061606
100
AcDbArc
 50
260.0
 51
280.0
  0
ARC
  5
ED
330
1F
100
AcDbEntity
  8
0
  6
Continuous
 62
     7
370
    15
100
AcDbCircle
 10
0.0
 20
0.0
 30
0.0
 40
2.702523970061622
100
AcDbArc
 50
260.0
 51
280.0
  0
ARC
  5
EE
330
1F
100
AcDbEntity
  8
0
  6
Continuous
 62
     7
370
    15
100
AcDbCircle
 10
0.0
 20
0.0
 30
0.0
 40
2.702523970061669
100
AcDbArc
 50
290.0
 51
310.0
  0
ARC
  5
EF
330
1F
100
AcDbEntity
  8
0
  6
Continuous
 62
     7
370
    15
100
AcDbCircle
 10
0.0
 20
0.0
 30
0.0
 40
2.577523970061652
100
AcDbArc
 50
290.0
 51
310.0
  0
MTEXT
  5
20C
330
1F
100
AcDbEntity
  8
0
  6
Continuous
 62
     7
100
AcDbMText
 10
-3.125
 20
-3.1651404091
 30
0.0
 40
0.1903
 41
0.0
 71
     1
 72
     1
  1
SolidWorks Student Edition.
  7
SLDTEXTSTYLE0
 73
     1
 44
1.0
  0
MTEXT
  5
20D
330
1F
100
AcDbEntity
  8
0
  6
Continuous
 62
     7
100
AcDbMText
 10
-3.125
 20
-3.4505904091
 30
0.0
 40
0.1903
 41
0.0
 71
     1
 72
     1
  1
For Academic Use Only.
  7
SLDTEXTSTYLE0
 73
     1
 44
1.0
  0
LINE
  5
F5
330
1B
100
AcDbEntity
 67
     1
  8
0
  6
Continuous
 62
     7
370
    15
100
AcDbLine
 10
3.125
 20
0.0231299213
 30
0.0
 11
3.125
 21
0.0625
 31
0.0
  0
LINE
  5
F6
330
1B
100
AcDbEntity
 67
     1
  8
0
  6
Continuous
 62
     7
370
    15
100
AcDbLine
 10
-3.125
 20
0.0625
 30
0.0
 11
-3.125
 21
0.0231299213
 31
0.0
  0
LINE
  5
F7
330
1B
100
AcDbEntity
 67
     1
  8
0
  6
Continuous
 62
     7
370
    15
100
AcDbLine
 10
3.125
 20
0.0231299213
 30
0.0
 11
-3.125
 21
0.0231299213
 31
0.0
  0
LINE
  5
F8
330
1B
100
AcDbEntity
 67
     1
  8
0
  6
Continuous
 62
     7
370
    15
100
AcDbLine
 10
-3.125
 20
0.0625
 30
0.0
 11
3.125
 21
0.0625
 31
0.0
  0
VIEWPORT
  5
203
330
1B
100
AcDbEntity
 67
     1
  8
0
100
AcDbViewport
 10
0.0
 20
0.0
 30
0.0
 40
8.4
 41
6.4
 68
     1
 69
     1
 12
0.0
 22
0.0
 13
0.0
 23
0.0
 14
0.5
 24
0.5
 15
0.5
 25
0.5
 16
0.0
 26
0.0
 36
1.0
 17
0.0
 27
0.0
 37
0.0
 42
50.0
 43
0.0
 44
0.0
 45
6.375
 50
0.0
 51
0.0
 72
   100
 90
   557152
  1

281
     0
 71
     1
 74
     0
110
0.0
120
0.0
130
0.0
111
1.0
121
0.0
131
0.0
112
0.0
122
1.0
132
0.0
 79
     0
146
0.0
  0
MTEXT
  5
20A
330
1B
100
AcDbEntity
 67
     1
  8
0
  6
Continuous
 62
     7
100
AcDbMText
 10
-3.125
 20
-0.0170104879
 30
0.0
 40
0.1903
 41
0.0
 71
     1
 72
     1
  1
SolidWorks Student Edition.
  7
SLDTEXTSTYLE0
 73
     1
 44
1.0
  0
MTEXT
  5
20B
330
1B
100
AcDbEntity
 67
     1
  8
0
  6
Continuous
 62
     7
100
AcDbMText
 10
-3.125
 20
-0.3024604879
 30
0.0
 40
0.1903
 41
0.0
 71
     1
 72
     1
  1
For Academic Use Only.
  7
SLDTEXTSTYLE0
 73
     1
 44
1.0
  0
ENDSEC
  0
SECTION
  2
OBJECTS
  0
DICTIONARY
  5
C
330
0
100
AcDbDictionary
281
     1
  3
ACAD_GROUP
350
D
  3
ACAD_LAYOUT
350
1A
  3
ACAD_MLINESTYLE
350
17
  3
ACAD_PLOTSETTINGS
350
19
  3
ACAD_PLOTSTYLENAME
350
E
  3
ACAD_SCALELIST
350
47
  0
DICTIONARY
  5
D
102
{ACAD_REACTORS
330
C
102
}
330
C
100
AcDbDictionary
281
     1
  0
DICTIONARY
  5
1A
102
{ACAD_REACTORS
330
C
102
}
330
C
100
AcDbDictionary
281
     1
  3
_Front
350
1E
  3
_Isometric
350
102
  3
_Left
350
26
  3
Model
350
22
  0
DICTIONARY
  5
17
102
{ACAD_REACTORS
330
C
102
}
330
C
100
AcDbDictionary
281
     1
  3
Standard
350
18
  0
DICTIONARY
  5
19
102
{ACAD_REACTORS
330
C
102
}
330
C
100
AcDbDictionary
281
     1
  0
ACDBDICTIONARYWDFLT
  5
E
102
{ACAD_REACTORS
330
C
102
}
330
C
100
AcDbDictionary
281
     1
  3
Normal
350
F
100
AcDbDictionaryWithDefault
340
F
  0
DICTIONARY
  5
47
102
{ACAD_REACTORS
330
C
102
}
330
C
100
AcDbDictionary
281
     1
  3
A0
350
48
  3
A1
350
49
  3
A2
350
4A
  3
A3
350
4B
  3
A4
350
4C
  3
A5
350
4D
  3
A6
350
4E
  3
A7
350
4F
  3
A8
350
50
  3
A9
350
51
  3
B0
350
52
  3
B1
350
53
  3
B2
350
54
  3
B3
350
55
  3
B4
350
56
  3
B5
350
57
  3
B6
350
58
  3
B7
350
59
  3
B8
350
5A
  3
B9
350
5B
  3
C0
350
5C
  3
C1
350
5D
  3
C2
350
5E
  3
C3
350
5F
  3
C4
350
60
  3
C5
350
61
  3
C6
350
62
  3
C7
350
63
  3
C8
350
64
  3
C9
350
65
  3
D0
350
66
  3
D1
350
67
  3
D2
350
68
  0
LAYOUT
  5
1E
102
{ACAD_REACTORS
330
1A
102
}
330
1A
100
AcDbPlotSettings
  1

  2
none_device
  4
Letter_(8.50_x_11.00_Inches)
  6

 40
6.35
 41
6.35
 42
6.35001
 43
6.35001
 44
215.9
 45
279.4
 46
0.0
 47
0.0
 48
0.0
 49
0.0
140
0.0
141
0.0
142
1.0
143
0.5952381176
 70
   688
 72
     0
 73
     1
 74
     1
  7

 75
     0
147
1.679999937
148
79.375
149
-0.5875
100
AcDbLayout
  1
_Front
 70
     1
 71
     1
 10
-3.2738097637
 20
-0.1256796081
 11
3.2738095294
 21
4.9338443911
 12
0.0
 22
0.0
 32
0.0
 14
-3.125
 24
0.0231299213
 34
0.0
 15
3.125
 25
0.0625
 35
0.0
146
0.0
 13
0.0
 23
0.0
 33
0.0
 16
1.0
 26
0.0
 36
0.0
 17
0.0
 27
1.0
 37
0.0
 76
     0
330
1B
331
203
  0
LAYOUT
  5
102
102
{ACAD_REACTORS
330
1A
102
}
330
1A
100
AcDbPlotSettings
  1

  2
none_device
  4
Letter_(8.50_x_11.00_Inches)
  6

 40
6.35
 41
6.35
 42
6.35001
 43
6.35001
 44
215.9
 45
279.4
 46
0.0
 47
0.0
 48
0.0
 49
0.0
140
0.0
141
0.0
142
1.0
143
0.5952381176
 70
   688
 72
     0
 73
     1
 74
     1
  7

 75
     0
147
1.679999937
148
79.375
149
-0.5875
100
AcDbLayout
  1
_Isometric
 70
     1
 71
     3
 10
0.0
 20
0.0
 11
0.0
 21
0.0
 12
0.0
 22
0.0
 32
0.0
 14
0.0
 24
0.0
 34
0.0
 15
0.0
 25
0.0
 35
0.0
146
0.0
 13
0.0
 23
0.0
 33
0.0
 16
1.0
 26
0.0
 36
0.0
 17
0.0
 27
1.0
 37
0.0
 76
     0
330
101
331
207
  0
LAYOUT
  5
26
102
{ACAD_REACTORS
330
1A
102
}
330
1A
100
AcDbPlotSettings
  1

  2
none_device
  4
Letter_(8.50_x_11.00_Inches)
  6

 40
6.35
 41
6.35
 42
6.35001
 43
6.35001
 44
215.9
 45
279.4
 46
0.0
 47
0.0
 48
0.0
 49
0.0
140
0.0
141
0.0
142
1.0
143
0.5952381176
 70
   688
 72
     0
 73
     1
 74
     1
  7

 75
     0
147
1.679999937
148
79.375
149
-0.5875
100
AcDbLayout
  1
_Left
 70
     1
 71
     2
 10
0.0
 20
0.0
 11
0.0
 21
0.0
 12
0.0
 22
0.0
 32
0.0
 14
0.0
 24
0.0
 34
0.0
 15
0.0
 25
0.0
 35
0.0
146
0.0
 13
0.0
 23
0.0
 33
0.0
 16
1.0
 26
0.0
 36
0.0
 17
0.0
 27
1.0
 37
0.0
 76
     0
330
23
331
205
  0
LAYOUT
  5
22
102
{ACAD_REACTORS
330
1A
102
}
330
1A
100
AcDbPlotSettings
  1

  2
none_device
  4
ANSI_A_(11.00_x_8.50_Inches)
  6

 40
6.35
 41
19.05
 42
6.35000508
 43
19.05000254
 44
279.4
 45
215.9
 46
133.34999746
 47
88.89999873
 48
0.0
 49
0.0
140
0.0
141
0.0
142
1.3464
143
1.0
 70
  1696
 72
     0
 73
     0
 74
     0
  7

 75
     0
147
0.5913241897
148
-39.4088153714
149
0.0
100
AcDbLayout
  1
Model
 70
     1
 71
     0
 10
0.0
 20
0.0
 11
12.0
 21
9.0
 12
0.0
 22
0.0
 32
0.0
 14
-3.125
 24
-3.125
 34
0.0
 15
3.125
 25
3.125
 35
0.0
146
0.0
 13
0.0
 23
0.0
 33
0.0
 16
1.0
 26
0.0
 36
0.0
 17
0.0
 27
1.0
 37
0.0
 76
     0
330
1F
331
29
  0
MLINESTYLE
  5
18
102
{ACAD_REACTORS
330
17
102
}
330
17
100
AcDbMlineStyle
  2
Standard
 70
     0
  3

 62
   256
 51
90.0
 52
90.0
 71
     2
 49
0.5
 62
   256
  6
BYLAYER
 49
-0.5
 62
   256
  6
BYLAYER
  0
ACDBPLACEHOLDER
  5
F
102
{ACAD_REACTORS
330
E
102
}
330
E
  0
SCALE
  5
48
102
{ACAD_REACTORS
330
47
102
}
330
47
100
AcDbScale
 70
     0
300
1:1
140
1.0
141
1.0
290
     1
  0
SCALE
  5
49
102
{ACAD_REACTORS
330
47
102
}
330
47
100
AcDbScale
 70
     0
300
1:2
140
1.0
141
2.0
290
     0
  0
SCALE
  5
4A
102
{ACAD_REACTORS
330
47
102
}
330
47
100
AcDbScale
 70
     0
300
1:4
140
1.0
141
4.0
290
     0
  0
SCALE
  5
4B
102
{ACAD_REACTORS
330
47
102
}
330
47
100
AcDbScale
 70
     0
300
1:5
140
1.0
141
5.0
290
     0
  0
SCALE
  5
4C
102
{ACAD_REACTORS
330
47
102
}
330
47
100
AcDbScale
 70
     0
300
1:8
140
1.0
141
8.0
290
     0
  0
SCALE
  5
4D
102
{ACAD_REACTORS
330
47
102
}
330
47
100
AcDbScale
 70
     0
300
1:10
140
1.0
141
10.0
290
     0
  0
SCALE
  5
4E
102
{ACAD_REACTORS
330
47
102
}
330
47
100
AcDbScale
 70
     0
300
1:16
140
1.0
141
16.0
290
     0
  0
SCALE
  5
4F
102
{ACAD_REACTORS
330
47
102
}
330
47
100
AcDbScale
 70
     0
300
1:20
140
1.0
141
20.0
290
     0
  0
SCALE
  5
50
102
{ACAD_REACTORS
330
47
102
}
330
47
100
AcDbScale
 70
     0
300
1:30
140
1.0
141
30.0
290
     0
  0
SCALE
  5
51
102
{ACAD_REACTORS
330
47
102
}
330
47
100
AcDbScale
 70
     0
300
1:40
140
1.0
141
40.0
290
     0
  0
SCALE
  5
52
102
{ACAD_REACTORS
330
47
102
}
330
47
100
AcDbScale
 70
     0
300
1:50
140
1.0
141
50.0
290
     0
  0
SCALE
  5
53
102
{ACAD_REACTORS
330
47
102
}
330
47
100
AcDbScale
 70
     0
300
1:100
140
1.0
141
100.0
290
     0
  0
SCALE
  5
54
102
{ACAD_REACTORS
330
47
102
}
330
47
100
AcDbScale
 70
     0
300
2:1
140
2.0
141
1.0
290
     0
  0
SCALE
  5
55
102
{ACAD_REACTORS
330
47
102
}
330
47
100
AcDbScale
 70
     0
300
4:1
140
4.0
141
1.0
290
     0
  0
SCALE
  5
56
102
{ACAD_REACTORS
330
47
102
}
330
47
100
AcDbScale
 70
     0
300
8:1
140
8.0
141
1.0
290
     0
  0
SCALE
  5
57
102
{ACAD_REACTORS
330
47
102
}
330
47
100
AcDbScale
 70
     0
300
10:1
140
10.0
141
1.0
290
     0
  0
SCALE
  5
58
102
{ACAD_REACTORS
330
47
102
}
330
47
100
AcDbScale
 70
     0
300
100:1
140
100.0
141
1.0
290
     0
  0
SCALE
  5
59
102
{ACAD_REACTORS
330
47
102
}
330
47
100
AcDbScale
 70
     0
300
1/128" = 1'-0"
140
0.0078125
141
12.0
290
     0
  0
SCALE
  5
5A
102
{ACAD_REACTORS
330
47
102
}
330
47
100
AcDbScale
 70
     0
300
1/64" = 1'-0"
140
0.015625
141
12.0
290
     0
  0
SCALE
  5
5B
102
{ACAD_REACTORS
330
47
102
}
330
47
100
AcDbScale
 70
     0
300
1/32" = 1'-0"
140
0.03125
141
12.0
290
     0
  0
SCALE
  5
5C
102
{ACAD_REACTORS
330
47
102
}
330
47
100
AcDbScale
 70
     0
300
1/16" = 1'-0"
140
0.0625
141
12.0
290
     0
  0
SCALE
  5
5D
102
{ACAD_REACTORS
330
47
102
}
330
47
100
AcDbScale
 70
     0
300
3/32" = 1'-0"
140
0.09375
141
12.0
290
     0
  0
SCALE
  5
5E
102
{ACAD_REACTORS
330
47
102
}
330
47
100
AcDbScale
 70
     0
300
1/8" = 1'-0"
140
0.125
141
12.0
290
     0
  0
SCALE
  5
5F
102
{ACAD_REACTORS
330
47
102
}
330
47
100
AcDbScale
 70
     0
300
3/16" = 1'-0"
140
0.1875
141
12.0
290
     0
  0
SCALE
  5
60
102
{ACAD_REACTORS
330
47
102
}
330
47
100
AcDbScale
 70
     0
300
1/4" = 1'-0"
140
0.25
141
12.0
290
     0
  0
SCALE
  5
61
102
{ACAD_REACTORS
330
47
102
}
330
47
100
AcDbScale
 70
     0
300
3/8" = 1'-0"
140
0.375
141
12.0
290
     0
  0
SCALE
  5
62
102
{ACAD_REACTORS
330
47
102
}
330
47
100
AcDbScale
 70
     0
300
1/2" = 1'-0"
140
0.5
141
12.0
290
     0
  0
SCALE
  5
63
102
{ACAD_REACTORS
330
47
102
}
330
47
100
AcDbScale
 70
     0
300
3/4" = 1'-0"
140
0.75
141
12.0
290
     0
  0
SCALE
  5
64
102
{ACAD_REACTORS
330
47
102
}
330
47
100
AcDbScale
 70
     0
300
1" = 1'-0"
140
1.0
141
12.0
290
     0
  0
SCALE
  5
65
102
{ACAD_REACTORS
330
47
102
}
330
47
100
AcDbScale
 70
     0
300
1-1/2" = 1'-0"
140
1.5
141
12.0
290
     0
  0
SCALE
  5
66
102
{ACAD_REACTORS
330
47
102
}
330
47
100
AcDbScale
 70
     0
300
3" = 1'-0"
140
3.0
141
12.0
290
     0
  0
SCALE
  5
67
102
{ACAD_REACTORS
330
47
102
}
330
47
100
AcDbScale
 70
     0
300
6" = 1'-0"
140
6.0
141
12.0
290
     0
  0
SCALE
  5
68
102
{ACAD_REACTORS
330
47
102
}
330
47
100
AcDbScale
 70
     0
300
1'-0" = 1'-0"
140
12.0
141
12.0
290
     0
  0
ENDSEC
  0
EOF
