  0
SECTION
  2
HEADER
  9
$ACADVER
  1
AC1015
  9
$ACADMAINTVER
 70
     6
  9
$DWGCODEPAGE
  3
ANSI_1252
  9
$INSBASE
 10
0.0
 20
0.0
 30
0.0
  9
$EXTMIN
 10
12.7000052063
 20
90.112408933
 30
0.0
  9
$EXTMAX
 10
174.7000052063
 20
240.112408933
 30
0.0
  9
$LIMMIN
 10
0.0
 20
0.0
  9
$LIMMAX
 10
420.0
 20
297.0
  9
$ORTHOMODE
 70
     0
  9
$REGENMODE
 70
     1
  9
$FILLMODE
 70
     1
  9
$QTEXTMODE
 70
     0
  9
$MIRRTEXT
 70
     1
  9
$LTSCALE
 40
1.0
  9
$ATTMODE
 70
     1
  9
$TEXTSIZE
 40
3.175
  9
$TRACEWID
 40
1.0
  9
$TEXTSTYLE
  7
Standard
  9
$CLAYER
  8
0
  9
$CELTYPE
  6
ByLayer
  9
$CECOLOR
 62
   256
  9
$CELTSCALE
 40
1.0
  9
$DISPSILH
 70
     0
  9
$DIMSCALE
 40
1.0
  9
$DIMASZ
 40
3.302
  9
$DIMEXO
 40
1.27
  9
$DIMDLI
 40
3.75
  9
$DIMRND
 40
0.0
  9
$DIMDLE
 40
0.0
  9
$DIMEXE
 40
3.175
  9
$DIMTP
 40
0.0
  9
$DIMTM
 40
0.0
  9
$DIMTXT
 40
3.175
  9
$DIMCEN
 40
2.5
  9
$DIMTSZ
 40
0.0
  9
$DIMTOL
 70
     0
  9
$DIMLIM
 70
     0
  9
$DIMTIH
 70
     1
  9
$DIMTOH
 70
     1
  9
$DIMSE1
 70
     0
  9
$DIMSE2
 70
     0
  9
$DIMTAD
 70
     0
  9
$DIMZIN
 70
     0
  9
$DIMBLK
  1

  9
$DIMASO
 70
     1
  9
$DIMSHO
 70
     1
  9
$DIMPOST
  1

  9
$DIMAPOST
  1

  9
$DIMALT
 70
     0
  9
$DIMALTD
 70
     3
  9
$DIMALTF
 40
0.0393700787
  9
$DIMLFAC
 40
1.0
  9
$DIMTOFL
 70
     1
  9
$DIMTVP
 40
0.0
  9
$DIMTIX
 70
     0
  9
$DIMSOXD
 70
     0
  9
$DIMSAH
 70
     0
  9
$DIMBLK1
  1

  9
$DIMBLK2
  1

  9
$DIMSTYLE
  2
ISO-25
  9
$DIMCLRD
 70
     0
  9
$DIMCLRE
 70
     0
  9
$DIMCLRT
 70
     0
  9
$DIMTFAC
 40
1.0
  9
$DIMGAP
 40
1.524
  9
$DIMJUST
 70
     0
  9
$DIMSD1
 70
     0
  9
$DIMSD2
 70
     0
  9
$DIMTOLJ
 70
     0
  9
$DIMTZIN
 70
     0
  9
$DIMALTZ
 70
     0
  9
$DIMALTTZ
 70
     0
  9
$DIMUPT
 70
     0
  9
$DIMDEC
 70
     2
  9
$DIMTDEC
 70
     2
  9
$DIMALTU
 70
     2
  9
$DIMALTTD
 70
     3
  9
$DIMTXSTY
  7
Standard
  9
$DIMAUNIT
 70
     0
  9
$DIMADEC
 70
     2
  9
$DIMALTRND
 40
0.0
  9
$DIMAZIN
 70
     0
  9
$DIMDSEP
 70
    44
  9
$DIMATFIT
 70
     3
  9
$DIMFRAC
 70
     0
  9
$DIMLDRBLK
  1

  9
$DIMLUNIT
 70
     2
  9
$DIMLWD
 70
    -2
  9
$DIMLWE
 70
    -2
  9
$DIMTMOVE
 70
     0
  9
$LUNITS
 70
     2
  9
$LUPREC
 70
     2
  9
$SKETCHINC
 40
1.0
  9
$FILLETRAD
 40
10.0
  9
$AUNITS
 70
     0
  9
$AUPREC
 70
     2
  9
$MENU
  1
.
  9
$ELEVATION
 40
0.0
  9
$PELEVATION
 40
0.0
  9
$THICKNESS
 40
0.0
  9
$LIMCHECK
 70
     0
  9
$CHAMFERA
 40
0.0
  9
$CHAMFERB
 40
0.0
  9
$CHAMFERC
 40
0.0
  9
$CHAMFERD
 40
0.0
  9
$SKPOLY
 70
     0
  9
$TDCREATE
 40
2457787.712606817
  9
$TDUCREATE
 40
2457787.920940151
  9
$TDUPDATE
 40
2457787.712693113
  9
$TDUUPDATE
 40
2457787.921026447
  9
$TDINDWG
 40
0.0000000116
  9
$TDUSRTIMER
 40
0.0000000116
  9
$USRTIMER
 70
     1
  9
$ANGBASE
 50
0.0
  9
$ANGDIR
 70
     0
  9
$PDMODE
 70
     0
  9
$PDSIZE
 40
-1.0
  9
$PLINEWID
 40
0.0
  9
$SPLFRAME
 70
     0
  9
$SPLINETYPE
 70
     6
  9
$SPLINESEGS
 70
     8
  9
$HANDSEED
  5
2B0
  9
$SURFTAB1
 70
     6
  9
$SURFTAB2
 70
     6
  9
$SURFTYPE
 70
     6
  9
$SURFU
 70
     6
  9
$SURFV
 70
     6
  9
$UCSBASE
  2

  9
$UCSNAME
  2

  9
$UCSORG
 10
0.0
 20
0.0
 30
0.0
  9
$UCSXDIR
 10
1.0
 20
0.0
 30
0.0
  9
$UCSYDIR
 10
0.0
 20
1.0
 30
0.0
  9
$UCSORTHOREF
  2

  9
$UCSORTHOVIEW
 70
     0
  9
$UCSORGTOP
 10
0.0
 20
0.0
 30
0.0
  9
$UCSORGBOTTOM
 10
0.0
 20
0.0
 30
0.0
  9
$UCSORGLEFT
 10
0.0
 20
0.0
 30
0.0
  9
$UCSORGRIGHT
 10
0.0
 20
0.0
 30
0.0
  9
$UCSORGFRONT
 10
0.0
 20
0.0
 30
0.0
  9
$UCSORGBACK
 10
0.0
 20
0.0
 30
0.0
  9
$PUCSBASE
  2

  9
$PUCSNAME
  2

  9
$PUCSORG
 10
0.0
 20
0.0
 30
0.0
  9
$PUCSXDIR
 10
1.0
 20
0.0
 30
0.0
  9
$PUCSYDIR
 10
0.0
 20
1.0
 30
0.0
  9
$PUCSORTHOREF
  2

  9
$PUCSORTHOVIEW
 70
     0
  9
$PUCSORGTOP
 10
0.0
 20
0.0
 30
0.0
  9
$PUCSORGBOTTOM
 10
0.0
 20
0.0
 30
0.0
  9
$PUCSORGLEFT
 10
0.0
 20
0.0
 30
0.0
  9
$PUCSORGRIGHT
 10
0.0
 20
0.0
 30
0.0
  9
$PUCSORGFRONT
 10
0.0
 20
0.0
 30
0.0
  9
$PUCSORGBACK
 10
0.0
 20
0.0
 30
0.0
  9
$USERI1
 70
     0
  9
$USERI2
 70
     0
  9
$USERI3
 70
     0
  9
$USERI4
 70
     0
  9
$USERI5
 70
     0
  9
$USERR1
 40
0.0
  9
$USERR2
 40
0.0
  9
$USERR3
 40
0.0
  9
$USERR4
 40
0.0
  9
$USERR5
 40
0.0
  9
$WORLDVIEW
 70
     1
  9
$SHADEDGE
 70
     3
  9
$SHADEDIF
 70
    70
  9
$TILEMODE
 70
     1
  9
$MAXACTVP
 70
    64
  9
$PINSBASE
 10
0.0
 20
0.0
 30
0.0
  9
$PLIMCHECK
 70
     0
  9
$PEXTMIN
 10
12.7000052063
 20
1.5875
 30
0.0
  9
$PEXTMAX
 10
174.7000052063
 20
3.5875
 30
0.0
  9
$PLIMMIN
 10
0.0930013153
 20
-3.1401264591
  9
$PLIMMAX
 10
187.3070090974
 20
129.2334143969
  9
$UNITMODE
 70
     0
  9
$VISRETAIN
 70
     1
  9
$PLINEGEN
 70
     0
  9
$PSLTSCALE
 70
     1
  9
$TREEDEPTH
 70
  3020
  9
$CMLSTYLE
  2
Standard
  9
$CMLJUST
 70
     0
  9
$CMLSCALE
 40
20.0
  9
$PROXYGRAPHICS
 70
     1
  9
$MEASUREMENT
 70
     1
  9
$CELWEIGHT
370
    -1
  9
$ENDCAPS
280
     0
  9
$JOINSTYLE
280
     0
  9
$LWDISPLAY
290
     1
  9
$INSUNITS
 70
     4
  9
$HYPERLINKBASE
  1

  9
$STYLESHEET
  1

  9
$XEDIT
290
     1
  9
$CEPSNTYPE
380
     0
  9
$PSTYLEMODE
290
     1
  9
$FINGERPRINTGUID
  2
{D670F91B-4D10-4DF0-9975-675D8FA2841A}
  9
$VERSIONGUID
  2
{FAEB1C32-E019-11D5-929B-00C0DF256EC4}
  9
$EXTNAMES
290
     1
  9
$PSVPSCALE
 40
0.0
  9
$OLESTARTUP
290
     0
  0
ENDSEC
  0
SECTION
  2
CLASSES
  0
CLASS
  1
ACDBDICTIONARYWDFLT
  2
AcDbDictionaryWithDefault
  3
ObjectDBX Classes
 90
        0
280
     0
281
     0
  0
CLASS
  1
VISUALSTYLE
  2
AcDbVisualStyle
  3
ObjectDBX Classes
 90
     4095
280
     0
281
     0
  0
CLASS
  1
MATERIAL
  2
AcDbMaterial
  3
ObjectDBX Classes
 90
     1153
280
     0
281
     0
  0
CLASS
  1
SCALE
  2
AcDbScale
  3
ObjectDBX Classes
 90
     1153
280
     0
281
     0
  0
CLASS
  1
SUN
  2
AcDbSun
  3
SCENEOE
 90
     1153
280
     0
281
     0
  0
CLASS
  1
ACDBPLACEHOLDER
  2
AcDbPlaceHolder
  3
ObjectDBX Classes
 90
        0
280
     0
281
     0
  0
CLASS
  1
LAYOUT
  2
AcDbLayout
  3
ObjectDBX Classes
 90
        0
280
     0
281
     0
  0
ENDSEC
  0
SECTION
  2
TABLES
  0
TABLE
  2
VPORT
  5
8
330
0
100
AcDbSymbolTable
 70
     1
  0
VPORT
  5
29
330
8
100
AcDbSymbolTableRecord
100
AcDbViewportTableRecord
  2
*Active
 70
     0
 10
0.0
 20
0.0
 11
1.0
 21
1.0
 12
93.7000052063
 22
165.112408933
 13
0.0
 23
0.0
 14
10.0
 24
10.0
 15
10.0
 25
10.0
 16
0.0
 26
0.0
 36
1.0
 17
0.0
 27
0.0
 37
0.0
 40
153.0
 41
1.08
 42
50.0
 43
0.0
 44
0.0
 50
0.0
 51
0.0
 71
     0
 72
   100
 73
     1
 74
     3
 75
     0
 76
     0
 77
     0
 78
     0
281
     0
 65
     1
110
0.0
120
0.0
130
0.0
111
1.0
121
0.0
131
0.0
112
0.0
122
1.0
132
0.0
 79
     0
146
0.0
  0
ENDTAB
  0
TABLE
  2
LTYPE
  5
5
330
0
100
AcDbSymbolTable
 70
     6
  0
LTYPE
  5
14
330
5
100
AcDbSymbolTableRecord
100
AcDbLinetypeTableRecord
  2
ByBlock
 70
     0
  3

 72
    65
 73
     0
 40
0.0
  0
LTYPE
  5
15
330
5
100
AcDbSymbolTableRecord
100
AcDbLinetypeTableRecord
  2
ByLayer
 70
     0
  3

 72
    65
 73
     0
 40
0.0
  0
LTYPE
  5
16
330
5
100
AcDbSymbolTableRecord
100
AcDbLinetypeTableRecord
  2
Continuous
 70
     0
  3
Solid line
 72
    65
 73
     0
 40
0.0
  0
LTYPE
  5
6A
330
5
100
AcDbSymbolTableRecord
100
AcDbLinetypeTableRecord
  2
HIDDEN
 70
     0
  3
Hidden __ __ __ __ __ __ __ __ __ __ __ __ __ __
 72
    65
 73
     2
 40
1.905
 49
1.27
 74
     0
 49
-0.635
 74
     0
  0
LTYPE
  5
6B
330
5
100
AcDbSymbolTableRecord
100
AcDbLinetypeTableRecord
  2
PHANTOM
 70
     0
  3
Phantom ______  __  __  ______  __  __  ______
 72
    65
 73
     6
 40
12.7
 49
6.35
 74
     0
 49
-1.27
 74
     0
 49
1.27
 74
     0
 49
-1.27
 74
     0
 49
1.27
 74
     0
 49
-1.27
 74
     0
  0
LTYPE
  5
6C
330
5
100
AcDbSymbolTableRecord
100
AcDbLinetypeTableRecord
  2
CENTER
 70
     0
  3
Center ____ _ ____ _ ____ _ ____ _ ____ _ ____
 72
    65
 73
     4
 40
10.16
 49
6.35
 74
     0
 49
-1.27
 74
     0
 49
1.27
 74
     0
 49
-1.27
 74
     0
  0
LTYPE
  5
6D
330
5
100
AcDbSymbolTableRecord
100
AcDbLinetypeTableRecord
  2
CENTERX2
 70
     0
  3
Center (2x) ________  __  ________  __  _____
 72
    65
 73
     4
 40
20.32
 49
12.7
 74
     0
 49
-2.54
 74
     0
 49
2.54
 74
     0
 49
-2.54
 74
     0
  0
LTYPE
  5
6E
330
5
100
AcDbSymbolTableRecord
100
AcDbLinetypeTableRecord
  2
DOT2
 70
     0
  3
Dot (.5x) ........................................
 72
    65
 73
     2
 40
0.635
 49
0.0
 74
     0
 49
-0.635
 74
     0
  0
ENDTAB
  0
TABLE
  2
LAYER
  5
2
330
0
100
AcDbSymbolTable
 70
     1
  0
LAYER
  5
10
330
2
100
AcDbSymbolTableRecord
100
AcDbLayerTableRecord
  2
0
 70
     0
 62
     7
  6
Continuous
370
    -3
390
F
  0
ENDTAB
  0
TABLE
  2
STYLE
  5
3
330
0
100
AcDbSymbolTable
 70
     2
  0
STYLE
  5
11
330
3
100
AcDbSymbolTableRecord
100
AcDbTextStyleTableRecord
  2
Standard
 70
     0
 40
0.0
 41
1.0
 50
0.0
 71
     0
 42
3.175
  3
txt
  4

  0
STYLE
  5
2A7
330
3
100
AcDbSymbolTableRecord
100
AcDbTextStyleTableRecord
  2
SLDTEXTSTYLE0
 70
     0
 40
0.0
 41
0.7
 50
0.0
 71
     0
 42
3.175
  3
TXT
  4

  0
ENDTAB
  0
TABLE
  2
VIEW
  5
6
330
0
100
AcDbSymbolTable
 70
     0
  0
ENDTAB
  0
TABLE
  2
UCS
  5
7
330
0
100
AcDbSymbolTable
 70
     0
  0
ENDTAB
  0
TABLE
  2
APPID
  5
9
330
0
100
AcDbSymbolTable
 70
     1
  0
APPID
  5
12
330
9
100
AcDbSymbolTableRecord
100
AcDbRegAppTableRecord
  2
ACAD
 70
     0
  0
ENDTAB
  0
TABLE
  2
DIMSTYLE
  5
A
330
0
100
AcDbSymbolTable
 70
     1
100
AcDbDimStyleTable
  0
DIMSTYLE
105
27
330
A
100
AcDbSymbolTableRecord
100
AcDbDimStyleTableRecord
  2
ISO-25
 70
     0
 41
2.5
 42
0.625
 43
3.75
 44
1.25
 73
     0
 74
     0
 77
     1
 78
     8
140
2.5
141
2.5
143
0.0393700787
147
0.625
171
     3
172
     1
178
     0
271
     2
272
     2
274
     3
278
    44
283
     0
284
     8
340
11
  0
ENDTAB
  0
TABLE
  2
BLOCK_RECORD
  5
1
330
0
100
AcDbSymbolTable
 70
     2
  0
BLOCK_RECORD
  5
1F
330
1
100
AcDbSymbolTableRecord
100
AcDbBlockTableRecord
  2
*Model_Space
340
22
  0
BLOCK_RECORD
  5
1B
330
1
100
AcDbSymbolTableRecord
100
AcDbBlockTableRecord
  2
*Paper_Space
340
1E
  0
BLOCK_RECORD
  5
23
330
1
100
AcDbSymbolTableRecord
100
AcDbBlockTableRecord
  2
*Paper_Space0
340
26
  0
BLOCK_RECORD
  5
147
330
1
100
AcDbSymbolTableRecord
100
AcDbBlockTableRecord
  2
*Paper_Space1
340
148
  0
ENDTAB
  0
ENDSEC
  0
SECTION
  2
BLOCKS
  0
BLOCK
  5
20
330
1F
100
AcDbEntity
  8
0
100
AcDbBlockBegin
  2
*Model_Space
 70
     0
 10
0.0
 20
0.0
 30
0.0
  3
*Model_Space
  1
*Model_Space
  0
ENDBLK
  5
21
330
1F
100
AcDbEntity
  8
0
100
AcDbBlockEnd
  0
BLOCK
  5
1C
330
1B
100
AcDbEntity
 67
     1
  8
0
100
AcDbBlockBegin
  2
*Paper_Space
 70
     0
 10
0.0
 20
0.0
 30
0.0
  3
*Paper_Space
  1
*Paper_Space
  0
ENDBLK
  5
1D
330
1B
100
AcDbEntity
 67
     1
  8
0
100
AcDbBlockEnd
  0
BLOCK
  5
24
330
23
100
AcDbEntity
  8
0
100
AcDbBlockBegin
  2
*Paper_Space0
 70
     0
 10
0.0
 20
0.0
 30
0.0
  3
*Paper_Space0
  1
*Paper_Space0
  0
LINE
  5
140
330
23
100
AcDbEntity
  8
0
  6
Continuous
 62
     7
370
    15
100
AcDbLine
 10
-115.112408933
 20
3.5875
 30
0.0
 11
-115.112408933
 21
1.5875
 31
0.0
  0
LINE
  5
141
330
23
100
AcDbEntity
  8
0
  6
Continuous
 62
     7
370
    15
100
AcDbLine
 10
-90.112408933
 20
3.5875
 30
0.0
 11
-90.112408933
 21
1.5875
 31
0.0
  0
LINE
  5
142
330
23
100
AcDbEntity
  8
0
  6
Continuous
 62
     7
370
    15
100
AcDbLine
 10
-210.112408933
 20
3.5875
 30
0.0
 11
-210.112408933
 21
1.5875
 31
0.0
  0
LINE
  5
143
330
23
100
AcDbEntity
  8
0
  6
Continuous
 62
     7
370
    15
100
AcDbLine
 10
-185.112408933
 20
3.5875
 30
0.0
 11
-185.112408933
 21
1.5875
 31
0.0
  0
LINE
  5
144
330
23
100
AcDbEntity
  8
0
  6
Continuous
 62
     7
370
    15
100
AcDbLine
 10
-90.112408933
 20
1.5875
 30
0.0
 11
-240.112408933
 21
1.5875
 31
0.0
  0
LINE
  5
145
330
23
100
AcDbEntity
  8
0
  6
Continuous
 62
     7
370
    15
100
AcDbLine
 10
-90.112408933
 20
3.5875
 30
0.0
 11
-240.112408933
 21
3.5875
 31
0.0
  0
LINE
  5
146
330
23
100
AcDbEntity
  8
0
  6
Continuous
 62
     7
370
    15
100
AcDbLine
 10
-240.112408933
 20
3.5875
 30
0.0
 11
-240.112408933
 21
1.5875
 31
0.0
  0
VIEWPORT
  5
2A3
330
23
100
AcDbEntity
  8
0
100
AcDbViewport
 10
0.0
 20
0.0
 30
0.0
 40
205.6
 41
156.0
 68
     1
 69
     1
 12
93.7000052063
 22
165.112408933
 13
0.0
 23
0.0
 14
10.0
 24
10.0
 15
10.0
 25
10.0
 16
0.0
 26
0.0
 36
1.0
 17
0.0
 27
0.0
 37
0.0
 42
50.0
 43
0.0
 44
0.0
 45
153.0
 50
0.0
 51
0.0
 72
   100
 90
   557152
  1

281
     0
 71
     1
 74
     0
110
0.0
120
0.0
130
0.0
111
1.0
121
0.0
131
0.0
112
0.0
122
1.0
132
0.0
 79
     0
146
0.0
  0
MTEXT
  5
2AC
330
23
100
AcDbEntity
  8
0
  6
Continuous
 62
     7
100
AcDbMText
 10
-240.112408933
 20
0.5679336083
 30
0.0
 40
4.83362
 41
0.0
 71
     1
 72
     1
  1
SolidWorks Student Edition.
  7
SLDTEXTSTYLE0
 73
     1
 44
1.0
  0
MTEXT
  5
2AD
330
23
100
AcDbEntity
  8
0
  6
Continuous
 62
     7
100
AcDbMText
 10
-240.112408933
 20
-6.6824963917
 30
0.0
 40
4.83362
 41
0.0
 71
     1
 72
     1
  1
For Academic Use Only.
  7
SLDTEXTSTYLE0
 73
     1
 44
1.0
  0
ENDBLK
  5
25
330
23
100
AcDbEntity
  8
0
100
AcDbBlockEnd
  0
BLOCK
  5
149
330
147
100
AcDbEntity
  8
0
100
AcDbBlockBegin
  2
*Paper_Space1
 70
     0
 10
0.0
 20
0.0
 30
0.0
  3
*Paper_Space1
  1
*Paper_Space1
  0
LWPOLYLINE
  5
14F
330
147
100
AcDbEntity
  8
0
  6
Continuous
 62
     7
370
    15
100
AcDbPolyline
 90
       11
 70
   128
 43
0.0
 10
139.1978160727
 20
30.2991684222
 10
138.7928300224
 20
30.4690293212
 10
138.3167403668
 20
30.5583304806
 10
137.8161500787
 20
30.5583304806
 10
137.3400604232
 20
30.4690293212
 10
136.9350743729
 20
30.2991684222
 10
136.6408347841
 20
30.0653749518
 10
136.4861438778
 20
29.7905342438
 10
136.4861438778
 20
29.5015496217
 10
136.6408347841
 20
29.2267089137
 10
136.9350743729
 20
28.9929154433
  0
LWPOLYLINE
  5
151
330
147
100
AcDbEntity
  8
0
  6
Continuous
 62
     7
370
    15
100
AcDbPolyline
 90
       11
 70
   128
 43
0.0
 10
179.9228883855
 20
6.7890846023
 10
180.2171279743
 20
6.5552911318
 10
180.3718188805
 20
6.2804504239
 10
180.3718188805
 20
5.9914658017
 10
180.2171279743
 20
5.7166250938
 10
179.9228883855
 20
5.4828316233
 10
179.5179023352
 20
5.3129707243
 10
179.0418126796
 20
5.223669565
 10
178.5412223915
 20
5.223669565
 10
178.065132736
 20
5.3129707243
 10
177.6601466857
 20
5.4828316233
  0
LWPOLYLINE
  5
161
330
147
100
AcDbEntity
  8
0
  6
Continuous
 62
     7
370
    15
100
AcDbPolyline
 90
       11
 70
   128
 43
0.0
 10
205.6050066782
 20
21.615055913
 10
206.0099927285
 20
21.4451950139
 10
206.486082384
 20
21.3558938546
 10
206.9866726721
 20
21.3558938546
 10
207.4627623276
 20
21.4451950139
 10
207.867748378
 20
21.615055913
 10
208.1619879668
 20
21.8488493834
 10
208.316678873
 20
22.1236900913
 10
208.316678873
 20
22.4126747135
 10
208.1619879668
 20
22.6875154215
 10
207.867748378
 20
22.9213088919
  0
LWPOLYLINE
  5
163
330
147
100
AcDbEntity
  8
0
  6
Continuous
 62
     7
370
    15
100
AcDbPolyline
 90
       11
 70
   128
 43
0.0
 10
164.8799343654
 20
45.1251397329
 10
164.5856947766
 20
45.3589332033
 10
164.4310038703
 20
45.6337739113
 10
164.4310038703
 20
45.9227585334
 10
164.5856947766
 20
46.1975992414
 10
164.8799343654
 20
46.4313927118
 10
165.2849204157
 20
46.6012536109
 10
165.7610100712
 20
46.6905547702
 10
166.2616003593
 20
46.6905547702
 10
166.7376900149
 20
46.6012536109
 10
167.1426760652
 20
46.4313927118
  0
LWPOLYLINE
  5
167
330
147
100
AcDbEntity
  8
0
  6
Continuous
 62
     7
370
    15
100
AcDbPolyline
 90
       14
 70
   128
 43
0.0
 10
248.6275223873
 20
24.2426551328
 10
249.7284109221
 20
23.5418722274
 10
250.7057897087
 20
22.7825039169
 10
251.5503588103
 20
21.9717757289
 10
252.2540819982
 20
21.1174018895
 10
252.8102632183
 20
20.2275119211
 10
253.2136103053
 20
19.3105732887
 10
253.4602853381
 20
18.3753108301
 10
253.5479411591
 20
17.4306237377
 10
253.4757437071
 20
16.4855008809
 10
253.244379954
 20
15.5489352756
 10
252.856051368
 20
14.6298385139
 10
252.3144529663
 20
13.7369559686
 10
251.624738156
 20
12.8787835795
  0
LWPOLYLINE
  5
169
330
147
100
AcDbEntity
  8
0
  6
Continuous
 62
     7
370
    15
100
AcDbPolyline
 90
       16
 70
   128
 43
0.0
 10
250.8902640871
 20
25.5489081117
 10
252.076830048
 20
24.8009164118
 10
253.1451052879
 20
23.9956951703
 10
254.0868459873
 20
23.139458234
 10
254.8947847867
 20
22.2388131346
 10
255.5626868681
 20
21.3007100994
 10
256.0853980691
 20
20.3323884163
 10
256.4588846569
 20
19.3413205689
 10
256.6802644567
 20
18.3351545714
 10
256.7478290933
 20
17.3216549499
 10
256.661057174
 20
16.3086428235
 10
256.4206183129
 20
15.3039355493
 10
256.028367963
 20
14.3152863964
 10
255.4873330981
 20
13.3503247142
 10
254.8016888535
 20
12.4164970574
 10
253.976726307
 20
11.521009721
  0
LWPOLYLINE
  5
16B
330
147
100
AcDbEntity
  8
0
  6
Continuous
 62
     7
370
    15
100
AcDbPolyline
 90
       11
 70
   128
 43
0.0
 10
198.608927828
 20
64.5964731999
 10
198.2039417777
 20
64.7663340989
 10
197.7278521221
 20
64.8556352583
 10
197.227261834
 20
64.8556352583
 10
196.7511721785
 20
64.7663340989
 10
196.3461861282
 20
64.5964731999
 10
196.0519465394
 20
64.3626797295
 10
195.8972556331
 20
64.0878390215
 10
195.8972556331
 20
63.7988543994
 10
196.0519465394
 20
63.5240136914
 10
196.3461861282
 20
63.290220221
  0
LWPOLYLINE
  5
16D
330
147
100
AcDbEntity
  8
0
  6
Continuous
 62
     7
370
    15
100
AcDbPolyline
 90
       11
 70
   128
 43
0.0
 10
239.3340001408
 20
41.0863893799
 10
239.6282397296
 20
40.8525959095
 10
239.7829306358
 20
40.5777552015
 10
239.7829306358
 20
40.2887705794
 10
239.6282397296
 20
40.0139298714
 10
239.3340001408
 20
39.780136401
 10
238.9290140904
 20
39.610275502
 10
238.4529244349
 20
39.5209743426
 10
237.9523341468
 20
39.5209743426
 10
237.4762444913
 20
39.610275502
 10
237.071258441
 20
39.780136401
  0
LWPOLYLINE
  5
175
330
147
100
AcDbEntity
  8
0
  6
Continuous
 62
     7
370
    15
100
AcDbPolyline
 90
       21
 70
   128
 43
0.0
 10
221.7733746048
 20
12.2914608858
 10
221.4814337628
 20
12.5234278447
 10
221.3279513793
 20
12.7961213597
 10
221.3279513793
 20
13.0828482895
 10
221.4814337628
 20
13.3555418044
 10
221.7733746048
 20
13.5875087633
 10
222.1751967016
 20
13.7560426241
 10
222.6475669067
 20
13.8446461181
 10
223.1442463332
 20
13.8446461181
 10
223.6166165383
 20
13.7560426241
 10
224.0184386351
 20
13.5875087633
 10
224.3103794771
 20
13.3555418044
 10
224.4638618606
 20
13.0828482895
 10
224.4638618606
 20
12.7961213597
 10
224.3103794771
 20
12.5234278447
 10
224.0184386351
 20
12.2914608858
 10
223.6166165383
 20
12.1229270251
 10
223.1442463332
 20
12.034323531
 10
222.6475669067
 20
12.034323531
 10
222.1751967016
 20
12.1229270251
 10
221.7733746048
 20
12.2914608858
  0
LWPOLYLINE
  5
176
330
147
100
AcDbEntity
  8
0
  6
Continuous
 62
     7
370
    15
100
AcDbPolyline
 90
       21
 70
   128
 43
0.0
 10
193.8285146123
 20
-3.8407634038
 10
194.2303367091
 20
-4.0092972646
 10
194.7027069142
 20
-4.0979007586
 10
195.1993863407
 20
-4.0979007586
 10
195.6717565458
 20
-4.0092972646
 10
196.0735786426
 20
-3.8407634038
 10
196.3655194846
 20
-3.6087964449
 10
196.5190018682
 20
-3.3361029299
 10
196.5190018682
 20
-3.0493760002
 10
196.3655194846
 20
-2.7766824852
 10
196.0735786426
 20
-2.5447155263
 10
195.6717565458
 20
-2.3761816655
 10
195.1993863407
 20
-2.2875781715
 10
194.7027069142
 20
-2.2875781715
 10
194.2303367091
 20
-2.3761816655
 10
193.8285146123
 20
-2.5447155263
 10
193.5365737703
 20
-2.7766824852
 10
193.3830913868
 20
-3.0493760002
 10
193.3830913868
 20
-3.3361029299
 10
193.5365737703
 20
-3.6087964449
 10
193.8285146123
 20
-3.8407634038
  0
LWPOLYLINE
  5
177
330
147
100
AcDbEntity
  8
0
  6
Continuous
 62
     7
370
    15
100
AcDbPolyline
 90
       21
 70
   128
 43
0.0
 10
186.6443097155
 20
-7.9881166119
 10
187.0461318123
 20
-8.1566504726
 10
187.5185020173
 20
-8.2452539667
 10
188.0151814439
 20
-8.2452539667
 10
188.4875516489
 20
-8.1566504726
 10
188.8893737457
 20
-7.9881166119
 10
189.1813145878
 20
-7.7561496529
 10
189.3347969713
 20
-7.483456138
 10
189.3347969713
 20
-7.1967292082
 10
189.1813145878
 20
-6.9240356933
 10
188.8893737457
 20
-6.6920687343
 10
188.4875516489
 20
-6.5235348736
 10
188.0151814439
 20
-6.4349313795
 10
187.5185020173
 20
-6.4349313795
 10
187.0461318123
 20
-6.5235348736
 10
186.6443097155
 20
-6.6920687343
 10
186.3523688735
 20
-6.9240356933
 10
186.1988864899
 20
-7.1967292082
 10
186.1988864899
 20
-7.483456138
 10
186.3523688735
 20
-7.7561496529
 10
186.6443097155
 20
-7.9881166119
  0
LWPOLYLINE
  5
178
330
147
100
AcDbEntity
  8
0
  6
Continuous
 62
     7
370
    15
100
AcDbPolyline
 90
       21
 70
   128
 43
0.0
 10
120.7843841158
 20
38.3267155718
 10
120.4924432737
 20
38.5586825308
 10
120.3389608902
 20
38.8313760457
 10
120.3389608902
 20
39.1181029755
 10
120.4924432737
 20
39.3907964904
 10
120.7843841158
 20
39.6227634494
 10
121.1862062125
 20
39.7912973101
 10
121.6585764176
 20
39.8799008042
 10
122.1552558441
 20
39.8799008042
 10
122.6276260492
 20
39.7912973101
 10
123.029448146
 20
39.6227634494
 10
123.321388988
 20
39.3907964904
 10
123.4748713716
 20
39.1181029755
 10
123.4748713716
 20
38.8313760457
 10
123.321388988
 20
38.5586825308
 10
123.029448146
 20
38.3267155718
 10
122.6276260492
 20
38.1581817111
 10
122.1552558441
 20
38.069578217
 10
121.6585764176
 20
38.069578217
 10
121.1862062125
 20
38.1581817111
 10
120.7843841158
 20
38.3267155718
  0
LWPOLYLINE
  5
179
330
147
100
AcDbEntity
  8
0
  6
Continuous
 62
     7
370
    15
100
AcDbPolyline
 90
       21
 70
   128
 43
0.0
 10
148.7292441082
 20
54.4589398615
 10
149.131066205
 20
54.2904060007
 10
149.6034364101
 20
54.2018025067
 10
150.1001158366
 20
54.2018025067
 10
150.5724860417
 20
54.2904060007
 10
150.9743081385
 20
54.4589398615
 10
151.2662489805
 20
54.6909068204
 10
151.4197313641
 20
54.9636003353
 10
151.4197313641
 20
55.2503272651
 10
151.2662489805
 20
55.5230207801
 10
150.9743081385
 20
55.754987739
 10
150.5724860417
 20
55.9235215997
 10
150.1001158366
 20
56.0121250938
 10
149.6034364101
 20
56.0121250938
 10
149.131066205
 20
55.9235215997
 10
148.7292441082
 20
55.754987739
 10
148.4373032662
 20
55.5230207801
 10
148.2838208827
 20
55.2503272651
 10
148.2838208827
 20
54.9636003353
 10
148.4373032662
 20
54.6909068204
 10
148.7292441082
 20
54.4589398615
  0
LWPOLYLINE
  5
17A
330
147
100
AcDbEntity
  8
0
  6
Continuous
 62
     7
370
    15
100
AcDbPolyline
 90
       21
 70
   128
 43
0.0
 10
155.9134490051
 20
58.6062930695
 10
156.3152711019
 20
58.4377592088
 10
156.787641307
 20
58.3491557147
 10
157.2843207335
 20
58.3491557147
 10
157.7566909386
 20
58.4377592088
 10
158.1585130354
 20
58.6062930695
 10
158.4504538774
 20
58.8382600284
 10
158.6039362609
 20
59.1109535434
 10
158.6039362609
 20
59.3976804732
 10
158.4504538774
 20
59.6703739881
 10
158.1585130354
 20
59.902340947
 10
157.7566909386
 20
60.0708748078
 10
157.2843207335
 20
60.1594783018
 10
156.787641307
 20
60.1594783018
 10
156.3152711019
 20
60.0708748078
 10
155.9134490051
 20
59.902340947
 10
155.6215081631
 20
59.6703739881
 10
155.4680257795
 20
59.3976804732
 10
155.4680257795
 20
59.1109535434
 10
155.6215081631
 20
58.8382600284
 10
155.9134490051
 20
58.6062930695
  0
LWPOLYLINE
  5
182
330
147
100
AcDbEntity
  8
0
  6
Continuous
 62
     7
370
    15
100
AcDbPolyline
 90
       21
 70
   128
 43
0.0
 10
254.4257979931
 20
7.1797255957
 10
255.7582776034
 20
8.011867545
 10
256.9735533228
 20
8.9017969061
 10
258.0641325722
 20
9.8440269686
 10
259.0232915681
 20
10.8327485709
 10
259.8451167762
 20
11.8618659154
 10
260.5245413708
 20
12.9250341515
 10
261.0573764733
 20
14.0156984935
 10
261.4403369783
 20
15.1271346331
 10
261.6710618067
 20
16.2524901968
 10
261.7481284634
 20
17.3848269935
 10
261.6710618067
 20
18.5171637901
 10
261.4403369783
 20
19.6425193538
 10
261.0573764733
 20
20.7539554934
 10
260.5245413708
 20
21.8446198354
 10
259.8451167762
 20
22.9077880715
 10
259.0232915681
 20
23.936905416
 10
258.0641325722
 20
24.9256270183
 10
256.9735533228
 20
25.8678570808
 10
255.7582776034
 20
26.7577864419
 10
254.4257979931
 20
27.5899283912
  0
LWPOLYLINE
  5
188
330
147
100
AcDbEntity
  8
0
  6
Continuous
 62
     7
370
    15
100
AcDbPolyline
 90
       21
 70
   128
 43
0.0
 10
90.3770247578
 20
44.7344987395
 10
89.0445451474
 20
43.9023567902
 10
87.8292694281
 20
43.0124274291
 10
86.7386901786
 20
42.0701973665
 10
85.7795311827
 20
41.0814757643
 10
84.9577059747
 20
40.0523584198
 10
84.2782813801
 20
38.9891901837
 10
83.7454462775
 20
37.8985258417
 10
83.3624857726
 20
36.7870897021
 10
83.1317609441
 20
35.6617341384
 10
83.0546942874
 20
34.5293973417
 10
83.1317609441
 20
33.3970605451
 10
83.3624857726
 20
32.2717049814
 10
83.7454462775
 20
31.1602688418
 10
84.2782813801
 20
30.0696044998
 10
84.9577059747
 20
29.0064362637
 10
85.7795311827
 20
27.9773189191
 10
86.7386901786
 20
26.9885973169
 10
87.8292694281
 20
26.0463672544
 10
89.0445451474
 20
25.1564378933
 10
90.3770247578
 20
24.3242959439
  0
LWPOLYLINE
  5
18B
330
147
100
AcDbEntity
  8
0
  6
Continuous
 62
     7
370
    15
100
AcDbPolyline
 90
       19
 70
   128
 43
0.0
 10
226.8211046893
 20
63.0927176252
 10
226.572103432
 20
63.2980072833
 10
226.4597447931
 20
63.5400802709
 10
226.4975808829
 20
63.789739013
 10
226.6810481104
 20
64.0168709809
 10
226.9880176203
 20
64.1940807069
 10
227.3814643594
 20
64.2999940829
 10
227.8139328442
 20
64.3218363926
 10
228.2332609929
 20
64.2569731311
 10
228.5888716422
 20
64.1132277649
 10
228.8378728995
 20
63.9079381068
 10
228.9502315384
 20
63.6658651192
 10
228.9123954486
 20
63.4162063771
 10
228.7289282211
 20
63.1890744092
 10
228.4219587112
 20
63.0118646832
 10
228.0285119721
 20
62.9059513072
 10
227.5960434873
 20
62.8841089975
 10
227.1767153386
 20
62.948972259
 10
226.8211046893
 20
63.0927176252
  0
LWPOLYLINE
  5
18C
330
147
100
AcDbEntity
  8
0
  6
Continuous
 62
     7
370
    15
100
AcDbPolyline
 90
       19
 70
   128
 43
0.0
 10
137.4271545442
 20
0.0471182476
 10
137.1781532869
 20
0.2524079057
 10
137.0657946481
 20
0.4944808933
 10
137.1036307378
 20
0.7441396355
 10
137.2870979653
 20
0.9712716033
 10
137.5940674752
 20
1.1484813293
 10
137.9875142143
 20
1.2543947053
 10
138.4199826991
 20
1.276237015
 10
138.8393108479
 20
1.2113737535
 10
139.1949214972
 20
1.0676283874
 10
139.4439227545
 20
0.8623387292
 10
139.5562813933
 20
0.6202657416
 10
139.5184453035
 20
0.3706069995
 10
139.334978076
 20
0.1434750317
 10
139.0280085661
 20
-0.0337346944
 10
138.6345618271
 20
-0.1396480704
 10
138.2020933423
 20
-0.1614903801
 10
137.7827651935
 20
-0.0966271186
 10
137.4271545442
 20
0.0471182476
  0
LWPOLYLINE
  5
18D
330
147
100
AcDbEntity
  8
0
  6
Continuous
 62
     7
370
    15
100
AcDbPolyline
 90
       19
 70
   128
 43
0.0
 10
127.5191223927
 20
5.7669034596
 10
127.874733042
 20
5.6231580935
 10
128.2940611907
 20
5.5582948319
 10
128.7265296755
 20
5.5801371416
 10
129.1199764146
 20
5.6860505176
 10
129.4269459245
 20
5.8632602437
 10
129.610413152
 20
6.0903922115
 10
129.6482492418
 20
6.3400509537
 10
129.5358906029
 20
6.5821239413
 10
129.2868893456
 20
6.7874135994
 10
128.9312786963
 20
6.9311589655
 10
128.5119505476
 20
6.9960222271
 10
128.0794820628
 20
6.9741799174
 10
127.6860353237
 20
6.8682665414
 10
127.3790658138
 20
6.6910568153
 10
127.1955985863
 20
6.4639248475
 10
127.1577624965
 20
6.2142661053
 10
127.2701211353
 20
5.9721931177
 10
127.5191223927
 20
5.7669034596
  0
LWPOLYLINE
  5
18E
330
147
100
AcDbEntity
  8
0
  6
Continuous
 62
     7
370
    15
100
AcDbPolyline
 90
       19
 70
   128
 43
0.0
 10
236.7291368408
 20
57.3729324131
 10
237.0847474901
 20
57.229187047
 10
237.5040756389
 20
57.1643237855
 10
237.9365441237
 20
57.1861660951
 10
238.3299908627
 20
57.2920794712
 10
238.6369603726
 20
57.4692891972
 10
238.8204276001
 20
57.696421165
 10
238.8582636899
 20
57.9460799072
 10
238.7459050511
 20
58.1881528948
 10
238.4969037938
 20
58.3934425529
 10
238.1412931445
 20
58.5371879191
 10
237.7219649957
 20
58.6020511806
 10
237.2894965109
 20
58.5802088709
 10
236.8960497718
 20
58.4742954949
 10
236.5890802619
 20
58.2970857688
 10
236.4056130344
 20
58.069953801
 10
236.3677769447
 20
57.8202950589
 10
236.4801355835
 20
57.5782220713
 10
236.7291368408
 20
57.3729324131
  0
LWPOLYLINE
  5
18F
330
147
100
AcDbEntity
  8
0
  6
Continuous
 62
     7
370
    15
100
AcDbPolyline
 90
       21
 70
   128
 43
0.0
 10
113.6001792189
 20
34.1793623638
 10
113.3082383769
 20
34.4113293227
 10
113.1547559933
 20
34.6840228377
 10
113.1547559933
 20
34.9707497674
 10
113.3082383769
 20
35.2434432824
 10
113.6001792189
 20
35.4754102413
 10
114.0020013157
 20
35.6439441021
 10
114.4743715208
 20
35.7325475961
 10
114.9710509473
 20
35.7325475961
 10
115.4434211524
 20
35.6439441021
 10
115.8452432492
 20
35.4754102413
 10
116.1371840912
 20
35.2434432824
 10
116.2906664747
 20
34.9707497674
 10
116.2906664747
 20
34.6840228377
 10
116.1371840912
 20
34.4113293227
 10
115.8452432492
 20
34.1793623638
 10
115.4434211524
 20
34.010828503
 10
114.9710509473
 20
33.922225009
 10
114.4743715208
 20
33.922225009
 10
114.0020013157
 20
34.010828503
 10
113.6001792189
 20
34.1793623638
  0
LWPOLYLINE
  5
190
330
147
100
AcDbEntity
  8
0
  6
Continuous
 62
     7
370
    15
100
AcDbPolyline
 90
       21
 70
   128
 43
0.0
 10
228.9575795017
 20
16.4388140939
 10
228.6656386597
 20
16.6707810528
 10
228.5121562761
 20
16.9434745678
 10
228.5121562761
 20
17.2302014975
 10
228.6656386597
 20
17.5028950125
 10
228.9575795017
 20
17.7348619714
 10
229.3594015985
 20
17.9033958321
 10
229.8317718036
 20
17.9919993262
 10
230.3284512301
 20
17.9919993262
 10
230.8008214351
 20
17.9033958321
 10
231.2026435319
 20
17.7348619714
 10
231.494584374
 20
17.5028950125
 10
231.6480667575
 20
17.2302014975
 10
231.6480667575
 20
16.9434745678
 10
231.494584374
 20
16.6707810528
 10
231.2026435319
 20
16.4388140939
 10
230.8008214351
 20
16.2702802331
 10
230.3284512301
 20
16.1816767391
 10
229.8317718036
 20
16.1816767391
 10
229.3594015985
 20
16.2702802331
 10
228.9575795017
 20
16.4388140939
  0
LWPOLYLINE
  5
192
330
147
100
AcDbEntity
  8
0
  6
Continuous
 62
     7
370
    15
100
AcDbPolyline
 90
       11
 70
   128
 43
0.0
 10
229.3920787973
 20
35.3470403538
 10
229.7970648476
 20
35.1771794548
 10
230.2731545031
 20
35.0878782954
 10
230.7737447912
 20
35.0878782954
 10
231.2498344468
 20
35.1771794548
 10
231.6548204971
 20
35.3470403538
 10
231.9490600859
 20
35.5808338242
 10
232.1037509921
 20
35.8556745322
 10
232.1037509921
 20
36.1446591543
 10
231.9490600859
 20
36.4194998623
 10
231.6548204971
 20
36.6532933327
  0
LWPOLYLINE
  5
194
330
147
100
AcDbEntity
  8
0
  6
Continuous
 62
     7
370
    15
100
AcDbPolyline
 90
       11
 70
   128
 43
0.0
 10
190.9297481843
 20
60.1633771527
 10
190.524762134
 20
60.3332380517
 10
190.0486724784
 20
60.4225392111
 10
189.5480821903
 20
60.4225392111
 10
189.0719925348
 20
60.3332380517
 10
188.6670064845
 20
60.1633771527
 10
188.3727668957
 20
59.9295836823
 10
188.2180759894
 20
59.6547429743
 10
188.2180759894
 20
59.3657583522
 10
188.3727668957
 20
59.0909176442
 10
188.6670064845
 20
58.8571241738
  0
LWPOLYLINE
  5
195
330
147
100
AcDbEntity
  8
0
  6
Continuous
 62
     7
370
    15
100
AcDbPolyline
 90
       11
 70
   128
 43
0.0
 10
205.7931327248
 20
68.743826408
 10
205.3881466745
 20
68.913687307
 10
204.912057019
 20
69.0029884663
 10
204.4114667309
 20
69.0029884663
 10
203.9353770753
 20
68.913687307
 10
203.530391025
 20
68.743826408
 10
203.2361514362
 20
68.5100329375
 10
203.08146053
 20
68.2351922296
 10
203.08146053
 20
67.9462076074
 10
203.2361514362
 20
67.6713668995
 10
203.530391025
 20
67.437573429
  0
LWPOLYLINE
  5
197
330
147
100
AcDbEntity
  8
0
  6
Continuous
 62
     7
370
    15
100
AcDbPolyline
 90
       11
 70
   128
 43
0.0
 10
246.5182050376
 20
45.233742588
 10
246.8124446264
 20
44.9999491176
 10
246.9671355327
 20
44.7251084096
 10
246.9671355327
 20
44.4361237875
 10
246.8124446264
 20
44.1612830795
 10
246.5182050376
 20
43.9274896091
 10
246.1132189873
 20
43.75762871
 10
245.6371293318
 20
43.6683275507
 10
245.1365390437
 20
43.6683275507
 10
244.6604493881
 20
43.75762871
 10
244.2554633378
 20
43.9274896091
  0
LWPOLYLINE
  5
1A1
330
147
100
AcDbEntity
  8
0
  6
Continuous
 62
     7
370
    15
100
AcDbPolyline
 90
       11
 70
   128
 43
0.0
 10
174.326880962
 20
50.5787459199
 10
173.9218949117
 20
50.7486068189
 10
173.4458052562
 20
50.8379079783
 10
172.9452149681
 20
50.8379079783
 10
172.4691253125
 20
50.7486068189
 10
172.0641392622
 20
50.5787459199
 10
171.7698996734
 20
50.3449524495
 10
171.6152087672
 20
50.0701117415
 10
171.6152087672
 20
49.7811271194
 10
171.7698996734
 20
49.5062864114
 10
172.0641392622
 20
49.272492941
  0
LWPOLYLINE
  5
1A3
330
147
100
AcDbEntity
  8
0
  6
Continuous
 62
     7
370
    15
100
AcDbPolyline
 90
       11
 70
   128
 43
0.0
 10
215.0519532748
 20
27.0686620999
 10
215.3461928636
 20
26.8348686295
 10
215.5008837699
 20
26.5600279215
 10
215.5008837699
 20
26.2710432994
 10
215.3461928636
 20
25.9962025914
 10
215.0519532748
 20
25.762409121
 10
214.6469672245
 20
25.592548222
 10
214.170877569
 20
25.5032470626
 10
213.6702872809
 20
25.5032470626
 10
213.1941976253
 20
25.592548222
 10
212.789211575
 20
25.762409121
  0
LWPOLYLINE
  5
1A7
330
147
100
AcDbEntity
  8
0
  6
Continuous
 62
     7
370
    15
100
AcDbPolyline
 90
       14
 70
   128
 43
0.0
 10
96.1753003635
 20
27.6715692024
 10
95.0744118287
 20
28.3723521078
 10
94.0970330421
 20
29.1317204183
 10
93.2524639406
 20
29.9424486063
 10
92.5487407527
 20
30.7968224457
 10
91.9925595325
 20
31.6867124141
 10
91.5892124456
 20
32.6036510464
 10
91.3425374127
 20
33.538913505
 10
91.2548815917
 20
34.4836005975
 10
91.3270790437
 20
35.4287234543
 10
91.5584427968
 20
36.3652890595
 10
91.9467713828
 20
37.2843858212
 10
92.4883697845
 20
38.1772683666
 10
93.1780845948
 20
39.0354407557
  0
LWPOLYLINE
  5
1A9
330
147
100
AcDbEntity
  8
0
  6
Continuous
 62
     7
370
    15
100
AcDbPolyline
 90
       16
 70
   128
 43
0.0
 10
93.9125586637
 20
26.3653162235
 10
92.7259927028
 20
27.1133079234
 10
91.6577174629
 20
27.9185291649
 10
90.7159767635
 20
28.7747661012
 10
89.9080379642
 20
29.6754112006
 10
89.2401358827
 20
30.6135142357
 10
88.7174246818
 20
31.5818359188
 10
88.343938094
 20
32.5729037663
 10
88.1225582941
 20
33.5790697638
 10
88.0549936576
 20
34.5925693853
 10
88.1417655769
 20
35.6055815117
 10
88.382204438
 20
36.6102887859
 10
88.7744547878
 20
37.5989379388
 10
89.3154896528
 20
38.5638996209
 10
90.0011338974
 20
39.4977272778
 10
90.8260964439
 20
40.3932146142
  0
LWPOLYLINE
  5
1AB
330
147
100
AcDbEntity
  8
0
  6
Continuous
 62
     7
370
    15
100
AcDbPolyline
 90
       11
 70
   128
 43
0.0
 10
170.4759417888
 20
1.3354784153
 10
170.8809278391
 20
1.1656175163
 10
171.3570174946
 20
1.0763163569
 10
171.8576077828
 20
1.0763163569
 10
172.3336974383
 20
1.1656175163
 10
172.7386834886
 20
1.3354784153
 10
173.0329230774
 20
1.5692718857
 10
173.1876139837
 20
1.8441125937
 10
173.1876139837
 20
2.1330972158
 10
173.0329230774
 20
2.4079379238
 10
172.7386834886
 20
2.6417313942
  0
LWPOLYLINE
  5
1AD
330
147
100
AcDbEntity
  8
0
  6
Continuous
 62
     7
370
    15
100
AcDbPolyline
 90
       11
 70
   128
 43
0.0
 10
129.750869476
 20
24.8455622352
 10
129.4566298872
 20
25.0793557057
 10
129.301938981
 20
25.3541964136
 10
129.301938981
 20
25.6431810358
 10
129.4566298872
 20
25.9180217438
 10
129.750869476
 20
26.1518152142
 10
130.1558555263
 20
26.3216761132
 10
130.6319451819
 20
26.4109772725
 10
131.13253547
 20
26.4109772725
 10
131.6086251255
 20
26.3216761132
 10
132.0136111758
 20
26.1518152142
  0
LWPOLYLINE
  5
1C0
330
147
100
AcDbEntity
  8
0
  6
Continuous
 62
     7
370
    15
100
AcDbPolyline
 90
        3
 70
   128
 43
0.0
 10
176.7366787237
 20
-2.104390906
 10
177.0015018591
 20
-1.8304705642
 10
177.4243354849
 20
-1.5330379278
  0
LWPOLYLINE
  5
1C8
330
147
100
AcDbEntity
  8
0
  6
Continuous
 62
     7
370
    15
100
AcDbPolyline
 90
       11
 70
   128
 43
0.0
 10
254.4257979931
 20
5.5466439719
 10
255.7582776034
 20
6.3787859212
 10
256.9735533228
 20
7.2687152823
 10
258.0641325722
 20
8.2109453449
 10
259.0232915681
 20
9.1996669471
 10
259.8451167762
 20
10.2287842916
 10
260.5245413708
 20
11.2919525277
 10
261.0573764733
 20
12.3826168697
 10
261.4403369783
 20
13.4940530093
 10
261.6710618067
 20
14.6194085731
 10
261.7481284634
 20
15.7517453697
  0
LWPOLYLINE
  5
1CB
330
147
100
AcDbEntity
  8
0
  6
Continuous
 62
     7
370
    15
100
AcDbPolyline
 90
       10
 70
   128
 43
0.0
 10
250.8902640871
 20
23.9158264879
 10
252.076830048
 20
23.167834788
 10
253.1451052879
 20
22.3626135466
 10
254.0868459873
 20
21.5063766102
 10
254.8947847867
 20
20.6057315109
 10
255.5626868681
 20
19.6676284757
 10
256.0853980691
 20
18.6993067926
 10
256.4588846569
 20
17.7082389451
 10
256.6802644567
 20
16.7020729476
 10
256.6980495104
 20
16.5682861815
  0
LWPOLYLINE
  5
1D0
330
147
100
AcDbEntity
  8
0
  6
Continuous
 62
     7
370
    15
100
AcDbPolyline
 90
        3
 70
   128
 43
0.0
 10
224.2630886707
 20
20.1181051978
 10
224.6859222965
 20
19.8206725613
 10
224.9507454318
 20
19.5467522196
  0
LWPOLYLINE
  5
1D8
330
147
100
AcDbEntity
  8
0
  6
Continuous
 62
     7
370
    15
100
AcDbPolyline
 90
       11
 70
   128
 43
0.0
 10
83.0546942874
 20
32.896315718
 10
83.1317609441
 20
31.7639789213
 10
83.3624857726
 20
30.6386233576
 10
83.7454462775
 20
29.527187218
 10
84.2782813801
 20
28.436522876
 10
84.9577059747
 20
27.3733546399
 10
85.7795311827
 20
26.3442372954
 10
86.7386901786
 20
25.3555156931
 10
87.8292694281
 20
24.4132856306
 10
89.0445451474
 20
23.5233562695
 10
90.3770247578
 20
22.6912143202
  0
LWPOLYLINE
  5
1E0
330
147
100
AcDbEntity
  8
0
  6
Continuous
 62
     7
370
    15
100
AcDbPolyline
 90
       10
 70
   128
 43
0.0
 10
96.1753003635
 20
26.0384875786
 10
95.0744118287
 20
26.739270484
 10
94.0970330421
 20
27.4986387945
 10
93.2524639406
 20
28.3093669825
 10
92.5487407527
 20
29.1637408219
 10
91.9925595325
 20
30.0536307903
 10
91.5892124456
 20
30.9705694227
 10
91.3425374127
 20
31.9058318813
 10
91.2548815917
 20
32.8505189737
 10
91.2546942874
 20
32.896315718
  0
LWPOLYLINE
  5
1E3
330
147
100
AcDbEntity
  8
0
  6
Continuous
 62
     7
370
    15
100
AcDbPolyline
 90
        3
 70
   128
 43
0.0
 10
119.852077319
 20
30.7343904918
 10
120.1169004544
 20
31.0083108336
 10
120.5397340802
 20
31.3057434701
  0
LWPOLYLINE
  5
1F5
330
147
100
AcDbEntity
  8
0
  6
Continuous
 62
     7
370
    15
100
AcDbPolyline
 90
        3
 70
   128
 43
0.0
 10
167.378487266
 20
52.9568865956
 10
167.8013208918
 20
52.6594539591
 10
168.0661440271
 20
52.3855336174
  0
LINE
  5
20A
330
147
100
AcDbEntity
  8
0
  6
Continuous
 62
     7
370
    15
100
AcDbLine
 10
261.7481284634
 20
15.7517453697
 30
0.0
 11
261.7481284634
 21
17.3848269935
 31
0.0
  0
LINE
  5
20B
330
147
100
AcDbEntity
  8
0
  6
Continuous
 62
     7
370
    15
100
AcDbLine
 10
253.5481284634
 20
15.7517453697
 30
0.0
 11
253.5481284634
 21
17.3848269935
 31
0.0
  0
LINE
  5
20C
330
147
100
AcDbEntity
  8
0
  6
Continuous
 62
     7
370
    15
100
AcDbLine
 10
83.0546942874
 20
34.5293973417
 30
0.0
 11
83.0546942874
 21
32.896315718
 31
0.0
  0
LINE
  5
20D
330
147
100
AcDbEntity
  8
0
  6
Continuous
 62
     7
370
    15
100
AcDbLine
 10
91.2546942874
 20
34.5293973417
 30
0.0
 11
91.2546942874
 21
32.896315718
 31
0.0
  0
LINE
  5
20E
330
147
100
AcDbEntity
  8
0
  6
Continuous
 62
     7
370
    15
100
AcDbLine
 10
177.6601466857
 20
5.4828316233
 30
0.0
 11
136.9350743729
 21
28.9929154433
 31
0.0
  0
LINE
  5
20F
330
147
100
AcDbEntity
  8
0
  6
Continuous
 62
     7
370
    15
100
AcDbLine
 10
139.1978160727
 20
30.2991684222
 30
0.0
 11
179.9228883855
 21
6.7890846023
 31
0.0
  0
LINE
  5
210
330
147
100
AcDbEntity
  8
0
  6
Continuous
 62
     7
370
    15
100
AcDbLine
 10
158.0803599146
 20
-10.6779669502
 30
0.0
 11
160.3431016144
 21
-9.3717139713
 31
0.0
  0
LINE
  5
211
330
147
100
AcDbEntity
  8
0
  6
Continuous
 62
     7
370
    15
100
AcDbLine
 10
173.1085181566
 20
-19.3535380386
 30
0.0
 11
158.0803599146
 21
-10.6779669502
 31
0.0
  0
LINE
  5
212
330
147
100
AcDbEntity
  8
0
  6
Continuous
 62
     7
370
    15
100
AcDbLine
 10
197.408183812
 20
-21.1353147519
 30
0.0
 11
195.0561956611
 21
-19.7775408934
 31
0.0
  0
LINE
  5
213
330
147
100
AcDbEntity
  8
0
  6
Continuous
 62
     7
370
    15
100
AcDbLine
 10
175.3712598564
 20
-18.0472850597
 30
0.0
 11
160.3431016144
 21
-9.3717139713
 31
0.0
  0
LINE
  5
214
330
147
100
AcDbEntity
  8
0
  6
Continuous
 62
     7
370
    15
100
AcDbLine
 10
217.1920208588
 20
23.0574398005
 30
0.0
 11
177.4243354849
 21
0.100043696
 31
0.0
  0
LINE
  5
215
330
147
100
AcDbEntity
  8
0
  6
Continuous
 62
     7
370
    15
100
AcDbLine
 10
177.4243354849
 20
-2.6757438842
 30
0.0
 11
179.6870771847
 21
-3.9819968631
 31
0.0
  0
LINE
  5
216
330
147
100
AcDbEntity
  8
0
  6
Continuous
 62
     7
370
    15
100
AcDbLine
 10
184.4954032967
 20
-3.9819968631
 30
0.0
 11
224.2630886707
 21
18.9753992414
 31
0.0
  0
LINE
  5
217
330
147
100
AcDbEntity
  8
0
  6
Continuous
 62
     7
370
    15
100
AcDbLine
 10
224.2630886707
 20
21.7511868216
 30
0.0
 11
222.0003469709
 21
23.0574398005
 31
0.0
  0
LINE
  5
218
330
147
100
AcDbEntity
  8
0
  6
Continuous
 62
     7
370
    15
100
AcDbLine
 10
207.867748378
 20
22.9213088919
 30
0.0
 11
167.1426760652
 21
46.4313927118
 31
0.0
  0
LINE
  5
219
330
147
100
AcDbEntity
  8
0
  6
Continuous
 62
     7
370
    15
100
AcDbLine
 10
164.8799343654
 20
45.1251397329
 30
0.0
 11
205.6050066782
 21
21.615055913
 31
0.0
  0
LINE
  5
21A
330
147
100
AcDbEntity
  8
0
  6
Continuous
 62
     7
370
    15
100
AcDbLine
 10
235.8621058451
 20
34.2244792001
 30
0.0
 11
233.5993641453
 21
32.9182262211
 31
0.0
  0
LINE
  5
21B
330
147
100
AcDbEntity
  8
0
  6
Continuous
 62
     7
370
    15
100
AcDbLine
 10
233.5993641453
 20
32.9182262211
 30
0.0
 11
248.6275223873
 21
24.2426551328
 31
0.0
  0
LINE
  5
21C
330
147
100
AcDbEntity
  8
0
  6
Continuous
 62
     7
370
    15
100
AcDbLine
 10
253.976726307
 20
11.521009721
 30
0.0
 11
251.624738156
 21
12.8787835795
 31
0.0
  0
LINE
  5
21D
330
147
100
AcDbEntity
  8
0
  6
Continuous
 62
     7
370
    15
100
AcDbLine
 10
235.8621058451
 20
34.2244792001
 30
0.0
 11
250.8902640871
 21
25.5489081117
 31
0.0
  0
LINE
  5
21E
330
147
100
AcDbEntity
  8
0
  6
Continuous
 62
     7
370
    15
100
AcDbLine
 10
237.071258441
 20
39.780136401
 30
0.0
 11
196.3461861282
 21
63.290220221
 31
0.0
  0
LINE
  5
21F
330
147
100
AcDbEntity
  8
0
  6
Continuous
 62
     7
370
    15
100
AcDbLine
 10
239.3340001408
 20
41.0863893799
 30
0.0
 11
198.608927828
 21
64.5964731999
 31
0.0
  0
LINE
  5
220
330
147
100
AcDbEntity
  8
0
  6
Continuous
 62
     7
370
    15
100
AcDbLine
 10
186.7224628362
 20
62.5921912854
 30
0.0
 11
184.4597211364
 21
61.2859383065
 31
0.0
  0
LINE
  5
221
330
147
100
AcDbEntity
  8
0
  6
Continuous
 62
     7
370
    15
100
AcDbLine
 10
171.6943045942
 20
71.2677623737
 30
0.0
 11
186.7224628362
 21
62.5921912854
 31
0.0
  0
LINE
  5
222
330
147
100
AcDbEntity
  8
0
  6
Continuous
 62
     7
370
    15
100
AcDbLine
 10
147.3946389388
 20
73.0495390871
 30
0.0
 11
149.7466270897
 21
71.6917652286
 31
0.0
  0
LINE
  5
223
330
147
100
AcDbEntity
  8
0
  6
Continuous
 62
     7
370
    15
100
AcDbLine
 10
169.4315628944
 20
69.9615093948
 30
0.0
 11
184.4597211364
 21
61.2859383065
 31
0.0
  0
LINE
  5
224
330
147
100
AcDbEntity
  8
0
  6
Continuous
 62
     7
370
    15
100
AcDbLine
 10
139.8744994408
 20
73.3087826533
 30
0.0
 11
154.7237418458
 21
64.7364974792
 31
0.0
  0
LINE
  5
225
330
147
100
AcDbEntity
  8
0
  6
Continuous
 62
     7
370
    15
100
AcDbLine
 10
175.2298385002
 20
73.3087826533
 30
0.0
 11
190.2579967422
 21
64.6332115649
 31
0.0
  0
LINE
  5
226
330
147
100
AcDbEntity
  8
0
  6
Continuous
 62
     7
370
    15
100
AcDbLine
 10
190.2579967422
 20
64.6332115649
 30
0.0
 11
211.4712001778
 21
76.8793332423
 31
0.0
  0
LINE
  5
227
330
147
100
AcDbEntity
  8
0
  6
Continuous
 62
     7
370
    15
100
AcDbLine
 10
211.4712001778
 20
76.8793332423
 30
0.0
 11
260.6108431867
 21
48.511621157
 31
0.0
  0
LINE
  5
228
330
147
100
AcDbEntity
  8
0
  6
Continuous
 62
     7
370
    15
100
AcDbLine
 10
260.6108431867
 20
48.511621157
 30
0.0
 11
239.3976397511
 21
36.2654994796
 31
0.0
  0
LINE
  5
229
330
147
100
AcDbEntity
  8
0
  6
Continuous
 62
     7
370
    15
100
AcDbLine
 10
254.4257979931
 20
27.5899283912
 30
0.0
 11
239.3976397511
 21
36.2654994796
 31
0.0
  0
LINE
  5
22A
330
147
100
AcDbEntity
  8
0
  6
Continuous
 62
     7
370
    15
100
AcDbLine
 10
254.4257979931
 20
7.1797255957
 30
0.0
 11
239.5765555881
 21
15.7520107698
 31
0.0
  0
LINE
  5
22B
330
147
100
AcDbEntity
  8
0
  6
Continuous
 62
     7
370
    15
100
AcDbLine
 10
239.5765555881
 20
15.7520107698
 30
0.0
 11
190.0790809051
 21
-12.822273144
 31
0.0
  0
LINE
  5
22C
330
147
100
AcDbEntity
  8
0
  6
Continuous
 62
     7
370
    15
100
AcDbLine
 10
204.92832331
 20
-21.3945583181
 30
0.0
 11
190.0790809051
 21
-12.822273144
 31
0.0
  0
LINE
  5
22D
330
147
100
AcDbEntity
  8
0
  6
Continuous
 62
     7
370
    15
100
AcDbLine
 10
90.3770247578
 20
24.3242959439
 30
0.0
 11
169.5729842507
 21
-21.3945583181
 31
0.0
  0
LINE
  5
22E
330
147
100
AcDbEntity
  8
0
  6
Continuous
 62
     7
370
    15
100
AcDbLine
 10
90.3770247578
 20
44.7344987395
 30
0.0
 11
105.2262671627
 21
36.1622135654
 31
0.0
  0
LINE
  5
22F
330
147
100
AcDbEntity
  8
0
  6
Continuous
 62
     7
370
    15
100
AcDbLine
 10
105.2262671627
 20
36.1622135654
 30
0.0
 11
154.7237418458
 21
64.7364974792
 31
0.0
  0
LINE
  5
230
330
147
100
AcDbEntity
  8
0
  6
Continuous
 62
     7
370
    15
100
AcDbLine
 10
188.6670064845
 20
58.8571241738
 30
0.0
 11
229.3920787973
 21
35.3470403538
 31
0.0
  0
LINE
  5
231
330
147
100
AcDbEntity
  8
0
  6
Continuous
 62
     7
370
    15
100
AcDbLine
 10
190.9297481843
 20
60.1633771527
 30
0.0
 11
231.6548204971
 21
36.6532933327
 31
0.0
  0
LINE
  5
232
330
147
100
AcDbEntity
  8
0
  6
Continuous
 62
     7
370
    15
100
AcDbLine
 10
244.2554633378
 20
43.9274896091
 30
0.0
 11
203.530391025
 21
67.437573429
 31
0.0
  0
LINE
  5
233
330
147
100
AcDbEntity
  8
0
  6
Continuous
 62
     7
370
    15
100
AcDbLine
 10
246.5182050376
 20
45.233742588
 30
0.0
 11
205.7931327248
 21
68.743826408
 31
0.0
  0
LINE
  5
234
330
147
100
AcDbEntity
  8
0
  6
Continuous
 62
     7
370
    15
100
AcDbLine
 10
167.378487266
 20
51.8141806392
 30
0.0
 11
127.610801892
 21
28.8567845347
 31
0.0
  0
LINE
  5
235
330
147
100
AcDbEntity
  8
0
  6
Continuous
 62
     7
370
    15
100
AcDbLine
 10
165.1157455662
 20
55.8962211983
 30
0.0
 11
167.378487266
 21
54.5899682194
 31
0.0
  0
LINE
  5
236
330
147
100
AcDbEntity
  8
0
  6
Continuous
 62
     7
370
    15
100
AcDbLine
 10
120.5397340802
 20
32.9388250938
 30
0.0
 11
160.3074194541
 21
55.8962211983
 31
0.0
  0
LINE
  5
237
330
147
100
AcDbEntity
  8
0
  6
Continuous
 62
     7
370
    15
100
AcDbLine
 10
122.80247578
 20
28.8567845347
 30
0.0
 11
120.5397340802
 21
30.1630375136
 31
0.0
  0
LINE
  5
238
330
147
100
AcDbEntity
  8
0
  6
Continuous
 62
     7
370
    15
100
AcDbLine
 10
212.789211575
 20
25.762409121
 30
0.0
 11
172.0641392622
 21
49.272492941
 31
0.0
  0
LINE
  5
239
330
147
100
AcDbEntity
  8
0
  6
Continuous
 62
     7
370
    15
100
AcDbLine
 10
174.326880962
 20
50.5787459199
 30
0.0
 11
215.0519532748
 21
27.0686620999
 31
0.0
  0
LINE
  5
23A
330
147
100
AcDbEntity
  8
0
  6
Continuous
 62
     7
370
    15
100
AcDbLine
 10
108.9407169057
 20
17.6897451351
 30
0.0
 11
111.2034586055
 21
18.995998114
 31
0.0
  0
LINE
  5
23B
330
147
100
AcDbEntity
  8
0
  6
Continuous
 62
     7
370
    15
100
AcDbLine
 10
96.1753003635
 20
27.6715692024
 30
0.0
 11
111.2034586055
 21
18.995998114
 31
0.0
  0
LINE
  5
23C
330
147
100
AcDbEntity
  8
0
  6
Continuous
 62
     7
370
    15
100
AcDbLine
 10
90.8260964439
 20
40.3932146142
 30
0.0
 11
93.1780845948
 21
39.0354407557
 31
0.0
  0
LINE
  5
23D
330
147
100
AcDbEntity
  8
0
  6
Continuous
 62
     7
370
    15
100
AcDbLine
 10
93.9125586637
 20
26.3653162235
 30
0.0
 11
108.9407169057
 21
17.6897451351
 31
0.0
  0
LINE
  5
23E
330
147
100
AcDbEntity
  8
0
  6
Continuous
 62
     7
370
    15
100
AcDbLine
 10
172.7386834886
 20
2.6417313942
 30
0.0
 11
132.0136111758
 21
26.1518152142
 31
0.0
  0
LINE
  5
23F
330
147
100
AcDbEntity
  8
0
  6
Continuous
 62
     7
370
    15
100
AcDbLine
 10
129.750869476
 20
24.8455622352
 30
0.0
 11
170.4759417888
 21
1.3354784153
 31
0.0
  0
LINE
  5
240
330
147
100
AcDbEntity
  8
0
  6
Continuous
 62
     7
370
    15
100
AcDbLine
 10
169.5729842507
 20
-21.3945583181
 30
0.0
 11
169.5729842507
 21
-23.0276399419
 31
0.0
  0
LINE
  5
241
330
147
100
AcDbEntity
  8
0
  6
Continuous
 62
     7
370
    15
100
AcDbLine
 10
204.92832331
 20
-21.3945583181
 30
0.0
 11
204.92832331
 21
-23.0276399419
 31
0.0
  0
LINE
  5
242
330
147
100
AcDbEntity
  8
0
  6
Continuous
 62
     7
370
    15
100
AcDbLine
 10
195.0561956611
 20
-21.4106225172
 30
0.0
 11
195.0561956611
 21
-19.7775408934
 31
0.0
  0
LINE
  5
243
330
147
100
AcDbEntity
  8
0
  6
Continuous
 62
     7
370
    15
100
AcDbLine
 10
175.3712598564
 20
-19.6803666834
 30
0.0
 11
175.3712598564
 21
-18.0472850597
 31
0.0
  0
LINE
  5
244
330
147
100
AcDbEntity
  8
0
  6
Continuous
 62
     7
370
    15
100
AcDbLine
 10
90.3770247578
 20
24.3242959439
 30
0.0
 11
90.3770247578
 21
22.6912143202
 31
0.0
  0
LINE
  5
245
330
147
100
AcDbEntity
  8
0
  6
Continuous
 62
     7
370
    15
100
AcDbLine
 10
90.3770247578
 20
22.6912143202
 30
0.0
 11
169.5729842507
 21
-23.0276399419
 31
0.0
  0
LINE
  5
246
330
147
100
AcDbEntity
  8
0
  6
Continuous
 62
     7
370
    15
100
AcDbLine
 10
195.5482318549
 20
-21.6946689658
 30
0.0
 11
195.0561956611
 21
-21.4106225172
 31
0.0
  0
LINE
  5
247
330
147
100
AcDbEntity
  8
0
  6
Continuous
 62
     7
370
    15
100
AcDbLine
 10
160.3431016144
 20
-11.004795595
 30
0.0
 11
160.3431016144
 21
-9.3717139713
 31
0.0
  0
LINE
  5
248
330
147
100
AcDbEntity
  8
0
  6
Continuous
 62
     7
370
    15
100
AcDbLine
 10
175.3712598564
 20
-19.6803666834
 30
0.0
 11
160.3431016144
 21
-11.004795595
 31
0.0
  0
LINE
  5
249
330
147
100
AcDbEntity
  8
0
  6
Continuous
 62
     7
370
    15
100
AcDbLine
 10
239.5765555881
 20
15.7520107698
 30
0.0
 11
239.5765555881
 21
14.118929146
 31
0.0
  0
LINE
  5
24A
330
147
100
AcDbEntity
  8
0
  6
Continuous
 62
     7
370
    15
100
AcDbLine
 10
239.5765555881
 20
14.118929146
 30
0.0
 11
191.4935243356
 21
-13.6388139559
 31
0.0
  0
LINE
  5
24B
330
147
100
AcDbEntity
  8
0
  6
Continuous
 62
     7
370
    15
100
AcDbLine
 10
159.4948033451
 20
-11.4945077621
 30
0.0
 11
160.3431016144
 21
-11.004795595
 31
0.0
  0
LINE
  5
24C
330
147
100
AcDbEntity
  8
0
  6
Continuous
 62
     7
370
    15
100
AcDbLine
 10
177.4243354849
 20
-1.5330379278
 30
0.0
 11
177.4243354849
 21
0.100043696
 31
0.0
  0
LINE
  5
24D
330
147
100
AcDbEntity
  8
0
  6
Continuous
 62
     7
370
    15
100
AcDbLine
 10
217.1920208588
 20
21.4243581767
 30
0.0
 11
217.1920208588
 21
23.0574398005
 31
0.0
  0
LINE
  5
24E
330
147
100
AcDbEntity
  8
0
  6
Continuous
 62
     7
370
    15
100
AcDbLine
 10
217.1920208588
 20
21.4243581767
 30
0.0
 11
177.4243354849
 21
-1.5330379278
 31
0.0
  0
LINE
  5
24F
330
147
100
AcDbEntity
  8
0
  6
Continuous
 62
     7
370
    15
100
AcDbLine
 10
132.0136111758
 20
24.5187335904
 30
0.0
 11
132.0136111758
 21
26.1518152142
 31
0.0
  0
LINE
  5
250
330
147
100
AcDbEntity
  8
0
  6
Continuous
 62
     7
370
    15
100
AcDbLine
 10
172.4196257957
 20
1.192837856
 30
0.0
 11
132.0136111758
 21
24.5187335904
 31
0.0
  0
LINE
  5
251
330
147
100
AcDbEntity
  8
0
  6
Continuous
 62
     7
370
    15
100
AcDbLine
 10
139.1978160727
 20
28.6660867985
 30
0.0
 11
139.1978160727
 21
30.2991684222
 31
0.0
  0
LINE
  5
252
330
147
100
AcDbEntity
  8
0
  6
Continuous
 62
     7
370
    15
100
AcDbLine
 10
139.1978160727
 20
28.6660867985
 30
0.0
 11
179.6038306925
 21
5.3401910641
 31
0.0
  0
LINE
  5
253
330
147
100
AcDbEntity
  8
0
  6
Continuous
 62
     7
370
    15
100
AcDbLine
 10
254.4257979931
 20
7.1797255957
 30
0.0
 11
254.4257979931
 21
5.5466439719
 31
0.0
  0
LINE
  5
254
330
147
100
AcDbEntity
  8
0
  6
Continuous
 62
     7
370
    15
100
AcDbLine
 10
254.4257979931
 20
5.5466439719
 30
0.0
 11
239.5765555881
 21
14.118929146
 31
0.0
  0
LINE
  5
255
330
147
100
AcDbEntity
  8
0
  6
Continuous
 62
     7
370
    15
100
AcDbLine
 10
250.8902640871
 20
23.9158264879
 30
0.0
 11
250.8902640871
 21
25.5489081117
 31
0.0
  0
LINE
  5
256
330
147
100
AcDbEntity
  8
0
  6
Continuous
 62
     7
370
    15
100
AcDbLine
 10
224.2630886707
 20
20.1181051978
 30
0.0
 11
224.2630886707
 21
21.7511868216
 31
0.0
  0
LINE
  5
257
330
147
100
AcDbEntity
  8
0
  6
Continuous
 62
     7
370
    15
100
AcDbLine
 10
96.1753003635
 20
26.0384875786
 30
0.0
 11
96.1753003635
 21
27.6715692024
 31
0.0
  0
LINE
  5
258
330
147
100
AcDbEntity
  8
0
  6
Continuous
 62
     7
370
    15
100
AcDbLine
 10
96.1753003635
 20
26.0384875786
 30
0.0
 11
109.789015175
 21
18.1794573022
 31
0.0
  0
LINE
  5
259
330
147
100
AcDbEntity
  8
0
  6
Continuous
 62
     7
370
    15
100
AcDbLine
 10
222.0003469709
 20
21.4243581767
 30
0.0
 11
222.0003469709
 21
23.0574398005
 31
0.0
  0
LINE
  5
25A
330
147
100
AcDbEntity
  8
0
  6
Continuous
 62
     7
370
    15
100
AcDbLine
 10
224.2630886707
 20
20.1181051978
 30
0.0
 11
222.0003469709
 21
21.4243581767
 31
0.0
  0
LINE
  5
25B
330
147
100
AcDbEntity
  8
0
  6
Continuous
 62
     7
370
    15
100
AcDbLine
 10
167.1426760652
 20
44.7983110881
 30
0.0
 11
167.1426760652
 21
46.4313927118
 31
0.0
  0
LINE
  5
25C
330
147
100
AcDbEntity
  8
0
  6
Continuous
 62
     7
370
    15
100
AcDbLine
 10
207.548690685
 20
21.4724153537
 30
0.0
 11
167.1426760652
 21
44.7983110881
 31
0.0
  0
LINE
  5
25D
330
147
100
AcDbEntity
  8
0
  6
Continuous
 62
     7
370
    15
100
AcDbLine
 10
235.8621058451
 20
32.5913975763
 30
0.0
 11
235.8621058451
 21
34.2244792001
 31
0.0
  0
LINE
  5
25E
330
147
100
AcDbEntity
  8
0
  6
Continuous
 62
     7
370
    15
100
AcDbLine
 10
235.8621058451
 20
32.5913975763
 30
0.0
 11
250.8902640871
 21
23.9158264879
 31
0.0
  0
LINE
  5
25F
330
147
100
AcDbEntity
  8
0
  6
Continuous
 62
     7
370
    15
100
AcDbLine
 10
90.8260964439
 20
38.7601329904
 30
0.0
 11
90.8260964439
 21
40.3932146142
 31
0.0
  0
LINE
  5
260
330
147
100
AcDbEntity
  8
0
  6
Continuous
 62
     7
370
    15
100
AcDbLine
 10
174.326880962
 20
48.9456642961
 30
0.0
 11
174.326880962
 21
50.5787459199
 31
0.0
  0
LINE
  5
261
330
147
100
AcDbEntity
  8
0
  6
Continuous
 62
     7
370
    15
100
AcDbLine
 10
174.326880962
 20
48.9456642961
 30
0.0
 11
214.7328955819
 21
25.6197685617
 31
0.0
  0
LINE
  5
262
330
147
100
AcDbEntity
  8
0
  6
Continuous
 62
     7
370
    15
100
AcDbLine
 10
120.5397340802
 20
31.3057434701
 30
0.0
 11
120.5397340802
 21
32.9388250938
 31
0.0
  0
LINE
  5
263
330
147
100
AcDbEntity
  8
0
  6
Continuous
 62
     7
370
    15
100
AcDbLine
 10
235.8621058451
 20
32.5913975763
 30
0.0
 11
235.0138075759
 21
32.1016854093
 31
0.0
  0
LINE
  5
264
330
147
100
AcDbEntity
  8
0
  6
Continuous
 62
     7
370
    15
100
AcDbLine
 10
160.3074194541
 20
54.2631395745
 30
0.0
 11
160.3074194541
 21
55.8962211983
 31
0.0
  0
LINE
  5
265
330
147
100
AcDbEntity
  8
0
  6
Continuous
 62
     7
370
    15
100
AcDbLine
 10
120.5397340802
 20
31.3057434701
 30
0.0
 11
160.3074194541
 21
54.2631395745
 31
0.0
  0
LINE
  5
266
330
147
100
AcDbEntity
  8
0
  6
Continuous
 62
     7
370
    15
100
AcDbLine
 10
260.6108431867
 20
48.511621157
 30
0.0
 11
260.6108431867
 21
46.8785395332
 31
0.0
  0
LINE
  5
267
330
147
100
AcDbEntity
  8
0
  6
Continuous
 62
     7
370
    15
100
AcDbLine
 10
260.6108431867
 20
46.8785395332
 30
0.0
 11
240.8120831816
 21
35.4489586677
 31
0.0
  0
LINE
  5
268
330
147
100
AcDbEntity
  8
0
  6
Continuous
 62
     7
370
    15
100
AcDbLine
 10
190.9297481843
 20
58.5302955289
 30
0.0
 11
190.9297481843
 21
60.1633771527
 31
0.0
  0
LINE
  5
269
330
147
100
AcDbEntity
  8
0
  6
Continuous
 62
     7
370
    15
100
AcDbLine
 10
190.9297481843
 20
58.5302955289
 30
0.0
 11
231.3357628041
 21
35.2043997945
 31
0.0
  0
LINE
  5
26A
330
147
100
AcDbEntity
  8
0
  6
Continuous
 62
     7
370
    15
100
AcDbLine
 10
90.8260964439
 20
38.7601329904
 30
0.0
 11
92.3057482795
 21
37.9059481676
 31
0.0
  0
LINE
  5
26B
330
147
100
AcDbEntity
  8
0
  6
Continuous
 62
     7
370
    15
100
AcDbLine
 10
198.608927828
 20
62.9633915761
 30
0.0
 11
198.608927828
 21
64.5964731999
 31
0.0
  0
LINE
  5
26C
330
147
100
AcDbEntity
  8
0
  6
Continuous
 62
     7
370
    15
100
AcDbLine
 10
239.0149424478
 20
39.6374958417
 30
0.0
 11
198.608927828
 21
62.9633915761
 31
0.0
  0
LINE
  5
26D
330
147
100
AcDbEntity
  8
0
  6
Continuous
 62
     7
370
    15
100
AcDbLine
 10
205.7931327248
 20
67.1107447842
 30
0.0
 11
205.7931327248
 21
68.743826408
 31
0.0
  0
LINE
  5
26E
330
147
100
AcDbEntity
  8
0
  6
Continuous
 62
     7
370
    15
100
AcDbLine
 10
246.1991473447
 20
43.7848490498
 30
0.0
 11
205.7931327248
 21
67.1107447842
 31
0.0
  0
LINE
  5
26F
330
147
100
AcDbEntity
  8
0
  6
Continuous
 62
     7
370
    15
100
AcDbLine
 10
167.378487266
 20
52.9568865956
 30
0.0
 11
167.378487266
 21
54.5899682194
 31
0.0
  0
LINE
  5
270
330
147
100
AcDbEntity
  8
0
  6
Continuous
 62
     7
370
    15
100
AcDbLine
 10
165.1157455662
 20
54.2631395745
 30
0.0
 11
165.1157455662
 21
55.8962211983
 31
0.0
  0
LINE
  5
271
330
147
100
AcDbEntity
  8
0
  6
Continuous
 62
     7
370
    15
100
AcDbLine
 10
165.1157455662
 20
54.2631395745
 30
0.0
 11
167.378487266
 21
52.9568865956
 31
0.0
  0
LINE
  5
272
330
147
100
AcDbEntity
  8
0
  6
Continuous
 62
     7
370
    15
100
AcDbLine
 10
171.6943045942
 20
69.63468075
 30
0.0
 11
171.6943045942
 21
71.2677623737
 31
0.0
  0
LINE
  5
273
330
147
100
AcDbEntity
  8
0
  6
Continuous
 62
     7
370
    15
100
AcDbLine
 10
171.6943045942
 20
69.63468075
 30
0.0
 11
185.3080194057
 21
61.7756504735
 31
0.0
  0
LINE
  5
274
330
147
100
AcDbEntity
  8
0
  6
Continuous
 62
     7
370
    15
100
AcDbLine
 10
139.8744994408
 20
73.3087826533
 30
0.0
 11
139.8744994408
 21
71.6757010295
 31
0.0
  0
LINE
  5
275
330
147
100
AcDbEntity
  8
0
  6
Continuous
 62
     7
370
    15
100
AcDbLine
 10
139.8744994408
 20
71.6757010295
 30
0.0
 11
153.3092984152
 21
63.9199566673
 31
0.0
  0
LINE
  5
276
330
147
100
AcDbEntity
  8
0
  6
Continuous
 62
     8
370
    15
100
AcDbLine
 10
172.7386834886
 20
1.3354784153
 30
0.0
 11
172.7386834886
 21
2.6417313942
 31
0.0
  0
LINE
  5
277
330
147
100
AcDbEntity
  8
0
  6
Continuous
 62
     8
370
    15
100
AcDbLine
 10
179.9228883855
 20
5.4828316233
 30
0.0
 11
179.9228883855
 21
6.7890846023
 31
0.0
  0
LINE
  5
278
330
147
100
AcDbEntity
  8
0
  6
Continuous
 62
     8
370
    15
100
AcDbLine
 10
207.867748378
 20
21.615055913
 30
0.0
 11
207.867748378
 21
22.9213088919
 31
0.0
  0
LINE
  5
279
330
147
100
AcDbEntity
  8
0
  6
Continuous
 62
     8
370
    15
100
AcDbLine
 10
215.0519532748
 20
25.762409121
 30
0.0
 11
215.0519532748
 21
27.0686620999
 31
0.0
  0
LINE
  5
27A
330
147
100
AcDbEntity
  8
0
  6
Continuous
 62
     8
370
    15
100
AcDbLine
 10
231.6548204971
 20
35.3470403538
 30
0.0
 11
231.6548204971
 21
36.6532933327
 31
0.0
  0
LINE
  5
27B
330
147
100
AcDbEntity
  8
0
  6
Continuous
 62
     8
370
    15
100
AcDbLine
 10
239.3340001408
 20
39.780136401
 30
0.0
 11
239.3340001408
 21
41.0863893799
 31
0.0
  0
LINE
  5
27C
330
147
100
AcDbEntity
  8
0
  6
Continuous
 62
     8
370
    15
100
AcDbLine
 10
246.5182050376
 20
43.9274896091
 30
0.0
 11
246.5182050376
 21
45.233742588
 31
0.0
  0
ARC
  5
27D
330
147
100
AcDbEntity
  8
0
  6
Continuous
 62
     7
370
    15
100
AcDbCircle
 10
187.374862394
 20
8.6203125068
 30
0.0
 40
31.40167021411084
100
AcDbArc
 50
242.9789377988
 51
288.633628955
  0
ARC
  5
27E
330
147
100
AcDbEntity
  8
0
  6
Continuous
 62
     7
370
    15
100
AcDbCircle
 10
187.3491991864
 20
5.3826173566
 30
0.0
 40
26.31409048071439
100
AcDbArc
 50
242.9227705165
 51
287.0307424855
  0
ARC
  5
27F
330
147
100
AcDbEntity
  8
0
  6
Continuous
 62
     7
370
    15
100
AcDbCircle
 10
219.5961839148
 20
18.4174221116
 30
0.0
 40
5.225874486899658
100
AcDbArc
 50
62.6096722366
 51
117.3903277634
  0
ARC
  5
280
330
147
100
AcDbEntity
  8
0
  6
Continuous
 62
     7
370
    15
100
AcDbCircle
 10
177.951087376
 20
-1.2878500941
 30
0.0
 40
1.484492077236541
100
AcDbArc
 50
110.7834207995
 51
249.2165792005
  0
ARC
  5
281
330
147
100
AcDbEntity
  8
0
  6
Continuous
 62
     7
370
    15
100
AcDbCircle
 10
182.0912402407
 20
0.6580208258
 30
0.0
 40
5.22587448689984
100
AcDbArc
 50
242.6096722366
 51
297.3903277634
  0
ARC
  5
282
330
147
100
AcDbEntity
  8
0
  6
Continuous
 62
     7
370
    15
100
AcDbCircle
 10
223.7363367796
 20
20.3632930315
 30
0.0
 40
1.484492077236486
100
AcDbArc
 50
290.7834207995
 51
69.2165792005
  0
ARC
  5
283
330
147
100
AcDbEntity
  8
0
  6
Continuous
 62
     7
370
    15
100
AcDbCircle
 10
157.4279603568
 20
43.2939118284
 30
0.0
 40
31.40167021411066
100
AcDbArc
 50
62.9789377988
 51
108.633628955
  0
ARC
  5
284
330
147
100
AcDbEntity
  8
0
  6
Continuous
 62
     7
370
    15
100
AcDbCircle
 10
157.4536235645
 20
46.5316069786
 30
0.0
 40
26.31409048071421
100
AcDbArc
 50
62.9227705165
 51
107.0307424855
  0
ARC
  5
285
330
147
100
AcDbEntity
  8
0
  6
Continuous
 62
     7
370
    15
100
AcDbCircle
 10
157.5521689705
 20
39.1910055294
 30
0.0
 40
38.42554769779327
100
AcDbArc
 50
62.6096722366
 51
117.3903277634
  0
ARC
  5
286
330
147
100
AcDbEntity
  8
0
  6
Continuous
 62
     7
370
    15
100
AcDbCircle
 10
187.2506537803
 20
12.7232188058
 30
0.0
 40
38.42554769779309
100
AcDbArc
 50
242.6096722366
 51
297.3903277634
  0
ARC
  5
287
330
147
100
AcDbEntity
  8
0
  6
Continuous
 62
     7
370
    15
100
AcDbCircle
 10
125.206638836
 20
33.4968022236
 30
0.0
 40
5.225874486899912
100
AcDbArc
 50
242.6096722366
 51
297.3903277634
  0
ARC
  5
288
330
147
100
AcDbEntity
  8
0
  6
Continuous
 62
     7
370
    15
100
AcDbCircle
 10
166.8517353749
 20
53.2020744293
 30
0.0
 40
1.484492077236536
100
AcDbArc
 50
290.7834207995
 51
69.2165792005
  0
ARC
  5
289
330
147
100
AcDbEntity
  8
0
  6
Continuous
 62
     7
370
    15
100
AcDbCircle
 10
162.7115825101
 20
51.2562035094
 30
0.0
 40
5.225874486899837
100
AcDbArc
 50
62.6096722366
 51
117.3903277634
  0
ARC
  5
28A
330
147
100
AcDbEntity
  8
0
  6
Continuous
 62
     7
370
    15
100
AcDbCircle
 10
121.0664859713
 20
31.5509313037
 30
0.0
 40
1.484492077236528
100
AcDbArc
 50
110.7834207995
 51
249.2165792005
  0
ARC
  5
28B
330
147
100
AcDbEntity
  8
0
  6
Continuous
 62
     7
370
    15
100
AcDbCircle
 10
187.2506537803
 20
11.090137182
 30
0.0
 40
38.42554769779308
100
AcDbArc
 50
242.6096722366
 51
297.3903277634
  0
ARC
  5
28C
330
147
100
AcDbEntity
  8
0
  6
Continuous
 62
     7
370
    15
100
AcDbCircle
 10
187.3491991864
 20
3.7495357328
 30
0.0
 40
26.31409048071443
100
AcDbArc
 50
242.9227705165
 51
287.0307424855
  0
ARC
  5
28D
330
147
100
AcDbEntity
  8
0
  6
Continuous
 62
     7
370
    15
100
AcDbCircle
 10
187.7668417306
 20
-10.636347943
 30
0.0
 40
2.58234192645314
100
AcDbArc
 50
73.7926700952
 51
106.2073299048
  0
ARC
  5
28E
330
147
100
AcDbEntity
  8
0
  6
Continuous
 62
     7
370
    15
100
AcDbCircle
 10
194.9510466275
 20
-6.488994736
 30
0.0
 40
2.58234192750053
100
AcDbArc
 50
73.7926701021
 51
106.2073298979
  0
ARC
  5
28F
330
147
100
AcDbEntity
  8
0
  6
Continuous
 62
     7
370
    15
100
AcDbCircle
 10
222.8959066199
 20
9.643229554
 30
0.0
 40
2.582341927056183
100
AcDbArc
 50
73.7926700992
 51
106.2073299008
  0
ARC
  5
290
330
147
100
AcDbEntity
  8
0
  6
Continuous
 62
     7
370
    15
100
AcDbCircle
 10
247.2999948105
 20
15.8448050771
 30
0.0
 40
6.248826630169883
100
AcDbArc
 50
326.2726203431
 51
359.1466997089
  0
ARC
  5
291
330
147
100
AcDbEntity
  8
0
  6
Continuous
 62
     7
370
    15
100
AcDbCircle
 10
230.0801115168
 20
13.7905827621
 30
0.0
 40
2.582341927047011
100
AcDbArc
 50
73.792670099
 51
106.207329901
  0
ARC
  5
292
330
147
100
AcDbEntity
  8
0
  6
Continuous
 62
     7
370
    15
100
AcDbCircle
 10
219.5961839148
 20
16.7843404879
 30
0.0
 40
5.22587448689967
100
AcDbArc
 50
62.6096722366
 51
117.3903277634
  0
ARC
  5
293
330
147
100
AcDbEntity
  8
0
  6
Continuous
 62
     7
370
    15
100
AcDbCircle
 10
130.874259083
 20
22.307486531
 30
0.0
 40
2.487516180688846
100
AcDbArc
 50
62.7400682044
 51
108.86548334
  0
ARC
  5
294
330
147
100
AcDbEntity
  8
0
  6
Continuous
 62
     7
370
    15
100
AcDbCircle
 10
96.5558542315
 20
32.4135770029
 30
0.0
 40
8.550374097497468
100
AcDbArc
 50
132.076156485
 51
171.2597109189
  0
ARC
  5
295
330
147
100
AcDbEntity
  8
0
  6
Continuous
 62
     7
370
    15
100
AcDbCircle
 10
138.057579323
 20
26.4427850095
 30
0.0
 40
2.498641769084414
100
AcDbArc
 50
62.848645441
 51
108.7569061035
  0
ARC
  5
296
330
147
100
AcDbEntity
  8
0
  6
Continuous
 62
     7
370
    15
100
AcDbCircle
 10
114.722711234
 20
31.5311310316
 30
0.0
 40
2.582341927471206
100
AcDbArc
 50
73.7926701018
 51
106.2073298982
  0
ARC
  5
297
330
147
100
AcDbEntity
  8
0
  6
Continuous
 62
     7
370
    15
100
AcDbCircle
 10
121.9069161309
 20
35.6784842411
 30
0.0
 40
2.582341926035197
100
AcDbArc
 50
73.7926700926
 51
106.2073299074
  0
ARC
  5
298
330
147
100
AcDbEntity
  8
0
  6
Continuous
 62
     7
370
    15
100
AcDbCircle
 10
166.0033239723
 20
42.5870640287
 30
0.0
 40
2.487516180688567
100
AcDbArc
 50
62.7400682044
 51
108.86548334
  0
ARC
  5
299
330
147
100
AcDbEntity
  8
0
  6
Continuous
 62
     7
370
    15
100
AcDbCircle
 10
173.1866442123
 20
46.7223625072
 30
0.0
 40
2.498641769084224
100
AcDbArc
 50
62.848645441
 51
108.7569061035
  0
ARC
  5
29A
330
147
100
AcDbEntity
  8
0
  6
Continuous
 62
     7
370
    15
100
AcDbCircle
 10
149.8517761234
 20
51.810708529
 30
0.0
 40
2.582341927765875
100
AcDbArc
 50
73.7926701037
 51
106.2073298963
  0
ARC
  5
29B
330
147
100
AcDbEntity
  8
0
  6
Continuous
 62
     7
370
    15
100
AcDbCircle
 10
162.7115825101
 20
49.6231218857
 30
0.0
 40
5.225874486899793
100
AcDbArc
 50
62.6096722366
 51
117.3903277634
  0
ARC
  5
29C
330
147
100
AcDbEntity
  8
0
  6
Continuous
 62
     7
370
    15
100
AcDbCircle
 10
157.0359810202
 20
55.9580617373
 30
0.0
 40
2.582341927458413
100
AcDbArc
 50
73.7926701017
 51
106.2073298983
  0
ARC
  5
29D
330
147
100
AcDbEntity
  8
0
  6
Continuous
 62
     7
370
    15
100
AcDbCircle
 10
189.7895114346
 20
56.30699374
 30
0.0
 40
2.498641769084503
100
AcDbArc
 50
62.848645441
 51
108.7569061035
  0
ARC
  5
29E
330
147
100
AcDbEntity
  8
0
  6
Continuous
 62
     7
370
    15
100
AcDbCircle
 10
197.4686910783
 20
60.7400897872
 30
0.0
 40
2.498641769083946
100
AcDbArc
 50
62.848645441
 51
108.7569061035
  0
ARC
  5
29F
330
147
100
AcDbEntity
  8
0
  6
Continuous
 62
     7
370
    15
100
AcDbCircle
 10
157.4575474398
 20
41.8882905997
 30
0.0
 40
31.1856925632204
100
AcDbArc
 50
62.8375027903
 51
105.2502779429
  0
ARC
  5
2A0
330
147
100
AcDbEntity
  8
0
  6
Continuous
 62
     7
370
    15
100
AcDbCircle
 10
204.6528959751
 20
64.8874429952
 30
0.0
 40
2.498641769084891
100
AcDbArc
 50
62.848645441
 51
108.7569061035
  0
VIEWPORT
  5
2A5
330
147
100
AcDbEntity
  8
0
100
AcDbViewport
 10
0.0
 20
0.0
 30
0.0
 40
205.6
 41
156.0
 68
     1
 69
     1
 12
93.7000052063
 22
165.112408933
 13
0.0
 23
0.0
 14
10.0
 24
10.0
 15
10.0
 25
10.0
 16
0.0
 26
0.0
 36
1.0
 17
0.0
 27
0.0
 37
0.0
 42
50.0
 43
0.0
 44
0.0
 45
153.0
 50
0.0
 51
0.0
 72
   100
 90
   557152
  1

281
     0
 71
     1
 74
     0
110
0.0
120
0.0
130
0.0
111
1.0
121
0.0
131
0.0
112
0.0
122
1.0
132
0.0
 79
     0
146
0.0
  0
MTEXT
  5
2AE
330
147
100
AcDbEntity
  8
0
  6
Continuous
 62
     7
100
AcDbMText
 10
83.0546942874
 20
-28.3549769075
 30
0.0
 40
4.83362
 41
0.0
 71
     1
 72
     1
  1
SolidWorks Student Edition.
  7
SLDTEXTSTYLE0
 73
     1
 44
1.0
  0
MTEXT
  5
2AF
330
147
100
AcDbEntity
  8
0
  6
Continuous
 62
     7
100
AcDbMText
 10
83.0546942874
 20
-35.6054069075
 30
0.0
 40
4.83362
 41
0.0
 71
     1
 72
     1
  1
For Academic Use Only.
  7
SLDTEXTSTYLE0
 73
     1
 44
1.0
  0
ENDBLK
  5
14A
330
147
100
AcDbEntity
  8
0
100
AcDbBlockEnd
  0
ENDSEC
  0
SECTION
  2
ENTITIES
  0
CIRCLE
  5
95
330
1F
100
AcDbEntity
  8
0
  6
Continuous
 62
     7
370
    15
100
AcDbCircle
 10
145.3500052063
 20
169.872408933
 30
0.0
 40
1.587499999999977
  0
CIRCLE
  5
96
330
1F
100
AcDbEntity
  8
0
  6
Continuous
 62
     7
370
    15
100
AcDbCircle
 10
145.3500052063
 20
130.352408933
 30
0.0
 40
1.587500000000006
  0
CIRCLE
  5
97
330
1F
100
AcDbEntity
  8
0
  6
Continuous
 62
     7
370
    15
100
AcDbCircle
 10
145.3500052063
 20
120.192408933
 30
0.0
 40
1.587500000000006
  0
CIRCLE
  5
98
330
1F
100
AcDbEntity
  8
0
  6
Continuous
 62
     7
370
    15
100
AcDbCircle
 10
42.0500052063
 20
130.352408933
 30
0.0
 40
1.587499999999977
  0
CIRCLE
  5
99
330
1F
100
AcDbEntity
  8
0
  6
Continuous
 62
     7
370
    15
100
AcDbCircle
 10
42.0500052063
 20
169.872408933
 30
0.0
 40
1.587500000000006
  0
CIRCLE
  5
9A
330
1F
100
AcDbEntity
  8
0
  6
Continuous
 62
     7
370
    15
100
AcDbCircle
 10
42.0500052063
 20
180.032408933
 30
0.0
 40
1.587499999999977
  0
CIRCLE
  5
AB
330
1F
100
AcDbEntity
  8
0
  6
Continuous
 62
     7
370
    15
100
AcDbCircle
 10
86.6939684838
 20
235.3295140002
 30
0.0
 40
1.249999999999972
  0
CIRCLE
  5
AC
330
1F
100
AcDbEntity
  8
0
  6
Continuous
 62
     7
370
    15
100
AcDbCircle
 10
100.7060419289
 20
94.8953038658
 30
0.0
 40
1.250000000000014
  0
CIRCLE
  5
AD
330
1F
100
AcDbEntity
  8
0
  6
Continuous
 62
     7
370
    15
100
AcDbCircle
 10
86.6939684838
 20
94.8953038658
 30
0.0
 40
1.249999999999972
  0
CIRCLE
  5
AE
330
1F
100
AcDbEntity
  8
0
  6
Continuous
 62
     7
370
    15
100
AcDbCircle
 10
100.7060419289
 20
235.3295140002
 30
0.0
 40
1.250000000000028
  0
CIRCLE
  5
AF
330
1F
100
AcDbEntity
  8
0
  6
Continuous
 62
     7
370
    15
100
AcDbCircle
 10
42.0500052063
 20
120.192408933
 30
0.0
 40
1.587499999999963
  0
CIRCLE
  5
B0
330
1F
100
AcDbEntity
  8
0
  6
Continuous
 62
     7
370
    15
100
AcDbCircle
 10
145.3500052063
 20
180.032408933
 30
0.0
 40
1.587499999999949
  0
LINE
  5
CF
330
1F
100
AcDbEntity
  8
0
  6
Continuous
 62
     7
370
    15
100
AcDbLine
 10
122.496980003
 20
128.752408933
 30
0.0
 11
64.9030304096
 21
128.752408933
 31
0.0
  0
LINE
  5
D0
330
1F
100
AcDbEntity
  8
0
  6
Continuous
 62
     7
370
    15
100
AcDbLine
 10
64.9030304096
 20
131.952408933
 30
0.0
 11
122.496980003
 21
131.952408933
 31
0.0
  0
LINE
  5
D1
330
1F
100
AcDbEntity
  8
0
  6
Continuous
 62
     7
370
    15
100
AcDbLine
 10
128.446980003
 20
95.112408933
 30
0.0
 11
128.446980003
 21
98.312408933
 31
0.0
  0
LINE
  5
D2
330
1F
100
AcDbEntity
  8
0
  6
Continuous
 62
     7
370
    15
100
AcDbLine
 10
149.7000052063
 20
95.112408933
 30
0.0
 11
128.446980003
 21
95.112408933
 31
0.0
  0
LINE
  5
D3
330
1F
100
AcDbEntity
  8
0
  6
Continuous
 62
     7
370
    15
100
AcDbLine
 10
169.0649219374
 20
110.112408933
 30
0.0
 11
165.7387083958
 21
110.112408933
 31
0.0
  0
LINE
  5
D4
330
1F
100
AcDbEntity
  8
0
  6
Continuous
 62
     7
370
    15
100
AcDbLine
 10
149.7000052063
 20
98.312408933
 30
0.0
 11
128.446980003
 21
98.312408933
 31
0.0
  0
LINE
  5
D5
330
1F
100
AcDbEntity
  8
0
  6
Continuous
 62
     7
370
    15
100
AcDbLine
 10
128.9234926047
 20
178.232408933
 30
0.0
 11
128.9234926047
 21
121.992408933
 31
0.0
  0
LINE
  5
D6
330
1F
100
AcDbEntity
  8
0
  6
Continuous
 62
     7
370
    15
100
AcDbLine
 10
132.3234926047
 20
118.592408933
 30
0.0
 11
135.5234926047
 21
118.592408933
 31
0.0
  0
LINE
  5
D7
330
1F
100
AcDbEntity
  8
0
  6
Continuous
 62
     7
370
    15
100
AcDbLine
 10
138.9234926047
 20
121.992408933
 30
0.0
 11
138.9234926047
 21
178.232408933
 31
0.0
  0
LINE
  5
D8
330
1F
100
AcDbEntity
  8
0
  6
Continuous
 62
     7
370
    15
100
AcDbLine
 10
135.5234926047
 20
181.632408933
 30
0.0
 11
132.3234926047
 21
181.632408933
 31
0.0
  0
LINE
  5
D9
330
1F
100
AcDbEntity
  8
0
  6
Continuous
 62
     7
370
    15
100
AcDbLine
 10
122.496980003
 20
171.472408933
 30
0.0
 11
64.9030304096
 21
171.472408933
 31
0.0
  0
LINE
  5
DA
330
1F
100
AcDbEntity
  8
0
  6
Continuous
 62
     7
370
    15
100
AcDbLine
 10
64.9030304096
 20
168.272408933
 30
0.0
 11
122.496980003
 21
168.272408933
 31
0.0
  0
LINE
  5
DB
330
1F
100
AcDbEntity
  8
0
  6
Continuous
 62
     7
370
    15
100
AcDbLine
 10
128.446980003
 20
205.112408933
 30
0.0
 11
128.446980003
 21
201.912408933
 31
0.0
  0
LINE
  5
DC
330
1F
100
AcDbEntity
  8
0
  6
Continuous
 62
     7
370
    15
100
AcDbLine
 10
128.446980003
 20
201.912408933
 30
0.0
 11
149.7000052063
 21
201.912408933
 31
0.0
  0
LINE
  5
DD
330
1F
100
AcDbEntity
  8
0
  6
Continuous
 62
     7
370
    15
100
AcDbLine
 10
169.0649219374
 20
190.112408933
 30
0.0
 11
165.7387083958
 21
190.112408933
 31
0.0
  0
LINE
  5
DE
330
1F
100
AcDbEntity
  8
0
  6
Continuous
 62
     7
370
    15
100
AcDbLine
 10
128.446980003
 20
205.112408933
 30
0.0
 11
149.7000052063
 21
205.112408933
 31
0.0
  0
LINE
  5
DF
330
1F
100
AcDbEntity
  8
0
  6
Continuous
 62
     7
370
    15
100
AcDbLine
 10
122.496980003
 20
212.772408933
 30
0.0
 11
64.9030304096
 21
212.772408933
 31
0.0
  0
LINE
  5
E0
330
1F
100
AcDbEntity
  8
0
  6
Continuous
 62
     7
370
    15
100
AcDbLine
 10
122.496980003
 20
215.972408933
 30
0.0
 11
64.9030304096
 21
215.972408933
 31
0.0
  0
LINE
  5
E1
330
1F
100
AcDbEntity
  8
0
  6
Continuous
 62
     7
370
    15
100
AcDbLine
 10
58.9530304096
 20
205.112408933
 30
0.0
 11
58.9530304096
 21
201.912408933
 31
0.0
  0
LINE
  5
E2
330
1F
100
AcDbEntity
  8
0
  6
Continuous
 62
     7
370
    15
100
AcDbLine
 10
37.7000052063
 20
205.112408933
 30
0.0
 11
58.9530304096
 21
205.112408933
 31
0.0
  0
LINE
  5
E3
330
1F
100
AcDbEntity
  8
0
  6
Continuous
 62
     7
370
    15
100
AcDbLine
 10
18.3350884753
 20
190.112408933
 30
0.0
 11
21.6613020169
 21
190.112408933
 31
0.0
  0
LINE
  5
E4
330
1F
100
AcDbEntity
  8
0
  6
Continuous
 62
     7
370
    15
100
AcDbLine
 10
37.7000052063
 20
201.912408933
 30
0.0
 11
58.9530304096
 21
201.912408933
 31
0.0
  0
LINE
  5
E5
330
1F
100
AcDbEntity
  8
0
  6
Continuous
 62
     7
370
    15
100
AcDbLine
 10
12.7000052063
 20
185.112408933
 30
0.0
 11
33.7000052063
 21
185.112408933
 31
0.0
  0
LINE
  5
E6
330
1F
100
AcDbEntity
  8
0
  6
Continuous
 62
     7
370
    15
100
AcDbLine
 10
37.7000052063
 20
210.112408933
 30
0.0
 11
58.9530304096
 21
210.112408933
 31
0.0
  0
LINE
  5
E7
330
1F
100
AcDbEntity
  8
0
  6
Continuous
 62
     7
370
    15
100
AcDbLine
 10
58.9530304096
 20
210.112408933
 30
0.0
 11
58.9530304096
 21
240.112408933
 31
0.0
  0
LINE
  5
E8
330
1F
100
AcDbEntity
  8
0
  6
Continuous
 62
     7
370
    15
100
AcDbLine
 10
58.9530304096
 20
240.112408933
 30
0.0
 11
128.446980003
 21
240.112408933
 31
0.0
  0
LINE
  5
E9
330
1F
100
AcDbEntity
  8
0
  6
Continuous
 62
     7
370
    15
100
AcDbLine
 10
128.446980003
 20
240.112408933
 30
0.0
 11
128.446980003
 21
210.112408933
 31
0.0
  0
LINE
  5
EA
330
1F
100
AcDbEntity
  8
0
  6
Continuous
 62
     7
370
    15
100
AcDbLine
 10
149.7000052063
 20
210.112408933
 30
0.0
 11
128.446980003
 21
210.112408933
 31
0.0
  0
LINE
  5
EB
330
1F
100
AcDbEntity
  8
0
  6
Continuous
 62
     7
370
    15
100
AcDbLine
 10
174.7000052063
 20
185.112408933
 30
0.0
 11
153.7000052063
 21
185.112408933
 31
0.0
  0
LINE
  5
EC
330
1F
100
AcDbEntity
  8
0
  6
Continuous
 62
     7
370
    15
100
AcDbLine
 10
153.7000052063
 20
185.112408933
 30
0.0
 11
153.7000052063
 21
115.112408933
 31
0.0
  0
LINE
  5
ED
330
1F
100
AcDbEntity
  8
0
  6
Continuous
 62
     7
370
    15
100
AcDbLine
 10
174.7000052063
 20
115.112408933
 30
0.0
 11
153.7000052063
 21
115.112408933
 31
0.0
  0
LINE
  5
EE
330
1F
100
AcDbEntity
  8
0
  6
Continuous
 62
     7
370
    15
100
AcDbLine
 10
37.7000052063
 20
90.112408933
 30
0.0
 11
149.7000052063
 21
90.112408933
 31
0.0
  0
LINE
  5
EF
330
1F
100
AcDbEntity
  8
0
  6
Continuous
 62
     7
370
    15
100
AcDbLine
 10
12.7000052063
 20
115.112408933
 30
0.0
 11
33.7000052063
 21
115.112408933
 31
0.0
  0
LINE
  5
F0
330
1F
100
AcDbEntity
  8
0
  6
Continuous
 62
     7
370
    15
100
AcDbLine
 10
33.7000052063
 20
115.112408933
 30
0.0
 11
33.7000052063
 21
185.112408933
 31
0.0
  0
LINE
  5
F1
330
1F
100
AcDbEntity
  8
0
  6
Continuous
 62
     7
370
    15
100
AcDbLine
 10
64.9030304096
 20
201.912408933
 30
0.0
 11
122.496980003
 21
201.912408933
 31
0.0
  0
LINE
  5
F2
330
1F
100
AcDbEntity
  8
0
  6
Continuous
 62
     7
370
    15
100
AcDbLine
 10
64.9030304096
 20
205.112408933
 30
0.0
 11
122.496980003
 21
205.112408933
 31
0.0
  0
LINE
  5
F3
330
1F
100
AcDbEntity
  8
0
  6
Continuous
 62
     7
370
    15
100
AcDbLine
 10
122.496980003
 20
222.932408933
 30
0.0
 11
64.9030304096
 21
222.932408933
 31
0.0
  0
LINE
  5
F4
330
1F
100
AcDbEntity
  8
0
  6
Continuous
 62
     7
370
    15
100
AcDbLine
 10
122.496980003
 20
226.132408933
 30
0.0
 11
64.9030304096
 21
226.132408933
 31
0.0
  0
LINE
  5
F5
330
1F
100
AcDbEntity
  8
0
  6
Continuous
 62
     7
370
    15
100
AcDbLine
 10
58.476517808
 20
178.232408933
 30
0.0
 11
58.476517808
 21
121.992408933
 31
0.0
  0
LINE
  5
F6
330
1F
100
AcDbEntity
  8
0
  6
Continuous
 62
     7
370
    15
100
AcDbLine
 10
51.876517808
 20
181.632408933
 30
0.0
 11
55.076517808
 21
181.632408933
 31
0.0
  0
LINE
  5
F7
330
1F
100
AcDbEntity
  8
0
  6
Continuous
 62
     7
370
    15
100
AcDbLine
 10
48.476517808
 20
121.992408933
 30
0.0
 11
48.476517808
 21
178.232408933
 31
0.0
  0
LINE
  5
F8
330
1F
100
AcDbEntity
  8
0
  6
Continuous
 62
     7
370
    15
100
AcDbLine
 10
55.076517808
 20
118.592408933
 30
0.0
 11
51.876517808
 21
118.592408933
 31
0.0
  0
LINE
  5
F9
330
1F
100
AcDbEntity
  8
0
  6
Continuous
 62
     7
370
    15
100
AcDbLine
 10
122.496980003
 20
178.432408933
 30
0.0
 11
64.9030304096
 21
178.432408933
 31
0.0
  0
LINE
  5
FA
330
1F
100
AcDbEntity
  8
0
  6
Continuous
 62
     7
370
    15
100
AcDbLine
 10
64.9030304096
 20
181.632408933
 30
0.0
 11
122.496980003
 21
181.632408933
 31
0.0
  0
LINE
  5
FB
330
1F
100
AcDbEntity
  8
0
  6
Continuous
 62
     7
370
    15
100
AcDbLine
 10
58.9530304096
 20
95.112408933
 30
0.0
 11
58.9530304096
 21
98.312408933
 31
0.0
  0
LINE
  5
FC
330
1F
100
AcDbEntity
  8
0
  6
Continuous
 62
     7
370
    15
100
AcDbLine
 10
37.7000052063
 20
98.312408933
 30
0.0
 11
58.9530304096
 21
98.312408933
 31
0.0
  0
LINE
  5
FD
330
1F
100
AcDbEntity
  8
0
  6
Continuous
 62
     7
370
    15
100
AcDbLine
 10
18.3350884753
 20
110.112408933
 30
0.0
 11
21.6613020169
 21
110.112408933
 31
0.0
  0
LINE
  5
FE
330
1F
100
AcDbEntity
  8
0
  6
Continuous
 62
     7
370
    15
100
AcDbLine
 10
37.7000052063
 20
95.112408933
 30
0.0
 11
58.9530304096
 21
95.112408933
 31
0.0
  0
LINE
  5
FF
330
1F
100
AcDbEntity
  8
0
  6
Continuous
 62
     7
370
    15
100
AcDbLine
 10
122.496980003
 20
121.792408933
 30
0.0
 11
64.9030304096
 21
121.792408933
 31
0.0
  0
LINE
  5
100
330
1F
100
AcDbEntity
  8
0
  6
Continuous
 62
     7
370
    15
100
AcDbLine
 10
64.9030304096
 20
118.592408933
 30
0.0
 11
122.496980003
 21
118.592408933
 31
0.0
  0
ARC
  5
101
330
1F
100
AcDbEntity
  8
0
  6
Continuous
 62
     7
370
    15
100
AcDbCircle
 10
64.9030304096
 20
130.352408933
 30
0.0
 40
1.599999999999994
100
AcDbArc
 50
90.0
 51
270.0
  0
ARC
  5
102
330
1F
100
AcDbEntity
  8
0
  6
Continuous
 62
     7
370
    15
100
AcDbCircle
 10
122.496980003
 20
130.352408933
 30
0.0
 40
1.599999999999966
100
AcDbArc
 50
270.0
 51
90.0
  0
ARC
  5
103
330
1F
100
AcDbEntity
  8
0
  6
Continuous
 62
     7
370
    15
100
AcDbCircle
 10
149.7000052063
 20
115.112408933
 30
0.0
 40
19.99999999999999
100
AcDbArc
 50
270.0
 51
345.5224878141
  0
ARC
  5
104
330
1F
100
AcDbEntity
  8
0
  6
Continuous
 62
     7
370
    15
100
AcDbCircle
 10
149.7000052063
 20
115.112408933
 30
0.0
 40
16.80000000000004
100
AcDbArc
 50
270.0
 51
342.6853464127
  0
ARC
  5
105
330
1F
100
AcDbEntity
  8
0
  6
Continuous
 62
     7
370
    15
100
AcDbCircle
 10
132.3234926047
 20
178.232408933
 30
0.0
 40
3.39999999999992
100
AcDbArc
 50
90.0
 51
180.0
  0
ARC
  5
106
330
1F
100
AcDbEntity
  8
0
  6
Continuous
 62
     7
370
    15
100
AcDbCircle
 10
132.3234926047
 20
121.992408933
 30
0.0
 40
3.400000000000034
100
AcDbArc
 50
180.0
 51
270.0
  0
ARC
  5
107
330
1F
100
AcDbEntity
  8
0
  6
Continuous
 62
     7
370
    15
100
AcDbCircle
 10
135.5234926047
 20
121.992408933
 30
0.0
 40
3.400000000000006
100
AcDbArc
 50
270.0
 51
0.0
  0
ARC
  5
108
330
1F
100
AcDbEntity
  8
0
  6
Continuous
 62
     7
370
    15
100
AcDbCircle
 10
135.5234926047
 20
178.232408933
 30
0.0
 40
3.399999999999977
100
AcDbArc
 50
0.0
 51
90.0
  0
ARC
  5
109
330
1F
100
AcDbEntity
  8
0
  6
Continuous
 62
     7
370
    15
100
AcDbCircle
 10
122.496980003
 20
169.872408933
 30
0.0
 40
1.599999999999994
100
AcDbArc
 50
270.0
 51
90.0
  0
ARC
  5
10A
330
1F
100
AcDbEntity
  8
0
  6
Continuous
 62
     7
370
    15
100
AcDbCircle
 10
64.9030304096
 20
169.872408933
 30
0.0
 40
1.599999999999994
100
AcDbArc
 50
90.0
 51
270.0
  0
ARC
  5
10B
330
1F
100
AcDbEntity
  8
0
  6
Continuous
 62
     7
370
    15
100
AcDbCircle
 10
149.7000052063
 20
185.112408933
 30
0.0
 40
16.80000000000007
100
AcDbArc
 50
17.3146535873
 51
90.0
  0
ARC
  5
10C
330
1F
100
AcDbEntity
  8
0
  6
Continuous
 62
     7
370
    15
100
AcDbCircle
 10
149.7000052063
 20
185.112408933
 30
0.0
 40
20.00000000000003
100
AcDbArc
 50
14.4775121859
 51
90.0
  0
ARC
  5
10D
330
1F
100
AcDbEntity
  8
0
  6
Continuous
 62
     7
370
    15
100
AcDbCircle
 10
64.9030304096
 20
214.372408933
 30
0.0
 40
1.600000000000023
100
AcDbArc
 50
90.0
 51
270.0
  0
ARC
  5
10E
330
1F
100
AcDbEntity
  8
0
  6
Continuous
 62
     7
370
    15
100
AcDbCircle
 10
122.496980003
 20
214.372408933
 30
0.0
 40
1.599999999999966
100
AcDbArc
 50
270.0
 51
90.0
  0
ARC
  5
10F
330
1F
100
AcDbEntity
  8
0
  6
Continuous
 62
     7
370
    15
100
AcDbCircle
 10
37.7000052063
 20
185.112408933
 30
0.0
 40
20.0
100
AcDbArc
 50
90.0
 51
165.5224878141
  0
ARC
  5
110
330
1F
100
AcDbEntity
  8
0
  6
Continuous
 62
     7
370
    15
100
AcDbCircle
 10
37.7000052063
 20
185.112408933
 30
0.0
 40
16.80000000000004
100
AcDbArc
 50
90.0
 51
162.6853464127
  0
ARC
  5
111
330
1F
100
AcDbEntity
  8
0
  6
Continuous
 62
     7
370
    15
100
AcDbCircle
 10
37.7000052063
 20
185.112408933
 30
0.0
 40
25.00000000000006
100
AcDbArc
 50
90.0
 51
180.0
  0
ARC
  5
112
330
1F
100
AcDbEntity
  8
0
  6
Continuous
 62
     7
370
    15
100
AcDbCircle
 10
149.7000052063
 20
185.112408933
 30
0.0
 40
24.99999999999997
100
AcDbArc
 50
0.0
 51
90.0
  0
ARC
  5
113
330
1F
100
AcDbEntity
  8
0
  6
Continuous
 62
     7
370
    15
100
AcDbCircle
 10
149.7000052063
 20
115.112408933
 30
0.0
 40
24.99999999999997
100
AcDbArc
 50
270.0
 51
0.0
  0
ARC
  5
114
330
1F
100
AcDbEntity
  8
0
  6
Continuous
 62
     7
370
    15
100
AcDbCircle
 10
37.7000052063
 20
115.112408933
 30
0.0
 40
25.00000000000001
100
AcDbArc
 50
180.0
 51
270.0
  0
ARC
  5
115
330
1F
100
AcDbEntity
  8
0
  6
Continuous
 62
     7
370
    15
100
AcDbCircle
 10
122.496980003
 20
203.512408933
 30
0.0
 40
1.600000000000023
100
AcDbArc
 50
270.0
 51
90.0
  0
ARC
  5
116
330
1F
100
AcDbEntity
  8
0
  6
Continuous
 62
     7
370
    15
100
AcDbCircle
 10
64.9030304096
 20
203.512408933
 30
0.0
 40
1.600000000000023
100
AcDbArc
 50
90.0
 51
270.0
  0
ARC
  5
117
330
1F
100
AcDbEntity
  8
0
  6
Continuous
 62
     7
370
    15
100
AcDbCircle
 10
64.9030304096
 20
224.532408933
 30
0.0
 40
1.600000000000023
100
AcDbArc
 50
90.0
 51
270.0
  0
ARC
  5
118
330
1F
100
AcDbEntity
  8
0
  6
Continuous
 62
     7
370
    15
100
AcDbCircle
 10
122.496980003
 20
224.532408933
 30
0.0
 40
1.600000000000023
100
AcDbArc
 50
270.0
 51
90.0
  0
ARC
  5
119
330
1F
100
AcDbEntity
  8
0
  6
Continuous
 62
     7
370
    15
100
AcDbCircle
 10
55.076517808
 20
121.992408933
 30
0.0
 40
3.400000000000027
100
AcDbArc
 50
270.0
 51
0.0
  0
ARC
  5
11A
330
1F
100
AcDbEntity
  8
0
  6
Continuous
 62
     7
370
    15
100
AcDbCircle
 10
55.076517808
 20
178.232408933
 30
0.0
 40
3.399999999999977
100
AcDbArc
 50
0.0
 51
90.0
  0
ARC
  5
11B
330
1F
100
AcDbEntity
  8
0
  6
Continuous
 62
     7
370
    15
100
AcDbCircle
 10
51.876517808
 20
178.232408933
 30
0.0
 40
3.399999999999977
100
AcDbArc
 50
90.0
 51
180.0
  0
ARC
  5
11C
330
1F
100
AcDbEntity
  8
0
  6
Continuous
 62
     7
370
    15
100
AcDbCircle
 10
51.876517808
 20
121.992408933
 30
0.0
 40
3.399999999999991
100
AcDbArc
 50
180.0
 51
270.0
  0
ARC
  5
11D
330
1F
100
AcDbEntity
  8
0
  6
Continuous
 62
     7
370
    15
100
AcDbCircle
 10
64.9030304096
 20
180.032408933
 30
0.0
 40
1.599999999999994
100
AcDbArc
 50
90.0
 51
270.0
  0
ARC
  5
11E
330
1F
100
AcDbEntity
  8
0
  6
Continuous
 62
     7
370
    15
100
AcDbCircle
 10
122.496980003
 20
180.032408933
 30
0.0
 40
1.599999999999994
100
AcDbArc
 50
270.0
 51
90.0
  0
ARC
  5
11F
330
1F
100
AcDbEntity
  8
0
  6
Continuous
 62
     7
370
    15
100
AcDbCircle
 10
37.7000052063
 20
115.112408933
 30
0.0
 40
16.79999999999997
100
AcDbArc
 50
197.3146535873
 51
270.0
  0
ARC
  5
120
330
1F
100
AcDbEntity
  8
0
  6
Continuous
 62
     7
370
    15
100
AcDbCircle
 10
37.7000052063
 20
115.112408933
 30
0.0
 40
19.99999999999993
100
AcDbArc
 50
194.4775121859
 51
270.0
  0
ARC
  5
121
330
1F
100
AcDbEntity
  8
0
  6
Continuous
 62
     7
370
    15
100
AcDbCircle
 10
122.496980003
 20
120.192408933
 30
0.0
 40
1.600000000000009
100
AcDbArc
 50
270.0
 51
90.0
  0
ARC
  5
122
330
1F
100
AcDbEntity
  8
0
  6
Continuous
 62
     7
370
    15
100
AcDbCircle
 10
64.9030304096
 20
120.192408933
 30
0.0
 40
1.600000000000009
100
AcDbArc
 50
90.0
 51
270.0
  0
MTEXT
  5
2AA
330
1F
100
AcDbEntity
  8
0
  6
Continuous
 62
     7
100
AcDbMText
 10
12.7000052063
 20
89.0928425414
 30
0.0
 40
4.83362
 41
0.0
 71
     1
 72
     1
  1
SolidWorks Student Edition.
  7
SLDTEXTSTYLE0
 73
     1
 44
1.0
  0
MTEXT
  5
2AB
330
1F
100
AcDbEntity
  8
0
  6
Continuous
 62
     7
100
AcDbMText
 10
12.7000052063
 20
81.8424125414
 30
0.0
 40
4.83362
 41
0.0
 71
     1
 72
     1
  1
For Academic Use Only.
  7
SLDTEXTSTYLE0
 73
     1
 44
1.0
  0
LINE
  5
12D
330
1B
100
AcDbEntity
 67
     1
  8
0
  6
Continuous
 62
     7
370
    15
100
AcDbLine
 10
149.7000052063
 20
3.5875
 30
0.0
 11
149.7000052063
 21
1.5875
 31
0.0
  0
LINE
  5
12E
330
1B
100
AcDbEntity
 67
     1
  8
0
  6
Continuous
 62
     7
370
    15
100
AcDbLine
 10
174.7000052063
 20
3.5875
 30
0.0
 11
174.7000052063
 21
1.5875
 31
0.0
  0
LINE
  5
12F
330
1B
100
AcDbEntity
 67
     1
  8
0
  6
Continuous
 62
     7
370
    15
100
AcDbLine
 10
12.7000052063
 20
1.5875
 30
0.0
 11
174.7000052063
 21
1.5875
 31
0.0
  0
LINE
  5
130
330
1B
100
AcDbEntity
 67
     1
  8
0
  6
Continuous
 62
     7
370
    15
100
AcDbLine
 10
12.7000052063
 20
3.5875
 30
0.0
 11
174.7000052063
 21
3.5875
 31
0.0
  0
LINE
  5
131
330
1B
100
AcDbEntity
 67
     1
  8
0
  6
Continuous
 62
     7
370
    15
100
AcDbLine
 10
37.7000052063
 20
3.5875
 30
0.0
 11
37.7000052063
 21
1.5875
 31
0.0
  0
LINE
  5
132
330
1B
100
AcDbEntity
 67
     1
  8
0
  6
Continuous
 62
     7
370
    15
100
AcDbLine
 10
12.7000052063
 20
3.5875
 30
0.0
 11
12.7000052063
 21
1.5875
 31
0.0
  0
VIEWPORT
  5
2A1
330
1B
100
AcDbEntity
 67
     1
  8
0
100
AcDbViewport
 10
0.0
 20
0.0
 30
0.0
 40
205.6
 41
156.0
 68
     1
 69
     1
 12
93.7000052063
 22
165.112408933
 13
0.0
 23
0.0
 14
10.0
 24
10.0
 15
10.0
 25
10.0
 16
0.0
 26
0.0
 36
1.0
 17
0.0
 27
0.0
 37
0.0
 42
50.0
 43
0.0
 44
0.0
 45
153.0
 50
0.0
 51
0.0
 72
   100
 90
   557152
  1

281
     0
 71
     1
 74
     0
110
0.0
120
0.0
130
0.0
111
1.0
121
0.0
131
0.0
112
0.0
122
1.0
132
0.0
 79
     0
146
0.0
  0
MTEXT
  5
2A8
330
1B
100
AcDbEntity
 67
     1
  8
0
  6
Continuous
 62
     7
100
AcDbMText
 10
12.7000052063
 20
0.5679336083
 30
0.0
 40
4.83362
 41
0.0
 71
     1
 72
     1
  1
SolidWorks Student Edition.
  7
SLDTEXTSTYLE0
 73
     1
 44
1.0
  0
MTEXT
  5
2A9
330
1B
100
AcDbEntity
 67
     1
  8
0
  6
Continuous
 62
     7
100
AcDbMText
 10
12.7000052063
 20
-6.6824963917
 30
0.0
 40
4.83362
 41
0.0
 71
     1
 72
     1
  1
For Academic Use Only.
  7
SLDTEXTSTYLE0
 73
     1
 44
1.0
  0
ENDSEC
  0
SECTION
  2
OBJECTS
  0
DICTIONARY
  5
C
330
0
100
AcDbDictionary
281
     1
  3
ACAD_GROUP
350
D
  3
ACAD_LAYOUT
350
1A
  3
ACAD_MLINESTYLE
350
17
  3
ACAD_PLOTSETTINGS
350
19
  3
ACAD_PLOTSTYLENAME
350
E
  3
ACAD_SCALELIST
350
47
  0
DICTIONARY
  5
D
102
{ACAD_REACTORS
330
C
102
}
330
C
100
AcDbDictionary
281
     1
  0
DICTIONARY
  5
1A
102
{ACAD_REACTORS
330
C
102
}
330
C
100
AcDbDictionary
281
     1
  3
_Front
350
1E
  3
_Isometric
350
148
  3
_Left
350
26
  3
Model
350
22
  0
DICTIONARY
  5
17
102
{ACAD_REACTORS
330
C
102
}
330
C
100
AcDbDictionary
281
     1
  3
Standard
350
18
  0
DICTIONARY
  5
19
102
{ACAD_REACTORS
330
C
102
}
330
C
100
AcDbDictionary
281
     1
  0
ACDBDICTIONARYWDFLT
  5
E
102
{ACAD_REACTORS
330
C
102
}
330
C
100
AcDbDictionary
281
     1
  3
Normal
350
F
100
AcDbDictionaryWithDefault
340
F
  0
DICTIONARY
  5
47
102
{ACAD_REACTORS
330
C
102
}
330
C
100
AcDbDictionary
281
     1
  3
A0
350
48
  3
A1
350
49
  3
A2
350
4A
  3
A3
350
4B
  3
A4
350
4C
  3
A5
350
4D
  3
A6
350
4E
  3
A7
350
4F
  3
A8
350
50
  3
A9
350
51
  3
B0
350
52
  3
B1
350
53
  3
B2
350
54
  3
B3
350
55
  3
B4
350
56
  3
B5
350
57
  3
B6
350
58
  3
B7
350
59
  3
B8
350
5A
  3
B9
350
5B
  3
C0
350
5C
  3
C1
350
5D
  3
C2
350
5E
  3
C3
350
5F
  3
C4
350
60
  3
C5
350
61
  3
C6
350
62
  3
C7
350
63
  3
C8
350
64
  3
C9
350
65
  3
D0
350
66
  3
D1
350
67
  3
D2
350
68
  0
LAYOUT
  5
1E
102
{ACAD_REACTORS
330
1A
102
}
330
1A
100
AcDbPlotSettings
  1

  2
none_device
  4
ISO_A4_(210.00_x_297.00_MM)
  6

 40
7.5
 41
20.0
 42
7.5
 43
20.0
 44
210.0
 45
297.0
 46
0.0
 47
0.0
 48
0.0
 49
0.0
140
0.0
141
0.0
142
1.0
143
0.6303501946
 70
   688
 72
     1
 73
     1
 74
     1
  7

 75
     0
147
1.5864197531
148
-12.7000052063
149
-1.5875
100
AcDbLayout
  1
_Front
 70
     1
 71
     1
 10
0.0930013153
 20
-3.1401264591
 11
187.3070090974
 21
129.2334143969
 12
0.0
 22
0.0
 32
0.0
 14
12.7000052063
 24
1.5875
 34
0.0
 15
174.7000052063
 25
3.5875
 35
0.0
146
0.0
 13
0.0
 23
0.0
 33
0.0
 16
1.0
 26
0.0
 36
0.0
 17
0.0
 27
1.0
 37
0.0
 76
     0
330
1B
331
2A1
  0
LAYOUT
  5
148
102
{ACAD_REACTORS
330
1A
102
}
330
1A
100
AcDbPlotSettings
  1

  2
none_device
  4
ISO_A4_(210.00_x_297.00_MM)
  6

 40
7.5
 41
20.0
 42
7.5
 43
20.0
 44
210.0
 45
297.0
 46
0.0
 47
0.0
 48
0.0
 49
0.0
140
0.0
141
0.0
142
1.0
143
0.6303501946
 70
   688
 72
     1
 73
     1
 74
     1
  7

 75
     0
147
1.5864197531
148
-12.7000052063
149
-1.5875
100
AcDbLayout
  1
_Isometric
 70
     1
 71
     3
 10
0.0
 20
0.0
 11
0.0
 21
0.0
 12
0.0
 22
0.0
 32
0.0
 14
0.0
 24
0.0
 34
0.0
 15
0.0
 25
0.0
 35
0.0
146
0.0
 13
0.0
 23
0.0
 33
0.0
 16
1.0
 26
0.0
 36
0.0
 17
0.0
 27
1.0
 37
0.0
 76
     0
330
147
331
2A5
  0
LAYOUT
  5
26
102
{ACAD_REACTORS
330
1A
102
}
330
1A
100
AcDbPlotSettings
  1

  2
none_device
  4
ISO_A4_(210.00_x_297.00_MM)
  6

 40
7.5
 41
20.0
 42
7.5
 43
20.0
 44
210.0
 45
297.0
 46
0.0
 47
0.0
 48
0.0
 49
0.0
140
0.0
141
0.0
142
1.0
143
0.6303501946
 70
   688
 72
     1
 73
     1
 74
     1
  7

 75
     0
147
1.5864197531
148
-12.7000052063
149
-1.5875
100
AcDbLayout
  1
_Left
 70
     1
 71
     2
 10
0.0
 20
0.0
 11
0.0
 21
0.0
 12
0.0
 22
0.0
 32
0.0
 14
0.0
 24
0.0
 34
0.0
 15
0.0
 25
0.0
 35
0.0
146
0.0
 13
0.0
 23
0.0
 33
0.0
 16
1.0
 26
0.0
 36
0.0
 17
0.0
 27
1.0
 37
0.0
 76
     0
330
23
331
2A3
  0
LAYOUT
  5
22
102
{ACAD_REACTORS
330
1A
102
}
330
1A
100
AcDbPlotSettings
  1

  2
none_device
  4
ANSI_A_(11.00_x_8.50_Inches)
  6

 40
6.35
 41
19.05
 42
6.35000508
 43
19.05000254
 44
279.4
 45
215.9
 46
-0.1668879587
 47
-146.375277255
 48
0.0
 49
0.0
140
0.0
141
0.0
142
0.0561
143
1.0
 70
  1696
 72
     0
 73
     0
 74
     0
  7

 75
     0
147
0.0179189148
148
-1300.4909072572
149
0.0
100
AcDbLayout
  1
Model
 70
     1
 71
     0
 10
0.0
 20
0.0
 11
420.0
 21
297.0
 12
0.0
 22
0.0
 32
0.0
 14
12.7000052063
 24
90.112408933
 34
0.0
 15
174.7000052063
 25
240.112408933
 35
0.0
146
0.0
 13
0.0
 23
0.0
 33
0.0
 16
1.0
 26
0.0
 36
0.0
 17
0.0
 27
1.0
 37
0.0
 76
     0
330
1F
331
29
  0
MLINESTYLE
  5
18
102
{ACAD_REACTORS
330
17
102
}
330
17
100
AcDbMlineStyle
  2
Standard
 70
     0
  3

 62
   256
 51
90.0
 52
90.0
 71
     2
 49
0.5
 62
   256
  6
BYLAYER
 49
-0.5
 62
   256
  6
BYLAYER
  0
ACDBPLACEHOLDER
  5
F
102
{ACAD_REACTORS
330
E
102
}
330
E
  0
SCALE
  5
48
102
{ACAD_REACTORS
330
47
102
}
330
47
100
AcDbScale
 70
     0
300
1:1
140
1.0
141
1.0
290
     1
  0
SCALE
  5
49
102
{ACAD_REACTORS
330
47
102
}
330
47
100
AcDbScale
 70
     0
300
1:2
140
1.0
141
2.0
290
     0
  0
SCALE
  5
4A
102
{ACAD_REACTORS
330
47
102
}
330
47
100
AcDbScale
 70
     0
300
1:4
140
1.0
141
4.0
290
     0
  0
SCALE
  5
4B
102
{ACAD_REACTORS
330
47
102
}
330
47
100
AcDbScale
 70
     0
300
1:5
140
1.0
141
5.0
290
     0
  0
SCALE
  5
4C
102
{ACAD_REACTORS
330
47
102
}
330
47
100
AcDbScale
 70
     0
300
1:8
140
1.0
141
8.0
290
     0
  0
SCALE
  5
4D
102
{ACAD_REACTORS
330
47
102
}
330
47
100
AcDbScale
 70
     0
300
1:10
140
1.0
141
10.0
290
     0
  0
SCALE
  5
4E
102
{ACAD_REACTORS
330
47
102
}
330
47
100
AcDbScale
 70
     0
300
1:16
140
1.0
141
16.0
290
     0
  0
SCALE
  5
4F
102
{ACAD_REACTORS
330
47
102
}
330
47
100
AcDbScale
 70
     0
300
1:20
140
1.0
141
20.0
290
     0
  0
SCALE
  5
50
102
{ACAD_REACTORS
330
47
102
}
330
47
100
AcDbScale
 70
     0
300
1:30
140
1.0
141
30.0
290
     0
  0
SCALE
  5
51
102
{ACAD_REACTORS
330
47
102
}
330
47
100
AcDbScale
 70
     0
300
1:40
140
1.0
141
40.0
290
     0
  0
SCALE
  5
52
102
{ACAD_REACTORS
330
47
102
}
330
47
100
AcDbScale
 70
     0
300
1:50
140
1.0
141
50.0
290
     0
  0
SCALE
  5
53
102
{ACAD_REACTORS
330
47
102
}
330
47
100
AcDbScale
 70
     0
300
1:100
140
1.0
141
100.0
290
     0
  0
SCALE
  5
54
102
{ACAD_REACTORS
330
47
102
}
330
47
100
AcDbScale
 70
     0
300
2:1
140
2.0
141
1.0
290
     0
  0
SCALE
  5
55
102
{ACAD_REACTORS
330
47
102
}
330
47
100
AcDbScale
 70
     0
300
4:1
140
4.0
141
1.0
290
     0
  0
SCALE
  5
56
102
{ACAD_REACTORS
330
47
102
}
330
47
100
AcDbScale
 70
     0
300
8:1
140
8.0
141
1.0
290
     0
  0
SCALE
  5
57
102
{ACAD_REACTORS
330
47
102
}
330
47
100
AcDbScale
 70
     0
300
10:1
140
10.0
141
1.0
290
     0
  0
SCALE
  5
58
102
{ACAD_REACTORS
330
47
102
}
330
47
100
AcDbScale
 70
     0
300
100:1
140
100.0
141
1.0
290
     0
  0
SCALE
  5
59
102
{ACAD_REACTORS
330
47
102
}
330
47
100
AcDbScale
 70
     0
300
1/128" = 1'-0"
140
0.0078125
141
12.0
290
     0
  0
SCALE
  5
5A
102
{ACAD_REACTORS
330
47
102
}
330
47
100
AcDbScale
 70
     0
300
1/64" = 1'-0"
140
0.015625
141
12.0
290
     0
  0
SCALE
  5
5B
102
{ACAD_REACTORS
330
47
102
}
330
47
100
AcDbScale
 70
     0
300
1/32" = 1'-0"
140
0.03125
141
12.0
290
     0
  0
SCALE
  5
5C
102
{ACAD_REACTORS
330
47
102
}
330
47
100
AcDbScale
 70
     0
300
1/16" = 1'-0"
140
0.0625
141
12.0
290
     0
  0
SCALE
  5
5D
102
{ACAD_REACTORS
330
47
102
}
330
47
100
AcDbScale
 70
     0
300
3/32" = 1'-0"
140
0.09375
141
12.0
290
     0
  0
SCALE
  5
5E
102
{ACAD_REACTORS
330
47
102
}
330
47
100
AcDbScale
 70
     0
300
1/8" = 1'-0"
140
0.125
141
12.0
290
     0
  0
SCALE
  5
5F
102
{ACAD_REACTORS
330
47
102
}
330
47
100
AcDbScale
 70
     0
300
3/16" = 1'-0"
140
0.1875
141
12.0
290
     0
  0
SCALE
  5
60
102
{ACAD_REACTORS
330
47
102
}
330
47
100
AcDbScale
 70
     0
300
1/4" = 1'-0"
140
0.25
141
12.0
290
     0
  0
SCALE
  5
61
102
{ACAD_REACTORS
330
47
102
}
330
47
100
AcDbScale
 70
     0
300
3/8" = 1'-0"
140
0.375
141
12.0
290
     0
  0
SCALE
  5
62
102
{ACAD_REACTORS
330
47
102
}
330
47
100
AcDbScale
 70
     0
300
1/2" = 1'-0"
140
0.5
141
12.0
290
     0
  0
SCALE
  5
63
102
{ACAD_REACTORS
330
47
102
}
330
47
100
AcDbScale
 70
     0
300
3/4" = 1'-0"
140
0.75
141
12.0
290
     0
  0
SCALE
  5
64
102
{ACAD_REACTORS
330
47
102
}
330
47
100
AcDbScale
 70
     0
300
1" = 1'-0"
140
1.0
141
12.0
290
     0
  0
SCALE
  5
65
102
{ACAD_REACTORS
330
47
102
}
330
47
100
AcDbScale
 70
     0
300
1-1/2" = 1'-0"
140
1.5
141
12.0
290
     0
  0
SCALE
  5
66
102
{ACAD_REACTORS
330
47
102
}
330
47
100
AcDbScale
 70
     0
300
3" = 1'-0"
140
3.0
141
12.0
290
     0
  0
SCALE
  5
67
102
{ACAD_REACTORS
330
47
102
}
330
47
100
AcDbScale
 70
     0
300
6" = 1'-0"
140
6.0
141
12.0
290
     0
  0
SCALE
  5
68
102
{ACAD_REACTORS
330
47
102
}
330
47
100
AcDbScale
 70
     0
300
1'-0" = 1'-0"
140
12.0
141
12.0
290
     0
  0
ENDSEC
  0
EOF
